<svg id="SvgjsSvg1001" width="288" height="288" xmlns="http://www.w3.org/2000/svg" version="1.1" xmlns:xlink="http://www.w3.org/1999/xlink" xmlns:svgjs="http://svgjs.com/svgjs"><defs id="SvgjsDefs1002"></defs><g id="SvgjsG1008" transform="matrix(1,0,0,1,0,0)"><svg xmlns="http://www.w3.org/2000/svg" width="288" height="288" fill="none" viewBox="0 0 101 101"><path fill="#ffffff" fill-opacity=".25" d="M23.6056 38.3806C23.6056 39.3354 22.4307 39.8084 21.7385 39.1391L18.5053 35.8818H15.9552C15.3541 35.8818 14.8623 35.3999 14.8623 34.8109V29.8133C14.8623 29.2243 15.3541 28.7424 15.9552 28.7424H18.5053L21.7385 25.4851C22.4307 24.8068 23.6056 25.2887 23.6056 26.2436V38.3806zM26.6293 34.1326C27.4581 33.3027 27.4581 31.9819 26.6293 31.1519 24.6166 29.1172 27.7405 26.1365 29.7624 28.1623 32.2396 30.6522 32.2396 34.6235 29.7624 37.1222 27.7769 39.1123 24.5801 36.1941 26.6293 34.1326zM34.4619 23.6824C39.4164 28.671 39.4164 36.6046 34.4619 41.6022 32.4764 43.6012 29.2705 40.683 31.3289 38.6126 34.6258 35.2928 34.6349 30.0007 31.3289 26.672 29.3161 24.6372 32.4491 21.6476 34.4619 23.6824zM67.3111 57.1091C69.8851 57.1091 71.9718 59.1968 71.9718 61.7722 71.9718 64.3476 69.8851 66.4353 67.3111 66.4353 64.737 66.4353 62.6504 64.3476 62.6504 61.7722 62.6504 59.1968 64.7371 57.1091 67.3111 57.1091zM87.5074 80.4246H62.6504L62.6975 75.7144 66.5343 71.8756C66.9893 71.4204 67.68 71.4675 68.135 71.9227L71.9718 75.7615 82.0228 65.7053C82.4778 65.25 83.2156 65.25 83.6707 65.7053L87.5074 69.5441V80.4246zM21.1454 80.0348H34.7625C34.85 80.0348 34.9366 80.0175 35.0174 79.9837 35.0983 79.95 35.1717 79.9005 35.2336 79.8381 35.2954 79.7757 35.3445 79.7016 35.3779 79.62 35.4114 79.5385 35.4285 79.4511 35.4285 79.3628V77.3548C35.4285 77.2665 35.4114 77.1791 35.3779 77.0976 35.3445 77.016 35.2954 76.9419 35.2336 76.8795 35.1717 76.8171 35.0983 76.7676 35.0174 76.7338 34.9366 76.7001 34.85 76.6828 34.7625 76.6828H21.1454C21.058 76.6828 20.9713 76.7001 20.8905 76.7338 20.8097 76.7676 20.7362 76.8171 20.6744 76.8795 20.6125 76.9419 20.5635 77.016 20.53 77.0976 20.4966 77.1791 20.4794 77.2665 20.4795 77.3548V79.3628C20.4794 79.4511 20.4966 79.5385 20.53 79.62 20.5635 79.7016 20.6125 79.7757 20.6744 79.8381 20.7362 79.9005 20.8097 79.95 20.8905 79.9837 20.9713 80.0175 21.058 80.0348 21.1454 80.0348zM21.1454 66.6271H34.7625C34.85 66.6271 34.9366 66.6098 35.0174 66.5761 35.0983 66.5423 35.1717 66.4928 35.2336 66.4304 35.2954 66.368 35.3445 66.2939 35.3779 66.2123 35.4114 66.1308 35.4285 66.0434 35.4285 65.9551V63.9471C35.4285 63.8588 35.4114 63.7714 35.3779 63.6899 35.3445 63.6083 35.2954 63.5342 35.2336 63.4718 35.1717 63.4094 35.0983 63.3599 35.0174 63.3262 34.9366 63.2924 34.85 63.2751 34.7625 63.2751H21.1454C21.058 63.2751 20.9713 63.2924 20.8905 63.3262 20.8097 63.3599 20.7362 63.4094 20.6744 63.4718 20.6125 63.5342 20.5635 63.6083 20.53 63.6899 20.4966 63.7714 20.4794 63.8588 20.4795 63.9471V65.9551C20.4794 66.0434 20.4966 66.1308 20.53 66.2123 20.5635 66.2939 20.6125 66.368 20.6744 66.4304 20.7362 66.4928 20.8097 66.5423 20.8905 66.5761 20.9713 66.6098 21.058 66.6271 21.1454 66.6271zM42.9029 69.979H21.31C21.0897 69.979 20.8785 70.0673 20.7227 70.2244 20.567 70.3816 20.4795 70.5947 20.4795 70.817V72.4929C20.4795 72.7152 20.567 72.9283 20.7227 73.0855 20.8785 73.2426 21.0897 73.3309 21.31 73.3309H42.9029C43.1232 73.3309 43.3344 73.2426 43.4902 73.0855 43.6459 72.9283 43.7334 72.7152 43.7334 72.4929V70.817C43.7334 70.5947 43.6459 70.3816 43.4902 70.2244 43.3344 70.0673 43.1232 69.979 42.9029 69.979zM42.9029 83.3867H21.31C21.0897 83.3867 20.8785 83.475 20.7227 83.6321 20.567 83.7893 20.4795 84.0024 20.4795 84.2247V85.9006C20.4795 86.1229 20.567 86.336 20.7227 86.4932 20.8785 86.6503 21.0897 86.7386 21.31 86.7386H42.9029C43.1232 86.7386 43.3344 86.6503 43.4902 86.4932 43.6459 86.336 43.7334 86.1229 43.7334 85.9006V84.2247C43.7334 84.0024 43.6459 83.7893 43.4902 83.6321 43.3344 83.475 43.1232 83.3867 42.9029 83.3867z" class="color000 svgShape"></path><circle cx="51.377" cy="50.461" r="6.648" fill="#ffffff" fill-opacity=".25" class="color000 svgShape"></circle><path fill="#ffffff" fill-opacity=".25" fill-rule="evenodd" d="M51.0891 0.645996C50.5768 0.645996 50.0855 0.849505 49.7232 1.21175C49.361 1.574 49.1575 2.06532 49.1575 2.57762V7.70814C49.1575 8.77495 50.0223 9.63976 51.0891 9.63976C52.1559 9.63976 53.0207 8.77495 53.0207 7.70814V4.50924L85.9613 4.50924V48.4331L62.4383 48.4331C61.3715 48.4331 60.5067 49.2979 60.5067 50.3647C60.5067 51.4315 61.3715 52.2963 62.4383 52.2963L87.8929 52.2963C88.9597 52.2963 89.8245 51.4315 89.8245 50.3647L89.8245 2.57762C89.8245 2.06533 89.621 1.57401 89.2587 1.21176C88.8965 0.849509 88.4052 0.645999 87.8929 0.645999L51.0891 0.645996ZM2.53124 12.4001C2.01894 12.4001 1.52762 12.6036 1.16537 12.9658L1.50843 13.3089L1.16537 12.9658C0.803124 13.3281 0.599614 13.8194 0.599614 14.3317L0.599609 51.1355C0.599609 51.6478 0.80312 52.1391 1.16537 52.5013C1.52762 52.8636 2.01893 53.0671 2.53123 53.0671H7.68244C8.74925 53.0671 9.61406 52.2023 9.61406 51.1355C9.61406 50.0687 8.74925 49.2039 7.68244 49.2039H4.46285L4.46286 16.2633L48.5794 16.2633L48.5794 39.7863C48.5794 40.8531 49.4442 41.7179 50.511 41.7179C51.5778 41.7179 52.4426 40.8531 52.4426 39.7863L52.4427 14.3317C52.4427 13.8194 52.2392 13.3281 51.8769 12.9658C51.5147 12.6036 51.0233 12.4001 50.511 12.4001L2.53124 12.4001ZM93.9177 48.4331C92.8509 48.4331 91.9861 49.2979 91.9861 50.3647C91.9861 51.4315 92.8509 52.2963 93.9177 52.2963H97.1373V85.2369H53.0207L53.0207 61.7139C53.0207 60.6471 52.1559 59.7823 51.0891 59.7823C50.0223 59.7823 49.1575 60.6471 49.1575 61.7139L49.1575 87.1685C49.1575 87.6808 49.361 88.1721 49.7232 88.5344C50.0855 88.8966 50.5768 89.1001 51.0891 89.1001H99.0689C100.136 89.1001 101.001 88.2353 101.001 87.1685V50.3647C101.001 49.8524 100.797 49.3611 100.435 48.9989C100.073 48.6366 99.5812 48.4331 99.0689 48.4331H93.9177ZM13.7073 49.2039C13.195 49.2039 12.7036 49.4074 12.3414 49.7696C11.9791 50.1319 11.7756 50.6232 11.7756 51.1355L11.7756 98.9226C11.7756 99.9894 12.6404 100.854 13.7073 100.854L50.511 100.854C51.0233 100.854 51.5146 100.651 51.8769 100.288C52.2391 99.9262 52.4426 99.4349 52.4426 98.9226V93.7921C52.4426 92.7253 51.5778 91.8604 50.511 91.8604C49.4442 91.8604 48.5794 92.7253 48.5794 93.7921V96.991L15.6389 96.991L15.6389 53.0671H39.1618C40.2287 53.0671 41.0935 52.2023 41.0935 51.1355C41.0935 50.0687 40.2287 49.2039 39.1618 49.2039L13.7073 49.2039Z" clip-rule="evenodd" class="color000 svgShape"></path><path fill="#ffffff" fill-opacity=".25" d="M76.9907 24.8343L63.8186 17.0811C62.7484 16.4515 61.1094 17.0625 61.1094 18.6198V34.1224C61.1094 35.5196 62.6324 36.3616 63.8186 35.6611L76.9907 27.9117C78.1657 27.2225 78.1695 25.5235 76.9907 24.8343Z" class="color000 svgShape"></path></svg></g></svg>