<svg xmlns:dc="http://purl.org/dc/elements/1.1/" xmlns:cc="http://creativecommons.org/ns#" xmlns:rdf="http://www.w3.org/1999/02/22-rdf-syntax-ns#" xmlns:svg="http://www.w3.org/2000/svg" xmlns="http://www.w3.org/2000/svg" xmlns:sodipodi="http://sodipodi.sourceforge.net/DTD/sodipodi-0.dtd" xmlns:inkscape="http://www.inkscape.org/namespaces/inkscape" sodipodi:docname="buscador.svg" inkscape:version="1.0 (1.0+r73+1)" width="32.0" height="32.0" version="1.1" style=""><rect id="backgroundrect" width="100%" height="100%" x="0" y="0" fill="none" stroke="none"/>
  <defs id="defs1800"/>
  <sodipodi:namedview inkscape:window-maximized="0" inkscape:window-y="27" inkscape:window-x="67" inkscape:window-height="1023" inkscape:window-width="1795" showgrid="true" inkscape:document-rotation="0" inkscape:current-layer="layer1" inkscape:document-units="px" inkscape:cy="16.05788" inkscape:cx="14.784073" inkscape:zoom="15.978418" inkscape:pageshadow="2" inkscape:pageopacity="0.0" borderopacity="1.0" bordercolor="#666666" pagecolor="#ffffff" id="base">
    <inkscape:grid type="xygrid" id="grid1809"/>
  </sodipodi:namedview>
  <metadata id="metadata1803">
    <rdf:RDF>
      <cc:Work rdf:about="">
        <dc:format>image/svg+xml</dc:format>
        <dc:type rdf:resource="http://purl.org/dc/dcmitype/StillImage"/>
        <dc:title/>
      </cc:Work>
    </rdf:RDF>
  </metadata>
  
<g class="currentLayer" style=""><title>Layer 1</title><g id="layer1" inkscape:groupmode="layer" inkscape:label="Layer 1" class="selected" fill="#ffffff" fill-opacity="1">
    <g style="" id="g1944" fill="#ffffff" fill-opacity="1">
      <g style="" id="g1446" stroke-width="0" fill="#ffffff" fill-opacity="1">
        <path id="path1448" style="fill-rule: nonzero; stroke: none;" d="M27.068000184296203,19.62086937473924 C27.056227630510516,19.62086937473924 27.04417477782517,19.620308776939922 27.032402224039487,19.619467880240943 C26.81096609330872,19.60012725616446 26.647551834807413,19.405039222001662 26.666612159984236,19.183603091270896 l1.0623328297083454,-12.141987735436967 c0.018780026277166004,-0.2127468648413283 -0.05045380193865493,-0.4165241648935623 -0.1945274363634807,-0.5737718476023702 c-0.14435393332448493,-0.15752798160846707 -0.34112376088523916,-0.24414034160315803 -0.554711522425545,-0.24414034160315803 h-7.848649489357093 c-0.35485840696853965,0 -0.6957018689541197,-0.1499599113176688 -0.9353574281627305,-0.41147878469969684 c-0.23937526030895173,-0.26151887338202806 -0.3590628904634276,-0.6138545902536349 -0.3282300115009162,-0.9670312038242195 l0.04596901954410783,-0.5224771489647377 c0.011492254886026957,-0.13117988504050282 -0.031113177862170542,-0.25675379208782173 -0.11996792905413506,-0.3537372113699029 c-0.08885475119196452,-0.09698341928208115 -0.21022417474439556,-0.150240210217328 -0.3419646575842167,-0.150240210217328 h-8.02663929064068 c-0.24217824930554366,0 -0.44062987026425304,0.18163368697915777 -0.4613719888390334,0.42297103958572374 l-0.07231711611207206,0.8246393627973488 c-0.05802187222945317,0.6598236097977428 -0.600960840869312,1.157354156692812 -1.2633071407639873,1.157354156692812 h-0.12108912465277183 c-0.3929790573221901,0 -0.715042493030604,0.2951547413411313 -0.7492389587890257,0.6867323041650254 l-0.059143067828089944,0.6783233371752495 c-0.019620922976143585,0.2214361307307633 -0.21554985383792025,0.384289791432755 -0.4361450878697059,0.3657900640552482 c-0.2211558318311041,-0.019340624076484392 -0.3848503892320734,-0.21442865823928348 -0.36550976515558903,-0.43586478897004677 l0.059143067828089944,-0.6783233371752495 c0.07091562161377608,-0.8103441189147299 0.7377467039029987,-1.4211154212721138 1.5508938118143207,-1.4211154212721138 h0.12108912465277183 c0.24217824930554366,0 0.44034957136459385,-0.18191398587881696 0.4613719888390334,-0.423251338485383 l0.07231711611207206,-0.8243590638976895 c0.05746127443013478,-0.6598236097977428 0.6006805419696527,-1.1576344555924714 1.2633071407639873,-1.1576344555924714 h8.02663929064068 c0.35457810806888046,0 0.6954215700544604,0.150240210217328 0.9353574281627305,0.41147878469969684 c0.23937526030895173,0.26151887338202806 0.3590628904634276,0.6141348891532941 0.3282300115009162,0.9673115027238786 l-0.04596901954410783,0.5224771489647377 c-0.011492254886026957,0.13089958614084363 0.031113177862170542,0.25647349318816254 0.11996792905413506,0.3534569124702437 c0.08885475119196452,0.09698341928208115 0.21022417474439556,0.1505205091169872 0.3419646575842167,0.1505205091169872 h7.848649489357093 c0.4353041911707283,0 0.8535101494622458,0.1838760781764313 1.1478239941043995,0.5050986171858677 c0.2940335457424945,0.3209422401097772 0.44119046806357143,0.7537237411835728 0.40306981770992106,1.1873461389563458 L27.46826701300953,19.253677816185697 C27.449767285632024,19.46306109423111 27.27430017444537,19.62086937473924 27.068000184296203,19.62086937473924 " stroke-width="0" fill="#ffffff" fill-opacity="1"/>
      </g>
      <g style="" id="g1450" stroke-width="0" fill="#ffffff" fill-opacity="1">
        <path id="path1452" style="fill-rule: nonzero; stroke: none;" d="M25.8847113423302,13.96892081921804 C25.872938788544513,13.96892081921804 25.860885935859166,13.968360221418722 25.849113382073483,13.967239025820085 C25.627677251342718,13.94817870064326 25.46426299284141,13.752810367580802 25.483323318018233,13.531654535749697 l0.4753869338219931,-5.4319123764955215 h-16.158951266452878 l-0.1269754015456149,1.4522285991342843 c-0.019620922976143585,0.2211558318311041 -0.21807254393485295,0.3848503892320734 -0.43586478897004677,0.36550976515558903 c-0.2214361307307633,-0.019340624076484392 -0.3851306881317326,-0.21442865823928348 -0.3657900640552482,-0.43586478897004677 l0.15920977500642222,-1.8191398587881693 c0.018219428477847615,-0.2077014846474628 0.19228504516620715,-0.3671915585535442 0.4008274265126475,-0.3671915585535442 H26.397658328706523 c0.1129604565626552,0 0.22031493513212652,0.0473705140424038 0.2965562358394273,0.1303389883415252 C26.770455865253254,7.508872078772595 26.808296216707244,7.620150741937295 26.798485755219172,7.732550600700632 L26.284978171043527,13.601729260664495 C26.26647844366602,13.811112538709914 26.091011332479365,13.96892081921804 25.8847113423302,13.96892081921804 " stroke-width="0" fill="#ffffff" fill-opacity="1"/>
      </g>
      <g style="" id="g1454" stroke-width="0" fill="#ffffff" fill-opacity="1">
        <path id="path1456" style="fill-rule: nonzero; stroke: none;" d="m15.91630201598692,21.78040357051464 c2.125226257216009,2.1255065561156683 5.582713184512167,2.12494595831635 7.7076591428285175,0 c1.0292575595485605,-1.0292575595485605 1.59630223355911,-2.397957086584405 1.59630223355911,-3.8538295714142587 c0,-1.4558724848298537 -0.5670446740105496,-2.824291712966039 -1.59630223355911,-3.8538295714142587 C21.499015200499088,11.948078768269431 18.04152827320293,11.947518170470113 15.91630201598692,14.072744427686121 C13.79135605767057,16.19769038600247 13.79135605767057,19.65545761219829 15.91630201598692,21.78040357051464 zm3.8538295714142587,2.397957086584405 c-1.6019082115522938,0 -3.2032558253052694,-0.6093698078590878 -4.422556038822764,-1.8289503202762412 v0 c-2.438600427034988,-2.438880725934647 -2.438600427034988,-6.406791949510198 0,-8.845392376545185 c2.4383201281353286,-2.438600427034988 6.406231351710879,-2.438880725934647 8.845112077645528,-0.00028029889965919404 c1.1811795631638438,1.1814598620635028 1.832033608172492,2.752254895753626 1.832033608172492,4.422836337722423 c0,1.6705814419687963 -0.6508540450086485,3.2413764756589196 -1.832033608172492,4.422836337722423 c-1.219300213517494,1.2190199146178349 -2.8209281261701284,1.8289503202762412 -4.422556038822764,1.8289503202762412 " stroke-width="0" fill="#ffffff" fill-opacity="1"/>
      </g>
      <g style="" id="g1458" stroke-width="0" fill="#ffffff" fill-opacity="1">
        <path id="path1460" style="fill-rule: nonzero; stroke: none;" d="m17.005158156296922,20.69144231811464 c1.5245457152463564,1.5245457152463564 4.005190977230224,1.5245457152463564 5.530016991376239,0 c1.524265416346697,-1.5245457152463564 1.524265416346697,-4.005190977230224 0,-5.52973669247658 C21.010068834627486,13.637440209291363 18.529984170442937,13.637440209291363 17.005158156296922,15.16170562563806 C15.480892739950225,16.686251340884414 15.480892739950225,19.16689660286828 17.005158156296922,20.69144231811464 zm2.7651486451379492,1.9475167548320802 c-1.2072473608321488,0 -2.4147750205639564,-0.45940989654141906 -3.333875112546454,-1.3785099885239163 v-0.00028029889965919404 c-1.8382001839649944,-1.8379198850653353 -1.8382001839649944,-4.828989443328595 0,-6.667189627293589 c1.8382001839649944,-1.8382001839649944 4.829269742228254,-1.8379198850653353 6.667469926193248,-0.00028029889965919404 c1.8379198850653353,1.8384804828646537 1.8379198850653353,4.829550041127913 0,6.667469926193248 c-0.9191000919824972,0.9191000919824972 -2.1263474528146458,1.3787902874235756 -3.3335948136467946,1.3787902874235756 " stroke-width="0" fill="#ffffff" fill-opacity="1"/>
      </g>
      <g style="" id="g1462" stroke-width="0" fill="#ffffff" fill-opacity="1">
        <path id="path1464" style="fill-rule: nonzero; stroke: none;" d="m25.160846423336203,24.9718866415224 c-0.10679388077015294,0 -0.20910297914575876,-0.0423251338485383 -0.2845033831540819,-0.1177255378568615 l-1.8785632255159184,-1.8785632255159184 c-0.15724768270880787,-0.15724768270880787 -0.15724768270880787,-0.4120393824990152 0,-0.5690067663081638 c0.15696738380914868,-0.15724768270880787 0.41175908359935603,-0.15696738380914868 0.5687264674085046,0 l0.034196465758421675,0.1956486319621175 l0.6833687173691151,-0.6836490162687743 l-0.03391616685876248,-0.1953683330624583 c-0.15724768270880787,-0.15696738380914868 -0.15724768270880787,-0.41175908359935603 0,-0.5690067663081638 c0.15724768270880787,-0.15696738380914868 0.41175908359935603,-0.15696738380914868 0.5690067663081638,0 L26.697444991267904,23.032778853680096 c0.15724768270880787,0.15696738380914868 0.15724768270880787,0.41175908359935603 0,0.5687264674085046 L25.445069507590624,24.854161103665536 C25.369669103582304,24.92956150767386 25.267640304106354,24.9718866415224 25.160846423336203,24.9718866415224 " stroke-width="0" fill="#ffffff" fill-opacity="1"/>
      </g>
      <g style="" id="g1466" stroke-width="0" fill="#ffffff" fill-opacity="1">
        <path id="path1468" style="fill-rule: nonzero; stroke: none;" d="m28.5368155075382,29.1101916696584 c-0.10679388077015294,0 -0.20882268024609957,-0.0423251338485383 -0.2842230842544227,-0.1177255378568615 l-3.7574067499314956,-3.7571264510318367 c-0.15724768270880787,-0.15724768270880787 -0.15724768270880787,-0.41175908359935603 0,-0.5690067663081638 l2.0147884907502864,-2.0147884907502864 c0.1508008080166464,-0.15108110691630558 0.41792565939185833,-0.1508008080166464 0.5687264674085046,0 L30.83582708254291,26.408670874743088 c0.15724768270880787,0.15724768270880787 0.15724768270880787,0.4120393824990152 0,0.5690067663081638 L28.821318890692282,28.992466131801535 C28.74591848668396,29.06786653580986 28.643609388308352,29.1101916696584 28.5368155075382,29.1101916696584 " stroke-width="0" fill="#ffffff" fill-opacity="1"/>
      </g>
      <g style="" id="g1470" stroke-width="0" fill="#ffffff" fill-opacity="1">
        <path id="path1472" style="fill-rule: nonzero; stroke: none;" d="m26.9424753264182,26.9504598631538 c-0.07848369190457434,0.07848369190457434 -0.18135338807949858,0.1177255378568615 -0.2842230842544227,0.1177255378568615 c-0.10314999507458342,0 -0.20601969124950764,-0.03924184595228717 -0.2845033831540819,-0.1177255378568615 c-0.15724768270880787,-0.15724768270880787 -0.15724768270880787,-0.41175908359935603 0,-0.5690067663081638 " stroke-width="0" fill="#ffffff" fill-opacity="1"/>
      </g>
      <g style="" id="g1474" stroke-width="0" fill="#ffffff" fill-opacity="1">
        <path id="path1476" style="fill-rule: nonzero; stroke: none;" d="m28.306746164946198,24.4484284333224 c0.15696738380914868,-0.15696738380914868 0.41175908359935603,-0.15696738380914868 0.5687264674085046,0 c0.15724768270880787,0.15724768270880787 0.15724768270880787,0.41175908359935603 0,0.5690067663081638 " stroke-width="0" fill="#ffffff" fill-opacity="1"/>
      </g>
      <g style="" id="g1478" stroke-width="0" fill="#ffffff" fill-opacity="1">
        <path id="path1480" style="fill-rule: nonzero; stroke: none;" d="m26.0441033156062,26.0520184783624 c-0.07848369190457434,0.07848369190457434 -0.18135338807949858,0.1177255378568615 -0.2845033831540819,0.1177255378568615 c-0.10286969617492422,0 -0.20573939234984845,-0.03924184595228717 -0.2842230842544227,-0.1177255378568615 c-0.15724768270880787,-0.15724768270880787 -0.15724768270880787,-0.41175908359935603 0,-0.5690067663081638 " stroke-width="0" fill="#ffffff" fill-opacity="1"/>
      </g>
      <g style="" id="g1482" stroke-width="0" fill="#ffffff" fill-opacity="1">
        <path id="path1484" style="fill-rule: nonzero; stroke: none;" d="m27.408311086880204,23.549986628082642 c0.15696738380914868,-0.15696738380914868 0.41175908359935603,-0.15696738380914868 0.5687264674085046,0 c0.15724768270880787,0.15724768270880787 0.15724768270880787,0.41175908359935603 0,0.5690067663081638 " stroke-width="0" fill="#ffffff" fill-opacity="1"/>
      </g>
      <g style="" id="g1486" stroke-width="0" fill="#ffffff" fill-opacity="1">
        <path id="path1488" style="fill-rule: nonzero; stroke: none;" d="m9.00791501282692,8.11835456067464 l-0.26936724257248545,1.9592893086177663 l0.07764279520559675,0.28926846444828824 c0.054097687634224456,0.2023758055539381 0.23825406471031493,0.3436464509821719 0.44763734275573286,0.3436464509821719 h13.65055641340275 c0.7029896403452586,0 1.3213290129934407,0.4745460371230155 1.5032429988722578,1.1539905698969017 l0.2808594974585124,1.0477572869260672 c0.057741573329793974,0.21442865823928348 -0.06979442601513931,0.43502389227106913 -0.2842230842544227,0.49248516670120396 c-0.21470895713894267,0.057741573329793974 -0.4353041911707283,-0.06979442601513931 -0.4927654656008631,-0.2845033831540819 l-0.2808594974585124,-1.0477572869260672 c-0.08801385449298695,-0.3282300115009162 0.6800051305732048,2.050106152107345 0.3400025652866024,2.050106152107345 l1.2008004861399872,1.9887206930819816 l0.7506404532873215,0.9381604171593224 l0.8664038988465688,-9.31685512577195 z" stroke-width="0" fill="#ffffff" fill-opacity="1"/>
      </g>
      <g style="" id="g1490" stroke-width="0" fill="#ffffff" fill-opacity="1">
        <path id="path1492" style="fill-rule: nonzero; stroke: none;" d="m14.115584736338501,22.14588461417004 h-8.593123366851911 c-0.5729309509033926,0 -1.0766280735909644,-0.38653218263002853 -1.2251864904103371,-0.9398422105572776 l-3.06731085897056,-11.44852825768012 c-0.10286969617492422,-0.3837291936334366 -0.02326480867171311,-0.7848369190457433 0.21835284283451215,-1.1001731811623365 c0.24189795040588447,-0.31533626211659327 0.6088092100597695,-0.4961290523967734 1.0062730497765064,-0.4961290523967734 h4.575879536936342 c0.7032699392449178,0 1.3216093118930998,0.4742657382233563 1.5035232977719166,1.1537102709972424 l0.2819806930571492,1.0519617704209552 c0.054097687634224456,0.2023758055539381 0.23853436360997413,0.3436464509821719 0.44791764165539205,0.3436464509821719 H22.9141671966406 c0.7032699392449178,0 1.3216093118930998,0.4745460371230155 1.5035232977719166,1.1539905698969017 l0.2808594974585124,1.0477572869260672 c0.057741573329793974,0.21442865823928348 -0.06979442601513931,0.43502389227106913 -0.2845033831540819,0.49248516670120396 c-0.21442865823928348,0.057741573329793974 -0.43502389227106913,-0.06979442601513931 -0.49248516670120396,-0.2842230842544227 l-0.2808594974585124,-1.0480375858257265 c-0.08801385449298695,-0.3282300115009162 -0.38653218263002853,-0.5575145114221369 -0.726534747916631,-0.5575145114221369 h-13.65027611450309 c-0.5729309509033926,0 -1.0769083724906234,-0.38653218263002853 -1.2249061915106778,-0.9398422105572776 l-0.2819806930571492,-1.0519617704209552 c-0.08801385449298695,-0.3282300115009162 -0.38653218263002853,-0.5575145114221369 -0.726534747916631,-0.5575145114221369 h-4.575879536936342 c-0.1451948300234625,0 -0.27917770406055725,0.0661505403195698 -0.36775215635286257,0.18135338807949858 c-0.08857445229230533,0.11520284775992876 -0.1177255378568615,0.26179917228168725 -0.0798851864028703,0.4019486221112843 L5.074263428931539,20.99778032116598 c0.05437798653388365,0.20209550665427892 0.23853436360997413,0.3436464509821719 0.4481979405550513,0.3436464509821719 H14.115584736338501 C14.337861763768242,21.341426772148154 14.517813657349445,21.521378665729355 14.517813657349445,21.743655693159095 C14.517813657349445,21.965652421689178 14.337861763768242,22.14588461417004 14.115584736338501,22.14588461417004 " stroke-width="0" fill="#ffffff" fill-opacity="1"/>
      </g>
    </g>
  </g></g></svg>