<svg width="41" height="41" viewBox="0 0 41 41" fill="none" xmlns="http://www.w3.org/2000/svg">
<path d="M20.5041 0.75C21.728 0.75 23.0629 1.72932 24.2959 3.88633C25.407 5.83013 26.3294 8.56123 26.9299 11.8145H14.0783C14.6789 8.56123 15.6013 5.83013 16.7124 3.88633C17.9453 1.72932 19.2802 0.75 20.5041 0.75ZM27.4787 25.0403H13.5213C13.3904 23.5778 13.317 22.0662 13.317 20.5C13.317 18.9338 13.3904 17.4222 13.5213 15.9597H27.4787C27.6096 17.4222 27.683 18.9338 27.683 20.5C27.683 22.0662 27.6096 23.5778 27.4787 25.0403ZM28.1117 2.28125C32.5369 4.12692 36.1426 7.53445 38.2467 11.8145H31.1218C30.5155 8.22358 29.5154 4.90004 28.1117 2.28125ZM2.7602 11.8145C4.85845 7.5359 8.46726 4.1286 12.8877 2.28245C11.4846 4.90093 10.486 8.22386 9.88541 11.8145H2.7602ZM31.637 25.0403C31.7651 23.5455 31.8369 22.0237 31.8369 20.5C31.8369 18.9763 31.7651 17.4545 31.637 15.9597H39.7114C40.0563 17.4244 40.25 18.9355 40.25 20.5C40.25 22.0654 40.0561 23.5765 39.7057 25.0403H31.637ZM1.29654 15.9597H9.37131C9.24315 17.4545 9.17136 18.9763 9.17136 20.5C9.17136 22.0244 9.24323 23.5464 9.36633 25.0403H1.29654C0.94975 23.5738 0.75 22.0628 0.75 20.5C0.75 18.9372 0.94975 17.4262 1.29654 15.9597ZM20.5041 40.25C19.2802 40.25 17.9453 39.2707 16.7124 37.1137C15.6013 35.1699 14.6789 32.4388 14.0783 29.1855H26.9299C26.3294 32.4388 25.407 35.1699 24.2959 37.1137C23.0629 39.2707 21.728 40.25 20.5041 40.25ZM31.1301 29.1855H38.2548C36.1506 33.4643 32.5409 36.8715 28.1206 38.7175C29.524 36.0989 30.5238 32.7759 31.1301 29.1855ZM9.88647 29.1855C10.4928 32.7764 11.4928 36.1 12.8966 38.7188C8.47138 36.8731 4.86567 33.4655 2.76162 29.1855H9.88647Z" stroke="#023A1D" stroke-width="1.5" stroke-linecap="round"/>
</svg>
