<?xml version="1.0" encoding="UTF-8" standalone="no"?>
<svg
   xmlns:dc="http://purl.org/dc/elements/1.1/"
   xmlns:cc="http://creativecommons.org/ns#"
   xmlns:rdf="http://www.w3.org/1999/02/22-rdf-syntax-ns#"
   xmlns:svg="http://www.w3.org/2000/svg"
   xmlns="http://www.w3.org/2000/svg"
   xmlns:sodipodi="http://sodipodi.sourceforge.net/DTD/sodipodi-0.dtd"
   xmlns:inkscape="http://www.inkscape.org/namespaces/inkscape"
   inkscape:version="1.0 (1.0+r73+1)"
   inkscape:export-ydpi="96"
   inkscape:export-xdpi="96"
   inkscape:export-filename="/home/gabriela/bitmap.svg.png"
   width="31.601961"
   height="27.008879"
   viewBox="0 0 31.601961 27.008879"
   version="1.1"
   id="SVGRoot"
   sodipodi:docname="medicina_numeros.svg">
  <defs
     id="defs3562">
    <clipPath
       clipPathUnits="userSpaceOnUse"
       id="clipPath608">
      <path
         d="m 741.293,867.44 h 72.424 v -61.37 h -72.424 z"
         id="path606" />
    </clipPath>
  </defs>
  <sodipodi:namedview
     fit-margin-bottom="0"
     fit-margin-right="0"
     fit-margin-left="0"
     fit-margin-top="0"
     inkscape:window-maximized="1"
     inkscape:window-y="180"
     inkscape:window-x="0"
     inkscape:window-height="872"
     inkscape:window-width="1600"
     showgrid="true"
     inkscape:document-rotation="0"
     inkscape:current-layer="layer1"
     inkscape:document-units="px"
     inkscape:cy="10.447133"
     inkscape:cx="22.584616"
     inkscape:zoom="22.4"
     inkscape:pageshadow="2"
     inkscape:pageopacity="0.0"
     borderopacity="1.0"
     bordercolor="#666666"
     pagecolor="#ffffff"
     id="base">
    <inkscape:grid
       originy="-0.25279585"
       originx="-0.20499723"
       type="xygrid"
       id="grid3571" />
  </sodipodi:namedview>
  <metadata
     id="metadata3565">
    <rdf:RDF>
      <cc:Work
         rdf:about="">
        <dc:format>image/svg+xml</dc:format>
        <dc:type
           rdf:resource="http://purl.org/dc/dcmitype/StillImage" />
        <dc:title></dc:title>
      </cc:Work>
    </rdf:RDF>
  </metadata>
  <g
     transform="translate(-0.20499723,-0.25279585)"
     id="layer1"
     inkscape:groupmode="layer"
     inkscape:label="Layer 1">
    <g
       transform="matrix(0.4363497,0,0,-0.44010193,-323.25821,382.01477)"
       id="g648"
       style="display:inline;fill:#ffffff;fill-opacity:1">
      <g
         clip-path="url(#clipPath608)"
         opacity="0.399994"
         id="g646"
         style="opacity:1;fill:#ffffff;fill-opacity:1"
         inkscape:export-filename="/home/gabriela/Imagens/g646.png"
         inkscape:export-xdpi="96"
         inkscape:export-ydpi="96">
        <g
           transform="translate(784.1662,862.5944)"
           id="g612"
           style="fill:#ffffff;fill-opacity:1">
          <path
             d="M 0,0 C -0.259,0.246 -0.413,0.507 -0.572,0.511 -0.726,0.515 -0.996,0.266 -1.012,0.106 -1.028,-0.048 -0.804,-0.34 -0.649,-0.371 -0.495,-0.401 -0.296,-0.182 0,0 m -10.086,-14.205 c -6.385,2.254 -8.037,8.526 -5.065,12.827 1.349,1.953 3.347,2.855 5.524,3.284 1.318,0.259 2.674,0.32 4.017,0.422 0.998,0.076 2.003,0.037 3,0.117 1.185,0.095 2.248,-0.219 3.034,-1.124 0.827,-0.952 1.587,-1.987 2.248,-3.072 0.4,-0.657 0.161,-1.185 -0.568,-1.292 -2.502,-0.365 -5.01,-0.603 -7.171,1.262 -0.145,0.125 -0.387,0.225 -0.565,0.197 -1.533,-0.237 -3.122,-0.31 -4.579,-0.807 -3.445,-1.175 -3.306,-5.193 -1.138,-6.838 1.115,-0.847 1.381,-1.792 1.272,-3.072 -0.053,-0.623 -0.009,-1.255 -0.009,-1.904"
             style="fill:#ffffff;fill-opacity:1;fill-rule:nonzero;stroke:none"
             id="path610" />
        </g>
        <g
           transform="translate(783.0446,845.6296)"
           id="g616"
           style="fill:#ffffff;fill-opacity:1">
          <path
             d="m 0,0 c -0.848,2.132 -2.576,3.204 -4.559,4.332 0,-1.045 0.026,-1.905 -0.008,-2.764 -0.028,-0.707 0.111,-1.217 0.762,-1.636 1.366,-0.88 1.651,-2.559 0.66,-3.872 -0.447,-0.593 -1.049,-1.114 -1.678,-1.487 -1.24,-0.735 -2.549,-1.34 -3.828,-2.004 -0.523,-0.272 -1.029,-0.57 -1.515,-0.896 0.02,-0.006 0.039,-0.007 0.06,-0.014 0.477,-0.17 0.914,-0.487 1.241,-0.872 0.296,-0.349 0.561,-0.79 0.581,-1.258 0.029,0.016 0.056,0.038 0.085,0.053 1.318,0.703 2.731,1.226 4.002,2.007 1.194,0.733 2.416,1.548 3.338,2.604 C 0.586,-4.153 0.85,-2.138 0,0"
             style="fill:#ffffff;fill-opacity:1;fill-rule:nonzero;stroke:none"
             id="path614" />
        </g>
        <g
           transform="translate(777.841,860.2258)"
           id="g620"
           style="fill:#ffffff;fill-opacity:1">
          <path
             d="m 0,0 c 0,-2.488 0.033,-4.817 -0.007,-7.145 -0.076,-4.454 -0.213,-8.906 -0.276,-13.36 -0.012,-0.847 -0.229,-1.353 -0.935,-1.627 -0.464,-0.18 -0.897,-0.467 -1.586,-0.835 0,1.755 0.024,3.291 -0.005,4.825 -0.103,5.517 -0.208,11.033 -0.356,16.549 -0.022,0.814 0.187,1.146 0.875,1.22 C -1.532,-0.292 -0.781,-0.131 0,0"
             style="fill:#ffffff;fill-opacity:1;fill-rule:nonzero;stroke:none"
             id="path618" />
        </g>
        <g
           transform="translate(772.0861,814.5419)"
           id="g624"
           style="fill:#ffffff;fill-opacity:1">
          <path
             d="M 0,0 C -0.345,1.641 0.219,2.773 1.253,3.535 2.519,4.467 3.922,5.196 5.268,6.009 5.861,6.367 6.514,6.643 7.046,7.081 8.254,8.077 8.292,9.266 7.234,10.425 7.143,10.526 7.061,10.66 6.947,10.709 5.479,11.353 5.897,12.62 5.975,13.797 8.663,12.948 10.354,10.044 9.632,7.576 9.294,6.42 8.573,5.577 7.577,5.051 6.472,4.468 5.313,3.997 4.168,3.5 2.516,2.784 0.876,2.062 0,0"
             style="fill:#ffffff;fill-opacity:1;fill-rule:nonzero;stroke:none"
             id="path622" />
        </g>
        <g
           transform="translate(775.4164,827.5582)"
           id="g628"
           style="fill:#ffffff;fill-opacity:1">
          <path
             d="m 0,0 c 0.044,-2.009 0.091,-4.018 0.132,-6.027 0.007,-0.326 0.001,-0.652 0.001,-1.091 1.505,0.578 1.501,0.578 1.53,2.016 0.038,1.871 0.097,3.743 0.121,5.614 C 1.349,-0.104 0.674,-0.256 0,0"
             style="fill:#ffffff;fill-opacity:1;fill-rule:nonzero;stroke:none"
             id="path626" />
        </g>
        <g
           transform="translate(776.8085,817.7115)"
           id="g632"
           style="fill:#ffffff;fill-opacity:1">
          <path
             d="m 0,0 c 0,-2.406 0.011,-4.612 -0.023,-6.817 -0.003,-0.164 -0.32,-0.413 -0.519,-0.449 -0.123,-0.022 -0.427,0.28 -0.433,0.446 -0.077,1.967 -0.16,3.937 -0.111,5.903 0.007,0.3 0.671,0.582 1.086,0.917"
             style="fill:#ffffff;fill-opacity:1;fill-rule:nonzero;stroke:none"
             id="path630" />
        </g>
        <g
           transform="translate(749.7191,828.2993)"
           id="g636"
           style="fill:#ffffff;fill-opacity:1">
          <path
             d="m 0,0 c -0.536,-0.536 -1.173,-0.97 -1.853,-1.259 v -3.692 -14.644 c 0,-1.462 1.187,-2.634 2.635,-2.634 h 5.935 c 1.462,0 2.635,1.187 2.635,2.634 v 14.644 7.788 6.109 c 0,0.131 -0.015,0.261 -0.029,0.377 z"
             style="fill:#ffffff;fill-opacity:1;fill-rule:nonzero;stroke:none"
             id="path634" />
        </g>
        <g
           transform="translate(795.8984,840.6766)"
           id="g640"
           style="fill:#ffffff;fill-opacity:1">
          <path
             d="m 0,0 -0.984,-0.984 -0.637,-0.637 v -1.81 -1.245 -4.864 -1.245 -6.529 -14.644 c 0,-1.462 1.187,-2.634 2.634,-2.634 h 5.936 c 1.462,0 2.634,1.187 2.634,2.634 v 14.644 6.515 1.245 4.864 1.245 6.543 6.109 c 0,0.116 -0.014,0.231 -0.029,0.347 z"
             style="fill:#ffffff;fill-opacity:1;fill-rule:nonzero;stroke:none"
             id="path638" />
        </g>
        <g
           transform="translate(759.3459,843.9269)"
           id="g644"
           style="fill:#ffffff;fill-opacity:1">
          <path
             d="m 0,0 15.674,-15.674 c 0.408,-0.407 0.881,-0.493 1.205,-0.493 0.45,0 0.881,0.178 1.215,0.502 l 28.517,28.518 4.282,-4.247 c 0.185,-0.187 0.399,-0.402 0.484,-0.424 0.004,0.002 0.057,0.013 0.152,0.064 0.26,0.14 0.391,0.319 0.417,0.948 0.166,3.753 0.346,7.488 0.527,11.236 l 0.023,0.482 c 0.013,0.357 -0.047,0.555 -0.103,0.613 -0.051,0.053 -0.226,0.113 -0.553,0.113 H 51.651 L 39.694,21.075 c -0.661,-0.031 -0.682,-0.076 -0.771,-0.268 -0.047,-0.1 -0.047,-0.14 -0.047,-0.14 0.021,-0.08 0.242,-0.302 0.337,-0.396 l 1.028,-1.033 c 0.879,-0.886 1.758,-1.77 2.651,-2.633 L 43.579,15.943 16.879,-10.758 1.205,4.917 C 0.797,5.325 0.324,5.411 0,5.411 -0.45,5.411 -0.881,5.232 -1.214,4.909 L -15.681,-9.558 c -0.664,-0.665 -0.664,-1.747 0,-2.41 l 0.651,-0.652 c 0.408,-0.407 0.88,-0.493 1.205,-0.493 0.45,0 0.881,0.179 1.214,0.503 z m 16.879,-18.042 c -0.959,0 -1.858,0.37 -2.53,1.043 L 0,-2.651 -11.295,-13.945 c -1.403,-1.364 -3.729,-1.331 -5.06,0 l -0.651,0.651 c -1.395,1.395 -1.395,3.665 -0.001,5.061 L -2.53,6.243 c 1.403,1.365 3.729,1.331 5.06,0 l 14.35,-14.35 24.028,24.029 c -0.669,0.658 -1.333,1.327 -1.997,1.995 l -1.024,1.028 c -0.421,0.422 -1.3,1.301 -0.662,2.654 0.584,1.265 1.709,1.317 2.382,1.349 l 12.233,0.565 c 0.823,0 1.463,-0.231 1.902,-0.688 0.454,-0.47 0.659,-1.122 0.626,-1.993 L 54.345,20.34 C 54.164,16.595 53.984,12.861 53.818,9.114 53.786,8.343 53.607,7.238 52.415,6.594 52.056,6.403 51.708,6.307 51.376,6.307 c -0.842,0 -1.391,0.553 -1.754,0.918 l -3.006,2.983 -27.207,-27.207 c -0.694,-0.676 -1.589,-1.043 -2.53,-1.043"
             style="fill:#ffffff;fill-opacity:1;fill-rule:nonzero;stroke:none"
             id="path642" />
        </g>
      </g>
    </g>
  </g>
</svg>
