<svg xmlns:dc="http://purl.org/dc/elements/1.1/" xmlns:cc="http://creativecommons.org/ns#" xmlns:rdf="http://www.w3.org/1999/02/22-rdf-syntax-ns#" xmlns:svg="http://www.w3.org/2000/svg" xmlns="http://www.w3.org/2000/svg" xmlns:sodipodi="http://sodipodi.sourceforge.net/DTD/sodipodi-0.dtd" xmlns:inkscape="http://www.inkscape.org/namespaces/inkscape" sodipodi:docname="med_numeros.svg" inkscape:version="1.0 (1.0+r73+1)" width="32.0" height="32.0" version="1.1"><rect id="backgroundrect" width="100%" height="100%" x="0" y="0" fill="none" stroke="none"/>
  <defs id="defs1800"/>
  <sodipodi:namedview inkscape:window-maximized="0" inkscape:window-y="27" inkscape:window-x="67" inkscape:window-height="1023" inkscape:window-width="1795" showgrid="true" inkscape:document-rotation="0" inkscape:current-layer="layer1" inkscape:document-units="px" inkscape:cy="16.335723" inkscape:cx="16.130681" inkscape:zoom="25.162402" inkscape:pageshadow="2" inkscape:pageopacity="0.0" borderopacity="1.0" bordercolor="#666666" pagecolor="#ffffff" id="base">
    <inkscape:grid type="xygrid" id="grid1809"/>
  </sodipodi:namedview>
  <metadata id="metadata1803">
    <rdf:RDF>
      <cc:Work rdf:about="">
        <dc:format>image/svg+xml</dc:format>
        <dc:type rdf:resource="http://purl.org/dc/dcmitype/StillImage"/>
        <dc:title/>
      </cc:Work>
    </rdf:RDF>
  </metadata>
  
<g class="currentLayer" style=""><title>Layer 1</title><g id="layer1" inkscape:groupmode="layer" inkscape:label="Layer 1" class="selected" fill="#ffffff" fill-opacity="1">
    <g style="" id="g2897" fill="#ffffff" fill-opacity="1">
      <g style="" id="g1410" stroke-width="0" fill="#ffffff" fill-opacity="1">
        <path id="path1412" style="fill-rule: nonzero; stroke: none;" d="M18.777723952538224,5.2779778321582995 C18.669767106597146,5.175362600990347 18.60566772931963,5.066843479809992 18.539319251085008,5.065156654092163 C18.475219873807493,5.063750965993972 18.363045963571842,5.1669284724012 18.356017523080887,5.233839225875098 C18.349551357829206,5.2979386031526134 18.442889047549098,5.419671192455965 18.50726956244625,5.432603522959324 C18.571368939723765,5.444973578223406 18.654304537517042,5.353603851840982 18.777723952538224,5.2779778321582995 m-4.200477175014735,5.915697792427553 c-2.658999606538342,-0.9384373743523985 -3.346943361793081,-3.5504869984111562 -2.10937556014561,-5.341895910745933 c0.5617129640371756,-0.8133311336133879 1.3938803181663246,-1.1889309934500578 2.3005491414996038,-1.3674533819203314 c0.5487806335338172,-0.10823798356071704 1.1138672490066517,-0.13354036932815738 1.6730499744670833,-0.17599214989352951 c0.4152402642056599,-0.03148741339948132 0.8341353174666166,-0.015181431460464209 1.2493755816722765,-0.04863680819741311 c0.4933965224650867,-0.03964040436898988 0.9361882733952928,0.09108858876278525 1.2634324626541877,0.4680941366976464 c0.3443935840568269,0.39668518130953695 0.6609545437694694,0.8273880145952992 0.9361882733952928,1.2791761693539283 c0.16671460844546807,0.2738280415276321 0.06719189109353603,0.4939587977043632 -0.2364367381157481,0.5383785416072029 c-1.042177155998904,0.15209545222428028 -2.0866034129549136,0.25105589433693587 -2.986243795797237,-0.5254462111038445 c-0.06072572584185683,-0.05229159725271005 -0.16165413129197997,-0.09389996495916751 -0.23559332525683344,-0.08237332255400023 c-0.6384635341984113,0.09896044211265557 -1.3005426284464336,0.12932330503358397 -1.9069564740060874,0.3362405930873183 c-1.4349264106335058,0.48946059579015155 -1.3767309233683929,2.162791707876873 -0.47399802671004915,2.84792408693523 c0.46443934764234945,0.35254657502633546 0.5752075697798104,0.7464203801394902 0.5296632753984178,1.2791761693539283 c-0.022209871951419862,0.25949002292608264 -0.003654789055296939,0.5226348349074622 -0.003654789055296939,0.7928080873797975 " stroke-width="0" fill="#ffffff" fill-opacity="1"/>
      </g>
      <g style="" id="g1414" stroke-width="0" fill="#ffffff" fill-opacity="1">
        <path id="path1416" style="fill-rule: nonzero; stroke: none;" d="m18.310587077757024,12.34313354066757 c-0.3531088502656119,-0.8878326028175177 -1.0725400189198322,-1.334279142803021 -1.8985223454169404,-1.8040601052184964 c0,0.4352010351999739 0.01068322954625259,0.7936515002387121 -0.0033736514356587127,1.1509774147988974 c-0.01152664240516727,0.29463222538086087 0.04610656962066908,0.5068911282077215 0.3174043725715572,0.6814775900030599 c0.5684602669084929,0.3666034560082468 0.687662617635101,1.0657927160485148 0.27495259200618505,1.6126053862448644 c-0.1863942418201439,0.24683883004236248 -0.4368878609178033,0.46415821002271124 -0.6991892600402682,0.6193461760630119 c-0.516168669655783,0.30587773016638997 -1.0612945141343033,0.5580581749818786 -1.5937691657291035,0.8344164550862548 c-0.2181627928392634,0.1132984607142051 -0.42901600756793296,0.2372801509746628 -0.6314350937074557,0.37306962125992593 c0.008434128589146783,0.002530238576744035 0.016587119558655338,0.0028113761963822607 0.025021248147802124,0.005903890012402748 c0.19876429708422583,0.07084668014883296 0.38066033699015805,0.202700223759161 0.5170120825146977,0.363229804572588 c0.12341941502118124,0.14534814935296286 0.23362536191936586,0.3292121525963627 0.24205949050851264,0.5237593853860151 c0.011807780024805497,-0.0064661652516792 0.02305328481033454,-0.01574370669974066 0.03542334007441648,-0.022209871951419862 c0.5490617711534554,-0.2926642620433933 1.1372016714366242,-0.5105459172630185 1.666583809215404,-0.8355410055648078 c0.4973324491400219,-0.3053154549271135 1.006191540685211,-0.6449296994500905 1.3902255291110277,-1.084347798944638 C18.554895669222642,14.072692176681937 18.664820478501188,13.233496382061832 18.310587077757024,12.34313354066757 " stroke-width="0" fill="#ffffff" fill-opacity="1"/>
      </g>
      <g style="" id="g1418" stroke-width="0" fill="#ffffff" fill-opacity="1">
        <path id="path1420" style="fill-rule: nonzero; stroke: none;" d="m16.143522023885026,6.264433325753081 c0,1.035992128366863 0.013775743362273078,2.0059169161187427 -0.0028113761963822607,2.975279428631346 c-0.031768551019119545,1.8549460143730154 -0.08855835018604122,3.7093297535067546 -0.11498528643203446,5.56427576787977 c-0.005060477153488069,0.35254657502633546 -0.09558679067699688,0.5636809273746431 -0.38937560319894304,0.6775416633281248 c-0.19342268231109955,0.07506374444340635 -0.3736318964992025,0.19454723278965247 -0.6606734061498312,0.3477672354924856 c0,-0.7309578110593877 0.010120954306976139,-1.3705458957363519 -0.0019679633374675826,-2.0092905675544017 c-0.04273291818501036,-2.2977377653032214 -0.08659038684857363,-4.595194392986804 -0.14844066316898336,-6.892088745431112 c-0.008996403828423235,-0.33933310690333884 0.07815625825942685,-0.47737167814570786 0.3646354926707792,-0.5082968163059127 C15.505339627306252,6.385884777436795 15.818245797963598,6.318974023962896 16.143522023885026,6.264433325753081 " stroke-width="0" fill="#ffffff" fill-opacity="1"/>
      </g>
      <g style="" id="g1422" stroke-width="0" fill="#ffffff" fill-opacity="1">
        <path id="path1424" style="fill-rule: nonzero; stroke: none;" d="m13.74676608116758,25.29008372071724 c-0.1436613236351335,-0.6834455533405275 0.09136972638242348,-1.1549133414738324 0.5220725596681858,-1.4720365764257515 c0.5271330368216738,-0.3882510527203902 1.1113370104299076,-0.6918796819296742 1.6716442863688918,-1.0303693759740984 c0.24711996766200073,-0.14928407602789803 0.5189800458521653,-0.2642693624599325 0.7405164901270874,-0.44672767760514115 c0.5035174767720628,-0.41439685134674514 0.5192611834718035,-0.9097613371492995 0.07843739587906506,-1.3927557676877718 c-0.037953578651160516,-0.041608367706457455 -0.07197123062738586,-0.09727361639482623 -0.11920235072660786,-0.11807780024805495 c-0.6114743227131416,-0.26820528913486763 -0.4374501361570797,-0.7959006011958178 -0.40483817227904545,-1.286204609844884 c1.119490001399416,0.35395226312452654 1.8237397385931724,1.563406302808175 1.5229224855802703,2.5912454402055296 C17.617468828346677,22.61646495795771 17.316932712953413,22.967605844885856 16.902254723987028,23.186612050584035 C16.44231357825889,23.42951495395146 15.95931914772042,23.625467874839305 15.482509744813989,23.83238516289304 C14.794847127178887,24.1306721773292 14.111682711457998,24.4314894303421 13.74676608116758,25.29008372071724 " stroke-width="0" fill="#ffffff" fill-opacity="1"/>
      </g>
      <g style="" id="g1426" stroke-width="0" fill="#ffffff" fill-opacity="1">
        <path id="path1428" style="fill-rule: nonzero; stroke: none;" d="m15.133872465237024,19.86927346916908 c0.018273945276484696,0.8366655560433607 0.03767244103152229,1.6733311120867214 0.05482183582945409,2.509996668130082 c0.0028113761963822607,0.1357894702852632 0.0005622752392764522,0.2715789405705264 0.0005622752392764522,0.4540372557157351 c0.6266557541736059,-0.24009152717104507 0.6249689284557765,-0.24037266479068328 0.6370578461002202,-0.8391957946201046 c0.016024844319378888,-0.7793134816371626 0.040202679608266324,-1.5589081008939634 0.050604771534880695,-2.338221582531126 C15.6955854292742,19.912568662593365 15.414728947255613,19.975824627011967 15.133872465237024,19.86927346916908 " stroke-width="0" fill="#ffffff" fill-opacity="1"/>
      </g>
      <g style="" id="g1430" stroke-width="0" fill="#ffffff" fill-opacity="1">
        <path id="path1432" style="fill-rule: nonzero; stroke: none;" d="m15.713577548579625,23.97005864393568 c0,1.0022556140102759 0.004779339533849844,1.9207322173683603 -0.009558679067699688,2.8392088207264448 c-0.0011245504785529043,0.06803530395245071 -0.13325923170851914,0.17177508559895613 -0.21619482950179586,0.18667537943978213 c-0.05144818439379537,0.009277541448061461 -0.1779601132309971,-0.1163909745302256 -0.18049035180774115,-0.1855508289612292 c-0.032049688638757776,-0.8192350236257907 -0.06634847823462135,-1.6395945977301343 -0.04610656962066908,-2.458548483736287 C15.26431963239774,24.227018428285017 15.540677912502115,24.10950290327624 15.713577548579625,23.97005864393568 " stroke-width="0" fill="#ffffff" fill-opacity="1"/>
      </g>
      <g style="" id="g1434" stroke-width="0" fill="#ffffff" fill-opacity="1">
        <path id="path1436" style="fill-rule: nonzero; stroke: none;" d="m4.431749458376981,19.560611766007682 c-0.22294213237311325,0.22294213237311325 -0.48833604531159863,0.4039947594201308 -0.7717227659069305,0.5246027982449298 v1.53726050418182 v6.098718382812038 c0,0.6089440841363976 0.49423993532400134,1.0972801294479961 1.0972801294479961,1.0972801294479961 H7.22906877377733 c0.6089440841363976,0 1.0972801294479961,-0.4945210729436396 1.0972801294479961,-1.0972801294479961 v-6.098718382812038 v-3.243484717766214 v-2.544295457725946 c0,-0.054259560590177634 -0.005903890012402748,-0.10851912118035527 -0.012088917644443722,-0.1565936541384919 z" stroke-width="0" fill="#ffffff" fill-opacity="1"/>
      </g>
      <g style="" id="g1438" stroke-width="0" fill="#ffffff" fill-opacity="1">
        <path id="path1440" style="fill-rule: nonzero; stroke: none;" d="m23.6638131370876,14.40595267823028 l-0.40989864943253357,0.40989864943253357 l-0.2653939129384854,0.2653939129384854 v0.7534488206304458 v0.5186989082325271 v2.0255965494934185 v0.5184177706128889 v2.7188819195212837 v6.098718382812038 c0,0.6089440841363976 0.4945210729436396,1.0972801294479961 1.0972801294479961,1.0972801294479961 h2.4717619518592833 c0.6089440841363976,0 1.0972801294479961,-0.49423993532400134 1.0972801294479961,-1.0972801294479961 v-6.098718382812038 v-2.712696891889243 v-0.5186989082325271 v-2.0255965494934185 v-0.5184177706128889 v-2.7250669471533246 v-2.544295457725946 c0,-0.048074532958136657 -0.005903890012402748,-0.09643020353591156 -0.012088917644443722,-0.14450473649404819 z" stroke-width="0" fill="#ffffff" fill-opacity="1"/>
      </g>
      <g style="" id="g1442" stroke-width="0" fill="#ffffff" fill-opacity="1">
        <path id="path1444" style="fill-rule: nonzero; stroke: none;" d="m8.44099692474498,13.052304609622368 l6.527734390379971,6.527734390379971 c0.16980712226148856,0.1695259846418503 0.3666034560082468,0.20523046233590503 0.5018306510542335,0.20523046233590503 c0.1872376546790586,0 0.366884593627885,-0.07422033158449168 0.5057665777291687,-0.20888525139120198 l11.87637760399722,-11.876658741616858 l1.7832559213652677,1.76863676514408 c0.07731284540051217,0.07787512063978862 0.1661523332061916,0.16727688368474453 0.20185681090024632,0.17655442513280598 c0.0014056880981911303,-0.0008434128589146784 0.023615560049610993,-0.005622752392764521 0.06325596441860086,-0.02698921148526971 c0.10823798356071704,-0.0581954872651128 0.16249754415089468,-0.1326969564692427 0.17318077369714727,-0.3947172179720693 c0.06972212967028006,-1.5628440275688986 0.14450473649404819,-3.1186596146468415 0.21956848093745454,-4.678973403638996 l0.009839816687337912,-0.20101339804133164 c0.005341614773126295,-0.14844066316898336 -0.019679633374675824,-0.2310951233426218 -0.04301405580464859,-0.25527295863150923 c-0.021085321472866955,-0.021928734331781635 -0.09389996495916751,-0.047231120099221986 -0.23053284810334537,-0.047231120099221986 H29.951960753744206 L24.97217009709231,4.275469262136589 c-0.2755148672454615,0.012651192883720176 -0.28423013345424647,0.03148741339948132 -0.3210591616268541,0.11133049737673753 c-0.019679633374675824,0.041889505326095686 -0.019679633374675824,0.058757762504389244 -0.019679633374675824,0.058757762504389244 c0.00871526620878501,0.033174239117310676 0.10092840545012316,0.12538737835864883 0.1402876721994748,0.16474664510800047 l0.4281725947090183,0.4301405580464858 c0.3663223183886085,0.3688525569653526 0.7320823615379406,0.7374239763110669 1.1043085699389519,1.0964367165890816 L26.589835960490664,6.412677446626383 L15.470280828559545,17.53251371617714 L8.942827575799212,11.00449818817753 C8.773020453537724,10.83469106591604 8.576224119790966,10.798986588221986 8.44099692474498,10.798986588221986 c-0.1872376546790586,0 -0.366884593627885,0.07422033158449168 -0.5057665777291687,0.2091663890108402 l-6.024779188847184,6.024779188847184 c-0.2766394177240144,0.2769205553436526 -0.2766394177240144,0.7273030220040908 0,1.003661302108467 l0.2710166653312499,0.2712978029508881 c0.17008825988112677,0.16980712226148856 0.366884593627885,0.20551159995554324 0.5018306510542335,0.20551159995554324 c0.1875187922986968,0 0.366884593627885,-0.07422033158449168 0.5057665777291687,-0.20944752663047841 zm7.029565041434204,7.513684022451229 c-0.3994965575059192,0 -0.7736907292443981,-0.15406341556174788 -1.0537037984040711,-0.434076484721421 L8.44099692474498,14.156332041941681 L3.7370022729581818,18.859764418489203 c-0.584485111227872,0.5681791292888548 -1.5530042108815607,0.5544033859265818 -2.1074075968081423,0 l-0.2710166653312499,-0.2710166653312499 c-0.5808303221725749,-0.5808303221725749 -0.5811114597922132,-1.5265772746355672 -0.0002811376196382261,-2.1076887344277804 L7.387293126340908,10.452343903208053 c0.5842039736082336,-0.5684602669084929 1.5530042108815607,-0.5544033859265818 2.1074075968081423,0 l5.9761423806497715,5.9761423806497715 l10.006812433403018,-10.007374708642296 c-0.27888851868112025,-0.2738280415276321 -0.5549656611658582,-0.5524354225891142 -0.8316050788898727,-0.8307616660309579 l-0.4262046313715507,-0.42789145708938003 c-0.1757110122738913,-0.1757110122738913 -0.5414710554232234,-0.5417521930428616 -0.27607714248473797,-1.1054331204175047 c0.24318404098706556,-0.5265707615823975 0.7121215905436266,-0.5482183582945408 0.9921346597032996,-0.5614318264175373 l5.094213667844656,-0.23559332525683344 c0.34298789595863577,0 0.6095063593756741,0.09643020353591156 0.7925269497601591,0.2864792344113523 c0.18892448039688794,0.19567178326820536 0.2741091791472704,0.46725072383873173 0.2608957110242738,0.8299182531720433 L31.07341871848109,4.581346992302979 C30.998354974037685,6.141098506055858 30.923572367213914,7.696070680274886 30.854131375163274,9.256665606886678 C30.841199044659916,9.578005906133171 30.766135300216508,10.037947051861309 30.27020853917468,10.305871203376539 C30.120362187907503,10.385714287353794 29.975576313793816,10.425635829342422 29.83725660493181,10.425635829342422 c-0.3505786116888679,0 -0.5791434964547456,-0.23025171048370713 -0.7303955358201112,-0.3823471627079874 l-1.2519058202490205,-1.2420660035616826 l-11.330689484279423,11.330689484279423 c-0.2892906106077346,0.28113761963822603 -0.6620790942480222,0.434076484721421 -1.0537037984040711,0.434076484721421 " stroke-width="0" fill="#ffffff" fill-opacity="1"/>
      </g>
    </g>
  </g></g></svg>