<svg xmlns:dc="http://purl.org/dc/elements/1.1/" xmlns:cc="http://creativecommons.org/ns#" xmlns:rdf="http://www.w3.org/1999/02/22-rdf-syntax-ns#" xmlns:svg="http://www.w3.org/2000/svg" xmlns="http://www.w3.org/2000/svg" xmlns:sodipodi="http://sodipodi.sourceforge.net/DTD/sodipodi-0.dtd" xmlns:inkscape="http://www.inkscape.org/namespaces/inkscape" sodipodi:docname="painel.svg" inkscape:version="1.0 (1.0+r73+1)" width="32.0" height="32.0" version="1.1" style=""><rect id="backgroundrect" width="100%" height="100%" x="0" y="0" fill="none" stroke="none"/>
  <defs id="defs1800"/>
  <sodipodi:namedview inkscape:window-maximized="0" inkscape:window-y="27" inkscape:window-x="67" inkscape:window-height="1023" inkscape:window-width="1795" showgrid="true" inkscape:document-rotation="0" inkscape:current-layer="layer1" inkscape:document-units="px" inkscape:cy="14.865399" inkscape:cx="17.684284" inkscape:zoom="20.103946" inkscape:pageshadow="2" inkscape:pageopacity="0.0" borderopacity="1.0" bordercolor="#666666" pagecolor="#ffffff" id="base">
    <inkscape:grid type="xygrid" id="grid1809"/>
  </sodipodi:namedview>
  <metadata id="metadata1803">
    <rdf:RDF>
      <cc:Work rdf:about="">
        <dc:format>image/svg+xml</dc:format>
        <dc:type rdf:resource="http://purl.org/dc/dcmitype/StillImage"/>
        <dc:title/>
      </cc:Work>
    </rdf:RDF>
  </metadata>
  
<g class="currentLayer" style=""><title>Layer 1</title><g id="layer1" inkscape:groupmode="layer" inkscape:label="Layer 1" class="" fill="#ffffff" fill-opacity="1">
    <g id="g3596" style="" fill="#ffffff" fill-opacity="1">
      <g style="" id="g4323" stroke-width="0" fill="#ffffff" fill-opacity="1">
        <g id="g1254" style="stroke: none; stroke-opacity: 1;" stroke-width="0" fill="#ffffff" fill-opacity="1">
          <path d="m5.937023080318184,18.29858908634057 c-2.25125393586242,0.21939427775906645 -3.9899908990550217,2.121408342902973 -3.9899908990550217,4.403705822829261 c0,2.4372167046296287 1.9843988551595557,4.420123081709191 4.4240035247171745,4.420123081709191 c2.2822974799262883,0 4.184013049454196,-1.7372444851126077 4.40400431844526,-3.9861104560470375 H6.371035705980337 C6.131642221949356,23.136307534831985 5.937023080318184,22.941688393200813 5.937023080318184,22.70229490916983 zm0.43401262566215315,9.15098009967306 c-2.6198960216208516,0 -4.751154719851782,-2.1294677245349387 -4.751154719851782,-4.7472742768437985 c0,-2.5136315823253037 1.9638026576556433,-4.597429477612437 4.471165832044973,-4.743692329451814 C6.1361196561893365,17.956513110406025 6.17999851174115,17.972333378053957 6.21283302950101,18.00277993088583 C6.2456675472608705,18.0335249793337 6.264174275452792,18.076806843653515 6.264174275452792,18.121879681669324 v4.5804152275005094 c0,0.05880363635174978 0.04775929855979678,0.10686143052754528 0.10686143052754528,0.10686143052754528 H10.951749429096845 c0.04477434239980948,0 0.0880562067196253,0.018506728191921253 0.11880125516749448,0.05134124595178153 c0.031043544063867903,0.032834517759860286 0.04686381171180059,0.0770118689276723 0.04447584678381075,0.12178621132748177 c-0.1468598430713751,2.5049752094613402 -2.230359242742509,4.467285389036991 -4.743990825067813,4.467285389036991 m0,-9.71274884898267 c-2.73780178994035,0 -4.964877580906872,2.2276727821985207 -4.964877580906872,4.965474572138871 c0,2.73541382501236 2.227075790966523,4.9609971378988895 4.964877580906872,4.9609971378988895 c2.7381002855563485,0 4.965773067754869,-2.2255833128865294 4.965773067754869,-4.9609971378988895 c0,-0.05880363635174978 -0.04805779417579551,-0.10686143052754528 -0.10715992614354401,-0.10686143052754528 H6.641472734075187 c-0.09014567603161641,0 -0.16357559756730394,-0.07313142591968881 -0.16357559756730394,-0.16357559756730394 V17.843383271942507 c0,-0.05880363635174978 -0.04775929855979678,-0.10656293491154656 -0.10686143052754528,-0.10656293491154656 m0,10.253622905172367 c-2.9180931420035825,0 -5.292028776041481,-2.372443155957905 -5.292028776041481,-5.288148333033497 c0,-2.9183916376195813 2.373935634037898,-5.292625767273479 5.292028776041481,-5.292625767273479 c0.23939348403098132,0 0.43401262566215315,0.1946191416311719 0.43401262566215315,0.43371413004615444 V22.268580779123678 h4.424600515949172 c0.23939348403098132,0 0.4343111212781519,0.1946191416311719 0.4343111212781519,0.43371413004615444 c0,2.915705177075593 -2.3745326252698957,5.288148333033497 -5.292924262889477,5.288148333033497 " style="fill-rule: nonzero; stroke: none; stroke-opacity: 1;" id="path1256" stroke-width="0" fill="#ffffff" fill-opacity="1"/>
        </g>
        <g id="g1262" style="stroke: none; stroke-opacity: 1;" stroke-width="0" fill="#ffffff" fill-opacity="1">
          <path d="m11.557509334188808,20.6748302637875 h-2.787352062196139 c-0.09044417164761515,0 -0.16357559756730394,-0.07313142591968881 -0.16357559756730394,-0.16357559756730394 v-2.787352062196139 c0,-0.0459683248638044 0.019103719423918714,-0.08984718041561769 0.05313221964777391,-0.12059222886348685 c0.033730004607856474,-0.031043544063867903 0.08059381631965705,-0.045072838015808206 0.12447267187147035,-0.042386377471819635 C10.348602089393951,17.697933485432166 11.583179957164699,18.932809848818913 11.720487940524114,20.496926876652257 C11.724666879148096,20.54259670590006 11.709145107116163,20.58796803953187 11.678101563052294,20.621698044139723 C11.647356514604425,20.65572654436358 11.603477659052611,20.6748302637875 11.557509334188808,20.6748302637875 m-3.057789090290988,-3.3401659430257866 c-0.059102131967748515,0 -0.10715992614354401,0.04805779417579551 -0.10715992614354401,0.10686143052754528 v3.3401659430257866 c0,0.05880363635174978 0.04805779417579551,0.10686143052754528 0.10715992614354401,0.10686143052754528 h3.3401659430257866 c0.05880363635174978,0 0.10686143052754528,-0.04805779417579551 0.10686143052754528,-0.10686143052754528 c0,-1.9008200826799115 -1.5465057864894192,-3.447027373553332 -3.447027373553332,-3.447027373553332 M11.839886186923605,21.215704319977196 h-3.3401659430257866 c-0.23939348403098132,0 -0.43401262566215315,-0.19491763724717062 -0.43401262566215315,-0.43401262566215315 v-3.3401659430257866 c0,-0.23939348403098132 0.1946191416311719,-0.43401262566215315 0.43401262566215315,-0.43401262566215315 c2.081111434743144,0 3.773880073071941,1.6930671339447956 3.773880073071941,3.77417856868794 c0,0.23909498841498258 -0.1946191416311719,0.43401262566215315 -0.43371413004615444,0.43401262566215315 " style="fill-rule: nonzero; stroke: none; stroke-opacity: 1;" id="path1264" stroke-width="0" fill="#ffffff" fill-opacity="1"/>
        </g>
        <g id="g1270" style="stroke: none; stroke-opacity: 1;" stroke-width="0" fill="#ffffff" fill-opacity="1">
          <path d="m9.741166061458244,26.197354424931973 c-0.055520184575763756,0.07253443468769136 -0.11253284723152115,0.14536736499138142 -0.17312745727926332,0.21581233036708167 l20.833203023015347,-0.0014924780799936493 c0.05880363635174978,0 0.10686143052754528,-0.04805779417579551 0.10686143052754528,-0.10715992614354401 v-21.687497476003713 c0,-0.059102131967748515 -0.04805779417579551,-0.10686143052754528 -0.10686143052754528,-0.10686143052754528 H4.4906281760405875 c-0.059102131967748515,0 -0.10686143052754528,0.04775929855979678 -0.10686143052754528,0.10686143052754528 V18.007231713158824 c0,0.011939824639949194 0.002089469311991109,0.023581153663899658 0.005969912319974597,0.0340285002238552 c0.03850593446383615,-0.07074346099169897 0.0829817812476469,-0.13074107980744368 0.13312904473543352,-0.18058984767923156 c0.02626761420788823,-0.02686460543988569 0.0540277064957701,-0.05134124595178153 0.08268328563164816,-0.074026912767685 c-0.005074425471978408,-0.015820267647932682 -0.007760886015966977,-0.03253602214386155 -0.007760886015966977,-0.05014726348778662 V4.887752398782652 c0,-0.09044417164761515 0.07313142591968881,-0.16357559756730394 0.16357559756730394,-0.16357559756730394 h25.368843908116048 c0.09044417164761515,0 0.16357559756730394,0.07313142591968881 0.16357559756730394,0.16357559756730394 V26.033778827364667 C30.293783205434785,26.124222999012286 30.220651779515098,26.197354424931973 30.130207607867483,26.197354424931973 zM30.40124162719433,26.738825472353668 H9.246260330132351 c-0.04387885555181329,0 -0.07820585139166722,-0.011939824639949194 -0.1008915182075707,-0.01940221503991744 c-0.055520184575763756,-0.019103719423918714 -0.10715992614354401,-0.06984797414370278 -0.1179057683194983,-0.1280546192634551 c-0.010745842175954274,-0.05790814950375359 0.0002984956159987298,-0.12059222886348685 0.04537133363180694,-0.15850117209532555 l0.04955027225578916,-0.040296908159828525 c0.03940142131183234,-0.032237526527862825 0.07910133823966341,-0.06387806182372818 0.11611479462350592,-0.10268249190356309 c0.10357797875155927,-0.10775691737554148 0.1946191416311719,-0.22805065062302962 0.2913317212147603,-0.3549112874224898 c0.031043544063867903,-0.040893899391825986 0.07910133823966341,-0.06477354867172437 0.1301440885754462,-0.06477354867172437 h20.30665675639359 v-20.819173729063408 h-25.04169271298144 v12.521891091146717 h0.15282975539134966 c0.04925177663979043,0 0.08954868479961896,0.012238320255947925 0.11909975078349322,0.02089469311991109 c0.07671337331167356,0.02328265804790093 0.1280546192634551,0.09939904012757705 0.11730877708750084,0.17909736959923792 c-0.010148850943956816,0.07939983385566214 -0.07462390399968245,0.14029293951940303 -0.15491922470334077,0.14268090444739287 c-0.15641170278333444,0.004477434239980948 -0.2925257036787552,0.06387806182372818 -0.40535704652627513,0.1761124134392506 c-0.052236732799777724,0.05253522841577645 -0.09611558835159102,0.12954709734344874 -0.13432302719942843,0.2361100322549953 c-0.02537212735989204,0.07014646975970151 -0.09372762342360118,0.11701028147150211 -0.16984400550327727,0.10775691737554148 c-0.22417020761504614,-0.021491684351908548 -0.39311872627032723,-0.20566347942312488 -0.39311872627032723,-0.4283412089581773 v-13.39021483808702 c0,-0.23939348403098132 0.1946191416311719,-0.43401262566215315 0.43401262566215315,-0.43401262566215315 h25.910613451153743 c0.23939348403098132,0 0.43401262566215315,0.1946191416311719 0.43401262566215315,0.43401262566215315 V26.304514351075518 c0,0.23939348403098132 -0.1946191416311719,0.4343111212781519 -0.43401262566215315,0.4343111212781519 " style="fill-rule: nonzero; stroke: none; stroke-opacity: 1;" id="path1272" stroke-width="0" fill="#ffffff" fill-opacity="1"/>
        </g>
        <g id="g1274" style="stroke: none; stroke-opacity: 1;" stroke-width="0" fill="#ffffff" fill-opacity="1">
          <path d="m19.066375705617787,8.399853929995999 c-0.6907188554210608,0 -1.2527861003466692,-0.5614702536936108 -1.2527861003466692,-1.2512936222666755 c0,-0.6922113335010545 0.5620672449256082,-1.2554725608906576 1.2527861003466692,-1.2554725608906576 c0.6904203598050621,0 1.2515921178826739,0.5632612273896032 1.2515921178826739,1.2554725608906576 C20.31796782350046,7.838383676302388 19.75679606542285,8.399853929995999 19.066375705617787,8.399853929995999 m-5.513214027496539,0 c-0.6913158466530582,0 -1.2539800828106638,-0.5614702536936108 -1.2539800828106638,-1.2512936222666755 c0,-0.6922113335010545 0.5626642361576057,-1.2554725608906576 1.2539800828106638,-1.2554725608906576 c0.6904203598050621,0 1.2524876047306701,0.5632612273896032 1.2524876047306701,1.2554725608906576 C14.805649282851917,7.838383676302388 14.24358203792631,8.399853929995999 13.55316167812125,8.399853929995999 m-5.514408009960535,0 c-0.6910173510370595,0 -1.2527861003466692,-0.5614702536936108 -1.2527861003466692,-1.2512936222666755 c0,-0.6922113335010545 0.5617687493096095,-1.2554725608906576 1.2527861003466692,-1.2554725608906576 c0.691614342269057,0 1.2539800828106638,0.5632612273896032 1.2539800828106638,1.2554725608906576 C9.292733750971376,7.838383676302388 8.73036801042977,8.399853929995999 8.038753668160712,8.399853929995999 m-3.6550788179044464,1.0668233315794604 h25.863451143825944 v-4.8496582731313636 h-25.863451143825944 z" style="fill-rule: nonzero; stroke: none; stroke-opacity: 1;" id="path1276" stroke-width="0" fill="#ffffff" fill-opacity="1"/>
        </g>
        <g id="g1282" style="stroke: none; stroke-opacity: 1;" stroke-width="0" fill="#ffffff" fill-opacity="1">
          <path d="m4.49053817553137,9.568758316877734 c-0.059102131967748515,0 -0.10686143052754528,0.04805779417579551 -0.10686143052754528,0.10715992614354401 c0,0.059102131967748515 0.04775929855979678,0.10686143052754528 0.10686143052754528,0.10686143052754528 h25.912702920465737 c0.05880363635174978,0 0.10686143052754528,-0.04775929855979678 0.10686143052754528,-0.10686143052754528 C30.510102526524648,9.616816111053529 30.46204473234885,9.568758316877734 30.403241095997107,9.568758316877734 zM30.403241095997107,10.109930868683431 H4.49053817553137 c-0.23939348403098132,0 -0.43401262566215315,-0.1946191416311719 -0.43401262566215315,-0.43401262566215315 c0,-0.23939348403098132 0.1946191416311719,-0.4343111212781519 0.43401262566215315,-0.4343111212781519 h25.912702920465737 c0.23939348403098132,0 0.43401262566215315,0.19491763724717062 0.43401262566215315,0.4343111212781519 c0,0.23939348403098132 -0.1946191416311719,0.43401262566215315 -0.43401262566215315,0.43401262566215315 " style="fill-rule: nonzero; stroke: none; stroke-opacity: 1;" id="path1284" stroke-width="0" fill="#ffffff" fill-opacity="1"/>
        </g>
        <g id="g1294" style="stroke: none; stroke-opacity: 1;" stroke-width="0" fill="#ffffff" fill-opacity="1">
          <path d="m27.32939715373496,12.682338686395724 c-0.059102131967748515,0 -0.10686143052754528,0.04775929855979678 -0.10686143052754528,0.10656293491154656 c0,0.059102131967748515 0.04775929855979678,0.10715992614354401 0.10686143052754528,0.10715992614354401 h0.8041471895005781 c0.05880363635174978,0 0.10686143052754528,-0.04805779417579551 0.10686143052754528,-0.10715992614354401 C28.240405773763083,12.73009798495552 28.192347979587286,12.682338686395724 28.13354434323554,12.682338686395724 zM28.13354434323554,13.222914246969424 H27.32939715373496 c-0.23939348403098132,0 -0.43401262566215315,-0.1946191416311719 -0.43401262566215315,-0.43401262566215315 c0,-0.23909498841498258 0.1946191416311719,-0.43371413004615444 0.43401262566215315,-0.43371413004615444 h0.8041471895005781 c0.23909498841498258,0 0.43371413004615444,0.1946191416311719 0.43371413004615444,0.43371413004615444 c0,0.23939348403098132 -0.1946191416311719,0.43401262566215315 -0.43371413004615444,0.43401262566215315 " style="fill-rule: nonzero; stroke: none; stroke-opacity: 1;" id="path1296" stroke-width="0" fill="#ffffff" fill-opacity="1"/>
        </g>
        <g id="g1302" style="stroke: none; stroke-opacity: 1;" stroke-width="0" fill="#ffffff" fill-opacity="1">
          <path d="m14.46301362763738,12.682338686395724 c-0.059102131967748515,0 -0.10686143052754528,0.04775929855979678 -0.10686143052754528,0.10656293491154656 c0,0.059102131967748515 0.04775929855979678,0.10715992614354401 0.10686143052754528,0.10715992614354401 h12.866355032009249 c0.059102131967748515,0 0.10686143052754528,-0.04805779417579551 0.10686143052754528,-0.10715992614354401 C27.436230090174178,12.73009798495552 27.38847079161438,12.682338686395724 27.32936865964663,12.682338686395724 zM27.32936865964663,13.222914246969424 H14.46301362763738 c-0.23939348403098132,0 -0.43401262566215315,-0.1946191416311719 -0.43401262566215315,-0.43401262566215315 c0,-0.23909498841498258 0.1946191416311719,-0.43371413004615444 0.43401262566215315,-0.43371413004615444 h12.866355032009249 c0.23939348403098132,0 0.43401262566215315,0.1946191416311719 0.43401262566215315,0.43371413004615444 c0,0.23939348403098132 -0.1946191416311719,0.43401262566215315 -0.43401262566215315,0.43401262566215315 " style="fill-rule: nonzero; stroke: none; stroke-opacity: 1;" id="path1304" stroke-width="0" fill="#ffffff" fill-opacity="1"/>
        </g>
        <g id="g1310" style="stroke: none; stroke-opacity: 1;" stroke-width="0" fill="#ffffff" fill-opacity="1">
          <path d="m13.655222619949413,12.682338686395724 c-0.059102131967748515,0 -0.10686143052754528,0.04775929855979678 -0.10686143052754528,0.10656293491154656 c0,0.059102131967748515 0.04775929855979678,0.10715992614354401 0.10686143052754528,0.10715992614354401 h0.8077291368925629 c0.05880363635174978,0 0.10686143052754528,-0.04805779417579551 0.10686143052754528,-0.10715992614354401 C14.56981318736952,12.73009798495552 14.521755393193725,12.682338686395724 14.462951756841976,12.682338686395724 zM14.462951756841976,13.222914246969424 H13.655222619949413 c-0.23939348403098132,0 -0.43401262566215315,-0.1946191416311719 -0.43401262566215315,-0.43401262566215315 c0,-0.23909498841498258 0.1946191416311719,-0.43371413004615444 0.43401262566215315,-0.43371413004615444 h0.8077291368925629 c0.23909498841498258,0 0.43371413004615444,0.1946191416311719 0.43371413004615444,0.43371413004615444 c0,0.23939348403098132 -0.1946191416311719,0.43401262566215315 -0.43371413004615444,0.43401262566215315 " style="fill-rule: nonzero; stroke: none; stroke-opacity: 1;" id="path1312" stroke-width="0" fill="#ffffff" fill-opacity="1"/>
        </g>
        <g id="g1318" style="stroke: none; stroke-opacity: 1;" stroke-width="0" fill="#ffffff" fill-opacity="1">
          <path d="m27.32939715373496,22.69110584181408 c-0.059102131967748515,0 -0.10686143052754528,0.04805779417579551 -0.10686143052754528,0.10686143052754528 c0,0.059102131967748515 0.04775929855979678,0.10686143052754528 0.10686143052754528,0.10686143052754528 h0.8041471895005781 c0.05880363635174978,0 0.10686143052754528,-0.04775929855979678 0.10686143052754528,-0.10686143052754528 C28.240405773763083,22.739163635989875 28.192347979587286,22.69110584181408 28.13354434323554,22.69110584181408 zM28.13354434323554,23.231979898003775 H27.32939715373496 c-0.23939348403098132,0 -0.43401262566215315,-0.1946191416311719 -0.43401262566215315,-0.43401262566215315 c0,-0.23939348403098132 0.1946191416311719,-0.43401262566215315 0.43401262566215315,-0.43401262566215315 h0.8041471895005781 c0.23909498841498258,0 0.43371413004615444,0.1946191416311719 0.43371413004615444,0.43401262566215315 c0,0.23939348403098132 -0.1946191416311719,0.43401262566215315 -0.43371413004615444,0.43401262566215315 " style="fill-rule: nonzero; stroke: none; stroke-opacity: 1;" id="path1320" stroke-width="0" fill="#ffffff" fill-opacity="1"/>
        </g>
        <g id="g1326" style="stroke: none; stroke-opacity: 1;" stroke-width="0" fill="#ffffff" fill-opacity="1">
          <path d="m20.89621905473109,22.69110584181408 c-0.059102131967748515,0 -0.10686143052754528,0.04805779417579551 -0.10686143052754528,0.10686143052754528 c0,0.059102131967748515 0.04775929855979678,0.10686143052754528 0.10686143052754528,0.10686143052754528 h6.4331775160046245 c0.059102131967748515,0 0.10686143052754528,-0.04775929855979678 0.10686143052754528,-0.10686143052754528 C27.436258001263262,22.739163635989875 27.388498702703465,22.69110584181408 27.329396570735717,22.69110584181408 zM27.329396570735717,23.231979898003775 H20.89621905473109 c-0.23939348403098132,0 -0.43401262566215315,-0.1946191416311719 -0.43401262566215315,-0.43401262566215315 c0,-0.23939348403098132 0.1946191416311719,-0.43401262566215315 0.43401262566215315,-0.43401262566215315 h6.4331775160046245 c0.23939348403098132,0 0.43401262566215315,0.1946191416311719 0.43401262566215315,0.43401262566215315 c0,0.23939348403098132 -0.1946191416311719,0.43401262566215315 -0.43401262566215315,0.43401262566215315 " style="fill-rule: nonzero; stroke: none; stroke-opacity: 1;" id="path1328" stroke-width="0" fill="#ffffff" fill-opacity="1"/>
        </g>
        <g id="g1342" style="stroke: none; stroke-opacity: 1;" stroke-width="0" fill="#ffffff" fill-opacity="1">
          <path d="m14.46301362763738,22.69110584181408 c-0.059102131967748515,0 -0.10686143052754528,0.04805779417579551 -0.10686143052754528,0.10686143052754528 c0,0.059102131967748515 0.04775929855979678,0.10686143052754528 0.10686143052754528,0.10686143052754528 h6.428998577380643 c0.059102131967748515,0 0.10686143052754528,-0.04775929855979678 0.10686143052754528,-0.10686143052754528 c0,-0.05880363635174978 -0.04775929855979678,-0.10686143052754528 -0.10686143052754528,-0.10686143052754528 zM20.892012205018023,23.231979898003775 H14.46301362763738 c-0.23939348403098132,0 -0.43401262566215315,-0.1946191416311719 -0.43401262566215315,-0.43401262566215315 c0,-0.23939348403098132 0.1946191416311719,-0.43401262566215315 0.43401262566215315,-0.43401262566215315 h6.428998577380643 c0.23939348403098132,0 0.43401262566215315,0.1946191416311719 0.43401262566215315,0.43401262566215315 c0,0.23939348403098132 -0.1946191416311719,0.43401262566215315 -0.43401262566215315,0.43401262566215315 " style="fill-rule: nonzero; stroke: none; stroke-opacity: 1;" id="path1344" stroke-width="0" fill="#ffffff" fill-opacity="1"/>
        </g>
        <g id="g1350" style="stroke: none; stroke-opacity: 1;" stroke-width="0" fill="#ffffff" fill-opacity="1">
          <path d="m13.602442969098064,22.69110584181408 c-0.059102131967748515,0 -0.10686143052754528,0.04805779417579551 -0.10686143052754528,0.10686143052754528 c0,0.059102131967748515 0.04775929855979678,0.10686143052754528 0.10686143052754528,0.10686143052754528 h0.8605628609243381 c0.05880363635174978,0 0.10656293491154656,-0.04775929855979678 0.10656293491154656,-0.10686143052754528 C14.56956876493395,22.739163635989875 14.521809466374151,22.69110584181408 14.463005830022402,22.69110584181408 zM14.463005830022402,23.231979898003775 H13.602442969098064 c-0.23939348403098132,0 -0.43401262566215315,-0.1946191416311719 -0.43401262566215315,-0.43401262566215315 c0,-0.23939348403098132 0.1946191416311719,-0.43401262566215315 0.43401262566215315,-0.43401262566215315 h0.8605628609243381 c0.23909498841498258,0 0.43371413004615444,0.1946191416311719 0.43371413004615444,0.43401262566215315 c0,0.23939348403098132 -0.1946191416311719,0.43401262566215315 -0.43371413004615444,0.43401262566215315 " style="fill-rule: nonzero; stroke: none; stroke-opacity: 1;" id="path1352" stroke-width="0" fill="#ffffff" fill-opacity="1"/>
        </g>
        <g id="g1358" style="stroke: none; stroke-opacity: 1;" stroke-width="0" fill="#ffffff" fill-opacity="1">
          <path d="m14.46301362763738,12.682338686395724 c-0.059102131967748515,0 -0.10686143052754528,0.04775929855979678 -0.10686143052754528,0.10656293491154656 v9.927665692501755 c0.0002984956159987299,0.11820426393549703 0.21372286105509056,0.11850275955149576 0.21342436543909185,0 V12.78890162130727 C14.569576562548926,12.73009798495552 14.52181726398913,12.682338686395724 14.46301362763738,12.682338686395724 m0,10.468539748691454 c-0.23939348403098132,0 -0.43401262566215315,-0.19491763724717062 -0.43401262566215315,-0.4343111212781519 v-9.927665692501755 c0,-0.23909498841498258 0.1946191416311719,-0.43371413004615444 0.43401262566215315,-0.43371413004615444 c0.23909498841498258,0 0.43371413004615444,0.1946191416311719 0.43371413004615444,0.43371413004615444 v9.927665692501755 c0,0.23939348403098132 -0.1946191416311719,0.4343111212781519 -0.43371413004615444,0.4343111212781519 " style="fill-rule: nonzero; stroke: none; stroke-opacity: 1;" id="path1360" stroke-width="0" fill="#ffffff" fill-opacity="1"/>
        </g>
        <g id="g1366" style="stroke: none; stroke-opacity: 1;" stroke-width="0" fill="#ffffff" fill-opacity="1">
          <path d="m27.32939715373496,12.682338686395724 c-0.059102131967748515,0 -0.10686143052754528,0.04775929855979678 -0.10686143052754528,0.10656293491154656 v10.009154995669407 c0,0.1179057683194983 0.21372286105509056,0.1179057683194983 0.21372286105509056,0 V12.78890162130727 C27.436258584262504,12.73009798495552 27.388499285702707,12.682338686395724 27.32939715373496,12.682338686395724 m0,10.549730556243109 c-0.23939348403098132,0 -0.43401262566215315,-0.1946191416311719 -0.43401262566215315,-0.43401262566215315 v-10.009154995669407 c0,-0.23909498841498258 0.1946191416311719,-0.43371413004615444 0.43401262566215315,-0.43371413004615444 c0.23939348403098132,0 0.43401262566215315,0.1946191416311719 0.43401262566215315,0.43371413004615444 v10.009154995669407 c0,0.23939348403098132 -0.1946191416311719,0.43401262566215315 -0.43401262566215315,0.43401262566215315 " style="fill-rule: nonzero; stroke: none; stroke-opacity: 1;" id="path1368" stroke-width="0" fill="#ffffff" fill-opacity="1"/>
        </g>
        <g id="g1374" style="stroke: none; stroke-opacity: 1;" stroke-width="0" fill="#ffffff" fill-opacity="1">
          <path d="m16.982763714216503,15.367788091060078 c-0.059102131967748515,0 -0.10686143052754528,0.04775929855979678 -0.10686143052754528,0.10686143052754528 v4.641606828780249 c0,0.11760727270349956 0.21372286105509056,0.11760727270349956 0.21372286105509056,0 v-4.641606828780249 C17.089625144744048,15.415547389619874 17.04186584618425,15.367788091060078 16.982763714216503,15.367788091060078 m0,5.182182389353948 c-0.23939348403098132,0 -0.43401262566215315,-0.1946191416311719 -0.43401262566215315,-0.43371413004615444 v-4.641606828780249 c0,-0.23939348403098132 0.1946191416311719,-0.43401262566215315 0.43401262566215315,-0.43401262566215315 c0.23939348403098132,0 0.43401262566215315,0.1946191416311719 0.43401262566215315,0.43401262566215315 v4.641606828780249 c0,0.23909498841498258 -0.1946191416311719,0.43371413004615444 -0.43401262566215315,0.43371413004615444 " style="fill-rule: nonzero; stroke: none; stroke-opacity: 1;" id="path1376" stroke-width="0" fill="#ffffff" fill-opacity="1"/>
        </g>
        <g id="g1382" style="stroke: none; stroke-opacity: 1;" stroke-width="0" fill="#ffffff" fill-opacity="1">
          <path d="m19.592031513760077,17.4733445386058 c-0.059102131967748515,0 -0.10686143052754528,0.04775929855979678 -0.10686143052754528,0.10656293491154656 v2.536317249141207 c0,0.11760727270349956 0.21372286105509056,0.11760727270349956 0.21372286105509056,0 v-2.536317249141207 C19.69889294428762,17.521103837165597 19.651133645727825,17.4733445386058 19.592031513760077,17.4733445386058 m0,3.0765943140989083 c-0.23939348403098132,0 -0.43401262566215315,-0.1946191416311719 -0.43401262566215315,-0.43371413004615444 v-2.536317249141207 c0,-0.23909498841498258 0.1946191416311719,-0.43371413004615444 0.43401262566215315,-0.43371413004615444 c0.23939348403098132,0 0.43401262566215315,0.1946191416311719 0.43401262566215315,0.43371413004615444 v2.536317249141207 c0,0.23909498841498258 -0.1946191416311719,0.43371413004615444 -0.43401262566215315,0.43371413004615444 " style="fill-rule: nonzero; stroke: none; stroke-opacity: 1;" id="path1384" stroke-width="0" fill="#ffffff" fill-opacity="1"/>
        </g>
        <g id="g1390" style="stroke: none; stroke-opacity: 1;" stroke-width="0" fill="#ffffff" fill-opacity="1">
          <path d="m22.201235547760703,15.367788091060078 c-0.059102131967748515,0 -0.10686143052754528,0.04775929855979678 -0.10686143052754528,0.10686143052754528 v4.641606828780249 c0.0002984956159987299,0.11760727270349956 0.21372286105509056,0.1179057683194983 0.21342436543909185,0 v-4.641606828780249 C22.30779848267225,15.415547389619874 22.260039184112454,15.367788091060078 22.201235547760703,15.367788091060078 m0,5.182182389353948 c-0.23939348403098132,0 -0.43401262566215315,-0.1946191416311719 -0.43401262566215315,-0.43371413004615444 v-4.641606828780249 c0,-0.23939348403098132 0.1946191416311719,-0.43401262566215315 0.43401262566215315,-0.43401262566215315 c0.23909498841498258,0 0.43371413004615444,0.1946191416311719 0.43371413004615444,0.43401262566215315 v4.641606828780249 c0,0.23909498841498258 -0.1946191416311719,0.43371413004615444 -0.43371413004615444,0.43371413004615444 " style="fill-rule: nonzero; stroke: none; stroke-opacity: 1;" id="path1392" stroke-width="0" fill="#ffffff" fill-opacity="1"/>
        </g>
        <g id="g1398" style="stroke: none; stroke-opacity: 1;" stroke-width="0" fill="#ffffff" fill-opacity="1">
          <path d="m24.806003321843363,18.627628397421205 c-0.059102131967748515,0 -0.10686143052754528,0.04775929855979678 -0.10686143052754528,0.10656293491154656 v1.382034702074119 c0.0002984956159987299,0.11760727270349956 0.21372286105509056,0.1179057683194983 0.21342436543909185,0 v-1.382034702074119 C24.91256625675491,18.675387695981 24.864806958195114,18.627628397421205 24.806003321843363,18.627628397421205 m0,1.9223117670318202 c-0.23939348403098132,0 -0.43401262566215315,-0.1946191416311719 -0.43401262566215315,-0.43371413004615444 v-1.382034702074119 c0,-0.23909498841498258 0.1946191416311719,-0.43371413004615444 0.43401262566215315,-0.43371413004615444 c0.23909498841498258,0 0.43371413004615444,0.1946191416311719 0.43371413004615444,0.43371413004615444 v1.382034702074119 C25.23971745188952,20.355321022821855 25.045098310258346,20.549940164453027 24.806003321843363,20.549940164453027 " style="fill-rule: nonzero; stroke: none; stroke-opacity: 1;" id="path1400" stroke-width="0" fill="#ffffff" fill-opacity="1"/>
        </g>
        <g id="g1406" style="stroke: none; stroke-opacity: 1;" stroke-width="0" fill="#ffffff" fill-opacity="1">
          <path d="m16.783869876334535,18.10394021174767 c-0.19551462847916806,0 -0.39073076134233736,0.012835311487945386 -0.5844544161255131,0.04208788185582091 c-1.1724907796430106,0.17461993535925696 -2.2100615408545954,0.9513055281879519 -2.7079522283404764,2.027382223863373 c-0.019999206271914902,0.042983368703817096 -0.0011939824639949196,0.09432461465559863 0.04208788185582091,0.11402532531151481 l0.03581947391984758,0.008059381631965706 c0.03343150899185774,0 0.06417655743972692,-0.01940221503991744 0.07820585139166722,-0.04984876787178789 c0.466250152190016,-1.0080196952277107 1.4778517948097114,-1.765303073016488 2.5769126529170348,-1.9297741574317882 c0.9930949144277741,-0.14506886937538271 2.026188241399378,0.1441733825273865 3.0258500593791244,0.42505775718219124 c1.2772627408585648,0.359090226046472 2.5981058416529446,0.7313142591968881 3.795670253039848,0.15372524223934586 c0.5937077802214735,-0.2859588001267832 1.0536895244755162,-0.7680292199647318 1.498149496697625,-1.2339808765387492 c0.2513333086709305,-0.262974637694881 0.5104275033578279,-0.534605648253725 0.7892224087006416,-0.7662382462687395 c0.9889159758037919,-0.8208629439965069 2.3405041250460403,-1.1996538806988952 3.6123939448166285,-1.0148850943956813 c0.030745048447869173,0.0035819473919847583 0.05253522841577645,-0.007462390399968247 0.062982574975732,-0.015223276415935223 c0.011044337791953004,-0.008357877247964435 0.030148057215871712,-0.02656610982388696 0.03462549145585266,-0.05731115827175613 C29.05024872018634,15.759854139309645 29.01741420242648,15.715975283757832 28.970550390714678,15.70910988458986 C27.650005785536294,15.51658021227068 26.248867364038258,15.910295929773005 25.223534923082624,16.761903922217382 C24.938770105419835,16.998312450088374 24.677586441420946,17.271734434343212 24.425357645902018,17.535903054502086 C23.965674397263975,18.017973474340035 23.5364377014578,18.467507872034123 22.971087004756207,18.739735873824966 C21.83292322095305,19.28807232041463 20.60103181372629,18.941817405856103 19.297501458659838,18.575264789409665 C18.471265593575353,18.342736704546653 17.622941052906963,18.10394021174767 16.783869876334535,18.10394021174767 m-3.2144992886903214,2.5187060077972823 c-0.0599976188157447,0 -0.11850275955149576,-0.012835311487945386 -0.17342595289526205,-0.038207438847837415 c-0.20655896627112108,-0.09581709273559229 -0.29700313791873617,-0.34177748031854566 -0.20148454079914266,-0.5486349422056654 c0.5438590123496857,-1.174580248955002 1.6766498750648653,-2.0226062940073932 2.956599076467419,-2.2133449926305815 c1.0960759019473358,-0.1632771019513052 2.182898439798711,0.14178541759939667 3.2341999993462376,0.4375945730541379 c1.2429357450187108,0.34953836633451263 2.416322011509718,0.6799730132451065 3.444042417393345,0.18476878630321378 c0.5116214858218229,-0.24625888319895212 0.9208589753560814,-0.6748985877731282 1.3536776185542398,-1.1289104197071962 c0.26446711577487464,-0.27670543603082254 0.5322176833257353,-0.5569928194536299 0.8316087861724613,-0.8056396675805718 c1.0957774063313372,-0.9107101244121247 2.5924344249489684,-1.331290447354335 4.0034232017749645,-1.124731481083214 c0.22536419007904104,0.03313301337585901 0.38207438847837416,0.2432739270389648 0.34894137510251516,0.46863811711800585 C29.351132301113054,15.964025140652776 29.292925655993304,16.06103621585236 29.203376971193684,16.12730224260408 C29.114126782010068,16.1935682693558 29.005772873402528,16.220432874795684 28.89712046917899,16.20312012906776 C27.71507782982402,16.031485149868487 26.461097747013355,16.38370997674699 25.542328240969265,17.146067780007744 C25.27786112519439,17.36576055338281 25.025632329675464,17.630227669157687 24.781164420172505,17.886038412068597 C24.315809754830482,18.373780248610522 23.83523181307253,18.877640848416377 23.187794821971284,19.18927027151905 C21.877996058968858,19.820290003740368 20.497155339358734,19.43135021609402 19.161984448996414,19.055544235551622 c-0.9665288046038871,-0.2710340193268467 -1.9646981445036396,-0.5516198983656527 -2.8894375628677045,-0.41580439308623063 c-0.9924979231957767,0.14835232115136873 -1.906789994999886,0.8325042730204575 -2.327967309174094,1.743214397432582 c-0.06746000921571295,0.14566586060738015 -0.2149168435190855,0.23969197964698005 -0.3752089893104034,0.23969197964698005 " style="fill-rule: nonzero; stroke: none; stroke-opacity: 1;" id="path1408" stroke-width="0" fill="#ffffff" fill-opacity="1"/>
        </g>
        <g style="" id="g3634" stroke-width="0" fill="#ffffff" fill-opacity="1">
          <g id="g1250" style="" stroke-width="0" fill="#ffffff" fill-opacity="1">
            <path d="m6.099494979459649,18.0636085058201 c-2.40408369125377,0.14029293951940303 -4.317142094189629,2.141407549174888 -4.317142094189629,4.5804152275005094 c0,2.5273623806612453 2.0578287766952434,4.583698679276495 4.587579122284478,4.583698679276495 c2.439007678325621,0 4.439823792365107,-1.9109689336238682 4.5804152275005094,-4.313261651181645 H6.369932007554499 c-0.1492478079993649,0 -0.2704370280948492,-0.12089072447948558 -0.2704370280948492,-0.2704370280948492 zm0.2704370280948492,9.704987962966701 c-2.8279474659719663,0 -5.128453178474177,-2.299013234422217 -5.128453178474177,-5.124572735466193 c0,-2.8279474659719663 2.300505712502211,-5.129050169706174 5.128453178474177,-5.129050169706174 c0.1492478079993649,0 0.2704370280948492,0.12089072447948558 0.2704370280948492,0.2704370280948492 v4.588176113516476 h4.588474609132475 c0.1492478079993649,0 0.2704370280948492,0.12118922009548432 0.2704370280948492,0.2704370280948492 c0,2.8255595010439762 -2.301102703734208,5.124572735466193 -5.129348665322174,5.124572735466193 " style="fill-rule: nonzero; stroke: none;" id="path1252" stroke-width="0" fill="#ffffff" fill-opacity="1"/>
          </g>
          <g id="g1258" style="" stroke-width="0" fill="#ffffff" fill-opacity="1">
            <path d="M8.768829920479547,20.453030931934933 H11.556480478291686 C11.426933380948235,18.975776128357218 10.24608472405726,17.794927471466245 8.768829920479547,17.665380374122794 zm3.0697289149309377,0.5408740561896984 h-3.3401659430257866 c-0.1492478079993649,0 -0.2704370280948492,-0.12118922009548432 -0.2704370280948492,-0.2704370280948492 v-3.3401659430257866 c0,-0.1492478079993649 0.12118922009548432,-0.2704370280948492 0.2704370280948492,-0.2704370280948492 c1.990965758711528,0 3.610602971120636,1.619637212409108 3.610602971120636,3.610602971120636 c0,0.1492478079993649 -0.12118922009548432,0.2704370280948492 -0.2704370280948492,0.2704370280948492 " style="fill-rule: nonzero; stroke: none;" id="path1260" stroke-width="0" fill="#ffffff" fill-opacity="1"/>
          </g>
          <g id="g1266" style="" stroke-width="0" fill="#ffffff" fill-opacity="1">
            <path d="m30.39993307740704,4.288210727253727 h-25.910314955537743 c-0.14954630361536364,0 -0.27073552371084797,0.12118922009548432 -0.27073552371084797,0.2704370280948492 v13.39021483808702 c0,0.1408899307514005 0.10865240422353767,0.25252729113492545 0.24566189196695465,0.2656610982388696 c0.040296908159828525,-0.11283134284751989 0.09462311027159737,-0.21849879091107025 0.17282896166326459,-0.2967046423027374 c0.15253125977535092,-0.15253125977535092 0.33282261183858375,-0.21879728652706898 0.5160989200618039,-0.2238717119990474 c-0.02477513612789458,-0.007462390399968247 -0.04955027225578916,-0.015521772031933953 -0.0770118689276723,-0.015521772031933953 h-0.31640535295865363 v-12.849042286281323 h25.369142403732045 v21.146324924198016 h-20.470232353960895 c-0.09671257958358848,0.12745762803145763 -0.19342515916717695,0.25461676044691656 -0.3035700414707082,0.3692390769904288 c-0.057012662655757405,0.059102131967748515 -0.11850275955149576,0.10477196121555417 -0.17850037836724045,0.15491922470334077 c0.02268566681590347,0.006268407935973328 0.04417735116781202,0.0170142501119276 0.06835549606370914,0.0170142501119276 H30.39993307740704 c0.14954630361536364,0 0.2704370280948492,-0.12118922009548432 0.2704370280948492,-0.27073552371084797 V4.558647755348576 C30.670370105501892,4.409399947349211 30.549479381022405,4.288210727253727 30.39993307740704,4.288210727253727 " style="fill-rule: nonzero; stroke: none;" id="path1268" stroke-width="0" fill="#ffffff" fill-opacity="1"/>
          </g>
          <g id="g1278" style="" stroke-width="0" fill="#ffffff" fill-opacity="1">
            <path d="m30.40196446541873,9.888137148198638 h-25.912404424849736 c-0.14954630361536364,0 -0.27073552371084797,-0.12118922009548432 -0.27073552371084797,-0.2704370280948492 c0,-0.14954630361536364 0.12118922009548432,-0.27073552371084797 0.27073552371084797,-0.27073552371084797 L30.40196446541873,9.34696459639294 C30.551510769034092,9.34696459639294 30.67240149351358,9.468153816488424 30.67240149351358,9.61770012010379 C30.67240149351358,9.766947928103153 30.551510769034092,9.888137148198638 30.40196446541873,9.888137148198638 " style="fill-rule: nonzero; stroke: none;" id="path1280" stroke-width="0" fill="#ffffff" fill-opacity="1"/>
          </g>
          <g id="g1290" style="" stroke-width="0" fill="#ffffff" fill-opacity="1">
            <path d="m28.13235749454168,13.001207393372908 h-0.8041471895005781 c-0.1492478079993649,0 -0.2704370280948492,-0.12118922009548432 -0.2704370280948492,-0.2704370280948492 c0,-0.1492478079993649 0.12118922009548432,-0.2704370280948492 0.2704370280948492,-0.2704370280948492 H28.13235749454168 C28.281605302541045,12.46033333718321 28.40279452263653,12.581522557278694 28.40279452263653,12.73077036527806 C28.40279452263653,12.880018173277424 28.281605302541045,13.001207393372908 28.13235749454168,13.001207393372908 " style="fill-rule: nonzero; stroke: none;" id="path1292" stroke-width="0" fill="#ffffff" fill-opacity="1"/>
          </g>
          <g id="g1298" style="" stroke-width="0" fill="#ffffff" fill-opacity="1">
            <path d="m27.328264888345885,13.001207393372908 h-12.866355032009249 c-0.1492478079993649,0 -0.2704370280948492,-0.12118922009548432 -0.2704370280948492,-0.2704370280948492 c0,-0.1492478079993649 0.12118922009548432,-0.2704370280948492 0.2704370280948492,-0.2704370280948492 H27.328264888345885 C27.47751269634525,12.46033333718321 27.598701916440735,12.581522557278694 27.598701916440735,12.73077036527806 C27.598701916440735,12.880018173277424 27.47751269634525,13.001207393372908 27.328264888345885,13.001207393372908 " style="fill-rule: nonzero; stroke: none;" id="path1300" stroke-width="0" fill="#ffffff" fill-opacity="1"/>
          </g>
          <g id="g1306" style="" stroke-width="0" fill="#ffffff" fill-opacity="1">
            <path d="m14.461826706068607,13.001207393372908 h-0.8077291368925629 c-0.1492478079993649,0 -0.2704370280948492,-0.12118922009548432 -0.2704370280948492,-0.2704370280948492 c0,-0.1492478079993649 0.12118922009548432,-0.2704370280948492 0.2704370280948492,-0.2704370280948492 H14.461826706068607 C14.61107451406797,12.46033333718321 14.732263734163455,12.581522557278694 14.732263734163455,12.73077036527806 C14.732263734163455,12.880018173277424 14.61107451406797,13.001207393372908 14.461826706068607,13.001207393372908 " style="fill-rule: nonzero; stroke: none;" id="path1308" stroke-width="0" fill="#ffffff" fill-opacity="1"/>
          </g>
          <g id="g1314" style="" stroke-width="0" fill="#ffffff" fill-opacity="1">
            <path d="m28.13235749454168,23.010220501599832 h-0.8041471895005781 c-0.1492478079993649,0 -0.2704370280948492,-0.12118922009548432 -0.2704370280948492,-0.2704370280948492 c0,-0.1492478079993649 0.12118922009548432,-0.2704370280948492 0.2704370280948492,-0.2704370280948492 H28.13235749454168 C28.281605302541045,22.469346445410135 28.40279452263653,22.59053566550562 28.40279452263653,22.739783473504982 C28.40279452263653,22.889031281504348 28.281605302541045,23.010220501599832 28.13235749454168,23.010220501599832 " style="fill-rule: nonzero; stroke: none;" id="path1316" stroke-width="0" fill="#ffffff" fill-opacity="1"/>
          </g>
          <g id="g1322" style="" stroke-width="0" fill="#ffffff" fill-opacity="1">
            <path d="m27.328264888345885,23.010220501599832 h-6.4331775160046245 c-0.1492478079993649,0 -0.2704370280948492,-0.12118922009548432 -0.2704370280948492,-0.2704370280948492 c0,-0.1492478079993649 0.12118922009548432,-0.2704370280948492 0.2704370280948492,-0.2704370280948492 H27.328264888345885 C27.47751269634525,22.469346445410135 27.598701916440735,22.59053566550562 27.598701916440735,22.739783473504982 C27.598701916440735,22.889031281504348 27.47751269634525,23.010220501599832 27.328264888345885,23.010220501599832 " style="fill-rule: nonzero; stroke: none;" id="path1324" stroke-width="0" fill="#ffffff" fill-opacity="1"/>
          </g>
          <g id="g1338" style="" stroke-width="0" fill="#ffffff" fill-opacity="1">
            <path d="m20.89100579459202,23.010220501599832 h-6.429297072996642 c-0.1492478079993649,0 -0.2701385324788505,-0.12118922009548432 -0.2701385324788505,-0.2704370280948492 c0,-0.1492478079993649 0.12089072447948558,-0.2704370280948492 0.2701385324788505,-0.2704370280948492 H20.89100579459202 C21.040253602591385,22.469346445410135 21.16144282268687,22.59053566550562 21.16144282268687,22.739783473504982 C21.16144282268687,22.889031281504348 21.040253602591385,23.010220501599832 20.89100579459202,23.010220501599832 " style="fill-rule: nonzero; stroke: none;" id="path1340" stroke-width="0" fill="#ffffff" fill-opacity="1"/>
          </g>
          <g id="g1346" style="" stroke-width="0" fill="#ffffff" fill-opacity="1">
            <path d="m14.461826706068607,23.010220501599832 h-0.8605628609243381 c-0.1492478079993649,0 -0.2704370280948492,-0.12118922009548432 -0.2704370280948492,-0.2704370280948492 c0,-0.1492478079993649 0.12118922009548432,-0.2704370280948492 0.2704370280948492,-0.2704370280948492 H14.461826706068607 C14.61107451406797,22.469346445410135 14.732263734163455,22.59053566550562 14.732263734163455,22.739783473504982 C14.732263734163455,22.889031281504348 14.61107451406797,23.010220501599832 14.461826706068607,23.010220501599832 " style="fill-rule: nonzero; stroke: none;" id="path1348" stroke-width="0" fill="#ffffff" fill-opacity="1"/>
          </g>
          <g id="g1354" style="" stroke-width="0" fill="#ffffff" fill-opacity="1">
            <path d="m14.461826706068607,22.92896498113143 c-0.1492478079993649,0 -0.2704370280948492,-0.12118922009548432 -0.2704370280948492,-0.2704370280948492 v-9.927665692501755 c0,-0.1492478079993649 0.12118922009548432,-0.2704370280948492 0.2704370280948492,-0.2704370280948492 c0.1492478079993649,0 0.2704370280948492,0.12118922009548432 0.2704370280948492,0.2704370280948492 V22.65852795303658 C14.732263734163455,22.807775761035945 14.61107451406797,22.92896498113143 14.461826706068607,22.92896498113143 " style="fill-rule: nonzero; stroke: none;" id="path1356" stroke-width="0" fill="#ffffff" fill-opacity="1"/>
          </g>
          <g id="g1362" style="" stroke-width="0" fill="#ffffff" fill-opacity="1">
            <path d="m27.328264888345885,23.010220501599832 c-0.1492478079993649,0 -0.2704370280948492,-0.12118922009548432 -0.2704370280948492,-0.2704370280948492 v-10.008856500053408 c0,-0.14954630361536364 0.12118922009548432,-0.2704370280948492 0.2704370280948492,-0.2704370280948492 c0.1492478079993649,0 0.2704370280948492,0.12089072447948558 0.2704370280948492,0.2704370280948492 V22.739783473504982 C27.598701916440735,22.889031281504348 27.47751269634525,23.010220501599832 27.328264888345885,23.010220501599832 " style="fill-rule: nonzero; stroke: none;" id="path1364" stroke-width="0" fill="#ffffff" fill-opacity="1"/>
          </g>
          <g id="g1370" style="" stroke-width="0" fill="#ffffff" fill-opacity="1">
            <path d="m16.981631448827414,20.328259983072172 c-0.1492478079993649,0 -0.2704370280948492,-0.12118922009548432 -0.2704370280948492,-0.2704370280948492 v-4.6413083331642495 c0,-0.14954630361536364 0.12118922009548432,-0.2704370280948492 0.2704370280948492,-0.2704370280948492 c0.1492478079993649,0 0.2704370280948492,0.12089072447948558 0.2704370280948492,0.2704370280948492 V20.057822954977322 C17.252068476922265,20.207070762976688 17.13087925682678,20.328259983072172 16.981631448827414,20.328259983072172 " style="fill-rule: nonzero; stroke: none;" id="path1372" stroke-width="0" fill="#ffffff" fill-opacity="1"/>
          </g>
          <g id="g1378" style="" stroke-width="0" fill="#ffffff" fill-opacity="1">
            <path d="m19.590844592191303,20.328259983072172 c-0.1492478079993649,0 -0.2704370280948492,-0.12118922009548432 -0.2704370280948492,-0.2704370280948492 v-2.536018753525209 c0,-0.1492478079993649 0.12118922009548432,-0.2704370280948492 0.2704370280948492,-0.2704370280948492 c0.1492478079993649,0 0.2704370280948492,0.12118922009548432 0.2704370280948492,0.2704370280948492 V20.057822954977322 C19.861281620286153,20.207070762976688 19.74009240019067,20.328259983072172 19.590844592191303,20.328259983072172 " style="fill-rule: nonzero; stroke: none;" id="path1380" stroke-width="0" fill="#ffffff" fill-opacity="1"/>
          </g>
          <g id="g1386" style="" stroke-width="0" fill="#ffffff" fill-opacity="1">
            <path d="m22.200057735555205,20.328259983072172 c-0.1492478079993649,0 -0.2704370280948492,-0.12118922009548432 -0.2704370280948492,-0.2704370280948492 v-4.6413083331642495 c0,-0.14954630361536364 0.12118922009548432,-0.2704370280948492 0.2704370280948492,-0.2704370280948492 c0.1492478079993649,0 0.2704370280948492,0.12089072447948558 0.2704370280948492,0.2704370280948492 V20.057822954977322 C22.470494763650056,20.207070762976688 22.34930554355457,20.328259983072172 22.200057735555205,20.328259983072172 " style="fill-rule: nonzero; stroke: none;" id="path1388" stroke-width="0" fill="#ffffff" fill-opacity="1"/>
          </g>
          <g id="g1394" style="" stroke-width="0" fill="#ffffff" fill-opacity="1">
            <path d="m24.80481640027459,20.328259983072172 c-0.1492478079993649,0 -0.2704370280948492,-0.12118922009548432 -0.2704370280948492,-0.2704370280948492 v-1.3817362064581205 c0,-0.1492478079993649 0.12118922009548432,-0.2704370280948492 0.2704370280948492,-0.2704370280948492 c0.1492478079993649,0 0.2704370280948492,0.12118922009548432 0.2704370280948492,0.2704370280948492 V20.057822954977322 C25.07525342836944,20.207070762976688 24.954064208273955,20.328259983072172 24.80481640027459,20.328259983072172 " style="fill-rule: nonzero; stroke: none;" id="path1396" stroke-width="0" fill="#ffffff" fill-opacity="1"/>
          </g>
          <g id="g1402" style="" stroke-width="0" fill="#ffffff" fill-opacity="1">
            <path d="m13.568161730728647,20.40079784288048 c-0.035222482687850123,0 -0.07074346099169897,-0.007462390399968247 -0.10447346559955545,-0.02328265804790093 c-0.12536815871946652,-0.057609653887754866 -0.17969436083123538,-0.2059619750391236 -0.12178621132748177,-0.33103163814259134 c0.5205763543017848,-1.1253284723152115 1.6059064140731663,-1.937833539063754 2.8321264045959484,-2.1205128560549764 c1.0617489061074818,-0.15879966771132428 2.1315571938469295,0.14238240883139414 3.166142998898527,0.4334156344301557 c1.2733822978505813,0.35789624358247707 2.476021134709464,0.6960917765090379 3.5589632295528557,0.17461993535925696 c0.5381875956457098,-0.2590941946868975 0.9572754405079265,-0.6984797414370277 1.4011384214980378,-1.1632374155470502 c0.25760171660690384,-0.26984003686285174 0.5235613104617721,-0.5486349422056654 0.817579492220521,-0.7928043560926264 c1.0611519148754844,-0.8814575540442492 2.5100496349333192,-1.2883070786505177 3.875368582511509,-1.0889120071633664 c0.13641249651141954,0.019999206271914902 0.23073711116701814,0.1468598430713751 0.211036400511102,0.28327233958279463 C29.184258377318194,15.908737317715595 29.055905262438742,16.004255914835188 28.920985244007316,15.983062726099277 C27.692675784172543,15.804263852116039 26.390936402802083,16.169622486098483 25.436645918454143,16.961829850959113 C25.165014907895298,17.18779103227015 24.908905669368387,17.45613859105301 24.66175129932144,17.715232785739907 C24.206545484923378,18.19222878010588 23.73581789849338,18.68534353773578 23.11554400844802,18.983839153734507 C21.86245941248535,19.58769578489994 20.511169758859104,19.207412370117556 19.20525143886466,18.83996426682312 C18.221111392916846,18.563557326408297 17.204435324825173,18.27849401312951 16.247458379933246,18.41968243949691 C15.201529741473697,18.575795646664247 14.238881379877792,19.296662559301176 13.795018398887683,20.256027469121094 C13.752632021415863,20.347068632000706 13.662486345384245,20.40079784288048 13.568161730728647,20.40079784288048 " style="fill-rule: nonzero; stroke: none;" id="path1404" stroke-width="0" fill="#ffffff" fill-opacity="1"/>
          </g>
        </g>
      </g>
    </g>
  </g></g></svg>