<?xml version="1.0" encoding="UTF-8" standalone="no"?>
<svg
   xmlns:dc="http://purl.org/dc/elements/1.1/"
   xmlns:cc="http://creativecommons.org/ns#"
   xmlns:rdf="http://www.w3.org/1999/02/22-rdf-syntax-ns#"
   xmlns:svg="http://www.w3.org/2000/svg"
   xmlns="http://www.w3.org/2000/svg"
   xmlns:sodipodi="http://sodipodi.sourceforge.net/DTD/sodipodi-0.dtd"
   xmlns:inkscape="http://www.inkscape.org/namespaces/inkscape"
   inkscape:version="1.0 (1.0+r73+1)"
   inkscape:export-ydpi="96"
   inkscape:export-xdpi="96"
   inkscape:export-filename="/home/gabriela/bitmap.svg.png"
   width="31.809216"
   height="25.447811"
   viewBox="0 0 31.809216 25.447811"
   version="1.1"
   id="SVGRoot"
   sodipodi:docname="painel.svg">
  <defs
     id="defs3562">
    <clipPath
       clipPathUnits="userSpaceOnUse"
       id="clipPath608">
      <path
         d="m 741.293,867.44 h 72.424 v -61.37 h -72.424 z"
         id="path606" />
    </clipPath>
  </defs>
  <sodipodi:namedview
     fit-margin-bottom="0"
     fit-margin-right="0"
     fit-margin-left="0"
     fit-margin-top="0"
     inkscape:window-maximized="1"
     inkscape:window-y="180"
     inkscape:window-x="0"
     inkscape:window-height="872"
     inkscape:window-width="1600"
     showgrid="true"
     inkscape:document-rotation="0"
     inkscape:current-layer="layer1"
     inkscape:document-units="px"
     inkscape:cy="16.209787"
     inkscape:cx="-12.603953"
     inkscape:zoom="11.2"
     inkscape:pageshadow="2"
     inkscape:pageopacity="0"
     borderopacity="1.0"
     bordercolor="#666666"
     pagecolor="#ffffff"
     id="base">
    <inkscape:grid
       originy="-2.2409641"
       originx="-0.19079004"
       type="xygrid"
       id="grid3571" />
  </sodipodi:namedview>
  <metadata
     id="metadata3565">
    <rdf:RDF>
      <cc:Work
         rdf:about="">
        <dc:format>image/svg+xml</dc:format>
        <dc:type
           rdf:resource="http://purl.org/dc/dcmitype/StillImage" />
        <dc:title></dc:title>
      </cc:Work>
    </rdf:RDF>
  </metadata>
  <g
     transform="translate(-0.19079004,-2.2409641)"
     id="layer1"
     inkscape:groupmode="layer"
     inkscape:label="Layer 1">
    <g
       transform="matrix(0.43799265,0,0,-0.43799265,-266.81934,380.6155)"
       style="display:inline;fill:#ffffff"
       id="g2325"
       inkscape:export-filename="/home/gabriela/Imagens/g2325.png"
       inkscape:export-xdpi="96"
       inkscape:export-ydpi="96">
      <g
         style="fill:#ffffff"
         transform="translate(667.5278,829.4298)"
         id="g218">
        <path
           id="path220"
           style="fill:#ffffff;fill-opacity:1;fill-rule:nonzero;stroke:none"
           d="m 0,0 c -0.584,0 -1.059,-0.475 -1.059,-1.059 v -3.372 c 0,-0.584 0.475,-1.059 1.059,-1.059 0.584,0 1.059,0.475 1.059,1.059 v 3.372 C 1.059,-0.475 0.584,0 0,0" />
      </g>
      <g
         style="fill:#ffffff"
         inkscape:export-ydpi="96"
         inkscape:export-xdpi="96"
         inkscape:export-filename="/home/gabriela/Imagens/painel_icon.png"
         transform="translate(672.6269,841.8214)"
         id="g222">
        <g
           style="fill:#ffffff"
           id="g2299">
          <g
             style="fill:#ffffff"
             inkscape:export-ydpi="96"
             inkscape:export-xdpi="96"
             inkscape:export-filename="/home/gabriela/Imagens/painel_icon.png"
             id="g2306">
            <g
               style="fill:#ffffff"
               transform="translate(-44.894502,-9.2362002)"
               id="g210">
              <path
                 id="path212"
                 style="fill:#ffffff;fill-opacity:1;fill-rule:nonzero;stroke:none"
                 d="m 0,0 c -0.584,0 -1.059,-0.475 -1.059,-1.059 v -8.152 c 0,-0.583 0.475,-1.058 1.059,-1.058 h 8.151 c 0.585,0 1.06,0.475 1.06,1.058 C 9.211,-4.132 5.079,0 0,0" />
            </g>
            <g
               style="fill:#ffffff"
               transform="translate(-19.106501,11.7709)"
               id="g214">
              <path
                 id="path216"
                 style="fill:#ffffff;fill-opacity:1;fill-rule:nonzero;stroke:none"
                 d="m 0,0 c -1.686,0 -3.058,1.37 -3.058,3.053 0,1.69 1.372,3.065 3.058,3.065 1.684,0 3.055,-1.375 3.055,-3.065 C 3.055,1.37 1.684,0 0,0 m -16.515,3.053 c 0,1.69 1.373,3.065 3.06,3.065 1.685,0 3.057,-1.375 3.057,-3.065 C -10.398,1.37 -11.77,0 -13.455,0 c -1.687,0 -3.06,1.37 -3.06,3.053 m -13.455,0 c 0,1.69 1.371,3.065 3.057,3.065 1.688,0 3.06,-1.375 3.06,-3.065 0,-1.683 -1.372,-3.053 -3.06,-3.053 -1.686,0 -3.057,1.37 -3.057,3.053 m 11.904,-37.958 c 0,0.584 -0.475,1.059 -1.059,1.059 h -10.799 v 10.799 c 0,0.584 -0.475,1.059 -1.059,1.059 -1.084,0 -2.131,-0.15 -3.138,-0.402 -0.007,0 -0.011,0.003 -0.018,0.003 h -0.373 v 18.214 h 61.114 v -38.463 h -47.267 c 1.624,2.158 2.599,4.829 2.599,7.731 m -13.976,10.747 v -10.747 c 0,-0.584 0.475,-1.059 1.059,-1.059 h 10.748 c -0.537,-5.488 -5.178,-9.728 -10.748,-9.728 -5.953,0 -10.797,4.839 -10.797,10.787 0,5.57 4.244,10.212 9.738,10.747 m 60.769,21.044 c 0,0.009 -0.005,0.016 -0.005,0.025 V 9.232 c 0,0.584 -0.475,1.059 -1.06,1.059 h -63.234 c -0.584,0 -1.059,-0.475 -1.059,-1.059 v -32.539 c -4.295,-2.101 -7.267,-6.503 -7.267,-11.598 0,-7.116 5.794,-12.905 12.915,-12.905 3.172,0 6.076,1.152 8.326,3.054 h 50.319 c 0.585,0 1.06,0.476 1.06,1.06 V -3.14 c 0,0.009 0.005,0.017 0.005,0.026" />
            </g>
            <path
               id="path224"
               style="fill:#ffffff;fill-opacity:1;fill-rule:nonzero;stroke:none"
               d="m 0,0 v -5.63 c -1.675,-0.472 -3.255,-1.283 -4.59,-2.393 -0.731,-0.606 -1.384,-1.29 -2.029,-1.966 -1.057,-1.107 -2.055,-2.154 -3.304,-2.755 -0.156,-0.075 -0.316,-0.12 -0.474,-0.179 v 7.428 c 0,0.584 -0.475,1.059 -1.059,1.059 -0.584,0 -1.059,-0.475 -1.059,-1.059 v -7.843 c -1.352,-0.046 -2.775,0.233 -4.25,0.619 v 2.086 c 0,0.583 -0.475,1.058 -1.059,1.058 -0.584,0 -1.059,-0.475 -1.059,-1.058 v -1.505 c -1.396,0.389 -2.815,0.759 -4.249,0.928 v 5.715 c 0,0.584 -0.475,1.059 -1.06,1.059 -0.584,0 -1.059,-0.475 -1.059,-1.059 v -5.635 c -0.323,-0.016 -0.647,-0.046 -0.971,-0.095 -1.08,-0.161 -2.111,-0.525 -3.06,-1.036 V 0 Z m -14.641,-22.309 h -0.01 -14.631 v 7.664 c 0.987,0.738 2.148,1.245 3.357,1.426 0.223,0.032 0.448,0.048 0.674,0.062 v -3.666 c 0,-0.583 0.475,-1.058 1.059,-1.058 0.585,0 1.06,0.475 1.06,1.058 v 3.574 c 1.408,-0.19 2.842,-0.588 4.249,-0.983 v -2.591 c 0,-0.583 0.475,-1.058 1.059,-1.058 0.584,0 1.059,0.475 1.059,1.058 v 2.024 c 1.416,-0.351 2.839,-0.601 4.25,-0.564 v -1.46 c 0,-0.583 0.475,-1.058 1.059,-1.058 0.584,0 1.059,0.475 1.059,1.058 v 1.766 c 0.452,0.125 0.902,0.281 1.349,0.496 1.58,0.761 2.753,1.991 3.889,3.181 0.596,0.624 1.212,1.27 1.857,1.806 0.972,0.807 2.103,1.412 3.302,1.82 V -22.309 Z M 5.18,-5.277 c -1.013,0.148 -2.042,0.148 -3.061,0.04 L 2.119,0 H 3.022 C 3.605,0 4.08,0.475 4.08,1.059 4.08,1.643 3.605,2.118 3.022,2.118 h -1.963 -31.4 -1.971 c -0.584,0 -1.06,-0.475 -1.06,-1.059 0,-0.584 0.476,-1.059 1.06,-1.059 h 0.912 v -13.787 c -0.842,-0.807 -1.54,-1.768 -2.037,-2.84 -0.233,-0.504 -0.012,-1.104 0.492,-1.338 0.134,-0.062 0.277,-0.094 0.423,-0.094 0.392,0 0.751,0.23 0.915,0.585 0.061,0.13 0.138,0.251 0.207,0.378 v -5.213 h -1.041 c -0.584,0 -1.059,-0.475 -1.059,-1.059 0,-0.584 0.475,-1.059 1.059,-1.059 h 2.1 15.69 0.01 15.7 1.963 c 0.583,0 1.058,0.475 1.058,1.059 0,0.584 -0.475,1.059 -1.058,1.059 H 2.119 v 15.043 c 0.919,0.116 1.85,0.126 2.766,-0.007 0.266,-0.042 0.53,0.024 0.747,0.185 0.219,0.162 0.361,0.398 0.4,0.667 0.081,0.55 -0.301,1.062 -0.852,1.144" />
          </g>
        </g>
      </g>
    </g>
  </g>
</svg>
