<?xml version="1.0" encoding="UTF-8" standalone="no"?>
<svg
   xmlns:dc="http://purl.org/dc/elements/1.1/"
   xmlns:cc="http://creativecommons.org/ns#"
   xmlns:rdf="http://www.w3.org/1999/02/22-rdf-syntax-ns#"
   xmlns:svg="http://www.w3.org/2000/svg"
   xmlns="http://www.w3.org/2000/svg"
   xmlns:sodipodi="http://sodipodi.sourceforge.net/DTD/sodipodi-0.dtd"
   xmlns:inkscape="http://www.inkscape.org/namespaces/inkscape"
   sodipodi:docname="cnpq.svg"
   inkscape:version="1.0 (1.0+r73+1)"
   width="200px"
   height="32px"
   viewBox="0 0 200 32"
   version="1.1"
   id="SVGRoot">
  <defs
     id="defs9371" />
  <sodipodi:namedview
     inkscape:window-maximized="0"
     inkscape:window-y="27"
     inkscape:window-x="67"
     inkscape:window-height="1023"
     inkscape:window-width="1795"
     showgrid="false"
     inkscape:document-rotation="0"
     inkscape:current-layer="layer1"
     inkscape:document-units="px"
     inkscape:cy="43.239196"
     inkscape:cx="78.634504"
     inkscape:zoom="3.959798"
     inkscape:pageshadow="2"
     inkscape:pageopacity="0.0"
     borderopacity="1.0"
     bordercolor="#666666"
     pagecolor="#ffffff"
     id="base" />
  <metadata
     id="metadata9374">
    <rdf:RDF>
      <cc:Work
         rdf:about="">
        <dc:format>image/svg+xml</dc:format>
        <dc:type
           rdf:resource="http://purl.org/dc/dcmitype/StillImage" />
        <dc:title></dc:title>
      </cc:Work>
    </rdf:RDF>
  </metadata>
  <g
     id="layer1"
     inkscape:groupmode="layer"
     inkscape:label="Layer 1">
    <g
       transform="matrix(0.80872773,0,0,-0.80872773,-346.59907,61.368968)"
       id="g11127">
      <g
         transform="translate(537.1107,65.4138)"
         id="g1537">
        <path
           id="path1539"
           style="fill:#08532a;fill-opacity:1;fill-rule:evenodd;stroke:none"
           d="M 0,0 C 0.409,-1.637 0.363,-2.526 0.082,-3.848 -0.292,-5.31 -1.099,-6.409 -1.86,-7.087 l 2.725,-9.322 h -2.701 c -0.901,3.415 -2.024,7.181 -2.959,10.585 0.549,0.292 2.093,1.169 2.339,3.228 0.246,1.918 -0.959,3.415 -1.778,3.965 -0.713,0.444 -1.777,0.783 -2.772,0.584 -1.918,-0.21 -3.216,-1.696 -3.52,-3.345 -0.035,-0.222 -0.035,-0.339 -0.07,-0.643 0,0 -0.749,-2.105 -0.994,-2.772 h 0.561 l -0.012,-5.462 h 6.503 l 0.749,-2.666 h -9.942 v 6.117 l -1.368,0.011 c 0.491,1.486 1.766,4.772 1.766,4.772 0.152,1.193 0.222,3.462 2.643,5.322 1.135,0.947 2.901,1.59 4.784,1.438 C -2.772,4.339 -0.702,2.199 0,0" />
      </g>
      <g
         transform="translate(539.8709,67.8464)"
         id="g1541">
        <path
           id="path1543"
           style="fill:#08532a;fill-opacity:1;fill-rule:evenodd;stroke:none"
           d="m 0,0 c 1.976,-4.362 0.69,-8.467 -0.772,-10.409 l 2.245,-8.362 h -2.654 l -2.597,9.005 c 1.602,1.544 2.608,4.679 1.825,7.263 -0.702,2.608 -2.877,4.819 -5.965,5.427 -3.298,0.679 -6.421,-1.018 -7.754,-3.357 -0.842,-1.286 -0.994,-2.526 -1.135,-4.035 0,0 -1.661,-3.999 -2.222,-5.449 h 1.766 l 0.012,-6.152 h 10.9 l 0.76,-2.737 h -14.362 v 6.479 l -3.076,0.012 c 0,0 3.333,7.625 3.322,7.847 0.187,2.667 1.392,5.989 3.941,7.965 1.298,1.018 3.029,2 5.357,2.222 2.514,0.246 3.59,-0.21 5.263,-0.772 C -2.328,3.743 -0.421,1.029 0,0" />
      </g>
      <g
         transform="translate(527.9297,63.2971)"
         id="g1545">
        <path
           id="path1547"
           style="fill:#08532a;fill-opacity:1;fill-rule:evenodd;stroke:none"
           d="M 0,0 C 0,1.485 1.204,2.678 2.678,2.678 4.152,2.678 5.356,1.485 5.356,0 5.356,-1.474 4.152,-2.667 2.678,-2.667 1.204,-2.667 0,-1.474 0,0" />
      </g>
      <g
         transform="translate(559.6561,45.4851)"
         id="g1549">
        <path
           id="path1551"
           style="fill:#08532a;fill-opacity:1;fill-rule:evenodd;stroke:none"
           d="m 0,0 c -0.008,-0.036 -0.015,-0.074 -0.019,-0.112 -0.004,-0.039 -0.006,-0.078 -0.006,-0.117 0,-0.111 0.025,-0.213 0.077,-0.306 0.051,-0.092 0.145,-0.139 0.281,-0.139 0.185,0 0.331,0.066 0.438,0.195 0.107,0.131 0.178,0.278 0.214,0.441 0.003,0.012 0.006,0.023 0.009,0.036 0.002,0.012 0.004,0.024 0.004,0.035 0.008,0.036 0.014,0.072 0.016,0.108 0.003,0.036 0.005,0.071 0.005,0.104 0,0.122 -0.028,0.224 -0.082,0.306 C 0.883,0.632 0.783,0.673 0.636,0.673 0.45,0.673 0.308,0.604 0.208,0.465 0.108,0.327 0.039,0.17 0,-0.004 Z m 1.318,-1.089 h -0.57 l 0.059,0.278 H 0.798 C 0.729,-0.902 0.652,-0.973 0.567,-1.021 0.483,-1.069 0.396,-1.104 0.308,-1.123 0.271,-1.131 0.235,-1.138 0.197,-1.142 0.16,-1.146 0.123,-1.148 0.087,-1.148 c -0.26,0 -0.445,0.079 -0.555,0.235 -0.109,0.157 -0.164,0.349 -0.164,0.576 0,0.061 0.003,0.123 0.01,0.185 0.007,0.063 0.018,0.126 0.031,0.189 0.075,0.358 0.214,0.63 0.416,0.817 0.203,0.188 0.419,0.293 0.649,0.318 0.014,0 0.029,0.001 0.046,0.002 0.016,0.002 0.033,0.002 0.05,0.002 0.144,0 0.255,-0.025 0.334,-0.074 C 0.983,1.052 1.042,0.998 1.081,0.939 1.092,0.92 1.102,0.901 1.112,0.883 1.122,0.865 1.129,0.848 1.135,0.832 l 0.008,0.003 0.229,1.061 h 0.582 z m -3.734,0 h -0.582 l 0.636,2.985 h 0.582 z m -1.518,0.794 0.059,0.282 c -0.034,-0.025 -0.081,-0.047 -0.142,-0.066 -0.061,-0.02 -0.153,-0.039 -0.278,-0.058 -0.111,-0.02 -0.21,-0.05 -0.298,-0.09 -0.087,-0.04 -0.143,-0.121 -0.168,-0.243 0,-0.009 -10e-4,-0.017 -0.002,-0.025 -0.001,-0.008 -0.003,-0.017 -0.006,-0.025 v -0.013 -0.012 c 0,-0.058 0.017,-0.102 0.052,-0.131 0.034,-0.029 0.071,-0.048 0.11,-0.056 0.011,0 0.022,-0.001 0.031,-0.002 0.01,-0.001 0.019,-0.002 0.027,-0.002 0.02,0 0.039,0.001 0.058,0.002 0.02,0.001 0.039,0.005 0.059,0.01 0.11,0.02 0.215,0.066 0.313,0.14 0.099,0.073 0.161,0.168 0.185,0.285 z m 0.745,0.836 -0.254,-1.198 c -0.008,-0.044 -0.015,-0.083 -0.019,-0.114 -0.004,-0.032 -0.006,-0.06 -0.006,-0.082 0,-0.052 0.009,-0.089 0.025,-0.11 0.017,-0.02 0.035,-0.035 0.054,-0.043 l -0.016,-0.083 h -0.628 c -0.003,0.019 -0.005,0.037 -0.007,0.053 -0.001,0.017 -0.002,0.034 -0.002,0.051 v 0.008 0.008 c 0,0.019 10e-4,0.039 0.002,0.06 0.002,0.021 0.004,0.047 0.007,0.077 -0.017,-0.014 -0.034,-0.027 -0.052,-0.042 -0.018,-0.013 -0.036,-0.028 -0.052,-0.045 -0.078,-0.058 -0.171,-0.111 -0.279,-0.158 -0.108,-0.047 -0.241,-0.071 -0.399,-0.071 -0.144,0 -0.273,0.038 -0.387,0.112 -0.113,0.076 -0.169,0.197 -0.166,0.367 0,0.024 0.001,0.051 0.004,0.078 0.003,0.028 0.007,0.056 0.013,0.084 0.047,0.216 0.143,0.381 0.289,0.494 0.145,0.114 0.313,0.184 0.505,0.212 l 0.54,0.084 c 0.011,-0.003 0.022,-0.003 0.031,0 0.01,0.002 0.021,0.005 0.032,0.008 0.038,0.008 0.075,0.025 0.11,0.05 0.034,0.025 0.057,0.062 0.068,0.112 0.003,0.014 0.005,0.026 0.007,0.035 0.001,0.01 0.002,0.02 0.002,0.032 0,0.069 -0.024,0.116 -0.071,0.141 -0.047,0.025 -0.098,0.04 -0.154,0.046 -0.019,0.002 -0.039,0.004 -0.058,0.004 h -0.054 c -0.114,0 -0.2,-0.023 -0.258,-0.069 C -4.42,0.597 -4.462,0.546 -4.487,0.49 -4.495,0.477 -4.502,0.462 -4.507,0.447 -4.513,0.432 -4.518,0.417 -4.524,0.403 l -0.561,0.004 c 0.091,0.297 0.229,0.495 0.413,0.595 0.185,0.1 0.378,0.156 0.58,0.17 0.025,0 0.051,0.001 0.077,0.002 0.027,0.002 0.054,0.002 0.081,0.002 0.042,0 0.086,-0.002 0.133,-0.006 0.048,-0.004 0.096,-0.01 0.146,-0.019 0.122,-0.025 0.233,-0.073 0.333,-0.145 0.099,-0.072 0.149,-0.183 0.149,-0.333 0,-0.019 -10e-4,-0.041 -0.004,-0.064 C -3.18,0.585 -3.184,0.561 -3.189,0.536 Z M -5.543,0.44 -5.867,-1.089 h -0.582 l 0.287,1.342 c 0.006,0.017 0.01,0.038 0.014,0.063 0.005,0.025 0.007,0.05 0.007,0.075 v 0.018 0.019 c 0,0.067 -0.02,0.126 -0.061,0.179 C -6.242,0.66 -6.324,0.686 -6.449,0.686 -6.576,0.686 -6.694,0.643 -6.8,0.557 -6.907,0.471 -6.979,0.344 -7.015,0.174 l -0.27,-1.263 h -0.582 l 0.47,2.212 H -6.84 L -6.906,0.798 h 0.008 c 0.017,0.019 0.036,0.041 0.058,0.067 0.022,0.025 0.048,0.051 0.079,0.078 0.064,0.059 0.145,0.112 0.243,0.161 0.099,0.048 0.22,0.072 0.364,0.072 0.189,0 0.341,-0.046 0.457,-0.139 0.117,-0.093 0.175,-0.23 0.175,-0.413 0,-0.028 -0.002,-0.058 -0.006,-0.09 C -5.532,0.502 -5.537,0.47 -5.543,0.437 Z M -8.636,0.017 c 0.005,0.022 0.01,0.046 0.014,0.072 0.005,0.027 0.007,0.054 0.007,0.081 0.002,0.014 0.004,0.027 0.004,0.04 v 0.04 c 0,0.113 -0.029,0.214 -0.086,0.303 -0.056,0.089 -0.167,0.133 -0.33,0.133 -0.175,0 -0.31,-0.05 -0.408,-0.15 C -9.531,0.437 -9.602,0.327 -9.646,0.208 -9.657,0.174 -9.668,0.141 -9.678,0.108 -9.688,0.075 -9.695,0.042 -9.7,0.012 -9.709,-0.026 -9.716,-0.067 -9.721,-0.108 -9.727,-0.15 -9.73,-0.191 -9.73,-0.233 c 0,-0.111 0.03,-0.21 0.088,-0.297 0.058,-0.088 0.167,-0.131 0.328,-0.131 0.175,0 0.311,0.05 0.408,0.149 0.097,0.1 0.167,0.21 0.212,0.329 0.014,0.033 0.025,0.066 0.035,0.1 0.01,0.033 0.017,0.065 0.023,0.095 z m 0.599,0 C -8.118,-0.369 -8.283,-0.655 -8.534,-0.842 -8.785,-1.029 -9.053,-1.13 -9.339,-1.144 -9.353,-1.146 -9.366,-1.148 -9.378,-1.148 h -0.04 c -0.255,0 -0.472,0.069 -0.651,0.206 -0.178,0.137 -0.268,0.35 -0.268,0.638 0,0.047 0.004,0.098 0.011,0.152 0.007,0.054 0.016,0.109 0.027,0.164 0.08,0.383 0.245,0.668 0.495,0.857 0.249,0.188 0.516,0.289 0.802,0.303 0.014,0.003 0.027,0.004 0.04,0.004 h 0.039 c 0.255,0 0.472,-0.069 0.651,-0.207 0.178,-0.139 0.268,-0.354 0.268,-0.645 0,-0.047 -0.002,-0.097 -0.006,-0.15 C -8.014,0.122 -8.023,0.068 -8.037,0.012 Z m -2.404,1.367 h -0.582 l 0.117,0.541 h 0.582 z m -0.054,-0.261 -0.47,-2.212 h -0.582 l 0.47,2.212 z m -1.896,-1.406 h 0.591 c -0.014,-0.047 -0.038,-0.106 -0.071,-0.176 -0.033,-0.071 -0.079,-0.144 -0.137,-0.219 -0.092,-0.119 -0.217,-0.227 -0.377,-0.324 -0.159,-0.097 -0.362,-0.146 -0.609,-0.146 -0.327,0 -0.547,0.081 -0.659,0.243 -0.112,0.162 -0.167,0.341 -0.164,0.535 0,0.055 0.003,0.11 0.008,0.164 0.006,0.054 0.014,0.106 0.025,0.156 0.078,0.358 0.224,0.651 0.439,0.882 0.215,0.23 0.509,0.344 0.884,0.344 0.041,0 0.084,-0.002 0.128,-0.006 0.045,-0.004 0.089,-0.012 0.134,-0.023 0.136,-0.033 0.261,-0.1 0.376,-0.201 0.115,-0.101 0.171,-0.259 0.168,-0.472 V 0.403 c 0,-0.025 -0.002,-0.05 -0.008,-0.075 l -0.59,0.005 v 0.008 0.008 c 0,0.017 -10e-4,0.033 -0.003,0.05 -10e-4,0.017 -0.003,0.033 -0.006,0.05 -0.011,0.061 -0.037,0.116 -0.077,0.166 -0.04,0.05 -0.107,0.073 -0.202,0.071 h -0.01 -0.014 c -0.147,0 -0.265,-0.049 -0.354,-0.145 -0.089,-0.098 -0.154,-0.206 -0.195,-0.325 -0.011,-0.028 -0.021,-0.056 -0.029,-0.085 -0.009,-0.029 -0.015,-0.058 -0.021,-0.086 -0.003,-0.005 -0.005,-0.011 -0.006,-0.018 -0.002,-0.007 -0.002,-0.015 -0.002,-0.023 -0.009,-0.033 -0.016,-0.07 -0.021,-0.11 -0.006,-0.04 -0.01,-0.081 -0.013,-0.123 -0.002,-0.011 -0.004,-0.022 -0.004,-0.033 v -0.033 c 0,-0.098 0.023,-0.185 0.069,-0.262 0.046,-0.078 0.136,-0.117 0.272,-0.117 0.092,0 0.17,0.022 0.235,0.067 0.065,0.044 0.117,0.092 0.156,0.145 0.025,0.033 0.045,0.066 0.06,0.098 0.015,0.032 0.024,0.057 0.027,0.077 z m -2.403,-0.012 v -0.004 c -0.025,-0.117 -0.087,-0.212 -0.185,-0.285 -0.098,-0.074 -0.203,-0.12 -0.314,-0.14 -0.02,-0.005 -0.039,-0.009 -0.058,-0.01 -0.02,-0.001 -0.039,-0.002 -0.058,-0.002 -0.009,0 -0.018,0.001 -0.027,0.002 -0.01,0.001 -0.021,0.002 -0.032,0.002 -0.038,0.008 -0.075,0.027 -0.11,0.056 -0.034,0.029 -0.052,0.073 -0.052,0.131 v 0.012 0.013 c 0.003,0.008 0.005,0.017 0.006,0.025 0.002,0.008 0.003,0.016 0.003,0.025 0.025,0.122 0.081,0.203 0.168,0.243 0.087,0.04 0.186,0.07 0.297,0.09 0.125,0.019 0.218,0.038 0.279,0.058 0.061,0.019 0.108,0.041 0.141,0.066 z m 0.744,0.836 V 0.536 c 0.006,0.025 0.01,0.049 0.013,0.073 0.002,0.023 0.004,0.045 0.004,0.064 0,0.15 -0.05,0.261 -0.15,0.333 -0.099,0.072 -0.211,0.12 -0.332,0.145 -0.05,0.009 -0.099,0.015 -0.146,0.019 -0.047,0.004 -0.091,0.006 -0.133,0.006 -0.028,0 -0.055,0 -0.081,-0.002 -0.026,-10e-4 -0.052,-0.002 -0.077,-0.002 -0.203,-0.014 -0.396,-0.07 -0.58,-0.17 -0.184,-0.1 -0.322,-0.298 -0.414,-0.595 l 0.562,-0.004 c 0.005,0.014 0.011,0.029 0.016,0.044 0.006,0.015 0.013,0.03 0.021,0.043 0.025,0.056 0.066,0.107 0.125,0.152 0.058,0.046 0.144,0.069 0.258,0.069 h 0.054 c 0.019,0 0.038,-0.002 0.058,-0.004 0.055,-0.006 0.107,-0.021 0.154,-0.046 0.047,-0.025 0.07,-0.072 0.07,-0.141 0,-0.012 0,-0.022 -0.002,-0.032 -10e-4,-0.009 -0.003,-0.021 -0.006,-0.035 -0.011,-0.05 -0.034,-0.087 -0.069,-0.112 -0.034,-0.025 -0.071,-0.042 -0.11,-0.05 -0.011,-0.003 -0.021,-0.006 -0.031,-0.008 -0.01,-0.003 -0.02,-0.003 -0.031,0 l -0.541,-0.084 c -0.191,-0.028 -0.359,-0.098 -0.505,-0.212 -0.145,-0.113 -0.242,-0.278 -0.289,-0.494 -0.006,-0.028 -0.01,-0.056 -0.012,-0.084 -0.003,-0.027 -0.005,-0.054 -0.005,-0.078 -0.002,-0.17 0.053,-0.291 0.167,-0.367 0.114,-0.074 0.242,-0.112 0.386,-0.112 0.158,0 0.292,0.024 0.4,0.071 0.108,0.047 0.201,0.1 0.278,0.158 0.017,0.017 0.034,0.032 0.052,0.045 0.018,0.015 0.036,0.028 0.052,0.042 -0.003,-0.03 -0.005,-0.056 -0.006,-0.077 -10e-4,-0.021 -0.002,-0.041 -0.002,-0.06 v -0.008 -0.008 c 0,-0.017 10e-4,-0.034 0.002,-0.051 0.001,-0.016 0.003,-0.034 0.006,-0.053 h 0.628 l 0.017,0.083 c -0.02,0.008 -0.038,0.023 -0.054,0.043 -0.017,0.021 -0.025,0.058 -0.025,0.11 0,0.022 0.002,0.05 0.006,0.082 0.004,0.031 0.01,0.07 0.019,0.114 z m -2.636,1.355 h 0.582 l -0.636,-2.985 h -0.624 l -0.765,2.128 h -0.008 l -0.453,-2.128 h -0.582 l 0.636,2.985 h 0.657 l 0.74,-2.079 h 0.008 z m -4.428,-1.879 c 0.006,0.022 0.01,0.046 0.015,0.072 0.004,0.027 0.006,0.054 0.006,0.081 0.002,0.014 0.004,0.027 0.004,0.04 v 0.04 c 0,0.113 -0.028,0.214 -0.085,0.303 -0.057,0.089 -0.167,0.133 -0.331,0.133 -0.174,0 -0.31,-0.05 -0.407,-0.15 -0.097,-0.099 -0.168,-0.209 -0.212,-0.328 -0.011,-0.034 -0.022,-0.067 -0.032,-0.1 -0.009,-0.033 -0.017,-0.066 -0.022,-0.096 -0.009,-0.038 -0.016,-0.079 -0.021,-0.12 -0.006,-0.042 -0.009,-0.083 -0.009,-0.125 0,-0.111 0.03,-0.21 0.088,-0.297 0.058,-0.088 0.168,-0.131 0.328,-0.131 0.175,0 0.311,0.05 0.408,0.149 0.097,0.1 0.167,0.21 0.212,0.329 0.014,0.033 0.025,0.066 0.035,0.1 0.01,0.033 0.017,0.065 0.023,0.095 z m 0.599,0 c -0.081,-0.386 -0.246,-0.672 -0.497,-0.859 -0.251,-0.187 -0.519,-0.288 -0.805,-0.302 -0.014,-0.002 -0.027,-0.004 -0.039,-0.004 h -0.04 c -0.255,0 -0.472,0.069 -0.65,0.206 -0.179,0.137 -0.269,0.35 -0.269,0.638 0,0.047 0.004,0.098 0.011,0.152 0.007,0.054 0.016,0.109 0.027,0.164 0.08,0.383 0.245,0.668 0.495,0.857 0.249,0.188 0.517,0.289 0.802,0.303 0.014,0.003 0.027,0.004 0.04,0.004 h 0.039 c 0.255,0 0.472,-0.069 0.651,-0.207 0.179,-0.139 0.268,-0.354 0.268,-0.645 0,-0.047 -0.002,-0.097 -0.006,-0.15 -0.004,-0.052 -0.013,-0.106 -0.027,-0.162 z M -23.102,0.44 V 0.437 c 0.006,0.033 0.011,0.065 0.015,0.097 0.004,0.032 0.006,0.062 0.006,0.09 0,0.183 -0.058,0.32 -0.174,0.413 -0.117,0.093 -0.269,0.139 -0.458,0.139 -0.158,0 -0.302,-0.034 -0.432,-0.103 -0.13,-0.07 -0.225,-0.149 -0.283,-0.238 h -0.008 l 0.228,1.061 h -0.582 l -0.636,-2.985 h 0.582 l 0.271,1.263 c 0.036,0.17 0.107,0.297 0.214,0.383 0.107,0.086 0.224,0.129 0.351,0.129 0.125,0 0.207,-0.026 0.248,-0.079 0.04,-0.053 0.06,-0.112 0.06,-0.179 V 0.409 0.391 c 0,-0.025 -0.002,-0.05 -0.007,-0.075 -0.004,-0.025 -0.008,-0.046 -0.014,-0.063 l -0.287,-1.342 h 0.582 z m -2.881,-1.529 h -0.582 l 0.636,2.985 h 0.582 z m -1.301,1.326 c 0.002,0.013 0.004,0.028 0.004,0.043 v 0.044 c 0,0.133 -0.033,0.227 -0.1,0.283 -0.067,0.055 -0.14,0.086 -0.22,0.091 h -0.017 -0.017 c -0.136,0 -0.25,-0.04 -0.343,-0.121 -0.093,-0.081 -0.163,-0.195 -0.21,-0.34 z m -0.171,-0.678 h 0.599 c -0.092,-0.183 -0.203,-0.326 -0.333,-0.431 -0.13,-0.103 -0.266,-0.176 -0.407,-0.217 -0.064,-0.02 -0.128,-0.035 -0.194,-0.044 -0.065,-0.01 -0.128,-0.015 -0.189,-0.015 -0.26,0 -0.474,0.059 -0.642,0.177 -0.168,0.117 -0.252,0.325 -0.252,0.621 0,0.061 0.004,0.125 0.013,0.192 0.008,0.066 0.02,0.138 0.037,0.216 0.011,0.055 0.033,0.13 0.065,0.225 0.031,0.094 0.079,0.192 0.143,0.295 0.092,0.15 0.224,0.287 0.397,0.411 0.174,0.125 0.404,0.187 0.693,0.187 0.03,0 0.06,0 0.091,-0.002 0.03,-10e-4 0.061,-0.005 0.091,-0.01 0.161,-0.025 0.309,-0.095 0.443,-0.21 0.135,-0.115 0.202,-0.312 0.202,-0.592 0,-0.059 -0.004,-0.121 -0.01,-0.188 -0.007,-0.066 -0.019,-0.138 -0.036,-0.216 l -0.025,-0.1 h -1.517 c -0.003,-0.022 -0.005,-0.045 -0.007,-0.07 -0.001,-0.025 -0.002,-0.052 -0.002,-0.079 0,-0.014 0.001,-0.028 0.002,-0.042 0.002,-0.014 0.002,-0.026 0.002,-0.037 0.011,-0.081 0.045,-0.153 0.1,-0.218 0.056,-0.066 0.16,-0.098 0.312,-0.098 0.014,0 0.028,0 0.042,0.002 0.014,0.001 0.027,0.003 0.041,0.006 0.069,0.011 0.135,0.036 0.198,0.075 0.062,0.039 0.11,0.091 0.143,0.158 z m -1.601,0.89 h -0.569 v 0.012 0.013 c 0,0.067 -0.018,0.127 -0.054,0.181 -0.036,0.053 -0.128,0.081 -0.275,0.081 -0.13,0 -0.224,-0.018 -0.28,-0.052 -0.057,-0.035 -0.094,-0.073 -0.11,-0.115 C -30.347,0.561 -30.35,0.553 -30.353,0.544 -30.356,0.536 -30.358,0.528 -30.361,0.52 V 0.513 0.507 C -30.364,0.504 -30.365,0.501 -30.365,0.499 V 0.49 c 0.002,-0.053 0.04,-0.093 0.112,-0.12 0.072,-0.028 0.158,-0.053 0.258,-0.075 0.038,-0.005 0.078,-0.012 0.118,-0.021 0.04,-0.008 0.08,-0.018 0.119,-0.029 0.152,-0.036 0.291,-0.089 0.417,-0.16 0.127,-0.071 0.19,-0.187 0.19,-0.347 0,-0.019 -0.002,-0.04 -0.005,-0.063 -0.002,-0.022 -0.006,-0.044 -0.012,-0.066 -0.044,-0.202 -0.13,-0.357 -0.256,-0.463 -0.126,-0.107 -0.261,-0.183 -0.405,-0.228 -0.086,-0.024 -0.17,-0.042 -0.252,-0.051 -0.081,-0.01 -0.154,-0.015 -0.218,-0.015 h -0.006 -0.006 c -0.228,0 -0.436,0.044 -0.624,0.131 -0.189,0.087 -0.283,0.246 -0.283,0.476 0,0.025 0.002,0.05 0.007,0.075 0.004,0.025 0.007,0.051 0.01,0.079 l 0.598,0.004 c -0.002,-0.013 -0.004,-0.027 -0.006,-0.039 -10e-4,-0.013 -0.002,-0.026 -0.002,-0.04 0,-0.075 0.031,-0.135 0.094,-0.181 0.062,-0.045 0.173,-0.068 0.33,-0.068 0.106,0 0.188,0.014 0.248,0.044 0.059,0.028 0.102,0.061 0.127,0.097 0.011,0.017 0.02,0.033 0.027,0.048 0.007,0.015 0.011,0.028 0.014,0.04 0,0.002 0.001,0.005 0.002,0.008 0.002,0.002 0.002,0.005 0.002,0.008 v 0.012 c 0,0.059 -0.036,0.102 -0.11,0.129 -0.073,0.028 -0.163,0.053 -0.268,0.075 -0.036,0.009 -0.072,0.016 -0.108,0.023 -0.036,0.007 -0.074,0.015 -0.112,0.023 -0.15,0.036 -0.287,0.089 -0.412,0.16 -0.125,0.071 -0.187,0.188 -0.187,0.352 0,0.019 0.002,0.04 0.006,0.062 0.004,0.022 0.008,0.044 0.01,0.067 0.006,0.03 0.014,0.061 0.025,0.091 0.011,0.03 0.024,0.061 0.038,0.091 0.064,0.139 0.174,0.266 0.331,0.383 0.156,0.116 0.376,0.174 0.658,0.174 h 0.061 c 0.021,0 0.041,-10e-4 0.06,-0.004 0.183,-0.008 0.35,-0.052 0.501,-0.13 0.151,-0.08 0.227,-0.233 0.227,-0.46 V 0.518 c 0,-0.024 -0.003,-0.048 -0.009,-0.073 z m -2.365,-0.009 -0.325,-1.529 h -0.582 l 0.287,1.342 c 0.006,0.017 0.01,0.038 0.014,0.063 0.005,0.025 0.007,0.05 0.007,0.075 v 0.018 0.019 c 0,0.067 -0.02,0.126 -0.061,0.179 -0.04,0.053 -0.122,0.079 -0.247,0.079 -0.127,0 -0.245,-0.043 -0.351,-0.129 -0.107,-0.086 -0.178,-0.213 -0.215,-0.383 l -0.27,-1.263 h -0.582 l 0.47,2.212 h 0.557 l -0.066,-0.325 h 0.008 c 0.017,0.019 0.036,0.041 0.058,0.067 0.022,0.025 0.049,0.051 0.079,0.078 0.064,0.059 0.145,0.112 0.244,0.161 0.098,0.048 0.219,0.072 0.363,0.072 0.189,0 0.341,-0.046 0.458,-0.139 0.116,-0.093 0.174,-0.23 0.174,-0.413 0,-0.028 -0.002,-0.058 -0.006,-0.09 -0.004,-0.032 -0.009,-0.064 -0.014,-0.097 z m -3.094,-0.423 c 0.006,0.022 0.01,0.046 0.015,0.072 0.004,0.027 0.006,0.054 0.006,0.081 0.003,0.014 0.004,0.027 0.004,0.04 v 0.04 c 0,0.113 -0.029,0.214 -0.085,0.303 -0.057,0.089 -0.167,0.133 -0.331,0.133 -0.175,0 -0.31,-0.05 -0.407,-0.15 -0.097,-0.099 -0.168,-0.209 -0.212,-0.328 -0.011,-0.034 -0.022,-0.067 -0.032,-0.1 -0.009,-0.033 -0.017,-0.066 -0.023,-0.096 -0.008,-0.038 -0.015,-0.079 -0.02,-0.12 -0.006,-0.042 -0.009,-0.083 -0.009,-0.125 0,-0.111 0.029,-0.21 0.088,-0.297 0.058,-0.088 0.167,-0.131 0.328,-0.131 0.175,0 0.311,0.05 0.408,0.149 0.097,0.1 0.168,0.21 0.212,0.329 0.014,0.033 0.025,0.066 0.035,0.1 0.01,0.033 0.017,0.065 0.023,0.095 z m 0.599,0 c -0.081,-0.386 -0.246,-0.672 -0.497,-0.859 -0.251,-0.187 -0.519,-0.288 -0.805,-0.302 -0.013,-0.002 -0.027,-0.004 -0.039,-0.004 h -0.04 c -0.255,0 -0.472,0.069 -0.65,0.206 -0.179,0.137 -0.269,0.35 -0.269,0.638 0,0.047 0.004,0.098 0.011,0.152 0.007,0.054 0.016,0.109 0.027,0.164 0.08,0.383 0.245,0.668 0.495,0.857 0.249,0.188 0.516,0.289 0.802,0.303 0.014,0.003 0.027,0.004 0.04,0.004 h 0.039 c 0.255,0 0.472,-0.069 0.651,-0.207 0.179,-0.139 0.268,-0.354 0.268,-0.645 0,-0.047 -0.002,-0.097 -0.006,-0.15 -0.004,-0.052 -0.013,-0.106 -0.027,-0.162 z m -2.37,0.901 h -0.624 c -0.003,0.025 -0.006,0.056 -0.01,0.092 -0.005,0.036 -0.012,0.072 -0.023,0.108 -0.022,0.078 -0.071,0.149 -0.146,0.215 -0.075,0.064 -0.199,0.097 -0.374,0.097 -0.055,0 -0.117,-0.008 -0.185,-0.025 -0.068,-0.016 -0.136,-0.044 -0.206,-0.083 -0.114,-0.067 -0.223,-0.173 -0.328,-0.32 -0.106,-0.147 -0.186,-0.352 -0.241,-0.615 -0.014,-0.061 -0.025,-0.123 -0.032,-0.186 -0.006,-0.062 -0.01,-0.121 -0.01,-0.176 0,-0.186 0.044,-0.342 0.131,-0.468 0.087,-0.126 0.232,-0.189 0.434,-0.189 0.172,0 0.326,0.048 0.462,0.143 0.136,0.096 0.241,0.235 0.316,0.418 l 0.624,0.004 c -0.131,-0.327 -0.325,-0.592 -0.582,-0.796 -0.258,-0.204 -0.574,-0.305 -0.948,-0.305 -0.33,0 -0.594,0.09 -0.793,0.272 -0.198,0.181 -0.295,0.452 -0.293,0.813 0,0.072 0.005,0.148 0.013,0.229 0.008,0.08 0.022,0.163 0.041,0.249 0.111,0.521 0.327,0.914 0.649,1.179 0.322,0.264 0.675,0.397 1.06,0.397 0.347,0 0.6,-0.077 0.761,-0.231 0.161,-0.154 0.259,-0.323 0.296,-0.51 0.005,-0.03 0.009,-0.061 0.012,-0.093 0.003,-0.032 0.004,-0.063 0.004,-0.094 0,-0.022 -0.001,-0.043 -0.002,-0.064 -10e-4,-0.021 -0.003,-0.042 -0.006,-0.064 z" />
      </g>
      <g
         transform="translate(534.4258,41.9216)"
         id="g1553">
        <path
           id="path1555"
           style="fill:#08532a;fill-opacity:1;fill-rule:evenodd;stroke:none"
           d="m 0,0 h -0.582 l 0.116,0.541 h 0.582 z m -0.054,-0.262 -0.47,-2.212 h -0.582 l 0.47,2.212 z m -1.78,-2.212 0.383,1.796 h 0.378 l 0.087,0.416 h -0.378 l 0.021,0.083 c 0.003,0.009 0.005,0.017 0.006,0.027 0.002,0.01 0.004,0.019 0.006,0.027 0.014,0.069 0.036,0.119 0.065,0.148 0.029,0.029 0.088,0.045 0.176,0.048 h 0.163 l 0.099,0.466 c -0.025,0.002 -0.058,0.004 -0.101,0.005 -0.043,0.002 -0.108,0.003 -0.194,0.003 -0.199,0 -0.368,-0.048 -0.505,-0.144 -0.137,-0.095 -0.231,-0.257 -0.28,-0.484 l -0.038,-0.179 h -0.32 l -0.088,-0.416 h 0.321 l -0.383,-1.796 z m -0.811,2.512 h -0.419 l 0.519,0.607 h 0.641 z m 0.05,-0.3 h -0.582 l -0.47,-2.212 h 0.583 z m -1.33,0 h 0.362 L -3.651,-0.678 H -4.012 L -4.27,-1.879 c -0.003,-0.02 -0.006,-0.037 -0.009,-0.05 -0.002,-0.014 -0.004,-0.028 -0.004,-0.042 0,-0.033 0.015,-0.057 0.044,-0.071 0.029,-0.014 0.086,-0.02 0.172,-0.02 0.02,0 0.04,0 0.061,0.002 0.021,10e-4 0.042,0.003 0.064,0.006 l -0.095,-0.437 c -0.045,-0.002 -0.09,-0.005 -0.136,-0.006 -0.045,-0.001 -0.092,-0.002 -0.139,-0.002 h -0.075 c -0.202,0 -0.339,0.028 -0.409,0.083 -0.071,0.056 -0.106,0.133 -0.106,0.233 0,0.022 0.002,0.047 0.006,0.075 0.004,0.028 0.009,0.055 0.014,0.083 l 0.287,1.347 h -0.299 l 0.087,0.416 h 0.3 l 0.129,0.599 h 0.582 z m -1.339,-0.682 -0.324,-1.53 h -0.583 l 0.287,1.343 c 0.006,0.017 0.011,0.038 0.015,0.062 0.004,0.026 0.006,0.05 0.006,0.075 v 0.019 0.018 c 0,0.067 -0.02,0.127 -0.06,0.179 -0.04,0.053 -0.123,0.079 -0.248,0.079 -0.127,0 -0.244,-0.043 -0.351,-0.128 C -6.628,-0.914 -6.7,-1.041 -6.736,-1.21 l -0.27,-1.264 h -0.582 l 0.47,2.212 h 0.557 l -0.067,-0.324 h 0.008 c 0.017,0.019 0.037,0.041 0.059,0.066 0.022,0.025 0.048,0.052 0.079,0.079 0.064,0.058 0.144,0.112 0.243,0.16 0.098,0.049 0.22,0.073 0.364,0.073 0.188,0 0.341,-0.046 0.457,-0.139 0.116,-0.093 0.175,-0.231 0.175,-0.414 0,-0.028 -0.002,-0.057 -0.007,-0.089 -0.004,-0.032 -0.009,-0.065 -0.014,-0.098 z m -3.027,-0.203 c 0.003,0.013 0.004,0.028 0.004,0.043 v 0.044 c 0,0.133 -0.033,0.227 -0.1,0.282 -0.066,0.056 -0.14,0.087 -0.22,0.092 H -8.624 -8.64 c -0.136,0 -0.251,-0.04 -0.343,-0.121 -0.093,-0.081 -0.163,-0.195 -0.21,-0.34 z m -0.17,-0.678 h 0.598 c -0.091,-0.183 -0.202,-0.327 -0.332,-0.431 -0.131,-0.104 -0.266,-0.176 -0.408,-0.218 -0.064,-0.019 -0.128,-0.034 -0.193,-0.044 -0.065,-0.009 -0.128,-0.014 -0.189,-0.014 -0.261,0 -0.475,0.059 -0.643,0.177 -0.167,0.117 -0.251,0.325 -0.251,0.621 0,0.061 0.004,0.125 0.012,0.192 0.009,0.066 0.021,0.138 0.038,0.216 0.011,0.055 0.032,0.13 0.064,0.224 0.032,0.094 0.08,0.193 0.143,0.295 0.092,0.15 0.224,0.287 0.398,0.412 0.173,0.124 0.403,0.187 0.692,0.187 0.03,0 0.061,0 0.091,-0.002 0.031,-0.001 0.061,-0.005 0.092,-0.01 0.161,-0.025 0.308,-0.095 0.443,-0.21 0.134,-0.115 0.201,-0.313 0.201,-0.593 0,-0.058 -0.003,-0.121 -0.01,-0.187 -0.007,-0.066 -0.019,-0.139 -0.035,-0.216 l -0.025,-0.1 h -1.518 c -0.003,-0.022 -0.005,-0.046 -0.006,-0.071 -0.002,-0.025 -0.002,-0.051 -0.002,-0.079 0,-0.013 0,-0.027 0.002,-0.041 10e-4,-0.014 0.002,-0.027 0.002,-0.038 0.011,-0.08 0.044,-0.153 0.099,-0.218 0.056,-0.065 0.16,-0.098 0.312,-0.098 0.014,0 0.028,0.001 0.042,0.003 0.014,10e-4 0.028,0.003 0.042,0.006 0.069,0.011 0.135,0.036 0.197,0.075 0.063,0.038 0.11,0.091 0.144,0.157 z M -9.933,0 h -0.582 l 0.116,0.541 h 0.582 z m -0.055,-0.262 -0.469,-2.212 h -0.582 l 0.469,2.212 z m -1.068,-0.204 h -0.624 c -0.002,0.025 -0.006,0.056 -0.01,0.092 -0.004,0.036 -0.012,0.072 -0.023,0.108 -0.022,0.078 -0.071,0.149 -0.145,0.214 -0.075,0.065 -0.2,0.098 -0.375,0.098 -0.055,0 -0.117,-0.008 -0.185,-0.025 -0.068,-0.017 -0.136,-0.044 -0.206,-0.083 -0.113,-0.067 -0.223,-0.173 -0.328,-0.321 -0.105,-0.146 -0.186,-0.351 -0.241,-0.615 -0.014,-0.061 -0.025,-0.123 -0.031,-0.185 -0.007,-0.062 -0.011,-0.121 -0.011,-0.176 0,-0.186 0.044,-0.342 0.131,-0.469 0.088,-0.126 0.232,-0.189 0.435,-0.189 0.172,0 0.325,0.048 0.461,0.144 0.136,0.096 0.241,0.235 0.316,0.418 l 0.624,0.004 c -0.13,-0.327 -0.324,-0.592 -0.582,-0.797 -0.258,-0.203 -0.574,-0.305 -0.948,-0.305 -0.33,0 -0.594,0.091 -0.792,0.272 -0.199,0.182 -0.296,0.453 -0.293,0.813 0,0.072 0.004,0.149 0.012,0.229 0.008,0.08 0.022,0.163 0.042,0.249 0.11,0.522 0.327,0.914 0.648,1.179 0.322,0.265 0.675,0.397 1.061,0.397 0.346,0 0.599,-0.077 0.761,-0.231 0.16,-0.153 0.259,-0.323 0.295,-0.509 0.005,-0.031 0.009,-0.061 0.012,-0.094 0.003,-0.031 0.004,-0.063 0.004,-0.093 0,-0.022 0,-0.044 -0.002,-0.064 -10e-4,-0.021 -0.003,-0.043 -0.006,-0.065 z M 63.903,3.58 V 3.576 C 63.897,3.545 63.89,3.513 63.88,3.48 63.87,3.447 63.859,3.414 63.845,3.38 63.8,3.261 63.73,3.152 63.633,3.052 63.536,2.952 63.4,2.902 63.225,2.902 c -0.161,0 -0.27,0.044 -0.328,0.131 -0.058,0.088 -0.088,0.186 -0.088,0.298 0,0.041 0.003,0.083 0.009,0.124 0.005,0.042 0.012,0.082 0.021,0.121 0.005,0.03 0.013,0.062 0.022,0.095 0.01,0.034 0.02,0.067 0.032,0.1 0.044,0.119 0.115,0.229 0.211,0.329 0.098,0.099 0.233,0.15 0.408,0.15 0.164,0 0.274,-0.045 0.331,-0.134 0.056,-0.088 0.085,-0.19 0.085,-0.303 v -0.04 c 0,-0.012 -10e-4,-0.025 -0.004,-0.039 0,-0.028 -0.002,-0.055 -0.007,-0.081 C 63.913,3.626 63.908,3.602 63.903,3.58 m 0.599,0 V 3.576 c 0.013,0.055 0.022,0.109 0.027,0.162 0.004,0.053 0.006,0.102 0.006,0.15 0,0.291 -0.089,0.506 -0.268,0.644 C 64.088,4.67 63.871,4.74 63.616,4.74 h -0.04 C 63.564,4.74 63.551,4.739 63.537,4.736 63.251,4.722 62.984,4.621 62.735,4.432 62.485,4.244 62.32,3.958 62.24,3.576 62.229,3.521 62.219,3.465 62.213,3.412 62.206,3.357 62.202,3.307 62.202,3.26 c 0,-0.289 0.09,-0.501 0.268,-0.638 0.179,-0.138 0.396,-0.206 0.651,-0.206 h 0.04 c 0.012,0 0.025,10e-4 0.039,0.004 0.286,0.014 0.554,0.114 0.805,0.301 0.251,0.188 0.416,0.473 0.497,0.859 M 61.87,4.686 h 0.361 L 62.144,4.27 H 61.782 L 61.525,3.068 C 61.522,3.049 61.519,3.032 61.516,3.019 61.514,3.005 61.512,2.991 61.512,2.977 c 0,-0.033 0.015,-0.057 0.044,-0.071 0.029,-0.013 0.086,-0.02 0.172,-0.02 0.02,0 0.04,0 0.061,0.002 0.02,10e-4 0.042,0.003 0.064,0.006 L 61.757,2.458 C 61.713,2.455 61.668,2.453 61.622,2.451 61.576,2.45 61.53,2.449 61.483,2.449 h -0.075 c -0.202,0 -0.339,0.028 -0.409,0.083 -0.071,0.055 -0.106,0.133 -0.106,0.233 0,0.022 0.002,0.047 0.006,0.075 0.004,0.028 0.009,0.055 0.014,0.083 L 61.2,4.27 h -0.299 l 0.087,0.416 h 0.3 l 0.129,0.599 h 0.582 z M 60.531,4.004 60.207,2.474 h -0.582 l 0.286,1.343 c 0.006,0.016 0.011,0.037 0.015,0.062 0.004,0.025 0.006,0.05 0.006,0.075 v 0.019 0.019 c 0,0.066 -0.02,0.126 -0.06,0.178 -0.04,0.053 -0.123,0.08 -0.247,0.08 C 59.497,4.25 59.38,4.207 59.273,4.121 59.167,4.035 59.095,3.907 59.059,3.738 l -0.27,-1.264 h -0.582 l 0.47,2.212 h 0.556 L 59.167,4.361 h 0.008 c 0.017,0.02 0.036,0.042 0.058,0.067 0.023,0.025 0.049,0.051 0.08,0.079 0.063,0.058 0.144,0.112 0.243,0.16 0.098,0.049 0.219,0.073 0.363,0.073 0.189,0 0.341,-0.047 0.458,-0.139 C 60.493,4.508 60.552,4.37 60.552,4.187 60.552,4.159 60.55,4.129 60.545,4.098 60.541,4.065 60.536,4.033 60.531,4 Z M 57.504,3.8 c 0.003,0.014 0.004,0.029 0.004,0.044 v 0.044 c 0,0.133 -0.033,0.227 -0.1,0.282 -0.066,0.056 -0.14,0.086 -0.22,0.092 h -0.017 -0.016 c -0.136,0 -0.25,-0.04 -0.343,-0.121 C 56.719,4.06 56.649,3.946 56.602,3.8 Z M 57.333,3.123 h 0.599 C 57.841,2.939 57.73,2.796 57.6,2.692 57.469,2.588 57.333,2.516 57.192,2.474 57.128,2.455 57.064,2.44 56.999,2.43 56.934,2.42 56.871,2.416 56.81,2.416 56.549,2.416 56.335,2.475 56.167,2.592 56,2.71 55.916,2.917 55.916,3.214 c 0,0.061 0.004,0.125 0.012,0.191 0.008,0.067 0.021,0.139 0.037,0.217 0.012,0.055 0.033,0.13 0.065,0.224 0.032,0.094 0.08,0.193 0.143,0.295 0.092,0.15 0.224,0.287 0.397,0.412 0.174,0.125 0.405,0.187 0.693,0.187 0.03,0 0.061,-0.001 0.091,-0.002 0.031,-0.002 0.061,-0.005 0.092,-0.01 0.16,-0.025 0.308,-0.096 0.443,-0.21 C 58.023,4.402 58.09,4.205 58.09,3.925 58.09,3.867 58.087,3.805 58.08,3.738 58.073,3.671 58.061,3.599 58.044,3.521 L 58.02,3.422 H 56.502 C 56.499,3.4 56.497,3.376 56.496,3.351 56.494,3.326 56.494,3.3 56.494,3.272 c 0,-0.014 0,-0.027 0.002,-0.042 10e-4,-0.013 0.002,-0.026 0.002,-0.037 0.011,-0.08 0.044,-0.153 0.099,-0.218 0.056,-0.065 0.16,-0.098 0.312,-0.098 0.014,0 0.028,0.001 0.042,0.002 0.014,0.002 0.028,0.004 0.041,0.007 0.07,0.01 0.136,0.035 0.198,0.074 0.062,0.039 0.11,0.092 0.143,0.159 z m -1.646,0.881 -0.324,-1.53 h -0.582 l 0.286,1.343 c 0.006,0.028 0.011,0.056 0.015,0.085 0.004,0.029 0.005,0.055 0.002,0.077 0,0.1 -0.023,0.17 -0.069,0.21 C 54.97,4.229 54.912,4.25 54.843,4.25 54.699,4.25 54.588,4.207 54.51,4.121 54.433,4.035 54.38,3.926 54.352,3.796 L 54.069,2.474 h -0.582 l 0.283,1.331 c 0.006,0.019 0.011,0.04 0.015,0.064 0.004,0.024 0.007,0.048 0.01,0.072 0.003,0.012 0.004,0.023 0.004,0.036 v 0.035 c 0,0.064 -0.018,0.119 -0.056,0.167 C 53.706,4.226 53.63,4.25 53.516,4.25 53.381,4.25 53.277,4.208 53.207,4.125 53.136,4.042 53.088,3.939 53.063,3.817 L 52.776,2.474 h -0.582 l 0.47,2.212 h 0.557 L 53.155,4.361 h 0.008 c 0.014,0.017 0.031,0.037 0.05,0.061 0.019,0.023 0.04,0.048 0.062,0.073 0.061,0.061 0.14,0.117 0.237,0.168 0.097,0.051 0.217,0.077 0.358,0.077 0.161,0 0.278,-0.029 0.353,-0.087 0.075,-0.059 0.137,-0.147 0.187,-0.266 0.017,0.019 0.038,0.042 0.065,0.068 0.026,0.026 0.056,0.054 0.089,0.081 0.059,0.053 0.13,0.1 0.214,0.142 0.085,0.041 0.184,0.062 0.298,0.062 0.188,0 0.341,-0.047 0.457,-0.139 C 55.65,4.508 55.708,4.37 55.708,4.187 55.708,4.159 55.706,4.129 55.701,4.098 55.697,4.065 55.692,4.033 55.687,4 Z m -3.522,0.944 h -0.582 l 0.116,0.54 h 0.582 z M 52.111,4.686 h -0.582 l -0.47,-2.212 h 0.582 z M 49.92,2.474 h -0.611 l -0.325,2.212 h 0.649 l 0.112,-1.63 h 0.009 l 0.815,1.63 h 0.619 z m -1.746,0 h -0.583 l 0.637,2.985 H 48.81 Z M 46.806,3.58 V 3.576 C 46.8,3.545 46.792,3.513 46.783,3.48 46.773,3.447 46.761,3.414 46.747,3.38 46.703,3.261 46.632,3.152 46.535,3.052 c -0.097,-0.1 -0.233,-0.15 -0.407,-0.15 -0.161,0 -0.27,0.044 -0.329,0.131 -0.058,0.088 -0.087,0.186 -0.087,0.298 0,0.041 0.003,0.083 0.008,0.124 0.006,0.042 0.013,0.082 0.021,0.121 0.006,0.03 0.013,0.062 0.023,0.095 0.01,0.034 0.02,0.067 0.031,0.1 C 45.84,3.89 45.91,4 46.007,4.1 c 0.097,0.099 0.233,0.15 0.408,0.15 0.163,0 0.273,-0.045 0.33,-0.134 0.057,-0.088 0.086,-0.19 0.086,-0.303 v -0.04 c 0,-0.012 -0.002,-0.025 -0.005,-0.039 0,-0.028 -0.002,-0.055 -0.006,-0.081 C 46.816,3.626 46.811,3.602 46.806,3.58 m 0.598,0 V 3.576 c 0.014,0.055 0.023,0.109 0.027,0.162 0.005,0.053 0.007,0.102 0.007,0.15 0,0.291 -0.09,0.506 -0.269,0.644 C 46.99,4.67 46.774,4.74 46.519,4.74 h -0.04 C 46.467,4.74 46.453,4.739 46.44,4.736 46.154,4.722 45.887,4.621 45.637,4.432 45.388,4.244 45.223,3.958 45.142,3.576 45.131,3.521 45.122,3.465 45.115,3.412 45.108,3.357 45.105,3.307 45.105,3.26 c 0,-0.289 0.089,-0.501 0.268,-0.638 0.179,-0.138 0.396,-0.206 0.651,-0.206 h 0.039 c 0.013,0 0.026,10e-4 0.04,0.004 0.285,0.014 0.553,0.114 0.804,0.301 0.251,0.188 0.417,0.473 0.497,0.859 M 44.036,2.474 h -0.611 l -0.324,2.212 h 0.649 l 0.112,-1.63 h 0.008 l 0.815,1.63 h 0.619 z m -1.239,1.53 -0.324,-1.53 h -0.582 l 0.287,1.343 c 0.005,0.016 0.01,0.037 0.014,0.062 0.005,0.025 0.006,0.05 0.006,0.075 v 0.019 0.019 c 0,0.066 -0.02,0.126 -0.06,0.178 -0.04,0.053 -0.122,0.08 -0.247,0.08 C 41.763,4.25 41.646,4.207 41.54,4.121 41.433,4.035 41.361,3.907 41.325,3.738 l -0.27,-1.264 h -0.582 l 0.47,2.212 H 41.5 L 41.433,4.361 h 0.009 c 0.016,0.02 0.036,0.042 0.058,0.067 0.022,0.025 0.049,0.051 0.079,0.079 0.064,0.058 0.145,0.112 0.243,0.16 0.099,0.049 0.22,0.073 0.364,0.073 0.189,0 0.341,-0.047 0.458,-0.139 C 42.76,4.508 42.818,4.37 42.818,4.187 42.818,4.159 42.816,4.129 42.812,4.098 42.808,4.065 42.803,4.033 42.797,4 Z M 39.771,3.8 c 0.002,0.014 0.004,0.029 0.004,0.044 v 0.044 c 0,0.133 -0.034,0.227 -0.1,0.282 -0.067,0.056 -0.14,0.086 -0.221,0.092 h -0.016 -0.017 c -0.136,0 -0.25,-0.04 -0.343,-0.121 C 38.985,4.06 38.915,3.946 38.868,3.8 Z M 39.6,3.123 h 0.598 C 40.107,2.939 39.996,2.796 39.866,2.692 39.736,2.588 39.6,2.516 39.458,2.474 39.395,2.455 39.33,2.44 39.265,2.43 39.2,2.42 39.137,2.416 39.076,2.416 c -0.261,0 -0.475,0.059 -0.642,0.176 -0.168,0.118 -0.252,0.325 -0.252,0.622 0,0.061 0.004,0.125 0.013,0.191 0.008,0.067 0.02,0.139 0.037,0.217 0.011,0.055 0.032,0.13 0.064,0.224 0.032,0.094 0.08,0.193 0.144,0.295 0.091,0.15 0.224,0.287 0.397,0.412 0.173,0.125 0.404,0.187 0.692,0.187 0.031,0 0.061,-0.001 0.092,-0.002 0.03,-0.002 0.061,-0.005 0.091,-0.01 0.161,-0.025 0.309,-0.096 0.443,-0.21 0.134,-0.116 0.202,-0.313 0.202,-0.593 0,-0.058 -0.004,-0.12 -0.011,-0.187 C 40.339,3.671 40.327,3.599 40.311,3.521 L 40.286,3.422 H 38.768 C 38.765,3.4 38.763,3.376 38.762,3.351 38.76,3.326 38.76,3.3 38.76,3.272 c 0,-0.014 0,-0.027 0.002,-0.042 10e-4,-0.013 0.002,-0.026 0.002,-0.037 0.011,-0.08 0.045,-0.153 0.1,-0.218 0.055,-0.065 0.159,-0.098 0.312,-0.098 0.013,0 0.027,0.001 0.041,0.002 0.014,0.002 0.028,0.004 0.042,0.007 0.069,0.01 0.135,0.035 0.197,0.074 0.063,0.039 0.111,0.092 0.144,0.159 z m -1.601,0.889 h -0.57 v 0.013 0.012 c 0,0.067 -0.018,0.127 -0.054,0.181 -0.036,0.054 -0.127,0.081 -0.274,0.081 -0.13,0 -0.224,-0.017 -0.281,-0.052 C 36.763,4.212 36.727,4.174 36.71,4.133 36.707,4.125 36.705,4.116 36.702,4.108 36.699,4.1 36.696,4.091 36.693,4.083 V 4.077 4.071 C 36.691,4.068 36.689,4.065 36.689,4.062 V 4.054 c 0.003,-0.053 0.04,-0.093 0.113,-0.121 0.072,-0.027 0.157,-0.053 0.257,-0.075 0.039,-0.005 0.079,-0.012 0.119,-0.02 0.04,-0.008 0.08,-0.018 0.118,-0.029 0.153,-0.037 0.292,-0.09 0.418,-0.161 0.126,-0.07 0.19,-0.186 0.19,-0.347 0,-0.019 -0.002,-0.04 -0.005,-0.062 C 37.896,3.217 37.892,3.194 37.887,3.172 37.843,2.97 37.757,2.815 37.631,2.709 37.505,2.602 37.37,2.526 37.226,2.482 37.14,2.458 37.056,2.44 36.974,2.43 36.892,2.42 36.82,2.416 36.756,2.416 H 36.75 36.743 c -0.227,0 -0.435,0.043 -0.623,0.13 -0.189,0.088 -0.283,0.246 -0.283,0.476 0,0.026 0.002,0.051 0.006,0.076 0.004,0.025 0.008,0.051 0.011,0.078 l 0.598,0.005 C 36.449,3.167 36.448,3.154 36.446,3.141 36.445,3.129 36.444,3.116 36.444,3.102 c 0,-0.075 0.031,-0.136 0.094,-0.181 0.062,-0.046 0.172,-0.068 0.33,-0.068 0.105,0 0.188,0.014 0.247,0.043 0.06,0.029 0.102,0.062 0.127,0.098 0.011,0.016 0.02,0.032 0.027,0.048 0.007,0.015 0.012,0.028 0.015,0.039 0,0.002 10e-4,0.005 0.002,0.008 10e-4,0.003 0.002,0.006 0.002,0.009 V 3.11 c 0,0.058 -0.037,0.101 -0.11,0.129 -0.074,0.028 -0.163,0.053 -0.268,0.075 -0.036,0.008 -0.072,0.016 -0.108,0.022 -0.036,0.008 -0.074,0.015 -0.113,0.023 -0.149,0.037 -0.287,0.09 -0.411,0.161 -0.125,0.07 -0.187,0.188 -0.187,0.351 0,0.019 0.002,0.04 0.006,0.062 0.004,0.023 0.007,0.045 0.01,0.067 0.006,0.03 0.014,0.061 0.025,0.091 0.011,0.031 0.024,0.061 0.038,0.092 0.063,0.138 0.174,0.266 0.33,0.382 0.157,0.117 0.376,0.175 0.659,0.175 h 0.06 c 0.021,0 0.041,-0.001 0.061,-0.004 0.183,-0.008 0.35,-0.052 0.501,-0.131 0.151,-0.079 0.226,-0.232 0.226,-0.459 V 4.081 c 0,-0.024 -0.003,-0.048 -0.008,-0.073 z M 35.147,3.8 c 0.002,0.014 0.004,0.029 0.004,0.044 v 0.044 c 0,0.133 -0.033,0.227 -0.1,0.282 -0.066,0.056 -0.14,0.086 -0.22,0.092 h -0.017 -0.016 c -0.136,0 -0.251,-0.04 -0.344,-0.121 C 34.362,4.06 34.292,3.946 34.244,3.8 Z M 34.976,3.123 h 0.599 C 35.484,2.939 35.373,2.796 35.242,2.692 35.112,2.588 34.976,2.516 34.835,2.474 34.771,2.455 34.707,2.44 34.641,2.43 34.576,2.42 34.513,2.416 34.452,2.416 c -0.26,0 -0.474,0.059 -0.642,0.176 -0.168,0.118 -0.252,0.325 -0.252,0.622 0,0.061 0.005,0.125 0.013,0.191 0.008,0.067 0.021,0.139 0.037,0.217 0.011,0.055 0.033,0.13 0.065,0.224 0.032,0.094 0.079,0.193 0.143,0.295 0.092,0.15 0.224,0.287 0.397,0.412 0.173,0.125 0.404,0.187 0.693,0.187 0.03,0 0.061,-0.001 0.091,-0.002 0.03,-0.002 0.061,-0.005 0.091,-0.01 0.161,-0.025 0.309,-0.096 0.443,-0.21 0.135,-0.116 0.202,-0.313 0.202,-0.593 0,-0.058 -0.004,-0.12 -0.01,-0.187 C 35.716,3.671 35.704,3.599 35.687,3.521 L 35.662,3.422 H 34.145 C 34.142,3.4 34.14,3.376 34.138,3.351 34.137,3.326 34.136,3.3 34.136,3.272 34.136,3.258 34.137,3.245 34.138,3.23 34.14,3.217 34.141,3.204 34.141,3.193 34.152,3.113 34.185,3.04 34.24,2.975 34.296,2.91 34.4,2.877 34.552,2.877 c 0.014,0 0.028,0.001 0.042,0.002 0.013,0.002 0.027,0.004 0.041,0.007 0.07,0.01 0.136,0.035 0.198,0.074 0.062,0.039 0.11,0.092 0.143,0.159 z M 31.301,2.989 h 0.607 c 0.244,-0.002 0.437,0.094 0.58,0.292 0.142,0.197 0.243,0.414 0.301,0.65 0.003,0.011 0.005,0.022 0.006,0.031 0.002,0.01 0.004,0.019 0.007,0.027 0.016,0.081 0.028,0.154 0.035,0.219 0.007,0.065 0.01,0.126 0.01,0.181 0,0.198 -0.038,0.333 -0.116,0.407 C 32.653,4.87 32.567,4.915 32.473,4.931 32.446,4.937 32.418,4.94 32.392,4.942 32.366,4.943 32.34,4.944 32.315,4.944 h -0.599 z m -0.083,2.47 h 1.318 c 0.377,-0.002 0.63,-0.105 0.76,-0.305 0.131,-0.201 0.197,-0.423 0.2,-0.663 V 4.484 4.478 C 33.496,4.4 33.491,4.324 33.481,4.25 33.472,4.174 33.46,4.103 33.446,4.033 33.429,3.958 33.409,3.88 33.384,3.798 33.359,3.716 33.33,3.634 33.296,3.551 33.183,3.282 33.012,3.035 32.783,2.811 32.554,2.586 32.251,2.474 31.875,2.474 H 30.581 Z M 28.677,3.8 c 0.003,0.014 0.004,0.029 0.004,0.044 v 0.044 c 0,0.133 -0.033,0.227 -0.1,0.282 -0.066,0.056 -0.14,0.086 -0.22,0.092 h -0.017 -0.016 c -0.136,0 -0.251,-0.04 -0.343,-0.121 C 27.892,4.06 27.822,3.946 27.775,3.8 Z m -0.17,-0.677 h 0.598 C 29.014,2.939 28.903,2.796 28.773,2.692 28.642,2.588 28.507,2.516 28.365,2.474 28.301,2.455 28.237,2.44 28.172,2.43 28.107,2.42 28.044,2.416 27.983,2.416 c -0.261,0 -0.475,0.059 -0.643,0.176 -0.167,0.118 -0.251,0.325 -0.251,0.622 0,0.061 0.004,0.125 0.012,0.191 0.009,0.067 0.021,0.139 0.038,0.217 0.011,0.055 0.032,0.13 0.064,0.224 0.032,0.094 0.08,0.193 0.143,0.295 0.092,0.15 0.224,0.287 0.398,0.412 0.173,0.125 0.403,0.187 0.692,0.187 0.03,0 0.061,-0.001 0.091,-0.002 0.031,-0.002 0.061,-0.005 0.092,-0.01 0.161,-0.025 0.308,-0.096 0.443,-0.21 0.134,-0.116 0.201,-0.313 0.201,-0.593 0,-0.058 -0.003,-0.12 -0.01,-0.187 C 29.246,3.671 29.234,3.599 29.218,3.521 L 29.193,3.422 H 27.675 C 27.672,3.4 27.67,3.376 27.669,3.351 27.667,3.326 27.667,3.3 27.667,3.272 c 0,-0.014 0,-0.027 0.002,-0.042 0.001,-0.013 0.002,-0.026 0.002,-0.037 0.011,-0.08 0.044,-0.153 0.1,-0.218 0.055,-0.065 0.159,-0.098 0.311,-0.098 0.014,0 0.028,0.001 0.042,0.002 0.014,0.002 0.028,0.004 0.042,0.007 0.069,0.01 0.135,0.035 0.197,0.074 0.063,0.039 0.11,0.092 0.144,0.159 z" />
      </g>
      <g
         transform="translate(567.4063,40.5539)"
         id="g1557">
        <path
           id="path1559"
           style="fill:#08532a;fill-opacity:1;fill-rule:evenodd;stroke:none"
           d="m 0,0 c 0.006,0.022 0.01,0.046 0.014,0.072 0.005,0.027 0.007,0.054 0.007,0.082 0.002,0.013 0.004,0.027 0.004,0.039 v 0.039 c 0,0.114 -0.028,0.215 -0.085,0.304 -0.057,0.089 -0.167,0.133 -0.331,0.133 -0.174,0 -0.31,-0.05 -0.407,-0.149 C -0.895,0.419 -0.966,0.31 -1.01,0.191 -1.021,0.158 -1.032,0.125 -1.042,0.091 -1.051,0.058 -1.059,0.026 -1.064,-0.004 -1.073,-0.043 -1.08,-0.083 -1.085,-0.125 -1.091,-0.167 -1.094,-0.208 -1.094,-0.25 c 0,-0.111 0.03,-0.21 0.088,-0.297 0.058,-0.087 0.167,-0.131 0.328,-0.131 0.175,0 0.311,0.05 0.408,0.15 0.097,0.099 0.167,0.209 0.212,0.328 0.014,0.033 0.025,0.067 0.035,0.1 0.01,0.033 0.017,0.065 0.023,0.096 z M 0.599,0 C 0.518,-0.386 0.353,-0.672 0.102,-0.859 -0.149,-1.046 -0.417,-1.146 -0.703,-1.16 -0.717,-1.163 -0.73,-1.165 -0.742,-1.165 h -0.04 c -0.255,0 -0.472,0.069 -0.65,0.207 -0.179,0.137 -0.268,0.349 -0.268,0.638 0,0.047 0.003,0.097 0.01,0.152 0.007,0.053 0.016,0.108 0.027,0.164 0.08,0.382 0.245,0.668 0.495,0.856 0.249,0.189 0.517,0.29 0.802,0.304 0.014,0.002 0.027,0.004 0.04,0.004 h 0.039 C -0.032,1.16 0.185,1.09 0.364,0.952 0.543,0.813 0.632,0.599 0.632,0.308 0.632,0.26 0.63,0.21 0.626,0.158 0.622,0.105 0.613,0.051 0.599,-0.004 Z m -3.198,-0.3 h 0.591 c -0.014,-0.047 -0.038,-0.106 -0.071,-0.177 -0.033,-0.07 -0.079,-0.143 -0.137,-0.217 -0.092,-0.12 -0.217,-0.228 -0.377,-0.325 -0.159,-0.097 -0.362,-0.146 -0.609,-0.146 -0.327,0 -0.546,0.082 -0.659,0.244 -0.112,0.162 -0.167,0.34 -0.164,0.534 0,0.055 0.003,0.11 0.008,0.164 0.006,0.055 0.014,0.106 0.025,0.156 0.078,0.358 0.224,0.651 0.439,0.881 0.215,0.231 0.509,0.346 0.884,0.346 0.041,0 0.084,-0.002 0.128,-0.007 C -2.496,1.149 -2.452,1.142 -2.407,1.13 -2.272,1.097 -2.146,1.03 -2.031,0.929 -1.916,0.828 -1.86,0.67 -1.863,0.457 V 0.386 c 0,-0.025 -0.002,-0.05 -0.008,-0.074 l -0.59,0.004 v 0.008 0.009 c 0,0.016 -0.001,0.033 -0.003,0.049 -10e-4,0.017 -0.003,0.034 -0.006,0.05 -0.011,0.061 -0.037,0.116 -0.077,0.167 -0.04,0.049 -0.107,0.073 -0.202,0.07 h -0.01 -0.014 C -2.92,0.669 -3.038,0.621 -3.127,0.523 -3.215,0.426 -3.281,0.318 -3.322,0.199 -3.333,0.171 -3.343,0.143 -3.351,0.114 -3.36,0.085 -3.366,0.057 -3.372,0.029 -3.375,0.023 -3.377,0.017 -3.378,0.01 -3.38,0.003 -3.38,-0.004 -3.38,-0.013 c -0.009,-0.033 -0.016,-0.07 -0.021,-0.11 -0.006,-0.04 -0.01,-0.081 -0.013,-0.123 -0.003,-0.011 -0.004,-0.022 -0.004,-0.033 v -0.033 c 0,-0.097 0.023,-0.185 0.069,-0.262 0.046,-0.078 0.136,-0.116 0.272,-0.116 0.092,0 0.17,0.022 0.235,0.066 0.065,0.044 0.117,0.093 0.156,0.145 0.025,0.034 0.045,0.066 0.06,0.098 0.016,0.032 0.024,0.058 0.027,0.077 z m -1.517,1.668 h -0.582 l 0.116,0.54 H -4 Z M -4.17,1.105 -4.64,-1.106 h -0.582 l 0.469,2.211 z m -2.882,-1.118 c -0.002,-0.019 -0.006,-0.038 -0.01,-0.056 -0.004,-0.018 -0.006,-0.035 -0.006,-0.052 -0.003,-0.017 -0.005,-0.034 -0.007,-0.052 -10e-4,-0.018 -0.002,-0.035 -0.002,-0.052 0.003,-0.108 0.03,-0.203 0.081,-0.285 0.052,-0.081 0.142,-0.122 0.273,-0.122 0.18,0 0.318,0.058 0.413,0.174 0.096,0.117 0.162,0.244 0.198,0.383 0.005,0.014 0.009,0.028 0.012,0.041 0.003,0.014 0.006,0.028 0.009,0.042 0.008,0.036 0.013,0.072 0.016,0.106 0.003,0.035 0.004,0.067 0.004,0.098 0,0.13 -0.031,0.237 -0.093,0.32 -0.063,0.083 -0.159,0.125 -0.289,0.125 -0.028,0 -0.057,-0.003 -0.088,-0.009 C -6.571,0.643 -6.6,0.635 -6.628,0.624 -6.714,0.587 -6.796,0.52 -6.875,0.419 -6.954,0.32 -7.013,0.174 -7.052,-0.017 Z M -5.281,1.105 -5.725,-0.99 C -5.737,-1.048 -5.75,-1.108 -5.767,-1.169 -5.784,-1.229 -5.806,-1.293 -5.833,-1.36 -5.906,-1.521 -6.031,-1.669 -6.21,-1.805 -6.389,-1.94 -6.672,-2.009 -7.06,-2.009 c -0.211,0 -0.402,0.045 -0.574,0.134 -0.172,0.088 -0.258,0.232 -0.258,0.432 0,0.017 0.001,0.033 0.002,0.05 0.002,0.017 0.004,0.033 0.006,0.05 h 0.633 c 0,-0.055 0.017,-0.107 0.052,-0.154 0.034,-0.047 0.136,-0.071 0.305,-0.071 0.155,0 0.28,0.04 0.374,0.119 0.095,0.079 0.16,0.207 0.196,0.385 l 0.058,0.27 -0.008,0.008 c -0.064,-0.089 -0.146,-0.167 -0.248,-0.233 -0.101,-0.066 -0.239,-0.1 -0.413,-0.1 -0.22,0 -0.399,0.064 -0.539,0.191 -0.14,0.128 -0.21,0.324 -0.21,0.587 0,0.055 0.004,0.113 0.01,0.173 0.007,0.059 0.018,0.122 0.032,0.189 0.075,0.357 0.213,0.629 0.415,0.816 0.203,0.188 0.419,0.293 0.649,0.319 0.014,0 0.029,0 0.046,0.002 0.017,0.001 0.033,0.002 0.05,0.002 0.147,0 0.26,-0.026 0.339,-0.077 0.079,-0.051 0.136,-0.107 0.172,-0.168 0.014,-0.025 0.025,-0.051 0.034,-0.075 0.008,-0.026 0.015,-0.048 0.02,-0.067 l 0.009,0.004 0.07,0.328 z m -3.33,0.3 h -0.42 l 0.52,0.607 h 0.64 z M -8.549,0 v -0.004 c -0.005,-0.031 -0.013,-0.063 -0.023,-0.096 -0.009,-0.033 -0.021,-0.067 -0.035,-0.1 -0.044,-0.119 -0.115,-0.229 -0.212,-0.328 -0.097,-0.1 -0.233,-0.15 -0.408,-0.15 -0.16,0 -0.27,0.044 -0.328,0.131 -0.058,0.087 -0.087,0.186 -0.087,0.297 0,0.042 0.003,0.083 0.008,0.125 0.006,0.042 0.013,0.082 0.021,0.121 0.005,0.03 0.013,0.062 0.023,0.095 0.009,0.034 0.02,0.067 0.031,0.1 0.044,0.119 0.115,0.228 0.212,0.329 0.097,0.099 0.233,0.149 0.408,0.149 0.163,0 0.273,-0.044 0.33,-0.133 0.057,-0.089 0.085,-0.19 0.085,-0.304 V 0.193 c 0,-0.012 -0.001,-0.026 -0.004,-0.039 0,-0.028 -0.002,-0.055 -0.006,-0.082 C -8.538,0.046 -8.543,0.022 -8.549,0 m 0.599,0 v -0.004 c 0.014,0.055 0.023,0.109 0.027,0.162 0.004,0.052 0.006,0.102 0.006,0.15 0,0.291 -0.089,0.505 -0.268,0.644 C -8.364,1.09 -8.581,1.16 -8.836,1.16 H -8.875 C -8.887,1.16 -8.901,1.158 -8.915,1.156 -9.2,1.142 -9.468,1.041 -9.717,0.852 c -0.25,-0.188 -0.415,-0.474 -0.495,-0.856 -0.011,-0.056 -0.02,-0.111 -0.027,-0.164 -0.007,-0.055 -0.01,-0.105 -0.01,-0.152 0,-0.289 0.089,-0.501 0.268,-0.638 0.179,-0.138 0.396,-0.207 0.651,-0.207 h 0.039 c 0.012,0 0.026,0.002 0.04,0.005 0.285,0.014 0.553,0.114 0.804,0.301 0.251,0.187 0.417,0.473 0.497,0.859 m -2.927,-1.106 h -0.582 l 0.636,2.985 h 0.582 z M -12.245,0 c 0.005,0.022 0.01,0.046 0.015,0.072 0.004,0.027 0.006,0.054 0.006,0.082 0.002,0.013 0.004,0.027 0.004,0.039 v 0.039 c 0,0.114 -0.029,0.215 -0.085,0.304 -0.057,0.089 -0.167,0.133 -0.331,0.133 -0.175,0 -0.31,-0.05 -0.407,-0.149 -0.097,-0.101 -0.168,-0.21 -0.212,-0.329 -0.012,-0.033 -0.022,-0.066 -0.032,-0.1 -0.009,-0.033 -0.017,-0.065 -0.023,-0.095 -0.008,-0.039 -0.015,-0.079 -0.02,-0.121 -0.006,-0.042 -0.009,-0.083 -0.009,-0.125 0,-0.111 0.029,-0.21 0.088,-0.297 0.058,-0.087 0.167,-0.131 0.328,-0.131 0.175,0 0.311,0.05 0.408,0.15 0.097,0.099 0.167,0.209 0.212,0.328 0.014,0.033 0.025,0.067 0.035,0.1 0.01,0.033 0.018,0.065 0.023,0.096 z m 0.599,0 c -0.081,-0.386 -0.246,-0.672 -0.497,-0.859 -0.251,-0.187 -0.519,-0.287 -0.805,-0.301 -0.014,-0.003 -0.027,-0.005 -0.039,-0.005 h -0.04 c -0.255,0 -0.472,0.069 -0.65,0.207 -0.179,0.137 -0.269,0.349 -0.269,0.638 0,0.047 0.004,0.097 0.011,0.152 0.007,0.053 0.016,0.108 0.027,0.164 0.08,0.382 0.245,0.668 0.495,0.856 0.249,0.189 0.517,0.29 0.802,0.304 0.014,0.002 0.027,0.004 0.039,0.004 h 0.04 c 0.255,0 0.472,-0.07 0.651,-0.208 0.179,-0.139 0.268,-0.353 0.268,-0.644 0,-0.048 -0.002,-0.098 -0.006,-0.15 -0.005,-0.053 -0.014,-0.107 -0.027,-0.162 z m -2.587,0.424 -0.324,-1.53 h -0.582 l 0.287,1.343 c 0.006,0.016 0.01,0.037 0.014,0.062 0.005,0.025 0.007,0.05 0.007,0.075 v 0.019 0.018 c 0,0.067 -0.021,0.127 -0.061,0.179 -0.04,0.053 -0.122,0.079 -0.247,0.079 -0.128,0 -0.245,-0.043 -0.351,-0.128 -0.107,-0.087 -0.178,-0.214 -0.214,-0.383 l -0.271,-1.264 h -0.582 l 0.47,2.211 h 0.557 l -0.066,-0.324 h 0.008 c 0.016,0.02 0.036,0.042 0.058,0.067 0.022,0.025 0.049,0.051 0.079,0.079 0.064,0.058 0.145,0.112 0.243,0.16 0.099,0.048 0.22,0.073 0.364,0.073 0.189,0 0.341,-0.047 0.458,-0.139 0.116,-0.093 0.174,-0.231 0.174,-0.414 0,-0.028 -0.002,-0.058 -0.006,-0.089 -0.004,-0.033 -0.009,-0.065 -0.015,-0.099 z M -17.384,-0.3 h 0.59 c -0.014,-0.047 -0.037,-0.106 -0.071,-0.177 -0.033,-0.07 -0.079,-0.143 -0.137,-0.217 -0.091,-0.12 -0.217,-0.228 -0.376,-0.325 -0.159,-0.097 -0.362,-0.146 -0.609,-0.146 -0.327,0 -0.547,0.082 -0.659,0.244 -0.112,0.162 -0.167,0.34 -0.165,0.534 0,0.055 0.003,0.11 0.009,0.164 0.005,0.055 0.014,0.106 0.025,0.156 0.078,0.358 0.224,0.651 0.439,0.881 0.214,0.231 0.509,0.346 0.883,0.346 0.041,0 0.085,-0.002 0.129,-0.007 0.044,-0.004 0.089,-0.011 0.133,-0.023 0.136,-0.033 0.261,-0.1 0.376,-0.201 0.115,-0.101 0.171,-0.259 0.169,-0.472 V 0.386 c 0,-0.025 -0.003,-0.05 -0.009,-0.074 l -0.59,0.004 v 0.008 0.009 c 0,0.016 -0.001,0.033 -0.002,0.049 -0.001,0.017 -0.003,0.034 -0.006,0.05 -0.011,0.061 -0.037,0.116 -0.077,0.167 -0.041,0.049 -0.108,0.073 -0.202,0.07 h -0.01 -0.015 c -0.147,0 -0.265,-0.048 -0.353,-0.146 -0.089,-0.097 -0.154,-0.205 -0.196,-0.324 -0.011,-0.028 -0.021,-0.056 -0.029,-0.085 -0.008,-0.029 -0.015,-0.057 -0.02,-0.085 -0.003,-0.006 -0.005,-0.012 -0.007,-0.019 -10e-4,-0.007 -0.002,-0.014 -0.002,-0.023 -0.008,-0.033 -0.015,-0.07 -0.021,-0.11 -0.005,-0.04 -0.01,-0.081 -0.012,-0.123 -0.003,-0.011 -0.004,-0.022 -0.004,-0.033 v -0.033 c 0,-0.097 0.023,-0.185 0.068,-0.262 0.046,-0.078 0.137,-0.116 0.273,-0.116 0.091,0 0.169,0.022 0.234,0.066 0.066,0.044 0.118,0.093 0.157,0.145 0.024,0.034 0.044,0.066 0.06,0.098 0.015,0.032 0.024,0.058 0.027,0.077 z m -2.187,0.52 h -0.903 c 0.047,0.146 0.118,0.259 0.21,0.341 0.093,0.081 0.208,0.121 0.344,0.121 h 0.016 0.017 c 0.08,-0.006 0.154,-0.036 0.22,-0.092 0.066,-0.055 0.1,-0.15 0.1,-0.282 V 0.264 c 0,-0.015 -0.002,-0.03 -0.004,-0.044 m -0.171,-0.678 v -0.004 c -0.033,-0.066 -0.081,-0.119 -0.143,-0.158 -0.063,-0.039 -0.128,-0.064 -0.198,-0.074 -0.014,-0.003 -0.028,-0.006 -0.041,-0.007 -0.014,-0.001 -0.028,-0.002 -0.042,-0.002 -0.152,0 -0.256,0.033 -0.312,0.098 -0.055,0.065 -0.089,0.138 -0.1,0.218 0,0.011 0,0.024 -0.002,0.037 -0.001,0.015 -0.002,0.028 -0.002,0.042 0,0.028 0.001,0.054 0.002,0.079 0.002,0.025 0.004,0.048 0.007,0.071 h 1.517 l 0.025,0.099 c 0.017,0.078 0.029,0.15 0.035,0.217 0.007,0.066 0.011,0.129 0.011,0.187 0,0.28 -0.067,0.477 -0.202,0.592 -0.134,0.115 -0.282,0.186 -0.443,0.21 -0.03,0.006 -0.061,0.009 -0.091,0.011 -0.03,0.001 -0.061,0.002 -0.091,0.002 -0.289,0 -0.52,-0.063 -0.693,-0.187 -0.173,-0.125 -0.305,-0.263 -0.397,-0.412 -0.064,-0.103 -0.111,-0.201 -0.143,-0.295 -0.032,-0.095 -0.054,-0.169 -0.065,-0.224 -0.016,-0.078 -0.029,-0.15 -0.037,-0.217 -0.009,-0.067 -0.013,-0.13 -0.013,-0.191 0,-0.297 0.084,-0.504 0.252,-0.622 0.168,-0.117 0.382,-0.177 0.642,-0.177 0.061,0 0.124,0.005 0.189,0.015 0.066,0.01 0.13,0.025 0.194,0.044 0.141,0.042 0.277,0.114 0.407,0.218 0.131,0.104 0.242,0.247 0.333,0.43 z m -2.415,-0.648 h -0.624 l 0.524,2.457 h -0.903 l 0.113,0.528 h 2.428 l -0.112,-0.528 h -0.903 z M -25.33,0.22 c 0.003,0.014 0.004,0.029 0.004,0.044 v 0.044 c 0,0.132 -0.033,0.227 -0.1,0.282 -0.066,0.056 -0.14,0.086 -0.22,0.092 h -0.017 -0.016 c -0.136,0 -0.25,-0.04 -0.343,-0.121 -0.093,-0.082 -0.163,-0.195 -0.21,-0.341 z m -0.17,-0.678 h 0.598 c -0.091,-0.183 -0.202,-0.326 -0.332,-0.43 -0.131,-0.104 -0.266,-0.176 -0.408,-0.218 -0.064,-0.019 -0.128,-0.034 -0.193,-0.044 -0.065,-0.01 -0.128,-0.015 -0.189,-0.015 -0.261,0 -0.475,0.06 -0.643,0.177 -0.167,0.118 -0.251,0.325 -0.251,0.622 0,0.061 0.004,0.124 0.012,0.191 0.008,0.067 0.021,0.139 0.038,0.217 0.011,0.055 0.032,0.129 0.064,0.224 0.032,0.094 0.08,0.192 0.144,0.295 0.091,0.149 0.223,0.287 0.397,0.412 0.173,0.124 0.404,0.187 0.692,0.187 0.03,0 0.061,-10e-4 0.091,-0.002 0.031,-0.002 0.061,-0.005 0.092,-0.011 0.16,-0.024 0.308,-0.095 0.443,-0.21 0.134,-0.115 0.201,-0.312 0.201,-0.592 0,-0.058 -0.003,-0.121 -0.01,-0.187 -0.007,-0.067 -0.019,-0.139 -0.036,-0.217 l -0.024,-0.099 h -1.518 c -0.003,-0.023 -0.005,-0.046 -0.006,-0.071 -0.002,-0.025 -0.002,-0.051 -0.002,-0.079 0,-0.014 0,-0.027 0.002,-0.042 0.001,-0.013 0.002,-0.026 0.002,-0.037 0.011,-0.08 0.044,-0.153 0.1,-0.218 0.055,-0.065 0.159,-0.098 0.311,-0.098 0.014,0 0.028,0.001 0.042,0.002 0.014,0.001 0.028,0.004 0.041,0.007 0.07,0.01 0.136,0.035 0.198,0.074 0.062,0.039 0.11,0.092 0.144,0.158 z M -28.864,0 c 0.005,0.022 0.01,0.046 0.014,0.072 0.004,0.027 0.006,0.054 0.006,0.082 0.003,0.013 0.005,0.027 0.005,0.039 v 0.039 c 0,0.114 -0.029,0.215 -0.086,0.304 -0.056,0.089 -0.167,0.133 -0.33,0.133 -0.175,0 -0.311,-0.05 -0.408,-0.149 -0.097,-0.101 -0.167,-0.21 -0.212,-0.329 -0.011,-0.033 -0.021,-0.066 -0.031,-0.1 -0.01,-0.033 -0.017,-0.065 -0.023,-0.095 -0.008,-0.039 -0.015,-0.079 -0.02,-0.121 -0.006,-0.042 -0.009,-0.083 -0.009,-0.125 0,-0.111 0.029,-0.21 0.088,-0.297 0.058,-0.087 0.167,-0.131 0.328,-0.131 0.175,0 0.311,0.05 0.407,0.15 0.097,0.099 0.168,0.209 0.212,0.328 0.014,0.033 0.026,0.067 0.036,0.1 0.01,0.033 0.017,0.065 0.023,0.096 z m 0.598,0 c -0.08,-0.386 -0.245,-0.672 -0.496,-0.859 -0.251,-0.187 -0.519,-0.287 -0.805,-0.301 -0.014,-0.003 -0.027,-0.005 -0.039,-0.005 h -0.04 c -0.255,0 -0.472,0.069 -0.651,0.207 -0.179,0.137 -0.268,0.349 -0.268,0.638 0,0.047 0.004,0.097 0.011,0.152 0.006,0.053 0.015,0.108 0.027,0.164 0.08,0.382 0.245,0.668 0.494,0.856 0.25,0.189 0.517,0.29 0.803,0.304 0.014,0.002 0.027,0.004 0.039,0.004 h 0.04 c 0.255,0 0.472,-0.07 0.651,-0.208 0.178,-0.139 0.268,-0.353 0.268,-0.644 0,-0.048 -0.002,-0.098 -0.007,-0.15 -0.004,-0.053 -0.013,-0.107 -0.027,-0.162 z m -3.197,-0.3 h 0.59 c -0.013,-0.047 -0.037,-0.106 -0.07,-0.177 -0.034,-0.07 -0.079,-0.143 -0.138,-0.217 -0.091,-0.12 -0.216,-0.228 -0.376,-0.325 -0.159,-0.097 -0.362,-0.146 -0.609,-0.146 -0.327,0 -0.547,0.082 -0.659,0.244 -0.112,0.162 -0.167,0.34 -0.164,0.534 0,0.055 0.003,0.11 0.008,0.164 0.006,0.055 0.014,0.106 0.025,0.156 0.078,0.358 0.224,0.651 0.439,0.881 0.215,0.231 0.509,0.346 0.883,0.346 0.042,0 0.085,-0.002 0.129,-0.007 0.044,-0.004 0.089,-0.011 0.133,-0.023 0.136,-0.033 0.262,-0.1 0.376,-0.201 0.116,-0.101 0.172,-0.259 0.169,-0.472 V 0.386 c 0,-0.025 -0.003,-0.05 -0.008,-0.074 l -0.591,0.004 v 0.008 0.009 c 0,0.016 0,0.033 -0.002,0.049 -0.001,0.017 -0.003,0.034 -0.006,0.05 -0.011,0.061 -0.037,0.116 -0.077,0.167 -0.04,0.049 -0.107,0.073 -0.202,0.07 h -0.01 -0.015 c -0.147,0 -0.264,-0.048 -0.353,-0.146 -0.089,-0.097 -0.154,-0.205 -0.196,-0.324 -0.011,-0.028 -0.02,-0.056 -0.029,-0.085 -0.008,-0.029 -0.015,-0.057 -0.02,-0.085 -0.003,-0.006 -0.005,-0.012 -0.007,-0.019 -10e-4,-0.007 -0.002,-0.014 -0.002,-0.023 -0.008,-0.033 -0.015,-0.07 -0.02,-0.11 -0.006,-0.04 -0.01,-0.081 -0.013,-0.123 -0.003,-0.011 -0.004,-0.022 -0.004,-0.033 v -0.033 c 0,-0.097 0.023,-0.185 0.069,-0.262 0.045,-0.078 0.136,-0.116 0.272,-0.116 0.091,0 0.17,0.022 0.235,0.066 0.065,0.044 0.117,0.093 0.156,0.145 0.025,0.034 0.045,0.066 0.06,0.098 0.015,0.032 0.024,0.058 0.027,0.077 z" />
      </g>
      <g
         transform="translate(590.8509,58.9245)"
         id="g1561">
        <path
           id="path1563"
           style="fill:#08532a;fill-opacity:1;fill-rule:evenodd;stroke:none"
           d="m 0,0 v -0.019 c 0.025,0.176 0.063,0.374 0.113,0.594 0.05,0.219 0.119,0.443 0.207,0.669 0.164,0.464 0.399,0.888 0.707,1.271 0.307,0.383 0.706,0.574 1.196,0.574 0.54,0 0.904,-0.185 1.093,-0.555 C 3.504,2.164 3.598,1.752 3.598,1.3 3.598,1.061 3.583,0.826 3.551,0.593 3.52,0.361 3.473,0.157 3.41,-0.019 3.121,-1.124 2.785,-1.846 2.402,-2.186 2.019,-2.524 1.564,-2.694 1.036,-2.694 c -0.452,0 -0.763,0.151 -0.932,0.452 -0.17,0.302 -0.255,0.659 -0.255,1.074 0,0.101 0.004,0.198 0.01,0.292 0.006,0.094 0.016,0.191 0.028,0.292 0.013,0.088 0.028,0.182 0.047,0.283 0.019,0.1 0.041,0.2 0.066,0.301 m -3.843,-1.036 v -0.019 c 0,-0.201 0.006,-0.418 0.019,-0.65 0.012,-0.232 0.037,-0.462 0.075,-0.688 0.101,-0.628 0.367,-1.202 0.801,-1.724 0.433,-0.521 1.221,-0.781 2.364,-0.781 0.377,0 0.716,0.031 1.018,0.094 0.301,0.063 0.596,0.169 0.885,0.32 0.213,0.126 0.43,0.286 0.65,0.481 0.219,0.194 0.455,0.442 0.706,0.744 L 1.639,-8.308 H 5.2 L 8.026,4.898 H 4.465 L 4.164,3.692 C 4.126,3.755 4.088,3.815 4.051,3.872 4.013,3.928 3.969,3.988 3.919,4.05 3.667,4.364 3.35,4.656 2.967,4.926 2.584,5.196 2.141,5.332 1.639,5.332 -0.019,5.269 -1.243,4.76 -2.035,3.806 -2.826,2.851 -3.353,1.809 -3.617,0.678 -3.68,0.377 -3.73,0.082 -3.768,-0.208 -3.805,-0.496 -3.831,-0.772 -3.843,-1.036 m -6.519,3.862 c 0.566,-0.013 1.059,0.16 1.479,0.518 0.421,0.358 0.688,0.75 0.801,1.177 0.025,0.076 0.044,0.151 0.057,0.227 0.012,0.075 0.018,0.15 0.018,0.226 0,0.338 -0.135,0.63 -0.405,0.876 -0.27,0.244 -0.725,0.367 -1.366,0.367 l -1.921,0.019 -0.754,-3.41 z m -4.747,6.217 h 6.368 c 0.163,-0.013 0.326,-0.022 0.489,-0.028 0.164,-0.007 0.327,-0.016 0.49,-0.029 0.98,-0.063 1.878,-0.314 2.694,-0.753 0.817,-0.44 1.225,-1.262 1.225,-2.468 0,-1.997 -0.634,-3.435 -1.903,-4.314 -1.268,-0.88 -2.763,-1.319 -4.484,-1.319 l -2.807,0.018 -1.036,-4.747 h -3.862 z m -15.882,0 -2.825,-13.64 h 3.56 l 2.072,10.381 2.525,-10.381 h 5.35 l 2.958,13.64 h -3.561 l -2.223,-9.778 -2.374,9.778 z M -47.626,0.301 c 0,0.491 0.038,1.04 0.113,1.649 0.075,0.609 0.208,1.221 0.396,1.837 0.44,1.394 1.259,2.678 2.458,3.852 1.2,1.174 3.03,1.787 5.492,1.837 0.289,0 0.597,-0.009 0.923,-0.028 0.327,-0.019 0.66,-0.053 0.999,-0.104 0.954,-0.138 1.833,-0.446 2.637,-0.923 0.804,-0.477 1.206,-1.256 1.206,-2.336 0,-0.163 -0.009,-0.333 -0.028,-0.509 C -33.449,5.4 -33.484,5.218 -33.534,5.03 l -4.145,0.019 c 0.013,0.063 0.022,0.129 0.029,0.198 0.006,0.069 0.009,0.128 0.009,0.179 0,0.452 -0.129,0.785 -0.386,0.998 -0.258,0.214 -0.537,0.358 -0.838,0.433 -0.164,0.038 -0.324,0.063 -0.481,0.076 -0.157,0.012 -0.292,0.019 -0.405,0.019 -0.113,0 -0.226,-0.01 -0.339,-0.029 -0.113,-0.018 -0.226,-0.041 -0.339,-0.066 -0.565,-0.175 -1.112,-0.606 -1.639,-1.29 -0.528,-0.685 -0.942,-1.705 -1.244,-3.062 -0.025,-0.112 -0.047,-0.226 -0.065,-0.338 -0.019,-0.114 -0.035,-0.227 -0.048,-0.34 -0.037,-0.238 -0.065,-0.471 -0.085,-0.697 -0.018,-0.226 -0.028,-0.445 -0.028,-0.659 0,-0.716 0.142,-1.325 0.424,-1.827 0.283,-0.503 0.813,-0.754 1.592,-0.754 h 0.207 c 0.076,0 0.151,0.006 0.226,0.019 0.126,0 0.255,0.015 0.387,0.047 0.131,0.031 0.273,0.078 0.423,0.141 0.365,0.163 0.704,0.411 1.018,0.744 0.314,0.333 0.496,0.713 0.546,1.14 L -34.721,0 c 0.013,-0.038 0.022,-0.072 0.028,-0.104 0.007,-0.031 0.01,-0.065 0.01,-0.104 0,-0.226 -0.082,-0.54 -0.245,-0.941 -0.163,-0.402 -0.427,-0.823 -0.791,-1.263 -0.528,-0.628 -1.284,-1.199 -2.271,-1.714 -0.985,-0.515 -2.257,-0.772 -3.814,-0.772 h -0.151 -0.17 c -2.11,0 -3.523,0.433 -4.239,1.3 -0.716,0.866 -1.124,1.827 -1.224,2.882 -0.013,0.163 -0.022,0.33 -0.028,0.499 -0.007,0.17 -0.01,0.336 -0.01,0.5 z" />
      </g>
    </g>
  </g>
</svg>
