<?xml version="1.0" encoding="UTF-8" standalone="no"?>
<svg
   xmlns:dc="http://purl.org/dc/elements/1.1/"
   xmlns:cc="http://creativecommons.org/ns#"
   xmlns:rdf="http://www.w3.org/1999/02/22-rdf-syntax-ns#"
   xmlns:svg="http://www.w3.org/2000/svg"
   xmlns="http://www.w3.org/2000/svg"
   xmlns:sodipodi="http://sodipodi.sourceforge.net/DTD/sodipodi-0.dtd"
   xmlns:inkscape="http://www.inkscape.org/namespaces/inkscape"
   sodipodi:docname="governo_federal.svg"
   inkscape:version="1.0 (1.0+r73+1)"
   width="200px"
   height="32px"
   viewBox="0 0 200 32"
   version="1.1"
   id="SVGRoot">
  <defs
     id="defs9371" />
  <sodipodi:namedview
     inkscape:window-maximized="0"
     inkscape:window-y="27"
     inkscape:window-x="67"
     inkscape:window-height="1023"
     inkscape:window-width="1795"
     showgrid="false"
     inkscape:document-rotation="0"
     inkscape:current-layer="layer1"
     inkscape:document-units="px"
     inkscape:cy="43.239196"
     inkscape:cx="78.634504"
     inkscape:zoom="3.959798"
     inkscape:pageshadow="2"
     inkscape:pageopacity="0.0"
     borderopacity="1.0"
     bordercolor="#666666"
     pagecolor="#ffffff"
     id="base" />
  <metadata
     id="metadata9374">
    <rdf:RDF>
      <cc:Work
         rdf:about="">
        <dc:format>image/svg+xml</dc:format>
        <dc:type
           rdf:resource="http://purl.org/dc/dcmitype/StillImage" />
        <dc:title></dc:title>
      </cc:Work>
    </rdf:RDF>
  </metadata>
  <g
     id="layer1"
     inkscape:groupmode="layer"
     inkscape:label="Layer 1">
    <g
       transform="matrix(0.72310915,0,0,-0.72310915,-542.25787,59.659738)"
       id="g11951">
      <g
         transform="translate(956.442,51.5349)"
         id="g1865">
        <path
           id="path1867"
           style="fill:#08532a;fill-opacity:1;fill-rule:nonzero;stroke:none"
           d="M 0,0 C 0,-0.255 -0.026,-0.672 -0.077,-0.973 -0.232,-1.76 -0.876,-2.154 -1.855,-2.154 H -8.58 c -0.927,0 -1.598,0.533 -1.598,1.529 v 14.263 l 0.181,0.139 h 1.03 c 1.134,0 1.547,-0.486 1.547,-1.574 V -0.093 C -6.622,-0.023 -5.823,0 -5.127,0 Z" />
      </g>
      <g
         transform="translate(945.5787,74.6775)"
         id="g1905">
        <path
           id="path1907"
           style="fill:#08532a;fill-opacity:1;fill-rule:nonzero;stroke:none"
           d="m 0,0 c -0.443,0 -0.805,0 -1.272,0.012 v -5.636 c 0.467,0.011 0.829,0.011 1.272,0.011 1.528,0 1.75,1.53 1.75,2.813 C 1.75,-1.517 1.528,0 0,0 M 2.089,-6.266 C 1.575,-6.686 0.63,-6.849 0,-6.849 c -0.98,0 -1.738,0.023 -2.753,0.046 l -0.082,0.07 V 1.12 l 0.082,0.07 C -1.75,1.225 -0.98,1.237 0,1.237 0.63,1.237 1.575,1.073 2.089,0.654 3.162,-0.209 3.36,-1.447 3.36,-2.8 3.36,-4.165 3.174,-5.402 2.089,-6.266" />
      </g>
      <g
         transform="translate(951.8914,70.9319)"
         id="g1909">
        <path
           id="path1911"
           style="fill:#08532a;fill-opacity:1;fill-rule:nonzero;stroke:none"
           d="M 0,0 C 0.164,0 0.408,0.012 0.525,0.012 H 1.529 C 1.634,0.012 1.855,0 2.019,0 L 1.668,1.19 C 1.47,1.856 1.213,2.754 1.038,3.454 H 0.968 C 0.852,2.859 0.607,2.019 0.455,1.482 Z m -0.385,-1.236 -0.548,-1.821 c -0.199,-0.046 -0.433,-0.058 -0.677,-0.058 -0.245,0 -0.56,0.035 -0.747,0.105 l -0.058,0.081 2.602,7.853 c 0.256,0.036 0.642,0.059 0.91,0.059 0.245,0 0.653,-0.023 0.898,-0.07 L 4.55,-2.94 C 4.329,-3.068 3.956,-3.139 3.652,-3.139 c -0.501,0 -0.747,0.175 -0.933,0.841 l -0.327,1.062 c -0.175,0 -0.455,-0.013 -0.572,-0.013 H 0.187 c -0.117,0 -0.386,0 -0.572,0.013" />
      </g>
      <g
         transform="translate(944.1431,45.5862)"
         id="g1961">
        <path
           id="path1963"
           style="fill:#08532a;fill-opacity:1;fill-rule:nonzero;stroke:none"
           d="m 0,0 v -1.117 c 0.17,0 0.315,0.003 0.437,0.008 0.121,0.005 0.218,0.028 0.292,0.068 0.073,0.041 0.129,0.097 0.167,0.169 0.038,0.072 0.057,0.176 0.057,0.313 0,0.369 -0.178,0.553 -0.533,0.553 H 0.184 C 0.114,-0.006 0.053,-0.004 0,0 M 1.877,-0.556 C 1.877,-0.681 1.858,-0.799 1.821,-0.91 1.783,-1.022 1.733,-1.122 1.67,-1.211 1.608,-1.3 1.534,-1.377 1.449,-1.444 1.364,-1.51 1.276,-1.56 1.185,-1.594 1.382,-1.666 1.528,-1.84 1.622,-2.116 l 0.17,-0.482 C 1.856,-2.787 1.951,-2.926 2.076,-3.017 2.019,-3.093 1.934,-3.157 1.821,-3.207 1.708,-3.258 1.582,-3.284 1.447,-3.284 c -0.137,0 -0.243,0.039 -0.318,0.117 -0.076,0.077 -0.146,0.212 -0.21,0.405 l -0.204,0.595 c -0.042,0.114 -0.098,0.201 -0.168,0.261 -0.07,0.061 -0.175,0.091 -0.315,0.091 H 0 v -1.418 c -0.121,-0.023 -0.272,-0.034 -0.454,-0.034 -0.181,0 -0.331,0.011 -0.448,0.034 v 3.845 l 0.04,0.04 C -0.533,0.66 -0.256,0.665 -0.031,0.669 0.194,0.673 0.37,0.675 0.5,0.675 0.707,0.675 0.896,0.649 1.066,0.599 1.236,0.547 1.381,0.471 1.5,0.368 1.619,0.267 1.712,0.138 1.778,-0.017 1.844,-0.172 1.877,-0.352 1.877,-0.556" />
      </g>
      <g
         transform="translate(949.5989,43.8786)"
         id="g1965">
        <path
           id="path1967"
           style="fill:#08532a;fill-opacity:1;fill-rule:nonzero;stroke:none"
           d="M 0,0 0.227,0.006 H 0.641 C 0.66,0.006 0.693,0.005 0.74,0.003 0.788,0.001 0.823,0 0.845,0 L 0.749,0.352 C 0.658,0.669 0.554,1.059 0.437,1.52 H 0.403 C 0.373,1.358 0.282,0.997 0.131,0.437 Z m 0.017,-0.714 c -0.102,0 -0.177,0.002 -0.227,0.005 l -0.244,-0.822 c -0.09,-0.023 -0.217,-0.034 -0.38,-0.034 -0.181,0 -0.329,0.021 -0.442,0.062 l -0.028,0.045 1.248,3.806 c 0.147,0.023 0.319,0.034 0.515,0.034 0.223,0 0.401,-0.013 0.533,-0.04 L 2.218,-1.469 C 2.085,-1.541 1.936,-1.577 1.77,-1.577 c -0.197,0 -0.334,0.035 -0.414,0.103 -0.08,0.068 -0.148,0.198 -0.204,0.391 L 1.043,-0.709 C 0.994,-0.712 0.921,-0.714 0.823,-0.714 Z" />
      </g>
      <g
         transform="translate(955.6697,43.1189)"
         id="g1969">
        <path
           id="path1971"
           style="fill:#08532a;fill-opacity:1;fill-rule:nonzero;stroke:none"
           d="m 0,0 h 0.985 c 0,-0.151 -0.01,-0.281 -0.028,-0.388 C 0.937,-0.497 0.877,-0.589 0.775,-0.666 0.673,-0.744 0.539,-0.783 0.372,-0.783 h -1.281 c -0.163,0 -0.292,0.047 -0.386,0.142 -0.095,0.095 -0.142,0.224 -0.142,0.386 v 3.363 l 0.04,0.04 h 0.332 c 0.353,0 0.53,-0.193 0.53,-0.579 V -0.022 C -0.368,-0.008 -0.19,0 0,0" />
      </g>
      <g
         id="g11673">
        <g
           id="g1363"
           transform="translate(849.4063,47.9704)">
          <path
             d="M 0,0 H 0.496 C 1.165,-0.933 1.501,-1.399 2.17,-2.332 H 3.706 C 3.838,-2.509 3.904,-2.598 4.035,-2.776 H 1.972 C 1.183,-1.665 0.789,-1.11 0,0"
             style="fill:#08532a;fill-opacity:1;fill-rule:nonzero;stroke:none"
             id="path1365" />
        </g>
        <g
           id="g1845"
           transform="translate(882.2662,56.7683)">
          <path
             d="m 0,0 v -5.604 c 1.082,0 2.164,0.023 3.117,0.023 2.783,0 3.35,1.598 3.35,2.779 C 6.467,-1.644 5.72,0 2.963,0 Z m 0,1.898 h 2.706 c 2.421,0 2.962,1.297 2.962,2.386 0,1.134 -0.489,2.384 -2.911,2.384 -0.722,0 -1.933,0 -2.757,0.024 z m 2.808,6.646 c 3.788,0 5.617,-1.574 5.617,-4.191 0,-1.459 -0.979,-2.732 -2.422,-3.242 1.752,-0.463 3.273,-2.061 3.273,-4.053 0,-2.569 -1.856,-4.515 -6.133,-4.515 -2.087,0 -3.762,0.047 -5.694,0.07 l -0.154,0.162 V 8.313 l 0.154,0.162 c 1.881,0.023 3.659,0.069 5.359,0.069"
             style="fill:#08532a;fill-opacity:1;fill-rule:nonzero;stroke:none"
             id="path1847" />
        </g>
        <g
           id="g1849"
           transform="translate(896.303,57.7405)">
          <path
             d="m 0,0 c 1.004,0.023 2.138,0.047 2.86,0.047 2.525,0 3.143,1.434 3.143,2.778 0,1.412 -0.618,2.801 -3.143,2.801 -0.747,0 -1.984,0 -2.86,0.024 z M 5.539,-1.389 C 6.39,-1.667 7.008,-2.454 7.369,-3.358 L 8.502,-6.067 C 8.76,-6.692 9.069,-7.317 9.661,-7.734 9.301,-8.22 8.502,-8.499 7.807,-8.499 c -1.031,0 -1.392,0.511 -1.804,1.506 L 4.715,-3.867 C 4.277,-2.802 3.71,-1.969 2.113,-1.969 H 0 v -6.367 c -0.412,-0.069 -0.928,-0.093 -1.365,-0.093 -0.413,0 -0.954,0.024 -1.34,0.093 V 7.341 l 0.154,0.161 c 1.932,0.024 3.788,0.07 5.54,0.07 3.581,0 5.849,-1.668 5.849,-4.747 0,-2.131 -1.418,-3.682 -3.299,-4.214"
             style="fill:#08532a;fill-opacity:1;fill-rule:nonzero;stroke:none"
             id="path1851" />
        </g>
        <g
           id="g1853"
           transform="translate(912.0416,55.2395)">
          <path
             d="M 0,0 C 0.413,0 1.108,0.023 1.314,0.023 H 3.891 C 4.071,0.023 4.766,0 5.18,0 L 3.994,3.357 C 3.531,4.701 2.989,6.322 2.628,7.548 H 2.5 C 2.243,6.507 1.778,5.048 1.495,4.191 Z m -0.696,-1.991 -1.365,-3.867 c -0.335,-0.07 -0.773,-0.093 -1.185,-0.093 -0.49,0 -0.979,0.07 -1.34,0.162 L -4.663,-5.673 1.16,9.98 c 0.412,0.069 1.134,0.093 1.572,0.093 0.437,0 1.159,-0.024 1.546,-0.093 L 10.049,-5.673 C 9.662,-5.904 9.044,-5.998 8.451,-5.998 c -0.85,0 -1.288,0.279 -1.623,1.297 l -0.953,2.71 c -0.438,0 -1.34,-0.023 -1.546,-0.023 h -3.53 c -0.206,0 -1.056,0.023 -1.495,0.023"
             style="fill:#08532a;fill-opacity:1;fill-rule:nonzero;stroke:none"
             id="path1855" />
        </g>
        <g
           id="g1857"
           transform="translate(924.5357,52.7385)">
          <path
             d="m 0,0 c 1.495,-0.879 3.401,-1.575 5.179,-1.575 2.086,0 3.271,0.904 3.298,2.178 0,1.088 -0.851,1.921 -2.345,2.5 l -3.04,1.181 c -2.165,0.834 -3.53,2.038 -3.53,4.006 0,2.524 2.37,4.492 5.823,4.492 2.138,0 4.122,-0.602 5.462,-1.203 C 10.821,10.884 10.409,10.12 9.842,9.656 8.502,10.258 6.75,10.745 5.436,10.745 3.53,10.745 2.344,9.795 2.344,8.567 2.344,7.548 3.221,6.97 4.483,6.483 L 7.472,5.326 c 2.215,-0.833 3.865,-2.246 3.865,-4.307 0,-2.663 -2.062,-4.654 -6.313,-4.654 -2.139,0 -4.458,0.649 -6.184,1.737 C -1.083,-1.181 -0.567,-0.416 0,0"
             style="fill:#08532a;fill-opacity:1;fill-rule:nonzero;stroke:none"
             id="path1859" />
        </g>
        <g
           id="g1861"
           transform="translate(939.0735,65.2195)">
          <path
             d="M 0,0 C 0.387,0.069 0.954,0.093 1.365,0.093 1.778,0.093 2.319,0.069 2.732,0 v -15.815 c -0.413,-0.069 -0.954,-0.093 -1.367,-0.093 -0.411,0 -0.978,0.024 -1.365,0.093 z"
             style="fill:#08532a;fill-opacity:1;fill-rule:nonzero;stroke:none"
             id="path1863" />
        </g>
        <g
           id="g1869"
           transform="translate(881.1241,71.7253)">
          <path
             d="m 0,0 c 0.386,0.012 0.806,0.024 0.98,0.024 1.039,0 1.248,0.851 1.248,1.469 0,0.631 -0.209,1.471 -1.248,1.471 -0.291,0 -0.63,0 -0.98,0.012 z M 1.073,-1.19 H 0 v -2.649 c -0.245,-0.046 -0.56,-0.057 -0.781,-0.057 -0.211,0 -0.537,0.011 -0.782,0.057 v 7.912 l 0.082,0.069 c 0.933,0.024 1.715,0.047 2.554,0.047 1.611,0 2.766,-0.876 2.766,-2.696 0,-1.762 -1.155,-2.683 -2.766,-2.683"
             style="fill:#08532a;fill-opacity:1;fill-rule:nonzero;stroke:none"
             id="path1871" />
        </g>
        <g
           id="g1873"
           transform="translate(887.2151,70.9319)">
          <path
             d="M 0,0 C 0.164,0 0.408,0.012 0.525,0.012 H 1.528 C 1.633,0.012 1.855,0 2.019,0 L 1.668,1.19 C 1.47,1.856 1.213,2.754 1.038,3.454 H 0.968 C 0.852,2.859 0.607,2.019 0.455,1.482 Z m -0.386,-1.236 -0.548,-1.821 c -0.198,-0.046 -0.431,-0.058 -0.677,-0.058 -0.244,0 -0.559,0.035 -0.746,0.105 l -0.058,0.081 2.602,7.853 c 0.256,0.036 0.642,0.059 0.91,0.059 0.245,0 0.653,-0.023 0.898,-0.07 L 4.551,-2.94 C 4.329,-3.068 3.956,-3.139 3.652,-3.139 c -0.501,0 -0.747,0.175 -0.933,0.841 l -0.327,1.062 c -0.174,0 -0.455,-0.013 -0.572,-0.013 H 0.187 c -0.117,0 -0.385,0 -0.573,0.013"
             style="fill:#08532a;fill-opacity:1;fill-rule:nonzero;stroke:none"
             id="path1875" />
        </g>
        <g
           id="g1877"
           transform="translate(893.388,73.697)">
          <path
             d="M 0,0 C 0,0.315 0.011,0.537 0.011,0.864 H 0 c -0.164,0 -0.537,-0.011 -0.701,-0.011 h -1.295 c -0.047,0.232 -0.059,0.466 -0.059,0.653 0,0.175 0.012,0.42 0.059,0.653 H 3.582 C 3.628,1.996 3.663,1.751 3.663,1.552 3.663,1.04 3.396,0.853 2.823,0.853 H 2.276 c -0.165,0 -0.538,0.011 -0.701,0.011 H 1.563 C 1.563,0.537 1.575,0.315 1.575,0 V -5.81 C 1.306,-5.857 1.014,-5.868 0.782,-5.868 0.559,-5.868 0.267,-5.857 0,-5.81 Z"
             style="fill:#08532a;fill-opacity:1;fill-rule:nonzero;stroke:none"
             id="path1879" />
        </g>
        <g
           id="g1881"
           transform="translate(899.6068,72.1575)">
          <path
             d="m 0,0 c 0.409,0.023 0.852,0.035 1.074,0.035 1.015,0 1.248,0.618 1.248,1.26 0,0.653 -0.233,1.26 -1.248,1.26 -0.281,0 -0.712,0 -1.074,0.012 z m 2.473,-0.841 c 0.421,-0.151 0.7,-0.548 0.863,-1.026 L 3.769,-3.046 C 3.885,-3.372 4.06,-3.688 4.317,-3.898 4.118,-4.177 3.687,-4.365 3.279,-4.365 c -0.572,0 -0.771,0.316 -0.992,0.923 l -0.491,1.388 c -0.175,0.467 -0.408,0.84 -1.085,0.84 H 0 v -3.057 c -0.257,-0.047 -0.561,-0.058 -0.782,-0.058 -0.198,0 -0.526,0.011 -0.77,0.058 V 3.64 l 0.082,0.07 c 0.933,0.024 1.819,0.047 2.66,0.047 1.622,0 2.742,-0.805 2.742,-2.462 0,-1.108 -0.7,-1.867 -1.459,-2.136"
             style="fill:#08532a;fill-opacity:1;fill-rule:nonzero;stroke:none"
             id="path1883" />
        </g>
        <g
           id="g1885"
           transform="translate(905.1839,75.8567)">
          <path
             d="M 0,0 C 0.234,0.046 0.572,0.058 0.782,0.058 1.003,0.058 1.307,0.046 1.563,0 V -7.97 C 1.307,-8.017 1.003,-8.028 0.782,-8.028 0.572,-8.028 0.234,-8.017 0,-7.97 Z"
             style="fill:#08532a;fill-opacity:1;fill-rule:nonzero;stroke:none"
             id="path1887" />
        </g>
        <g
           id="g1889"
           transform="translate(910.3292,70.9319)">
          <path
             d="M 0,0 C 0.164,0 0.409,0.012 0.525,0.012 H 1.529 C 1.634,0.012 1.855,0 2.019,0 L 1.668,1.19 C 1.47,1.856 1.214,2.754 1.039,3.454 H 0.969 C 0.852,2.859 0.607,2.019 0.456,1.482 Z m -0.385,-1.236 -0.548,-1.821 c -0.199,-0.046 -0.433,-0.058 -0.677,-0.058 -0.244,0 -0.56,0.035 -0.747,0.105 l -0.058,0.081 2.602,7.853 c 0.257,0.036 0.642,0.059 0.91,0.059 0.245,0 0.653,-0.023 0.898,-0.07 L 4.551,-2.94 C 4.329,-3.068 3.956,-3.139 3.653,-3.139 c -0.502,0 -0.747,0.175 -0.934,0.841 l -0.327,1.062 c -0.174,0 -0.455,-0.013 -0.572,-0.013 H 0.187 c -0.117,0 -0.385,0 -0.572,0.013"
             style="fill:#08532a;fill-opacity:1;fill-rule:nonzero;stroke:none"
             id="path1891" />
        </g>
        <g
           id="g1893"
           transform="translate(920.1893,70.9319)">
          <path
             d="M 0,0 C 0.164,0 0.408,0.012 0.525,0.012 H 1.528 C 1.633,0.012 1.855,0 2.019,0 L 1.668,1.19 C 1.47,1.856 1.213,2.754 1.038,3.454 H 0.968 C 0.852,2.859 0.607,2.019 0.455,1.482 Z m -0.386,-1.236 -0.548,-1.821 c -0.198,-0.046 -0.431,-0.058 -0.677,-0.058 -0.244,0 -0.559,0.035 -0.746,0.105 l -0.058,0.081 2.602,7.853 c 0.256,0.036 0.641,0.059 0.91,0.059 0.245,0 0.653,-0.023 0.899,-0.07 L 4.551,-2.94 C 4.329,-3.068 3.956,-3.139 3.652,-3.139 c -0.502,0 -0.746,0.175 -0.934,0.841 l -0.326,1.062 c -0.174,0 -0.455,-0.013 -0.572,-0.013 H 0.187 c -0.117,0 -0.386,0 -0.573,0.013"
             style="fill:#08532a;fill-opacity:1;fill-rule:nonzero;stroke:none"
             id="path1895" />
        </g>
        <g
           id="g1897"
           transform="translate(926.2674,75.8445)">
          <path
             d="M 0,0 C 0.338,0.058 0.782,0.082 1.05,0.082 1.331,0.082 1.715,0.058 2.043,0 l 0.898,-3.232 c 0.082,-0.327 0.373,-1.529 0.443,-1.995 h 0.082 c 0.07,0.466 0.362,1.668 0.443,1.995 L 4.796,0 C 5.147,0.058 5.52,0.082 5.788,0.082 6.068,0.082 6.5,0.058 6.85,0 L 7.468,-7.935 C 7.246,-7.993 6.932,-8.016 6.675,-8.016 c -0.246,0 -0.467,0.011 -0.689,0.046 L 5.764,-4.224 C 5.718,-3.5 5.672,-2.427 5.672,-1.692 H 5.59 L 4.224,-6.768 C 3.991,-6.803 3.641,-6.826 3.419,-6.826 c -0.211,0 -0.559,0.023 -0.793,0.058 L 1.261,-1.692 H 1.179 C 1.167,-2.427 1.132,-3.5 1.085,-4.224 L 0.864,-7.97 c -0.222,-0.035 -0.455,-0.046 -0.7,-0.046 -0.245,0 -0.561,0.023 -0.782,0.081 z"
             style="fill:#08532a;fill-opacity:1;fill-rule:nonzero;stroke:none"
             id="path1899" />
        </g>
        <g
           id="g1901"
           transform="translate(937.0616,70.9319)">
          <path
             d="M 0,0 C 0.164,0 0.409,0.012 0.525,0.012 H 1.529 C 1.633,0.012 1.855,0 2.018,0 L 1.668,1.19 C 1.47,1.856 1.213,2.754 1.038,3.454 H 0.968 C 0.852,2.859 0.607,2.019 0.455,1.482 Z m -0.386,-1.236 -0.548,-1.821 c -0.198,-0.046 -0.431,-0.058 -0.676,-0.058 -0.245,0 -0.56,0.035 -0.747,0.105 l -0.058,0.081 2.602,7.853 c 0.256,0.036 0.642,0.059 0.91,0.059 0.245,0 0.653,-0.023 0.898,-0.07 L 4.551,-2.94 C 4.329,-3.068 3.956,-3.139 3.652,-3.139 c -0.502,0 -0.747,0.175 -0.933,0.841 l -0.327,1.062 c -0.174,0 -0.455,-0.013 -0.572,-0.013 H 0.187 c -0.117,0 -0.385,0 -0.573,0.013"
             style="fill:#08532a;fill-opacity:1;fill-rule:nonzero;stroke:none"
             id="path1903" />
        </g>
        <g
           id="g1913"
           transform="translate(889.6968,78.5852)">
          <path
             d="m 0,0 c 0.231,-0.121 0.546,-0.486 0.627,-0.833 l -1.932,-1.149 c -0.195,0.071 -0.373,0.329 -0.431,0.523 z"
             style="fill:#08532a;fill-opacity:1;fill-rule:nonzero;stroke:none"
             id="path1915" />
        </g>
        <g
           id="g1917"
           transform="translate(881.4888,44.5539)">
          <path
             d="m 0,0 0.891,0.006 c 0.4,0 0.6,-0.19 0.6,-0.568 v -1.491 c -0.487,-0.155 -1,-0.233 -1.537,-0.233 -0.272,0 -0.513,0.046 -0.723,0.136 -0.209,0.091 -0.386,0.222 -0.527,0.391 -0.141,0.171 -0.249,0.38 -0.32,0.627 -0.072,0.248 -0.108,0.528 -0.108,0.843 0,0.343 0.05,0.643 0.15,0.899 0.1,0.255 0.235,0.468 0.403,0.638 0.168,0.17 0.361,0.297 0.581,0.383 0.219,0.084 0.448,0.127 0.686,0.127 C 0.588,1.758 1.049,1.623 1.48,1.35 1.477,1.29 1.462,1.228 1.438,1.166 1.413,1.103 1.383,1.042 1.347,0.984 1.311,0.925 1.269,0.873 1.222,0.825 1.175,0.778 1.127,0.737 1.078,0.703 0.763,0.907 0.446,1.01 0.125,1.01 -0.492,1.01 -0.8,0.579 -0.8,-0.284 c 0,-0.858 0.316,-1.287 0.947,-1.287 0.087,0 0.172,0.004 0.253,0.011 0.081,0.008 0.161,0.019 0.241,0.034 v 0.38 c 0,0.087 0.001,0.163 0.003,0.227 0.002,0.065 0.004,0.119 0.008,0.164 H 0.369 c -0.163,0 -0.275,0.031 -0.338,0.094 -0.062,0.063 -0.093,0.16 -0.093,0.292 0,0.114 0.02,0.237 0.062,0.369"
             style="fill:#08532a;fill-opacity:1;fill-rule:nonzero;stroke:none"
             id="path1919" />
        </g>
        <g
           id="g1921"
           transform="translate(886.4857,43.4079)">
          <path
             d="m 0,0 c 0.102,-0.295 0.308,-0.442 0.618,-0.442 0.155,0 0.281,0.038 0.378,0.116 0.095,0.077 0.171,0.176 0.226,0.295 0.055,0.118 0.092,0.253 0.111,0.4 0.018,0.148 0.028,0.293 0.028,0.437 0,0.132 -0.005,0.279 -0.014,0.443 C 1.338,1.411 1.31,1.562 1.265,1.704 1.219,1.846 1.147,1.965 1.049,2.062 0.951,2.158 0.807,2.207 0.618,2.207 0.437,2.207 0.298,2.16 0.201,2.067 0.105,1.975 0.033,1.861 -0.014,1.725 -0.062,1.588 -0.091,1.444 -0.102,1.291 -0.113,1.137 -0.119,1.002 -0.119,0.885 -0.119,0.711 -0.111,0.556 -0.094,0.42 -0.077,0.284 -0.046,0.144 0,0 m -0.46,-0.782 c -0.404,0.336 -0.606,0.89 -0.606,1.661 0,0.333 0.039,0.625 0.116,0.876 0.078,0.252 0.189,0.463 0.335,0.633 0.145,0.17 0.322,0.299 0.53,0.386 0.208,0.087 0.442,0.13 0.703,0.13 0.261,0 0.496,-0.043 0.706,-0.13 C 1.534,2.687 1.711,2.557 1.857,2.385 2.003,2.213 2.115,2.001 2.192,1.75 2.269,1.499 2.309,1.208 2.309,0.879 2.309,0.55 2.269,0.26 2.192,0.009 2.115,-0.243 2.003,-0.454 1.857,-0.624 1.711,-0.794 1.534,-0.922 1.324,-1.009 1.114,-1.096 0.879,-1.14 0.618,-1.14 c -0.431,0 -0.79,0.119 -1.078,0.358"
             style="fill:#08532a;fill-opacity:1;fill-rule:nonzero;stroke:none"
             id="path1923" />
        </g>
        <g
           id="g1925"
           transform="translate(892.6846,43.113)">
          <path
             d="m 0,0 0.743,3.114 c 0.091,0.023 0.208,0.034 0.352,0.034 0.196,0 0.352,-0.021 0.464,-0.063 L 1.594,3.04 0.533,-0.76 c -0.215,-0.022 -0.432,-0.034 -0.649,-0.034 -0.217,0 -0.375,0.027 -0.471,0.083 -0.096,0.054 -0.169,0.163 -0.218,0.325 l -0.942,3.42 c 0.204,0.088 0.372,0.131 0.505,0.131 0.159,0 0.276,-0.036 0.351,-0.108 0.076,-0.071 0.135,-0.185 0.176,-0.34 L -0.278,1.1 C -0.21,0.847 -0.138,0.503 -0.062,0.068 -0.055,0.023 -0.034,0 0,0"
             style="fill:#08532a;fill-opacity:1;fill-rule:nonzero;stroke:none"
             id="path1927" />
        </g>
        <g
           id="g1929"
           transform="translate(897.5963,43.4988)">
          <path
             d="m 0,0 -0.006,-0.409 v -0.005 c 0.174,0.007 0.313,0.012 0.418,0.012 H 1.724 C 1.724,-0.542 1.719,-0.65 1.707,-0.726 1.662,-1.017 1.469,-1.163 1.129,-1.163 H -0.38 c -0.162,0 -0.29,0.048 -0.383,0.142 -0.093,0.095 -0.139,0.224 -0.139,0.386 v 3.323 l 0.04,0.04 H 1.582 C 1.605,2.619 1.616,2.499 1.616,2.371 1.616,2.243 1.59,2.108 1.537,1.968 H -0.006 L 0,1.56 V 1.163 C 0.098,1.167 0.226,1.168 0.384,1.168 H 1.248 C 1.282,1.063 1.299,0.942 1.299,0.806 1.299,0.669 1.282,0.544 1.248,0.431 H 0 Z"
             style="fill:#08532a;fill-opacity:1;fill-rule:nonzero;stroke:none"
             id="path1931" />
        </g>
        <g
           id="g1933"
           transform="translate(902.7969,45.5862)">
          <path
             d="m 0,0 v -1.117 c 0.17,0 0.316,0.003 0.437,0.008 0.121,0.005 0.219,0.028 0.292,0.068 0.074,0.041 0.129,0.097 0.167,0.169 0.038,0.072 0.057,0.176 0.057,0.313 0,0.369 -0.178,0.553 -0.533,0.553 H 0.184 C 0.115,-0.006 0.053,-0.004 0,0 M 1.878,-0.556 C 1.878,-0.681 1.858,-0.799 1.821,-0.91 1.783,-1.022 1.733,-1.122 1.67,-1.211 1.608,-1.3 1.534,-1.377 1.449,-1.444 1.364,-1.51 1.276,-1.56 1.185,-1.594 1.382,-1.666 1.528,-1.84 1.622,-2.116 l 0.17,-0.482 C 1.857,-2.787 1.951,-2.926 2.076,-3.017 2.019,-3.093 1.934,-3.157 1.821,-3.207 1.708,-3.258 1.582,-3.284 1.447,-3.284 c -0.137,0 -0.243,0.039 -0.318,0.117 -0.076,0.077 -0.146,0.212 -0.21,0.405 L 0.715,-2.167 C 0.673,-2.053 0.617,-1.966 0.547,-1.906 0.478,-1.845 0.373,-1.815 0.233,-1.815 H 0 v -1.418 c -0.121,-0.023 -0.272,-0.034 -0.454,-0.034 -0.181,0 -0.331,0.011 -0.448,0.034 v 3.845 l 0.04,0.04 C -0.533,0.66 -0.256,0.665 -0.031,0.669 0.194,0.673 0.371,0.675 0.5,0.675 0.707,0.675 0.896,0.649 1.066,0.599 1.237,0.547 1.381,0.471 1.5,0.368 1.619,0.267 1.712,0.138 1.778,-0.017 c 0.066,-0.155 0.1,-0.335 0.1,-0.539"
             style="fill:#08532a;fill-opacity:1;fill-rule:nonzero;stroke:none"
             id="path1935" />
        </g>
        <g
           id="g1937"
           transform="translate(910.3802,46.2668)">
          <path
             d="m 0,0 0.04,-0.04 v -3.856 c -0.152,-0.035 -0.33,-0.052 -0.537,-0.052 -0.206,0 -0.388,0.011 -0.546,0.034 l -0.892,2.031 c -0.105,0.23 -0.213,0.497 -0.322,0.8 l -0.018,-0.006 c 0.046,-0.552 0.068,-1.118 0.068,-1.696 v -1.129 c -0.117,-0.023 -0.259,-0.034 -0.425,-0.034 -0.167,0 -0.306,0.011 -0.42,0.034 v 3.857 c 0.144,0.034 0.317,0.051 0.52,0.051 0.201,0 0.382,-0.011 0.541,-0.034 l 0.879,-2.024 c 0.159,-0.375 0.276,-0.662 0.352,-0.863 l 0.022,0.012 c -0.045,0.525 -0.068,1.082 -0.068,1.673 v 0.691 c 0,0.197 0.04,0.339 0.119,0.423 C -0.607,-0.042 -0.478,0 -0.3,0 Z"
             style="fill:#08532a;fill-opacity:1;fill-rule:nonzero;stroke:none"
             id="path1939" />
        </g>
        <g
           id="g1941"
           transform="translate(914.0611,43.4079)">
          <path
             d="m 0,0 c 0.102,-0.295 0.308,-0.442 0.618,-0.442 0.155,0 0.281,0.038 0.377,0.116 0.097,0.077 0.172,0.176 0.227,0.295 0.055,0.118 0.091,0.253 0.111,0.4 0.019,0.148 0.028,0.293 0.028,0.437 0,0.132 -0.004,0.279 -0.014,0.443 C 1.337,1.411 1.31,1.562 1.265,1.704 1.219,1.846 1.147,1.965 1.049,2.062 0.951,2.158 0.807,2.207 0.618,2.207 0.437,2.207 0.298,2.16 0.201,2.067 0.104,1.975 0.033,1.861 -0.014,1.725 -0.062,1.588 -0.091,1.444 -0.102,1.291 -0.114,1.137 -0.119,1.002 -0.119,0.885 -0.119,0.711 -0.111,0.556 -0.094,0.42 -0.077,0.284 -0.045,0.144 0,0 m -0.459,-0.782 c -0.406,0.336 -0.607,0.89 -0.607,1.661 0,0.333 0.038,0.625 0.116,0.876 0.077,0.252 0.189,0.463 0.335,0.633 0.145,0.17 0.322,0.299 0.53,0.386 0.208,0.087 0.442,0.13 0.703,0.13 0.261,0 0.497,-0.043 0.706,-0.13 C 1.534,2.687 1.712,2.557 1.857,2.385 2.003,2.213 2.114,2.001 2.192,1.75 2.269,1.499 2.308,1.208 2.308,0.879 2.308,0.55 2.269,0.26 2.192,0.009 2.114,-0.243 2.003,-0.454 1.857,-0.624 1.712,-0.794 1.534,-0.922 1.324,-1.009 1.115,-1.096 0.879,-1.14 0.618,-1.14 c -0.431,0 -0.79,0.119 -1.077,0.358"
             style="fill:#08532a;fill-opacity:1;fill-rule:nonzero;stroke:none"
             id="path1943" />
        </g>
        <g
           id="g1945"
           transform="translate(923.0389,45.4558)">
          <path
             d="M 0,0 0.006,-0.442 V -0.8 h 1.22 c 0.029,-0.113 0.045,-0.237 0.045,-0.371 0,-0.135 -0.016,-0.258 -0.045,-0.372 h -1.22 v -1.56 c -0.121,-0.022 -0.27,-0.034 -0.451,-0.034 -0.18,0 -0.331,0.012 -0.451,0.034 v 3.84 l 0.04,0.034 H 1.571 C 1.594,0.677 1.605,0.559 1.605,0.417 1.605,0.275 1.566,0.17 1.489,0.102 1.411,0.034 1.289,0 1.121,0 Z"
             style="fill:#08532a;fill-opacity:1;fill-rule:nonzero;stroke:none"
             id="path1947" />
        </g>
        <g
           id="g1949"
           transform="translate(928.0186,43.4988)">
          <path
             d="m 0,0 -0.005,-0.409 v -0.005 c 0.173,0.007 0.312,0.012 0.418,0.012 H 1.724 C 1.724,-0.542 1.719,-0.65 1.708,-0.726 1.662,-1.017 1.469,-1.163 1.129,-1.163 H -0.38 c -0.162,0 -0.29,0.048 -0.383,0.142 -0.093,0.095 -0.139,0.224 -0.139,0.386 v 3.323 l 0.04,0.04 H 1.583 C 1.605,2.619 1.616,2.499 1.616,2.371 1.616,2.243 1.59,2.108 1.537,1.968 H -0.005 L 0,1.56 V 1.163 C 0.098,1.167 0.226,1.168 0.384,1.168 H 1.248 C 1.282,1.063 1.299,0.942 1.299,0.806 1.299,0.669 1.282,0.544 1.248,0.431 H 0 Z"
             style="fill:#08532a;fill-opacity:1;fill-rule:nonzero;stroke:none"
             id="path1951" />
        </g>
        <g
           id="g1953"
           transform="translate(933.7813,43.0281)">
          <path
             d="M 0,0 C 0.498,0 0.748,0.419 0.748,1.259 0.748,2.102 0.498,2.524 0,2.524 h -0.321 c -0.092,0 -0.173,0.002 -0.241,0.005 V -0.005 C -0.494,-0.002 -0.413,0 -0.321,0 Z M 1.043,-0.425 C 0.922,-0.524 0.763,-0.595 0.567,-0.641 0.37,-0.687 0.153,-0.709 -0.085,-0.709 c -0.117,0 -0.287,0.002 -0.508,0.006 -0.221,0.004 -0.498,0.009 -0.831,0.016 l -0.04,0.041 V 3.17 l 0.04,0.04 c 0.219,0.008 0.447,0.013 0.684,0.018 0.236,0.003 0.484,0.005 0.745,0.005 0.322,0 0.59,-0.051 0.806,-0.153 C 1.026,2.978 1.198,2.838 1.327,2.66 1.456,2.482 1.546,2.274 1.599,2.034 1.652,1.793 1.678,1.535 1.678,1.259 1.678,0.881 1.635,0.554 1.548,0.278 1.461,0.002 1.293,-0.232 1.043,-0.425"
             style="fill:#08532a;fill-opacity:1;fill-rule:nonzero;stroke:none"
             id="path1955" />
        </g>
        <g
           id="g1957"
           transform="translate(938.942,43.4988)">
          <path
             d="m 0,0 -0.005,-0.409 v -0.005 c 0.173,0.007 0.312,0.012 0.418,0.012 H 1.724 C 1.724,-0.542 1.719,-0.65 1.708,-0.726 1.662,-1.017 1.469,-1.163 1.129,-1.163 H -0.38 c -0.162,0 -0.29,0.048 -0.383,0.142 -0.093,0.095 -0.139,0.224 -0.139,0.386 v 3.323 l 0.04,0.04 H 1.583 C 1.605,2.619 1.617,2.499 1.617,2.371 1.617,2.243 1.59,2.108 1.537,1.968 H -0.005 L 0,1.56 V 1.163 C 0.098,1.167 0.226,1.168 0.384,1.168 H 1.248 C 1.282,1.063 1.299,0.942 1.299,0.806 1.299,0.669 1.282,0.544 1.248,0.431 H 0 Z"
             style="fill:#08532a;fill-opacity:1;fill-rule:nonzero;stroke:none"
             id="path1959" />
        </g>
        <g
           id="g1973"
           transform="translate(864.0491,54.3098)">
          <path
             d="m 0,0 c -15.998,-0.927 -26.989,-5.996 -32.506,-9.243 -2.451,-1.443 -3.819,-2.524 -4.067,-2.724 v -0.031 H 10.894 V -0.029 C 7.039,0.207 3.406,0.197 0,0"
             style="fill:#08532a;fill-opacity:1;fill-rule:nonzero;stroke:none"
             id="path1975" />
        </g>
        <g
           id="g1977"
           transform="translate(846.3653,72.8869)">
          <path
             d="m 0,0 -18.889,-15.242 v -12.913 c 0.258,0.22 1.736,1.459 4.292,3.155 0.014,0.009 0.029,0.019 0.043,0.028 1.355,8.337 8.588,14.702 17.309,14.702 3.955,0 7.604,-1.309 10.539,-3.518 0.578,0.106 1.164,0.205 1.755,0.3 0.05,0.008 0.101,0.014 0.152,0.022 0.524,0.083 1.052,0.16 1.586,0.232 0.113,0.015 0.227,0.029 0.34,0.044 0.476,0.062 0.956,0.12 1.439,0.173 0.139,0.016 0.278,0.03 0.417,0.044 0.466,0.049 0.935,0.093 1.409,0.133 0.148,0.013 0.296,0.026 0.444,0.037 0.48,0.038 0.963,0.07 1.449,0.098 0.139,0.009 0.278,0.018 0.418,0.025 0.529,0.028 1.062,0.05 1.599,0.066 0.098,0.003 0.194,0.008 0.293,0.01 0.636,0.017 1.276,0.028 1.923,0.028 0.31,0 0.625,-0.009 0.937,-0.013 0.374,-0.005 0.745,-0.005 1.122,-0.016 z"
             style="fill:#08532a;fill-opacity:1;fill-rule:nonzero;stroke:none"
             id="path1979" />
        </g>
        <g
           id="g1981"
           transform="translate(845.8992,73.4651)">
          <path
             d="m 0,0 c 0.134,0.108 0.3,0.165 0.467,0.165 0.101,0 0.203,-0.021 0.3,-0.064 L 29.044,-12.372 V 2.443 h -47.467 v -17.308 z"
             style="fill:#08532a;fill-opacity:1;fill-rule:nonzero;stroke:none"
             id="path1983" />
        </g>
        <g
           id="g1985"
           transform="translate(838.1776,57.821)">
          <path
             d="M 0,0 C -2.826,-2.431 -4.764,-5.728 -5.509,-9.348 -0.253,-5.983 8.74,-1.246 20.482,1.083 17.672,3.029 14.388,4.054 10.943,4.054 6.927,4.054 3.04,2.614 0,0"
             style="fill:#08532a;fill-opacity:1;fill-rule:nonzero;stroke:none"
             id="path1987" />
        </g>
      </g>
    </g>
  </g>
</svg>
