<?xml version="1.0" encoding="UTF-8" standalone="no"?>
<svg
   xmlns:dc="http://purl.org/dc/elements/1.1/"
   xmlns:cc="http://creativecommons.org/ns#"
   xmlns:rdf="http://www.w3.org/1999/02/22-rdf-syntax-ns#"
   xmlns:svg="http://www.w3.org/2000/svg"
   xmlns="http://www.w3.org/2000/svg"
   xmlns:sodipodi="http://sodipodi.sourceforge.net/DTD/sodipodi-0.dtd"
   xmlns:inkscape="http://www.inkscape.org/namespaces/inkscape"
   sodipodi:docname="inct.svg"
   inkscape:version="1.0 (1.0+r73+1)"
   width="200px"
   height="32px"
   viewBox="0 0 200 32"
   version="1.1"
   id="SVGRoot">
  <defs
     id="defs9371" />
  <sodipodi:namedview
     inkscape:window-maximized="0"
     inkscape:window-y="27"
     inkscape:window-x="67"
     inkscape:window-height="1023"
     inkscape:window-width="1795"
     showgrid="false"
     inkscape:document-rotation="0"
     inkscape:current-layer="layer1"
     inkscape:document-units="px"
     inkscape:cy="43.239196"
     inkscape:cx="78.634504"
     inkscape:zoom="3.959798"
     inkscape:pageshadow="2"
     inkscape:pageopacity="0.0"
     borderopacity="1.0"
     bordercolor="#666666"
     pagecolor="#ffffff"
     id="base" />
  <metadata
     id="metadata9374">
    <rdf:RDF>
      <cc:Work
         rdf:about="">
        <dc:format>image/svg+xml</dc:format>
        <dc:type
           rdf:resource="http://purl.org/dc/dcmitype/StillImage" />
        <dc:title></dc:title>
      </cc:Work>
    </rdf:RDF>
  </metadata>
  <g
     id="layer1"
     inkscape:groupmode="layer"
     inkscape:label="Layer 1">
    <g
       transform="matrix(0.86095285,0,0,-0.86095285,-277.90819,65.457349)"
       id="g10777">
      <g
         transform="translate(411.8734,69.4167)"
         id="g1179">
        <path
           id="path1181"
           style="fill:#08532a;fill-opacity:1;fill-rule:nonzero;stroke:none"
           d="M 0,0 H 7.123 V 2.118 H 0.289 0 Z" />
      </g>
      <g
         transform="translate(405.1126,43.1501)"
         id="g1183">
        <path
           id="path1185"
           style="fill:#08532a;fill-opacity:1;fill-rule:nonzero;stroke:none"
           d="m 0,0 v 3.677 h -7.189 v -5.154 h 6.834 0.006 7.398 c 1.593,0 3.055,0.555 4.218,1.477 z" />
      </g>
      <g
         transform="translate(417.0818,68.8664)"
         id="g1187">
        <path
           id="path1189"
           style="fill:#08532a;fill-opacity:1;fill-rule:nonzero;stroke:none"
           d="m 0,0 h -5.448 l 0.209,-0.9 0.449,-0.06 -0.074,-0.84 -0.536,-0.491 0.938,0.164 0.545,-0.172 v -0.13 l 0.037,0.05 1.727,-0.492 0.107,-0.152 0.293,0.047 0.276,-0.563 0.159,0.062 -0.036,-0.126 0.271,0.097 1.281,-0.378 0.984,0.131 1.9,-1.43 1.067,-0.084 0.429,-1.73 L 4.017,-8.395 1.98,-10.689 1.944,-11.631 1.841,-13.446 1.633,-13.714 1.558,-14.678 1.455,-14.847 0.79,-15.65 0.653,-16.386 0.611,-16.447 0.522,-16.506 0.092,-16.703 v -0.314 l -0.323,-0.034 -1.17,-0.06 -0.077,-0.077 v -0.064 l -0.157,-0.074 -1.34,-0.547 -1.053,-1.024 -0.078,-1.862 -0.694,-0.715 -0.763,-1.501 -0.846,-0.662 -0.073,-0.092 -0.562,-0.812 -0.452,0.204 0.154,0.62 -0.332,0.456 -0.908,0.659 -0.202,-0.117 -0.564,0.629 -1.168,-0.152 2.364,2.517 0.463,0.283 -0.085,0.585 -0.479,0.068 0.136,1.067 -0.584,0.069 -0.199,0.989 -0.098,0.062 -1.294,0.259 v 0.207 l -0.108,1.191 0.231,1.214 -0.476,0.726 0.037,0.244 -0.98,0.14 -0.279,0.745 0.048,0.392 -0.236,0.529 -2.635,1.014 v 0.144 l -0.244,0.456 v 0.767 l -0.438,-0.028 -1.005,-0.749 -1.697,0.032 v 0.252 l -0.067,0.575 -0.574,-0.258 -0.273,0.187 -0.604,0.312 -0.497,1.248 0.989,1.835 1.371,0.512 0.3,1.492 -0.423,1.26 0.285,0.081 -0.136,0.093 0.008,0.217 0.143,0.542 1.864,0.168 v -0.2 l 0.496,-0.556 h 0.266 l 1.017,0.604 -0.263,0.225 v 0.531 l -0.905,0.805 1.843,-0.267 1.202,0.411 0.092,0.203 v 0.301 l 0.797,-0.27 0.32,-0.658 -0.139,-0.934 0.299,-0.567 0.116,-0.06 0.836,0.247 -0.209,0.141 0.819,0.02 0.132,-0.018 0.134,0.335 1.123,-0.169 0.239,-0.152 0.427,0.137 0.766,1.006 0.102,0.198 0.195,-0.094 0.224,-0.082 V 0.72 4.55 h -5.481 -5.938 c -3.027,0 -5.481,-2.69 -5.481,-6.008 v -14.023 -0.31 -5.698 h 5.481 0.004 5.755 v -3.678 H -5.938 -5.934 0 c 3.027,0 5.482,2.602 5.482,5.808 V -5.808 -3.703 0 Z" />
      </g>
      <g
         transform="translate(418.3441,59.3489)"
         id="g1191">
        <path
           id="path1193"
           style="fill:#08532a;fill-opacity:1;fill-rule:nonzero;stroke:none"
           d="m 0,0 c -0.207,0 -0.392,0.083 -0.533,0.213 l -1.603,-0.801 c 0.041,-0.097 0.065,-0.203 0.065,-0.314 0,-0.18 -0.07,-0.338 -0.171,-0.471 l 0.474,-1.713 c 0.421,-0.02 0.759,-0.363 0.759,-0.79 0,-0.44 -0.357,-0.797 -0.795,-0.797 -0.442,0 -0.797,0.357 -0.797,0.797 0,0.301 0.173,0.555 0.42,0.69 l -0.425,1.539 C -2.689,-1.676 -2.775,-1.7 -2.867,-1.7 c -0.209,0 -0.396,0.085 -0.537,0.217 L -3.532,-1.54 -4.387,-1.958 c 0.012,-0.056 0.034,-0.107 0.034,-0.166 0,-0.44 -0.357,-0.797 -0.797,-0.797 -0.066,0 -0.124,0.023 -0.186,0.038 l -0.506,-0.919 -0.14,-0.239 c -0.008,-0.013 -0.024,-0.014 -0.033,-0.025 0.14,-0.143 0.227,-0.337 0.227,-0.554 0,-0.063 -0.022,-0.118 -0.036,-0.177 l 0.13,-0.059 0.707,-0.29 c 0.141,0.126 0.323,0.209 0.527,0.209 0.44,0 0.797,-0.357 0.797,-0.797 0,-0.44 -0.357,-0.797 -0.797,-0.797 -0.44,0 -0.796,0.357 -0.796,0.797 0,0.061 0.021,0.116 0.035,0.173 l -0.667,0.273 -0.153,0.069 c -0.006,0.003 -0.007,0.011 -0.013,0.014 -0.091,-0.082 -0.2,-0.135 -0.321,-0.169 v -1.255 c 0.314,-0.106 0.544,-0.395 0.544,-0.746 0,-0.439 -0.356,-0.796 -0.796,-0.796 -0.115,0 -0.223,0.026 -0.322,0.069 l -0.913,-2.466 c 0.289,-0.12 0.492,-0.403 0.492,-0.735 0,-0.44 -0.357,-0.797 -0.797,-0.797 -0.44,0 -0.797,0.357 -0.797,0.797 0,0.392 0.289,0.703 0.662,0.769 l 1.015,2.738 c -0.079,0.124 -0.138,0.263 -0.138,0.421 0,0.362 0.246,0.655 0.576,0.752 v 1.261 c -0.039,0.014 -0.074,0.033 -0.111,0.053 l -0.229,-0.206 -0.21,-0.201 c 0.017,-0.063 0.039,-0.125 0.039,-0.193 0,-0.441 -0.356,-0.798 -0.796,-0.798 -0.441,0 -0.796,0.357 -0.796,0.798 0,0.44 0.355,0.796 0.796,0.796 0.195,0 0.368,-0.078 0.506,-0.195 l 0.164,0.16 0.196,0.177 c -0.054,0.107 -0.09,0.223 -0.09,0.351 0,0.133 0.04,0.252 0.097,0.362 l -3.382,3.472 c -0.052,-0.01 -0.101,-0.032 -0.156,-0.032 -0.484,0 -0.876,0.393 -0.876,0.877 0,0.484 0.392,0.876 0.876,0.876 0.015,0 0.028,-0.008 0.043,-0.009 l 0.118,0.685 0.129,0.667 c -0.445,0.043 -0.795,0.405 -0.795,0.86 0,0.156 0.052,0.295 0.123,0.423 -0.241,0.2 -0.474,0.407 -0.698,0.614 l -0.645,0.571 c -0.136,-0.088 -0.289,-0.152 -0.464,-0.152 -0.483,0 -0.875,0.392 -0.875,0.876 0,0.483 0.392,0.876 0.875,0.876 0.484,0 0.876,-0.393 0.876,-0.876 0,-0.115 -0.025,-0.222 -0.064,-0.323 l 0.657,-0.581 c 0.244,-0.224 0.484,-0.435 0.729,-0.635 0.111,0.051 0.232,0.083 0.363,0.083 0.483,0 0.876,-0.392 0.876,-0.876 0,-0.34 -0.2,-0.627 -0.483,-0.772 0.002,-0.021 0.017,-0.037 0.013,-0.059 l -0.154,-0.797 -0.13,-0.747 c 0.226,-0.159 0.383,-0.408 0.383,-0.704 0,-0.234 -0.095,-0.445 -0.246,-0.602 l 3.272,-3.359 c 0.102,0.048 0.214,0.079 0.334,0.079 0.065,0 0.124,-0.023 0.184,-0.037 0.006,0.019 -0.002,0.038 0.008,0.056 l 0.141,0.242 0.508,0.919 c -0.122,0.141 -0.203,0.319 -0.203,0.519 0,0.441 0.356,0.798 0.796,0.798 0.209,0 0.397,-0.085 0.538,-0.217 l 0.89,0.437 0.092,0.041 c -0.012,0.054 -0.033,0.105 -0.033,0.163 0,0.44 0.355,0.796 0.796,0.796 0.005,0 0.008,-0.003 0.013,-0.003 v 2.231 c -0.314,0.106 -0.544,0.394 -0.544,0.745 0,0.44 0.356,0.797 0.797,0.797 0.44,0 0.797,-0.357 0.797,-0.797 0,-0.379 -0.27,-0.68 -0.625,-0.762 v -2.36 c 0.002,-0.001 0.003,-0.002 0.004,-0.003 l 1.673,0.836 c -0.02,0.071 -0.044,0.141 -0.044,0.218 0,0.308 0.179,0.567 0.434,0.7 l 0.05,1.107 c -0.305,0.092 -0.532,0.365 -0.532,0.701 0,0.411 0.333,0.743 0.744,0.743 0.41,0 0.743,-0.332 0.743,-0.743 0,-0.335 -0.226,-0.607 -0.529,-0.7 L 0.068,1.58 C 0.474,1.544 0.796,1.212 0.796,0.796 0.796,0.357 0.439,0 0,0 M 2.936,3.142 2.693,4.011 2.4,4.03 2.352,4.04 2.117,4.06 1.727,4.088 -0.164,5.513 h -0.03 L -1.082,5.375 -2.339,5.747 -2.993,5.513 v 0.019 l 0.009,0.029 0.021,0.06 -0.03,-0.012 0.048,0.158 V 5.825 L -3.159,6.264 -3.46,6.215 -3.479,6.264 H -3.491 L -3.501,6.292 -3.548,6.4 -3.568,6.429 -5.041,6.848 -5.46,6.264 -5.529,6.321 h -0.009 l -0.049,0.049 0.156,0.654 v 0.01 L -5.742,7.131 -6.64,6.975 -6.738,6.215 -6.933,6.595 -7.235,6.449 v 0.029 l 0.019,0.088 -0.028,-0.01 0.136,0.575 0.517,0.528 0.214,0.175 V 7.863 L -6.328,8.34 -6.69,8.389 -6.698,8.429 -6.718,8.438 -6.982,9.57 -7.332,9.696 -7.342,9.677 -8.181,8.575 H -8.21 -8.259 L -8.756,8.418 h -0.03 l -0.224,0.146 -0.097,0.06 h -0.049 l -0.78,0.107 -0.137,-0.342 -0.283,0.049 h -0.03 l 0.03,-0.02 -0.37,-0.078 -1.102,-0.321 h -0.02 l -0.264,0.136 -0.37,0.703 v 0.029 l 0.136,0.916 -0.242,0.498 -0.362,0.137 v -0.03 l -0.057,-0.107 -0.099,-0.235 -1.366,-0.467 -1.072,0.155 0.362,-0.321 V 8.887 l 0.027,-0.029 0.448,-0.313 -1.412,-0.838 h -0.448 l -0.635,0.711 v 0.02 L -18.615,8.312 -18.713,7.94 V 7.921 l 0.469,-0.321 -0.547,-0.156 0.36,-1.074 -0.341,-1.696 -1.414,-0.527 -0.888,-1.648 0.42,-1.052 0.546,-0.284 0.156,-0.107 0.76,0.341 0.108,-0.916 v -0.03 h 0.498 l 0.867,-0.029 0.994,0.741 0.781,0.049 V 0.267 l 0.088,-0.108 0.156,-0.39 V -0.25 l 2.536,-0.977 h 0.029 l 0.312,-0.701 -0.049,-0.4 0.205,-0.547 1.083,-0.155 -0.06,-0.401 0.479,-0.73 -0.244,-1.278 0.107,-1.162 v -0.018 l 1.181,-0.235 0.107,-0.058 v -0.029 l 0.078,-0.05 0.184,-0.916 0.654,-0.077 -0.136,-1.073 0.42,-0.059 0.136,-0.937 -0.605,-0.369 -1.833,-1.962 0.604,0.079 0.516,-0.576 0.168,0.098 1.072,-0.78 0.419,-0.576 v -0.029 l -0.176,-0.711 0.615,0.887 h 0.009 l 0.02,0.039 0.428,0.331 0.43,0.342 0.039,0.028 0.702,1.444 0.147,0.147 0.099,0.108 0.076,0.077 0.332,0.341 0.078,1.863 0.029,0.029 1.103,1.072 0.029,0.03 1.384,0.566 v 0.01 l 0.021,0.02 -0.021,0.027 -0.058,0.108 h 0.01 v 0.05 l 1.521,0.077 0.098,0.01 v 0.254 l 0.029,0.01 v 0.018 l 0.555,0.235 0.021,0.029 0.106,0.702 0.507,0.606 0.205,0.253 0.05,0.058 v 0.048 l 0.076,0.977 0.021,0.019 v 0.01 l 0.057,0.078 0.099,0.126 0.029,0.029 0.097,1.717 0.039,1.033 0.537,0.596 1.56,1.765 0.36,0.917 0.138,0.36 v 0.059 z" />
      </g>
      <g
         transform="translate(430.5738,57.0813)"
         id="g1367">
        <path
           id="path1369"
           style="fill:#08532a;fill-opacity:1;fill-rule:nonzero;stroke:none"
           d="m 0,0 c -0.252,0 -0.42,0.198 -0.42,0.436 0,0.236 0.176,0.426 0.436,0.426 0.258,0 0.427,-0.19 0.427,-0.426 C 0.443,0.198 0.274,0 0.008,0 Z m -0.319,-0.679 h 0.671 v -3.696 h -0.671 z" />
      </g>
      <g
         transform="translate(432.0396,55.4016)"
         id="g1371">
        <path
           id="path1373"
           style="fill:#08532a;fill-opacity:1;fill-rule:nonzero;stroke:none"
           d="M 0,0 C 0,0.389 -0.007,0.693 -0.03,1 H 0.566 L 0.604,0.397 h 0.015 c 0.183,0.343 0.611,0.686 1.22,0.686 0.513,0 1.307,-0.305 1.307,-1.572 V -2.696 H 2.474 v 2.13 c 0,0.596 -0.221,1.1 -0.855,1.1 -0.435,0 -0.778,-0.313 -0.9,-0.687 C 0.688,-0.237 0.672,-0.359 0.672,-0.466 v -2.23 H 0 Z" />
      </g>
      <g
         transform="translate(436.1863,53.3855)"
         id="g1375">
        <path
           id="path1377"
           style="fill:#08532a;fill-opacity:1;fill-rule:nonzero;stroke:none"
           d="m 0,0 c 0.206,-0.123 0.557,-0.26 0.894,-0.26 0.48,0 0.71,0.237 0.71,0.55 0,0.321 -0.192,0.497 -0.68,0.679 -0.672,0.245 -0.986,0.604 -0.986,1.047 0,0.595 0.49,1.084 1.277,1.084 0.372,0 0.701,-0.1 0.9,-0.228 L 1.954,2.39 C 1.809,2.474 1.542,2.604 1.198,2.604 c -0.397,0 -0.609,-0.23 -0.609,-0.505 0,-0.313 0.212,-0.45 0.694,-0.633 0.633,-0.237 0.97,-0.558 0.97,-1.114 0,-0.658 -0.511,-1.115 -1.375,-1.115 -0.404,0 -0.778,0.106 -1.037,0.259 z" />
      </g>
      <g
         transform="translate(440.1119,57.2873)"
         id="g1379">
        <path
           id="path1381"
           style="fill:#08532a;fill-opacity:1;fill-rule:nonzero;stroke:none"
           d="M 0,0 V -0.885 H 0.961 V -1.397 H 0 V -3.39 c 0,-0.459 0.129,-0.718 0.504,-0.718 0.183,0 0.289,0.015 0.389,0.046 l 0.03,-0.512 C 0.793,-4.62 0.586,-4.665 0.326,-4.665 c -0.312,0 -0.563,0.106 -0.724,0.282 -0.183,0.206 -0.259,0.534 -0.259,0.969 v 2.017 h -0.574 v 0.512 h 0.574 v 0.679 z" />
      </g>
      <g
         transform="translate(442.1492,57.0813)"
         id="g1383">
        <path
           id="path1385"
           style="fill:#08532a;fill-opacity:1;fill-rule:nonzero;stroke:none"
           d="m 0,0 c -0.252,0 -0.419,0.198 -0.419,0.436 0,0.236 0.175,0.426 0.435,0.426 0.259,0 0.428,-0.19 0.428,-0.426 C 0.444,0.198 0.275,0 0.009,0 Z M -0.32,-0.679 H 0.352 V -4.375 H -0.32 Z" />
      </g>
      <g
         transform="translate(444.4249,57.2873)"
         id="g1387">
        <path
           id="path1389"
           style="fill:#08532a;fill-opacity:1;fill-rule:nonzero;stroke:none"
           d="M 0,0 V -0.885 H 0.963 V -1.397 H 0 V -3.39 c 0,-0.459 0.13,-0.718 0.504,-0.718 0.184,0 0.291,0.015 0.39,0.046 L 0.925,-4.574 C 0.795,-4.62 0.589,-4.665 0.329,-4.665 c -0.313,0 -0.565,0.106 -0.726,0.282 -0.183,0.206 -0.259,0.534 -0.259,0.969 v 2.017 h -0.573 v 0.512 h 0.573 v 0.679 z" />
      </g>
      <g
         transform="translate(449.2361,53.7136)"
         id="g1391">
        <path
           id="path1393"
           style="fill:#08532a;fill-opacity:1;fill-rule:nonzero;stroke:none"
           d="m 0,0 c 0,-0.382 0.009,-0.718 0.029,-1.008 h -0.594 l -0.039,0.604 h -0.014 c -0.169,-0.299 -0.565,-0.688 -1.223,-0.688 -0.579,0 -1.274,0.329 -1.274,1.619 v 2.161 h 0.672 V 0.649 c 0,-0.702 0.222,-1.184 0.824,-1.184 0.451,0 0.762,0.314 0.886,0.618 0.038,0.092 0.062,0.215 0.062,0.344 V 2.688 H 0 Z" />
      </g>
      <g
         transform="translate(451.1605,57.2873)"
         id="g1395">
        <path
           id="path1397"
           style="fill:#08532a;fill-opacity:1;fill-rule:nonzero;stroke:none"
           d="M 0,0 V -0.885 H 0.963 V -1.397 H 0 V -3.39 c 0,-0.459 0.129,-0.718 0.504,-0.718 0.182,0 0.289,0.015 0.389,0.046 l 0.03,-0.512 C 0.793,-4.62 0.588,-4.665 0.328,-4.665 c -0.314,0 -0.564,0.106 -0.726,0.282 -0.182,0.206 -0.259,0.534 -0.259,0.969 v 2.017 H -1.23 v 0.512 h 0.573 v 0.679 z" />
      </g>
      <g
         transform="translate(454.3367,52.6228)"
         id="g1399">
        <path
           id="path1401"
           style="fill:#08532a;fill-opacity:1;fill-rule:nonzero;stroke:none"
           d="m 0,0 c -0.993,0 -1.772,0.731 -1.772,1.901 0,1.235 0.818,1.962 1.834,1.962 1.06,0 1.778,-0.772 1.778,-1.895 C 1.84,0.595 0.885,0 0.008,0 Z m 0.022,0.503 c 0.642,0 1.124,0.603 1.124,1.443 0,0.626 -0.314,1.413 -1.109,1.413 -0.785,0 -1.129,-0.734 -1.129,-1.436 0,-0.81 0.458,-1.42 1.107,-1.42 z" />
      </g>
      <g
         transform="translate(456.9322,53.3855)"
         id="g1403">
        <path
           id="path1405"
           style="fill:#08532a;fill-opacity:1;fill-rule:nonzero;stroke:none"
           d="m 0,0 c 0.207,-0.123 0.559,-0.26 0.895,-0.26 0.48,0 0.71,0.237 0.71,0.55 0,0.321 -0.192,0.497 -0.681,0.679 -0.671,0.245 -0.985,0.604 -0.985,1.047 0,0.595 0.489,1.084 1.277,1.084 0.373,0 0.701,-0.1 0.9,-0.228 L 1.954,2.39 C 1.81,2.474 1.543,2.604 1.199,2.604 c -0.397,0 -0.611,-0.23 -0.611,-0.505 0,-0.313 0.214,-0.45 0.695,-0.633 0.634,-0.237 0.97,-0.558 0.97,-1.114 0,-0.658 -0.511,-1.115 -1.375,-1.115 -0.403,0 -0.777,0.106 -1.037,0.259 z" />
      </g>
      <g
         transform="translate(461.6668,55.4016)"
         id="g1407">
        <path
           id="path1409"
           style="fill:#08532a;fill-opacity:1;fill-rule:nonzero;stroke:none"
           d="M 0,0 C 0,0.389 -0.007,0.693 -0.03,1 H 0.566 L 0.605,0.397 h 0.014 c 0.182,0.343 0.611,0.686 1.222,0.686 0.511,0 1.306,-0.305 1.306,-1.572 V -2.696 H 2.474 v 2.13 c 0,0.596 -0.221,1.1 -0.856,1.1 -0.434,0 -0.777,-0.313 -0.9,-0.687 -0.03,-0.084 -0.046,-0.206 -0.046,-0.313 v -2.23 H 0 Z" />
      </g>
      <g
         transform="translate(468.5086,53.591)"
         id="g1411">
        <path
           id="path1413"
           style="fill:#08532a;fill-opacity:1;fill-rule:nonzero;stroke:none"
           d="m 0,0 c 0,-0.32 0.016,-0.634 0.053,-0.886 h -0.602 l -0.062,0.467 h -0.022 c -0.2,-0.29 -0.604,-0.55 -1.131,-0.55 -0.748,0 -1.13,0.527 -1.13,1.061 0,0.894 0.795,1.382 2.222,1.374 v 0.077 c 0,0.305 -0.084,0.863 -0.84,0.856 -0.352,0 -0.709,-0.1 -0.969,-0.276 l -0.153,0.451 c 0.305,0.19 0.755,0.321 1.222,0.321 C -0.274,2.895 0,2.123 0,1.382 Z M -0.656,1 C -1.39,1.016 -2.221,0.886 -2.221,0.168 c 0,-0.442 0.289,-0.641 0.625,-0.641 0.489,0 0.802,0.306 0.909,0.619 0.023,0.069 0.031,0.144 0.031,0.213 z" />
      </g>
      <g
         transform="translate(472.2195,52.8357)"
         id="g1415">
        <path
           id="path1417"
           style="fill:#08532a;fill-opacity:1;fill-rule:nonzero;stroke:none"
           d="m 0,0 c -0.176,-0.083 -0.565,-0.213 -1.062,-0.213 -1.114,0 -1.839,0.756 -1.839,1.893 0,1.137 0.778,1.969 1.985,1.969 0.397,0 0.749,-0.099 0.932,-0.198 L -0.137,2.94 c -0.162,0.084 -0.412,0.175 -0.779,0.175 -0.847,0 -1.306,-0.634 -1.306,-1.405 0,-0.856 0.551,-1.381 1.284,-1.381 0.381,0 0.633,0.091 0.824,0.175 z" />
      </g>
      <g
         transform="translate(473.3267,57.0813)"
         id="g1419">
        <path
           id="path1421"
           style="fill:#08532a;fill-opacity:1;fill-rule:nonzero;stroke:none"
           d="m 0,0 c -0.253,0 -0.419,0.198 -0.419,0.436 0,0.236 0.175,0.426 0.434,0.426 0.259,0 0.428,-0.19 0.428,-0.426 C 0.443,0.198 0.274,0 0.008,0 Z M -0.32,-0.679 H 0.352 V -4.375 H -0.32 Z" />
      </g>
      <g
         transform="translate(476.2974,52.6228)"
         id="g1423">
        <path
           id="path1425"
           style="fill:#08532a;fill-opacity:1;fill-rule:nonzero;stroke:none"
           d="m 0,0 c -0.993,0 -1.772,0.731 -1.772,1.901 0,1.235 0.818,1.962 1.834,1.962 1.061,0 1.777,-0.772 1.777,-1.895 C 1.839,0.595 0.885,0 0.008,0 Z m 0.022,0.503 c 0.642,0 1.123,0.603 1.123,1.443 0,0.626 -0.313,1.413 -1.108,1.413 -0.785,0 -1.13,-0.734 -1.13,-1.436 0,-0.81 0.459,-1.42 1.109,-1.42 z" />
      </g>
      <g
         transform="translate(478.9854,55.4016)"
         id="g1427">
        <path
           id="path1429"
           style="fill:#08532a;fill-opacity:1;fill-rule:nonzero;stroke:none"
           d="M 0,0 C 0,0.389 -0.008,0.693 -0.03,1 H 0.565 L 0.603,0.397 H 0.618 C 0.802,0.74 1.23,1.083 1.84,1.083 c 0.513,0 1.307,-0.305 1.307,-1.572 V -2.696 H 2.473 v 2.13 c 0,0.596 -0.221,1.1 -0.854,1.1 -0.435,0 -0.78,-0.313 -0.901,-0.687 C 0.687,-0.237 0.672,-0.359 0.672,-0.466 v -2.23 H 0 Z" />
      </g>
      <g
         transform="translate(485.8262,53.591)"
         id="g1431">
        <path
           id="path1433"
           style="fill:#08532a;fill-opacity:1;fill-rule:nonzero;stroke:none"
           d="m 0,0 c 0,-0.32 0.016,-0.634 0.054,-0.886 h -0.602 l -0.061,0.467 h -0.024 c -0.199,-0.29 -0.605,-0.55 -1.13,-0.55 -0.748,0 -1.13,0.527 -1.13,1.061 0,0.894 0.795,1.382 2.222,1.374 v 0.077 c 0,0.305 -0.084,0.863 -0.84,0.856 -0.352,0 -0.709,-0.1 -0.969,-0.276 l -0.153,0.451 c 0.306,0.19 0.755,0.321 1.222,0.321 C -0.273,2.895 0,2.123 0,1.382 Z M -0.655,1 C -1.389,1.016 -2.22,0.886 -2.22,0.168 c 0,-0.442 0.289,-0.641 0.626,-0.641 0.489,0 0.8,0.306 0.907,0.619 0.024,0.069 0.032,0.144 0.032,0.213 z" />
      </g>
      <g
         transform="translate(487.2242,57.0813)"
         id="g1435">
        <path
           id="path1437"
           style="fill:#08532a;fill-opacity:1;fill-rule:nonzero;stroke:none"
           d="m 0,0 c -0.251,0 -0.419,0.198 -0.419,0.436 0,0.236 0.176,0.426 0.435,0.426 0.258,0 0.426,-0.19 0.426,-0.426 C 0.442,0.198 0.274,0 0.008,0 Z m -0.32,-0.679 h 0.67 v -3.696 h -0.67 z" />
      </g>
      <g
         transform="translate(488.5992,53.3855)"
         id="g1439">
        <path
           id="path1441"
           style="fill:#08532a;fill-opacity:1;fill-rule:nonzero;stroke:none"
           d="m 0,0 c 0.207,-0.123 0.557,-0.26 0.893,-0.26 0.481,0 0.711,0.237 0.711,0.55 0,0.321 -0.192,0.497 -0.68,0.679 C 0.251,1.214 -0.062,1.573 -0.062,2.016 -0.062,2.611 0.427,3.1 1.214,3.1 1.588,3.1 1.916,3 2.115,2.872 L 1.954,2.39 C 1.809,2.474 1.542,2.604 1.198,2.604 0.801,2.604 0.588,2.374 0.588,2.099 0.588,1.786 0.801,1.649 1.281,1.466 1.916,1.229 2.25,0.908 2.25,0.352 c 0,-0.658 -0.508,-1.115 -1.373,-1.115 -0.403,0 -0.777,0.106 -1.037,0.259 z" />
      </g>
      <g
         transform="translate(433.4451,50.7453)"
         id="g1443">
        <path
           id="path1445"
           style="fill:#08532a;fill-opacity:1;fill-rule:nonzero;stroke:none"
           d="m 0,0 v -4.467 c 0,-0.328 0.008,-0.702 0.03,-0.954 h -0.603 l -0.031,0.642 h -0.015 c -0.205,-0.414 -0.648,-0.726 -1.251,-0.726 -0.895,0 -1.589,0.756 -1.589,1.878 -0.007,1.237 0.763,1.986 1.657,1.986 0.572,0 0.954,-0.268 1.115,-0.558 h 0.015 V 0 Z m -0.672,-3.229 c 0,0.091 -0.008,0.198 -0.03,0.29 -0.1,0.419 -0.466,0.771 -0.97,0.771 -0.696,0 -1.108,-0.611 -1.108,-1.421 0,-0.756 0.375,-1.375 1.092,-1.375 0.45,0 0.864,0.307 0.986,0.802 0.022,0.092 0.03,0.184 0.03,0.291 z" />
      </g>
      <g
         transform="translate(434.9412,47.0578)"
         id="g1447">
        <path
           id="path1449"
           style="fill:#08532a;fill-opacity:1;fill-rule:nonzero;stroke:none"
           d="m 0,0 c 0.016,-0.908 0.589,-1.283 1.26,-1.283 0.483,0 0.778,0.085 1.023,0.183 L 2.406,-1.573 C 2.169,-1.68 1.757,-1.809 1.168,-1.809 c -1.13,0 -1.817,0.756 -1.817,1.861 0,1.124 0.665,2.002 1.742,2.002 1.206,0 1.52,-1.062 1.52,-1.742 0,-0.137 -0.009,-0.244 -0.025,-0.32 z M 1.962,0.481 C 1.97,0.901 1.787,1.573 1.039,1.573 0.352,1.573 0.062,0.947 0.008,0.481 Z" />
      </g>
      <g
         transform="translate(442.6385,45.4538)"
         id="g1451">
        <path
           id="path1453"
           style="fill:#08532a;fill-opacity:1;fill-rule:nonzero;stroke:none"
           d="m 0,0 c -0.176,-0.083 -0.565,-0.213 -1.062,-0.213 -1.114,0 -1.84,0.755 -1.84,1.893 0,1.138 0.779,1.971 1.986,1.971 0.397,0 0.748,-0.099 0.932,-0.199 L -0.137,2.94 c -0.16,0.084 -0.412,0.176 -0.779,0.176 -0.848,0 -1.305,-0.635 -1.305,-1.406 0,-0.854 0.549,-1.382 1.282,-1.382 0.38,0 0.634,0.091 0.825,0.176 z" />
      </g>
      <g
         transform="translate(443.7457,49.6994)"
         id="g1455">
        <path
           id="path1457"
           style="fill:#08532a;fill-opacity:1;fill-rule:nonzero;stroke:none"
           d="m 0,0 c -0.252,0 -0.419,0.199 -0.419,0.435 0,0.237 0.174,0.428 0.435,0.428 0.258,0 0.427,-0.191 0.427,-0.428 C 0.443,0.199 0.274,0 0.008,0 Z M -0.321,-0.679 H 0.35 v -3.696 h -0.671 z" />
      </g>
      <g
         transform="translate(445.5933,47.0578)"
         id="g1459">
        <path
           id="path1461"
           style="fill:#08532a;fill-opacity:1;fill-rule:nonzero;stroke:none"
           d="m 0,0 c 0.016,-0.908 0.589,-1.283 1.26,-1.283 0.482,0 0.778,0.085 1.024,0.183 L 2.405,-1.573 C 2.168,-1.68 1.756,-1.809 1.168,-1.809 c -1.13,0 -1.817,0.756 -1.817,1.861 0,1.124 0.665,2.002 1.741,2.002 1.207,0 1.52,-1.062 1.52,-1.742 0,-0.137 -0.008,-0.244 -0.024,-0.32 z M 1.961,0.481 C 1.971,0.901 1.786,1.573 1.038,1.573 0.352,1.573 0.061,0.947 0.008,0.481 Z M 1.29,3.505 2.024,2.413 H 1.521 L 1.077,3.13 H 1.062 L 0.618,2.413 H 0.13 l 0.718,1.092 z" />
      </g>
      <g
         transform="translate(449.0372,48.0198)"
         id="g1463">
        <path
           id="path1465"
           style="fill:#08532a;fill-opacity:1;fill-rule:nonzero;stroke:none"
           d="M 0,0 C 0,0.389 -0.008,0.695 -0.029,1 H 0.565 L 0.603,0.397 h 0.016 c 0.184,0.343 0.611,0.688 1.222,0.688 0.512,0 1.306,-0.306 1.306,-1.573 V -2.696 H 2.475 v 2.131 C 2.475,0.03 2.252,0.534 1.619,0.534 1.183,0.534 0.84,0.222 0.718,-0.153 0.687,-0.237 0.672,-0.358 0.672,-0.466 v -2.23 H 0 Z" />
      </g>
      <g
         transform="translate(455.9097,45.4538)"
         id="g1467">
        <path
           id="path1469"
           style="fill:#08532a;fill-opacity:1;fill-rule:nonzero;stroke:none"
           d="m 0,0 c -0.177,-0.083 -0.566,-0.213 -1.061,-0.213 -1.115,0 -1.841,0.755 -1.841,1.893 0,1.138 0.78,1.971 1.986,1.971 0.397,0 0.748,-0.099 0.931,-0.199 L -0.137,2.94 c -0.161,0.084 -0.412,0.176 -0.779,0.176 -0.848,0 -1.305,-0.635 -1.305,-1.406 0,-0.854 0.549,-1.382 1.282,-1.382 0.381,0 0.634,0.091 0.824,0.176 z" />
      </g>
      <g
         transform="translate(457.0162,49.6994)"
         id="g1471">
        <path
           id="path1473"
           style="fill:#08532a;fill-opacity:1;fill-rule:nonzero;stroke:none"
           d="m 0,0 c -0.251,0 -0.419,0.199 -0.419,0.435 0,0.237 0.176,0.428 0.436,0.428 0.258,0 0.426,-0.191 0.426,-0.428 C 0.443,0.199 0.275,0 0.009,0 Z M -0.32,-0.679 H 0.352 V -4.375 H -0.32 Z" />
      </g>
      <g
         transform="translate(461.086,46.2107)"
         id="g1475">
        <path
           id="path1477"
           style="fill:#08532a;fill-opacity:1;fill-rule:nonzero;stroke:none"
           d="m 0,0 c 0,-0.321 0.015,-0.635 0.054,-0.887 h -0.602 l -0.063,0.467 h -0.022 c -0.199,-0.291 -0.604,-0.551 -1.131,-0.551 -0.747,0 -1.129,0.528 -1.129,1.062 0,0.894 0.795,1.383 2.223,1.375 v 0.075 c 0,0.307 -0.086,0.863 -0.842,0.856 -0.351,0 -0.708,-0.099 -0.968,-0.274 l -0.154,0.448 c 0.305,0.194 0.757,0.323 1.223,0.323 C -0.274,2.894 0,2.123 0,1.382 Z M -0.655,1.001 C -1.389,1.014 -2.22,0.885 -2.22,0.167 c 0,-0.442 0.289,-0.642 0.626,-0.642 0.487,0 0.801,0.307 0.908,0.619 0.023,0.069 0.031,0.146 0.031,0.214 z" />
      </g>
      <g
         transform="translate(464.1641,47.0578)"
         id="g1479">
        <path
           id="path1481"
           style="fill:#08532a;fill-opacity:1;fill-rule:nonzero;stroke:none"
           d="m 0,0 c 0.015,-0.908 0.587,-1.283 1.26,-1.283 0.482,0 0.779,0.085 1.024,0.183 L 2.406,-1.573 C 2.168,-1.68 1.757,-1.809 1.168,-1.809 c -1.13,0 -1.818,0.756 -1.818,1.861 0,1.124 0.665,2.002 1.741,2.002 1.208,0 1.52,-1.062 1.52,-1.742 0,-0.137 -0.007,-0.244 -0.023,-0.32 z M 1.962,0.481 C 1.97,0.901 1.787,1.573 1.038,1.573 0.351,1.573 0.061,0.947 0.008,0.481 Z" />
      </g>
      <g
         transform="translate(470.0362,49.9055)"
         id="g1483">
        <path
           id="path1485"
           style="fill:#08532a;fill-opacity:1;fill-rule:nonzero;stroke:none"
           d="M 0,0 V -0.885 H 0.963 V -1.397 H 0 v -1.994 c 0,-0.457 0.129,-0.716 0.503,-0.716 0.184,0 0.29,0.015 0.39,0.045 l 0.03,-0.511 C 0.793,-4.62 0.588,-4.665 0.328,-4.665 c -0.314,0 -0.565,0.106 -0.727,0.283 -0.183,0.205 -0.257,0.534 -0.257,0.969 v 2.016 h -0.575 v 0.512 h 0.575 v 0.679 z" />
      </g>
      <g
         transform="translate(472.0894,47.0578)"
         id="g1487">
        <path
           id="path1489"
           style="fill:#08532a;fill-opacity:1;fill-rule:nonzero;stroke:none"
           d="m 0,0 c 0.015,-0.908 0.589,-1.283 1.26,-1.283 0.482,0 0.778,0.085 1.024,0.183 L 2.407,-1.573 C 2.169,-1.68 1.757,-1.809 1.169,-1.809 c -1.131,0 -1.817,0.756 -1.817,1.861 0,1.124 0.663,2.002 1.741,2.002 1.205,0 1.52,-1.062 1.52,-1.742 0,-0.137 -0.009,-0.244 -0.024,-0.32 z M 1.962,0.481 C 1.97,0.901 1.787,1.573 1.039,1.573 0.352,1.573 0.062,0.947 0.008,0.481 Z" />
      </g>
      <g
         transform="translate(478.1685,45.4538)"
         id="g1491">
        <path
           id="path1493"
           style="fill:#08532a;fill-opacity:1;fill-rule:nonzero;stroke:none"
           d="m 0,0 c -0.176,-0.083 -0.565,-0.213 -1.061,-0.213 -1.115,0 -1.841,0.755 -1.841,1.893 0,1.138 0.778,1.971 1.986,1.971 0.396,0 0.747,-0.099 0.93,-0.199 L -0.138,2.94 c -0.16,0.084 -0.412,0.176 -0.778,0.176 -0.847,0 -1.306,-0.635 -1.306,-1.406 0,-0.854 0.55,-1.382 1.283,-1.382 0.382,0 0.633,0.091 0.825,0.176 z" />
      </g>
      <g
         transform="translate(478.9551,48.0198)"
         id="g1495">
        <path
           id="path1497"
           style="fill:#08532a;fill-opacity:1;fill-rule:nonzero;stroke:none"
           d="M 0,0 C 0,0.389 -0.008,0.695 -0.03,1 H 0.565 L 0.603,0.397 h 0.016 c 0.183,0.343 0.61,0.688 1.22,0.688 0.513,0 1.307,-0.306 1.307,-1.573 V -2.696 H 2.473 v 2.131 C 2.473,0.03 2.251,0.534 1.619,0.534 1.184,0.534 0.839,0.222 0.718,-0.153 0.687,-0.237 0.672,-0.358 0.672,-0.466 v -2.23 H 0 Z" />
      </g>
      <g
         transform="translate(484.6964,45.2405)"
         id="g1499">
        <path
           id="path1501"
           style="fill:#08532a;fill-opacity:1;fill-rule:nonzero;stroke:none"
           d="m 0,0 c -0.991,0 -1.771,0.732 -1.771,1.901 0,1.238 0.817,1.962 1.833,1.962 1.061,0 1.777,-0.77 1.777,-1.892 C 1.839,0.595 0.886,0 0.008,0 Z m 0.024,0.504 c 0.64,0 1.122,0.603 1.122,1.443 0,0.626 -0.314,1.412 -1.107,1.412 -0.787,0 -1.13,-0.733 -1.13,-1.435 0,-0.809 0.458,-1.42 1.106,-1.42 z" />
      </g>
      <path
         id="path1503"
         style="fill:#08532a;fill-opacity:1;fill-rule:nonzero;stroke:none"
         d="m 487.385,50.745 h 0.671 v -5.422 h -0.671 z" />
      <g
         transform="translate(490.6751,45.2405)"
         id="g1505">
        <path
           id="path1507"
           style="fill:#08532a;fill-opacity:1;fill-rule:nonzero;stroke:none"
           d="m 0,0 c -0.991,0 -1.771,0.732 -1.771,1.901 0,1.238 0.817,1.962 1.833,1.962 1.062,0 1.778,-0.77 1.778,-1.892 C 1.84,0.595 0.886,0 0.009,0 Z m 0.023,0.504 c 0.642,0 1.123,0.603 1.123,1.443 0,0.626 -0.313,1.412 -1.107,1.412 -0.787,0 -1.131,-0.733 -1.131,-1.435 0,-0.809 0.459,-1.42 1.109,-1.42 z" />
      </g>
      <g
         transform="translate(496.5325,45.8664)"
         id="g1509">
        <path
           id="path1511"
           style="fill:#08532a;fill-opacity:1;fill-rule:nonzero;stroke:none"
           d="m 0,0 c 0,-0.856 -0.176,-1.367 -0.526,-1.695 -0.367,-0.329 -0.886,-0.444 -1.353,-0.444 -0.443,0 -0.931,0.108 -1.228,0.306 l 0.167,0.52 c 0.244,-0.161 0.627,-0.299 1.084,-0.299 0.688,0 1.192,0.36 1.192,1.299 V 0.091 H -0.68 c -0.199,-0.343 -0.602,-0.617 -1.176,-0.617 -0.917,0 -1.572,0.778 -1.572,1.809 0,1.253 0.815,1.954 1.672,1.954 0.641,0 0.984,-0.327 1.152,-0.634 h 0.015 l 0.023,0.551 H 0.03 C 0.008,2.894 0,2.596 0,2.146 Z m -0.672,1.702 c 0,0.108 -0.008,0.207 -0.037,0.298 -0.124,0.397 -0.444,0.718 -0.941,0.718 -0.641,0 -1.1,-0.542 -1.1,-1.405 0,-0.718 0.375,-1.328 1.092,-1.328 0.419,0 0.795,0.259 0.932,0.695 0.039,0.107 0.054,0.236 0.054,0.358 z" />
      </g>
      <g
         transform="translate(497.9598,49.6994)"
         id="g1513">
        <path
           id="path1515"
           style="fill:#08532a;fill-opacity:1;fill-rule:nonzero;stroke:none"
           d="m 0,0 c -0.251,0 -0.419,0.199 -0.419,0.435 0,0.237 0.176,0.428 0.436,0.428 0.257,0 0.426,-0.191 0.426,-0.428 C 0.443,0.199 0.274,0 0.008,0 Z M -0.32,-0.679 H 0.352 V -4.375 H -0.32 Z" />
      </g>
      <g
         transform="translate(502.0298,46.2107)"
         id="g1517">
        <path
           id="path1519"
           style="fill:#08532a;fill-opacity:1;fill-rule:nonzero;stroke:none"
           d="M 0,0 C 0,-0.321 0.016,-0.635 0.054,-0.887 H -0.549 L -0.61,-0.42 h -0.024 c -0.197,-0.291 -0.603,-0.551 -1.13,-0.551 -0.747,0 -1.13,0.528 -1.13,1.062 0,0.894 0.795,1.383 2.222,1.375 v 0.075 c 0,0.307 -0.084,0.863 -0.84,0.856 -0.353,0 -0.709,-0.099 -0.968,-0.274 l -0.154,0.448 c 0.305,0.194 0.756,0.323 1.222,0.323 C -0.274,2.894 0,2.123 0,1.382 Z M -0.655,1.001 C -1.39,1.014 -2.221,0.885 -2.221,0.167 c 0,-0.442 0.29,-0.642 0.626,-0.642 0.488,0 0.801,0.307 0.908,0.619 0.024,0.069 0.032,0.146 0.032,0.214 z" />
      </g>
      <g
         transform="translate(433.4009,71.5661)"
         id="g1521">
        <path
           id="path1523"
           style="fill:#08532a;fill-opacity:1;fill-rule:nonzero;stroke:none"
           d="m 0,0 c 0,-0.693 -0.528,-1.255 -1.354,-1.255 -0.792,0 -1.32,0.562 -1.303,1.255 -0.017,0.726 0.511,1.271 1.32,1.271 C -0.528,1.271 -0.017,0.726 0,0 m -2.592,-2.246 h 2.509 v -8.07 h -2.509 z" />
      </g>
      <g
         transform="translate(435.3309,66.7473)"
         id="g1525">
        <path
           id="path1527"
           style="fill:#08532a;fill-opacity:1;fill-rule:nonzero;stroke:none"
           d="M 0,0 C 0,1.006 -0.032,1.864 -0.065,2.574 H 2.114 L 2.229,1.468 h 0.05 c 0.33,0.511 1.154,1.287 2.491,1.287 1.652,0 2.889,-1.088 2.889,-3.465 V -5.497 H 5.15 v 4.473 C 5.15,0.016 4.787,0.727 3.88,0.727 3.186,0.727 2.774,0.248 2.609,-0.215 2.541,-0.38 2.51,-0.611 2.51,-0.843 V -5.497 H 0 Z" />
      </g>
      <g
         transform="translate(451.0601,61.449)"
         id="g1529">
        <path
           id="path1531"
           style="fill:#08532a;fill-opacity:1;fill-rule:nonzero;stroke:none"
           d="m 0,0 c -0.445,-0.198 -1.286,-0.38 -2.246,-0.38 -2.605,0 -4.273,1.602 -4.273,4.143 0,2.361 1.618,4.292 4.621,4.292 0.66,0 1.388,-0.117 1.915,-0.314 L -0.379,5.876 c -0.296,0.131 -0.743,0.248 -1.404,0.248 -1.319,0 -2.178,-0.941 -2.161,-2.263 0,-1.484 0.989,-2.26 2.211,-2.26 0.594,0 1.058,0.1 1.436,0.264 z" />
      </g>
      <g
         transform="translate(455.5179,71.5168)"
         id="g1533">
        <path
           id="path1535"
           style="fill:#08532a;fill-opacity:1;fill-rule:nonzero;stroke:none"
           d="M 0,0 V -2.195 H 1.797 V -4.043 H 0 v -2.923 c 0,-0.972 0.231,-1.418 0.989,-1.418 0.346,0 0.496,0.016 0.743,0.067 l 0.016,-1.899 c -0.33,-0.133 -0.925,-0.231 -1.634,-0.231 -0.809,0 -1.485,0.297 -1.882,0.709 -0.461,0.479 -0.691,1.254 -0.691,2.393 v 3.302 h -1.075 v 1.848 h 1.075 v 1.518 z" />
      </g>
    </g>
  </g>
</svg>
