<?xml version="1.0" encoding="UTF-8" standalone="no"?>
<svg
   xmlns:dc="http://purl.org/dc/elements/1.1/"
   xmlns:cc="http://creativecommons.org/ns#"
   xmlns:rdf="http://www.w3.org/1999/02/22-rdf-syntax-ns#"
   xmlns:svg="http://www.w3.org/2000/svg"
   xmlns="http://www.w3.org/2000/svg"
   xmlns:sodipodi="http://sodipodi.sourceforge.net/DTD/sodipodi-0.dtd"
   xmlns:inkscape="http://www.inkscape.org/namespaces/inkscape"
   sodipodi:docname="inteqs.svg"
   inkscape:version="1.0 (1.0+r73+1)"
   width="200px"
   height="32px"
   viewBox="0 0 200 32"
   version="1.1"
   id="SVGRoot">
  <defs
     id="defs9371" />
  <sodipodi:namedview
     inkscape:window-maximized="0"
     inkscape:window-y="27"
     inkscape:window-x="67"
     inkscape:window-height="1023"
     inkscape:window-width="1795"
     showgrid="false"
     inkscape:document-rotation="0"
     inkscape:current-layer="layer1"
     inkscape:document-units="px"
     inkscape:cy="43.239196"
     inkscape:cx="78.634504"
     inkscape:zoom="3.959798"
     inkscape:pageshadow="2"
     inkscape:pageopacity="0.0"
     borderopacity="1.0"
     bordercolor="#666666"
     pagecolor="#ffffff"
     id="base" />
  <metadata
     id="metadata9374">
    <rdf:RDF>
      <cc:Work
         rdf:about="">
        <dc:format>image/svg+xml</dc:format>
        <dc:type
           rdf:resource="http://purl.org/dc/dcmitype/StillImage" />
        <dc:title></dc:title>
      </cc:Work>
    </rdf:RDF>
  </metadata>
  <g
     id="layer1"
     inkscape:groupmode="layer"
     inkscape:label="Layer 1">
    <g
       id="g7341"
       transform="matrix(0.43598676,0,0,-0.43598676,-440.27966,378.08801)"
       style="fill:#ffffff">
      <path
         id="path919"
         style="fill:#ffffff;fill-opacity:1;fill-rule:nonzero;stroke:none"
         d="m 1193.55,823.938 h -8.278 v 26.312 h 8.278 z" />
      <g
         transform="translate(1204.5497,850.25)"
         id="g921"
         style="fill:#ffffff">
        <path
           id="path923"
           style="fill:#ffffff;fill-opacity:1;fill-rule:nonzero;stroke:none"
           d="m 0,0 v -3.735 c 2.434,2.861 5.286,4.292 8.557,4.292 2.731,0 5.012,-0.874 6.842,-2.622 1.83,-1.748 2.746,-4.251 2.746,-7.506 V -26.312 H 9.867 v 16.048 c 0,3.516 -1.366,5.275 -4.098,5.275 C 3.818,-4.989 1.896,-6.438 0,-9.337 V -26.312 H -8.278 V 0 Z" />
      </g>
      <g
         transform="translate(1245.7784,850.25)"
         id="g925"
         style="fill:#ffffff">
        <path
           id="path927"
           style="fill:#ffffff;fill-opacity:1;fill-rule:nonzero;stroke:none"
           d="M 0,0 V -5.658 H -9.588 V -16.5 c 0,-1.301 0.357,-2.328 1.073,-3.081 0.715,-0.752 1.704,-1.128 2.968,-1.128 1.71,0 3.558,0.511 5.547,1.533 v -5.993 c -2.639,-1.097 -5.194,-1.644 -7.665,-1.644 -3.233,0 -5.742,0.836 -7.526,2.508 -1.784,1.672 -2.676,4.125 -2.676,7.359 v 11.288 h -3.762 v 1.616 l 11.01,12.32 h 1.031 V 0 Z" />
      </g>
      <g
         transform="translate(1255.9227,840.1323)"
         id="g929"
         style="fill:#ffffff">
        <path
           id="path931"
           style="fill:#ffffff;fill-opacity:1;fill-rule:nonzero;stroke:none"
           d="M 0,0 H 11.428 C 10.982,3.828 9.077,5.742 5.714,5.742 2.313,5.742 0.408,3.828 0,0 m 18.256,-8.027 v -5.213 c -3.159,-2.304 -7.07,-3.456 -11.734,-3.456 -4.627,0 -8.325,1.241 -11.093,3.725 -2.769,2.483 -4.153,5.771 -4.153,9.863 0,4.018 1.3,7.319 3.902,9.905 2.601,2.585 5.918,3.878 9.95,3.878 4.051,0 7.372,-1.361 9.965,-4.083 2.592,-2.722 3.805,-6.369 3.637,-10.94 H -0.167 C 0,-6.736 0.845,-8.573 2.369,-9.86 c 1.523,-1.287 3.568,-1.93 6.132,-1.93 3.103,0 6.355,1.254 9.755,3.763" />
      </g>
      <g
         transform="translate(1297.2733,830.7114)"
         id="g933"
         style="fill:#ffffff">
        <path
           id="path935"
           style="fill:#ffffff;fill-opacity:1;fill-rule:nonzero;stroke:none"
           d="m 0,0 v 12.097 c -1.709,1.412 -3.419,2.118 -5.128,2.118 -1.951,0 -3.466,-0.693 -4.543,-2.077 -1.079,-1.384 -1.617,-3.34 -1.617,-5.867 0,-2.471 0.58,-4.422 1.742,-5.853 1.161,-1.431 2.746,-2.146 4.752,-2.146 1.654,0 3.252,0.576 4.794,1.728 m 0,19.539 h 8.278 v -39.44 H 0 v 14.438 c -2.044,-1.208 -4.302,-1.812 -6.773,-1.812 -3.865,0 -6.982,1.284 -9.351,3.851 -2.369,2.566 -3.554,5.943 -3.554,10.128 0,3.813 1.166,6.998 3.498,9.556 2.332,2.557 5.235,3.836 8.711,3.836 2.805,0 5.295,-0.948 7.469,-2.843 z" />
      </g>
      <g
         transform="translate(1327.8641,848.8564)"
         id="g937"
         style="fill:#ffffff">
        <path
           id="path939"
           style="fill:#ffffff;fill-opacity:1;fill-rule:nonzero;stroke:none"
           d="m 0,0 v -5.881 c -3.16,1.932 -6.086,2.899 -8.78,2.899 -1.989,0 -2.983,-0.678 -2.983,-2.035 0,-0.353 0.21,-0.701 0.629,-1.045 0.419,-0.344 2.022,-1.071 4.808,-2.18 2.786,-1.11 4.755,-2.39 5.908,-3.841 1.151,-1.451 1.728,-3.041 1.728,-4.771 0,-2.735 -0.929,-4.846 -2.788,-6.334 -1.857,-1.488 -4.506,-2.232 -7.943,-2.232 -3.531,0 -6.672,0.641 -9.421,1.923 v 5.826 c 3.382,-1.487 6.216,-2.23 8.501,-2.23 2.676,0 4.014,0.649 4.014,1.946 0,0.5 -0.248,0.973 -0.743,1.418 -0.495,0.444 -2.153,1.219 -4.975,2.323 -2.822,1.104 -4.753,2.317 -5.793,3.637 -1.041,1.321 -1.562,2.791 -1.562,4.409 0,2.399 0.999,4.352 2.997,5.859 1.997,1.507 4.631,2.26 7.902,2.26 C -5.362,1.951 -2.527,1.301 0,0" />
      </g>
      <g
         transform="translate(1184.8258,857.3352)"
         id="g941"
         style="fill:#ffffff">
        <path
           id="path943"
           style="fill:#ffffff;fill-opacity:1;fill-rule:nonzero;stroke:none"
           d="M 0,0 C 0,1.263 0.446,2.341 1.338,3.233 2.23,4.125 3.298,4.571 4.544,4.571 5.807,4.571 6.885,4.125 7.777,3.233 8.669,2.341 9.115,1.263 9.115,0 9.115,-1.245 8.669,-2.318 7.777,-3.219 6.885,-4.121 5.807,-4.571 4.544,-4.571 3.298,-4.571 2.23,-4.121 1.338,-3.219 0.446,-2.318 0,-1.245 0,0" />
      </g>
      <g
         transform="translate(1168.6483,839.9827)"
         id="g945"
         style="fill:#ffffff">
        <path
           id="path947"
           style="fill:#ffffff;fill-opacity:1;fill-rule:nonzero;stroke:none"
           d="m 0,0 c 0,-4.718 -3.825,-8.543 -8.543,-8.543 -4.718,0 -8.543,3.825 -8.543,8.543 0,4.718 3.825,8.543 8.543,8.543 C -3.825,8.543 0,4.718 0,0" />
      </g>
      <g
         transform="translate(1180.712,829.6206)"
         id="g949"
         style="fill:#ffffff">
        <path
           id="path951"
           style="fill:#ffffff;fill-opacity:1;fill-rule:nonzero;stroke:none"
           d="m 0,0 c 0,-1.873 -1.518,-3.39 -3.39,-3.39 -1.873,0 -3.391,1.517 -3.391,3.39 0,1.872 1.518,3.39 3.391,3.39 C -1.518,3.39 0,1.872 0,0" />
      </g>
      <g
         transform="translate(1171.6119,829.6206)"
         id="g953"
         style="fill:#ffffff">
        <path
           id="path955"
           style="fill:#ffffff;fill-opacity:1;fill-rule:nonzero;stroke:none"
           d="m 0,0 c 0,3.153 2.556,5.709 5.71,5.709 1.836,0 3.466,-0.87 4.51,-2.217 0.973,2.082 1.52,4.404 1.52,6.854 0,8.956 -7.26,16.216 -16.216,16.216 -5.637,0 -10.601,-2.878 -13.506,-7.243 2.047,1.737 4.694,2.79 7.589,2.79 6.488,0 11.747,-5.259 11.747,-11.747 0,-6.487 -5.259,-11.747 -11.747,-11.747 -2.919,0 -5.584,1.072 -7.638,2.834 2.898,-4.407 7.885,-7.319 13.555,-7.319 2.359,0 4.598,0.508 6.621,1.414 C 0.839,-3.409 0,-1.804 0,0" />
      </g>
      <path
         id="path957"
         style="fill:#ffffff;fill-opacity:1;fill-rule:nonzero;stroke:none"
         d="m 1154.443,819.143 h 1.268 v -7.142 h -1.268 z" />
      <g
         transform="translate(1160.4838,812.0007)"
         id="g959"
         style="fill:#ffffff">
        <path
           id="path961"
           style="fill:#ffffff;fill-opacity:1;fill-rule:nonzero;stroke:none"
           d="M 0,0 V 3.018 C 0,3.462 -0.086,3.788 -0.256,3.992 -0.427,4.198 -0.705,4.3 -1.092,4.3 -1.271,4.3 -1.462,4.249 -1.665,4.148 -1.868,4.048 -2.026,3.923 -2.14,3.773 V 0 h -1.219 v 5.221 h 0.878 l 0.224,-0.488 c 0.331,0.391 0.82,0.586 1.467,0.586 0.621,0 1.111,-0.186 1.47,-0.559 C 1.039,4.388 1.219,3.869 1.219,3.202 V 0 Z" />
      </g>
      <g
         transform="translate(1162.6971,812.3374)"
         id="g963"
         style="fill:#ffffff">
        <path
           id="path965"
           style="fill:#ffffff;fill-opacity:1;fill-rule:nonzero;stroke:none"
           d="M 0,0 0.434,0.97 C 0.798,0.681 1.209,0.536 1.667,0.536 c 0.475,0 0.712,0.169 0.712,0.507 0,0.198 -0.071,0.361 -0.214,0.488 C 2.021,1.657 1.743,1.806 1.331,1.979 0.431,2.352 -0.02,2.876 -0.02,3.549 -0.02,4 0.153,4.352 0.497,4.604 0.842,4.856 1.282,4.982 1.818,4.982 2.361,4.982 2.871,4.86 3.349,4.616 L 2.998,3.671 C 2.731,3.898 2.361,4.011 1.886,4.011 1.461,4.011 1.248,3.843 1.248,3.504 1.248,3.371 1.318,3.251 1.457,3.144 1.597,3.037 1.896,2.893 2.355,2.713 2.813,2.532 3.143,2.313 3.344,2.057 3.545,1.8 3.646,1.49 3.646,1.126 3.646,0.642 3.467,0.261 3.108,-0.018 2.749,-0.296 2.26,-0.434 1.643,-0.434 1.295,-0.434 1.016,-0.406 0.807,-0.349 0.597,-0.292 0.328,-0.176 0,0" />
      </g>
      <g
         transform="translate(1167.5035,816.2419)"
         id="g967"
         style="fill:#ffffff">
        <path
           id="path969"
           style="fill:#ffffff;fill-opacity:1;fill-rule:nonzero;stroke:none"
           d="M 0,0 H -0.604 V 0.98 H 0 V 2.042 L 1.219,2.491 V 0.98 H 2.652 V 0 H 1.219 v -2.287 c 0,-0.373 0.058,-0.638 0.175,-0.792 0.117,-0.154 0.322,-0.231 0.615,-0.231 0.292,0 0.565,0.08 0.818,0.239 V -4.192 C 2.545,-4.291 2.142,-4.339 1.618,-4.339 1.099,-4.339 0.699,-4.192 0.419,-3.897 0.14,-3.604 0,-3.185 0,-2.642 Z" />
      </g>
      <g
         transform="translate(1172.2321,819.2446)"
         id="g971"
         style="fill:#ffffff">
        <path
           id="path973"
           style="fill:#ffffff;fill-opacity:1;fill-rule:nonzero;stroke:none"
           d="m 0,0 c 0.195,0 0.362,-0.069 0.5,-0.207 0.138,-0.138 0.207,-0.305 0.207,-0.5 0,-0.195 -0.069,-0.361 -0.207,-0.5 C 0.362,-1.344 0.195,-1.413 0,-1.413 c -0.195,0 -0.362,0.069 -0.5,0.206 -0.138,0.139 -0.207,0.305 -0.207,0.5 0,0.195 0.069,0.362 0.207,0.5 C -0.362,-0.069 -0.195,0 0,0 m -0.629,-7.244 v 4.222 h -0.668 v 0.999 h 1.902 v -5.221 z" />
      </g>
      <g
         transform="translate(1174.4408,816.2419)"
         id="g975"
         style="fill:#ffffff">
        <path
           id="path977"
           style="fill:#ffffff;fill-opacity:1;fill-rule:nonzero;stroke:none"
           d="M 0,0 H -0.604 V 0.98 H 0 V 2.042 L 1.219,2.491 V 0.98 H 2.652 V 0 H 1.219 v -2.287 c 0,-0.373 0.058,-0.638 0.175,-0.792 0.117,-0.154 0.322,-0.231 0.615,-0.231 0.292,0 0.565,0.08 0.818,0.239 V -4.192 C 2.544,-4.291 2.142,-4.339 1.618,-4.339 c -0.52,0 -0.919,0.147 -1.199,0.442 C 0.139,-3.604 0,-3.185 0,-2.642 Z" />
      </g>
      <g
         transform="translate(1181.5775,811.9958)"
         id="g979"
         style="fill:#ffffff">
        <path
           id="path981"
           style="fill:#ffffff;fill-opacity:1;fill-rule:nonzero;stroke:none"
           d="M 0,0 V 0.439 C -0.172,0.292 -0.41,0.167 -0.712,0.063 c -0.302,-0.103 -0.58,-0.156 -0.833,-0.156 -1.213,0 -1.819,0.644 -1.819,1.93 v 3.389 h 1.219 V 1.93 c 0,-0.67 0.301,-1.004 0.902,-1.004 0.276,0 0.533,0.072 0.77,0.215 C -0.236,1.283 -0.078,1.449 0,1.638 V 5.226 H 1.219 V 0 Z" />
      </g>
      <g
         transform="translate(1184.298,816.2419)"
         id="g983"
         style="fill:#ffffff">
        <path
           id="path985"
           style="fill:#ffffff;fill-opacity:1;fill-rule:nonzero;stroke:none"
           d="M 0,0 H -0.604 V 0.98 H 0 V 2.042 L 1.219,2.491 V 0.98 H 2.652 V 0 H 1.219 v -2.287 c 0,-0.373 0.058,-0.638 0.175,-0.792 0.117,-0.154 0.322,-0.231 0.615,-0.231 0.292,0 0.565,0.08 0.818,0.239 V -4.192 C 2.544,-4.291 2.142,-4.339 1.618,-4.339 c -0.52,0 -0.919,0.147 -1.199,0.442 C 0.139,-3.604 0,-3.185 0,-2.642 Z" />
      </g>
      <g
         transform="translate(1188.9972,814.6233)"
         id="g987"
         style="fill:#ffffff">
        <path
           id="path989"
           style="fill:#ffffff;fill-opacity:1;fill-rule:nonzero;stroke:none"
           d="m 0,0 c 0,-1.151 0.414,-1.726 1.243,-1.726 0.38,0 0.682,0.15 0.904,0.449 0.223,0.299 0.334,0.725 0.334,1.277 0,1.135 -0.412,1.702 -1.238,1.702 -0.38,0 -0.682,-0.15 -0.907,-0.45 C 0.112,0.954 0,0.536 0,0 m -1.267,0 c 0,0.796 0.229,1.444 0.689,1.945 0.46,0.501 1.067,0.751 1.821,0.751 0.793,0 1.409,-0.241 1.848,-0.722 C 3.53,1.493 3.749,0.835 3.749,0 3.749,-0.832 3.525,-1.494 3.078,-1.984 2.632,-2.475 2.02,-2.72 1.243,-2.72 c -0.793,0 -1.41,0.248 -1.85,0.743 -0.44,0.496 -0.66,1.154 -0.66,1.977" />
      </g>
      <g
         transform="translate(1201.4867,811.9031)"
         id="g991"
         style="fill:#ffffff">
        <path
           id="path993"
           style="fill:#ffffff;fill-opacity:1;fill-rule:nonzero;stroke:none"
           d="M 0,0 -3.466,4.52 V 0.093 H -4.685 V 7.24 h 0.61 L -0.702,2.93 V 7.24 H 0.517 V 0 Z" />
      </g>
      <g
         transform="translate(1206.1813,814.4575)"
         id="g995"
         style="fill:#ffffff">
        <path
           id="path997"
           style="fill:#ffffff;fill-opacity:1;fill-rule:nonzero;stroke:none"
           d="m 0,0 c -0.208,0.042 -0.364,0.063 -0.468,0.063 -0.962,0 -1.443,-0.315 -1.443,-0.946 0,-0.467 0.271,-0.701 0.814,-0.701 0.731,0 1.097,0.365 1.097,1.097 z m 0.117,-1.936 c -0.111,-0.181 -0.303,-0.33 -0.578,-0.446 -0.274,-0.115 -0.561,-0.172 -0.86,-0.172 -0.562,0 -1.004,0.14 -1.326,0.421 -0.322,0.281 -0.483,0.68 -0.483,1.197 0,0.605 0.227,1.077 0.68,1.419 0.454,0.341 1.098,0.511 1.933,0.511 0.143,0 0.312,-0.024 0.507,-0.072 0,0.614 -0.388,0.921 -1.165,0.921 -0.458,0 -0.841,-0.077 -1.15,-0.229 l -0.264,0.945 c 0.42,0.202 0.918,0.303 1.497,0.303 0.796,0 1.38,-0.182 1.75,-0.544 0.371,-0.362 0.556,-1.049 0.556,-2.06 v -1.116 c 0,-0.696 0.14,-1.132 0.419,-1.311 C 1.532,-2.344 1.42,-2.453 1.297,-2.493 1.173,-2.534 1.032,-2.554 0.873,-2.554 0.697,-2.554 0.54,-2.49 0.4,-2.359 0.26,-2.229 0.166,-2.088 0.117,-1.936" />
      </g>
      <g
         transform="translate(1212.8065,816.8076)"
         id="g999"
         style="fill:#ffffff">
        <path
           id="path1001"
           style="fill:#ffffff;fill-opacity:1;fill-rule:nonzero;stroke:none"
           d="m 0,0 -0.522,-0.912 c -0.286,0.269 -0.669,0.405 -1.15,0.405 -0.462,0 -0.827,-0.154 -1.094,-0.461 -0.268,-0.307 -0.403,-0.732 -0.403,-1.275 0,-1.095 0.522,-1.642 1.565,-1.642 0.452,0 0.85,0.148 1.194,0.448 l 0.449,-0.96 c -0.354,-0.221 -0.664,-0.361 -0.929,-0.419 -0.265,-0.059 -0.577,-0.089 -0.938,-0.089 -0.806,0 -1.442,0.235 -1.909,0.705 -0.466,0.47 -0.699,1.122 -0.699,1.957 0,0.822 0.255,1.487 0.765,1.994 0.511,0.507 1.206,0.761 2.087,0.761 C -0.977,0.512 -0.448,0.341 0,0" />
      </g>
      <g
         transform="translate(1214.7758,819.2446)"
         id="g1003"
         style="fill:#ffffff">
        <path
           id="path1005"
           style="fill:#ffffff;fill-opacity:1;fill-rule:nonzero;stroke:none"
           d="m 0,0 c 0.195,0 0.362,-0.069 0.5,-0.207 0.138,-0.138 0.207,-0.305 0.207,-0.5 0,-0.195 -0.069,-0.361 -0.207,-0.5 C 0.362,-1.344 0.195,-1.413 0,-1.413 c -0.195,0 -0.362,0.069 -0.5,0.206 -0.138,0.139 -0.207,0.305 -0.207,0.5 0,0.195 0.069,0.362 0.207,0.5 C -0.362,-0.069 -0.195,0 0,0 m -0.629,-7.244 v 4.222 h -0.668 v 0.999 h 1.902 v -5.221 z" />
      </g>
      <g
         transform="translate(1217.7252,814.6233)"
         id="g1007"
         style="fill:#ffffff">
        <path
           id="path1009"
           style="fill:#ffffff;fill-opacity:1;fill-rule:nonzero;stroke:none"
           d="m 0,0 c 0,-1.151 0.414,-1.726 1.243,-1.726 0.381,0 0.682,0.15 0.905,0.449 0.222,0.299 0.333,0.725 0.333,1.277 0,1.135 -0.412,1.702 -1.238,1.702 -0.38,0 -0.682,-0.15 -0.907,-0.45 C 0.112,0.954 0,0.536 0,0 m -1.267,0 c 0,0.796 0.229,1.444 0.689,1.945 0.46,0.501 1.067,0.751 1.821,0.751 0.793,0 1.409,-0.241 1.848,-0.722 C 3.53,1.493 3.749,0.835 3.749,0 3.749,-0.832 3.525,-1.494 3.079,-1.984 2.632,-2.475 2.02,-2.72 1.243,-2.72 c -0.793,0 -1.409,0.248 -1.85,0.743 -0.44,0.496 -0.66,1.154 -0.66,1.977" />
      </g>
      <g
         transform="translate(1225.808,812.0007)"
         id="g1011"
         style="fill:#ffffff">
        <path
           id="path1013"
           style="fill:#ffffff;fill-opacity:1;fill-rule:nonzero;stroke:none"
           d="M 0,0 V 3.018 C 0,3.462 -0.085,3.788 -0.256,3.992 -0.427,4.198 -0.705,4.3 -1.092,4.3 -1.271,4.3 -1.462,4.249 -1.665,4.148 -1.868,4.048 -2.026,3.923 -2.14,3.773 V 0 h -1.219 v 5.221 h 0.878 l 0.224,-0.488 c 0.331,0.391 0.82,0.586 1.467,0.586 0.621,0 1.111,-0.186 1.47,-0.559 C 1.039,4.388 1.219,3.869 1.219,3.202 V 0 Z" />
      </g>
      <g
         transform="translate(1231.1312,814.4575)"
         id="g1015"
         style="fill:#ffffff">
        <path
           id="path1017"
           style="fill:#ffffff;fill-opacity:1;fill-rule:nonzero;stroke:none"
           d="m 0,0 c -0.208,0.042 -0.364,0.063 -0.468,0.063 -0.962,0 -1.443,-0.315 -1.443,-0.946 0,-0.467 0.271,-0.701 0.814,-0.701 0.731,0 1.097,0.365 1.097,1.097 z m 0.117,-1.936 c -0.111,-0.181 -0.303,-0.33 -0.578,-0.446 -0.274,-0.115 -0.561,-0.172 -0.86,-0.172 -0.562,0 -1.004,0.14 -1.326,0.421 -0.322,0.281 -0.483,0.68 -0.483,1.197 0,0.605 0.227,1.077 0.68,1.419 0.454,0.341 1.098,0.511 1.933,0.511 0.143,0 0.312,-0.024 0.507,-0.072 0,0.614 -0.388,0.921 -1.165,0.921 -0.458,0 -0.841,-0.077 -1.15,-0.229 l -0.264,0.945 c 0.42,0.202 0.918,0.303 1.497,0.303 0.796,0 1.38,-0.182 1.75,-0.544 0.371,-0.362 0.556,-1.049 0.556,-2.06 v -1.116 c 0,-0.696 0.14,-1.132 0.419,-1.311 C 1.532,-2.344 1.42,-2.453 1.297,-2.493 1.173,-2.534 1.032,-2.554 0.873,-2.554 0.697,-2.554 0.54,-2.49 0.4,-2.359 0.26,-2.229 0.166,-2.088 0.117,-1.936" />
      </g>
      <g
         transform="translate(1233.871,819.167)"
         id="g1019"
         style="fill:#ffffff">
        <path
           id="path1021"
           style="fill:#ffffff;fill-opacity:1;fill-rule:nonzero;stroke:none"
           d="m 0,0 1.219,0.292 v -5.869 c 0,-0.643 0.192,-1.027 0.575,-1.151 C 1.606,-7.085 1.284,-7.264 0.829,-7.264 0.277,-7.264 0,-6.88 0,-6.113 Z" />
      </g>
      <g
         transform="translate(1242.9728,815.9741)"
         id="g1023"
         style="fill:#ffffff">
        <path
           id="path1025"
           style="fill:#ffffff;fill-opacity:1;fill-rule:nonzero;stroke:none"
           d="m 0,0 c -0.26,0.208 -0.532,0.311 -0.814,0.311 -0.488,0 -0.863,-0.148 -1.126,-0.446 -0.263,-0.297 -0.395,-0.723 -0.395,-1.279 0,-1.086 0.523,-1.628 1.57,-1.628 0.117,0 0.26,0.034 0.431,0.104 0.171,0.071 0.282,0.141 0.334,0.212 z m 0,-3.973 v 0.317 c -0.101,-0.112 -0.271,-0.208 -0.512,-0.291 -0.24,-0.083 -0.489,-0.124 -0.746,-0.124 -0.728,0 -1.301,0.231 -1.718,0.693 -0.418,0.461 -0.627,1.104 -0.627,1.93 0,0.825 0.24,1.497 0.719,2.015 0.48,0.519 1.08,0.778 1.802,0.778 0.396,0 0.757,-0.081 1.082,-0.244 v 2.092 l 1.219,0.292 v -7.458 z" />
      </g>
      <g
         transform="translate(1246.3849,815.1548)"
         id="g1027"
         style="fill:#ffffff">
        <path
           id="path1029"
           style="fill:#ffffff;fill-opacity:1;fill-rule:nonzero;stroke:none"
           d="M 0,0 H 2.564 C 2.48,0.764 2.057,1.146 1.297,1.146 0.601,1.146 0.169,0.764 0,0 m 3.685,-0.917 h -3.729 c 0.023,-0.416 0.166,-0.739 0.429,-0.969 0.263,-0.232 0.618,-0.347 1.063,-0.347 0.556,0 0.978,0.144 1.268,0.434 L 3.188,-2.73 c -0.429,-0.348 -1.069,-0.522 -1.92,-0.522 -0.797,0 -1.426,0.233 -1.89,0.7 -0.463,0.466 -0.694,1.117 -0.694,1.952 0,0.823 0.254,1.489 0.763,1.999 0.509,0.51 1.119,0.766 1.83,0.766 0.758,0 1.365,-0.226 1.824,-0.679 0.458,-0.451 0.687,-1.027 0.687,-1.725 0,-0.149 -0.034,-0.375 -0.103,-0.678" />
      </g>
      <g
         transform="translate(1259.1232,818.7622)"
         id="g1031"
         style="fill:#ffffff">
        <path
           id="path1033"
           style="fill:#ffffff;fill-opacity:1;fill-rule:nonzero;stroke:none"
           d="m 0,0 -0.522,-1.048 c -0.282,0.283 -0.737,0.424 -1.365,0.424 -0.594,0 -1.082,-0.249 -1.462,-0.748 -0.38,-0.499 -0.57,-1.131 -0.57,-1.894 0,-0.764 0.176,-1.37 0.528,-1.818 0.353,-0.449 0.824,-0.674 1.412,-0.674 0.673,0 1.199,0.241 1.579,0.722 L 0.19,-6.06 c -0.517,-0.549 -1.274,-0.824 -2.272,-0.824 -0.997,0 -1.772,0.328 -2.325,0.985 -0.552,0.657 -0.829,1.552 -0.829,2.686 0,1.056 0.307,1.94 0.919,2.65 0.613,0.709 1.397,1.065 2.352,1.065 C -1.146,0.502 -0.491,0.334 0,0" />
      </g>
      <g
         transform="translate(1261.2194,819.2446)"
         id="g1035"
         style="fill:#ffffff">
        <path
           id="path1037"
           style="fill:#ffffff;fill-opacity:1;fill-rule:nonzero;stroke:none"
           d="m 0,0 c 0.195,0 0.362,-0.069 0.5,-0.207 0.138,-0.138 0.207,-0.305 0.207,-0.5 0,-0.195 -0.069,-0.361 -0.207,-0.5 C 0.362,-1.344 0.195,-1.413 0,-1.413 c -0.195,0 -0.362,0.069 -0.5,0.206 -0.138,0.139 -0.207,0.305 -0.207,0.5 0,0.195 0.069,0.362 0.207,0.5 C -0.362,-0.069 -0.195,0 0,0 m -0.629,-7.244 v 4.222 h -0.668 v 0.999 h 1.901 v -5.221 z" />
      </g>
      <g
         transform="translate(1264.2174,815.1548)"
         id="g1039"
         style="fill:#ffffff">
        <path
           id="path1041"
           style="fill:#ffffff;fill-opacity:1;fill-rule:nonzero;stroke:none"
           d="M 0,0 H 2.564 C 2.48,0.764 2.057,1.146 1.297,1.146 0.601,1.146 0.169,0.764 0,0 M 2.126,2.769 1.36,3.495 0.683,2.769 H -0.619 L 1.112,4.305 H 1.633 L 3.427,2.769 Z m 1.56,-3.686 h -3.729 c 0.022,-0.416 0.165,-0.739 0.428,-0.969 0.263,-0.232 0.618,-0.347 1.063,-0.347 0.556,0 0.978,0.144 1.268,0.434 L 3.188,-2.73 c -0.429,-0.348 -1.069,-0.522 -1.92,-0.522 -0.797,0 -1.426,0.233 -1.89,0.7 -0.463,0.466 -0.694,1.117 -0.694,1.952 0,0.823 0.254,1.489 0.763,1.999 0.509,0.51 1.119,0.766 1.83,0.766 0.758,0 1.365,-0.226 1.824,-0.679 0.458,-0.451 0.687,-1.027 0.687,-1.725 0,-0.149 -0.034,-0.375 -0.102,-0.678" />
      </g>
      <g
         transform="translate(1272.339,812.0007)"
         id="g1043"
         style="fill:#ffffff">
        <path
           id="path1045"
           style="fill:#ffffff;fill-opacity:1;fill-rule:nonzero;stroke:none"
           d="M 0,0 V 3.018 C 0,3.462 -0.085,3.788 -0.256,3.992 -0.427,4.198 -0.705,4.3 -1.092,4.3 -1.271,4.3 -1.462,4.249 -1.665,4.148 -1.868,4.048 -2.026,3.923 -2.14,3.773 V 0 h -1.219 v 5.221 h 0.878 l 0.224,-0.488 c 0.331,0.391 0.821,0.586 1.467,0.586 0.621,0 1.111,-0.186 1.47,-0.559 C 1.039,4.388 1.219,3.869 1.219,3.202 V 0 Z" />
      </g>
      <g
         transform="translate(1278.9691,816.8076)"
         id="g1047"
         style="fill:#ffffff">
        <path
           id="path1049"
           style="fill:#ffffff;fill-opacity:1;fill-rule:nonzero;stroke:none"
           d="m 0,0 -0.522,-0.912 c -0.286,0.269 -0.669,0.405 -1.15,0.405 -0.462,0 -0.827,-0.154 -1.094,-0.461 -0.268,-0.307 -0.403,-0.732 -0.403,-1.275 0,-1.095 0.522,-1.642 1.565,-1.642 0.452,0 0.85,0.148 1.194,0.448 l 0.449,-0.96 c -0.354,-0.221 -0.664,-0.361 -0.929,-0.419 -0.265,-0.059 -0.577,-0.089 -0.938,-0.089 -0.806,0 -1.442,0.235 -1.909,0.705 -0.466,0.47 -0.699,1.122 -0.699,1.957 0,0.822 0.255,1.487 0.765,1.994 0.511,0.507 1.206,0.761 2.087,0.761 C -0.977,0.512 -0.448,0.341 0,0" />
      </g>
      <g
         transform="translate(1280.9384,819.2446)"
         id="g1051"
         style="fill:#ffffff">
        <path
           id="path1053"
           style="fill:#ffffff;fill-opacity:1;fill-rule:nonzero;stroke:none"
           d="m 0,0 c 0.195,0 0.362,-0.069 0.5,-0.207 0.138,-0.138 0.207,-0.305 0.207,-0.5 0,-0.195 -0.069,-0.361 -0.207,-0.5 C 0.362,-1.344 0.195,-1.413 0,-1.413 c -0.195,0 -0.362,0.069 -0.5,0.206 -0.138,0.139 -0.207,0.305 -0.207,0.5 0,0.195 0.069,0.362 0.207,0.5 C -0.362,-0.069 -0.195,0 0,0 m -0.629,-7.244 v 4.222 h -0.668 v 0.999 h 1.902 v -5.221 z" />
      </g>
      <g
         transform="translate(1285.7501,814.4575)"
         id="g1055"
         style="fill:#ffffff">
        <path
           id="path1057"
           style="fill:#ffffff;fill-opacity:1;fill-rule:nonzero;stroke:none"
           d="m 0,0 c -0.208,0.042 -0.364,0.063 -0.468,0.063 -0.962,0 -1.443,-0.315 -1.443,-0.946 0,-0.467 0.271,-0.701 0.814,-0.701 0.731,0 1.097,0.365 1.097,1.097 z m 0.117,-1.936 c -0.111,-0.181 -0.303,-0.33 -0.578,-0.446 -0.274,-0.115 -0.561,-0.172 -0.86,-0.172 -0.562,0 -1.004,0.14 -1.326,0.421 -0.322,0.281 -0.483,0.68 -0.483,1.197 0,0.605 0.227,1.077 0.68,1.419 0.454,0.341 1.098,0.511 1.933,0.511 0.143,0 0.312,-0.024 0.507,-0.072 0,0.614 -0.388,0.921 -1.165,0.921 -0.458,0 -0.841,-0.077 -1.15,-0.229 l -0.263,0.945 c 0.419,0.202 0.917,0.303 1.496,0.303 0.796,0 1.38,-0.182 1.75,-0.544 0.371,-0.362 0.556,-1.049 0.556,-2.06 v -1.116 c 0,-0.696 0.14,-1.132 0.419,-1.311 C 1.532,-2.344 1.42,-2.453 1.297,-2.493 1.173,-2.534 1.032,-2.554 0.873,-2.554 0.697,-2.554 0.54,-2.49 0.4,-2.359 0.26,-2.229 0.166,-2.088 0.117,-1.936" />
      </g>
      <g
         transform="translate(1288.6798,810.1775)"
         id="g1059"
         style="fill:#ffffff">
        <path
           id="path1061"
           style="fill:#ffffff;fill-opacity:1;fill-rule:nonzero;stroke:none"
           d="m 0,0 -0.415,0.532 c 0.596,0.445 0.893,0.793 0.893,1.047 0,0.098 -0.034,0.193 -0.103,0.288 -0.309,0.149 -0.463,0.359 -0.463,0.629 0,0.195 0.082,0.356 0.244,0.485 C 0.318,3.109 0.52,3.173 0.76,3.173 0.985,3.173 1.18,3.088 1.348,2.917 1.515,2.747 1.599,2.55 1.599,2.325 1.599,1.913 1.502,1.536 1.309,1.196 1.115,0.857 0.679,0.458 0,0" />
      </g>
      <g
         transform="translate(1157.3248,807.3782)"
         id="g1063"
         style="fill:#ffffff">
        <path
           id="path1065"
           style="fill:#ffffff;fill-opacity:1;fill-rule:nonzero;stroke:none"
           d="M 0,0 V -6.016 H -1.267 V 0 H -3.539 V 1.126 H 2.374 V 0 Z" />
      </g>
      <g
         transform="translate(1160.3229,804.5164)"
         id="g1067"
         style="fill:#ffffff">
        <path
           id="path1069"
           style="fill:#ffffff;fill-opacity:1;fill-rule:nonzero;stroke:none"
           d="M 0,0 H 2.564 C 2.48,0.764 2.057,1.146 1.297,1.146 0.601,1.146 0.169,0.764 0,0 m 3.686,-0.917 h -3.729 c 0.022,-0.416 0.165,-0.739 0.428,-0.969 0.263,-0.232 0.618,-0.347 1.063,-0.347 0.556,0 0.978,0.145 1.268,0.434 L 3.188,-2.73 c -0.429,-0.348 -1.069,-0.522 -1.92,-0.522 -0.797,0 -1.426,0.233 -1.89,0.7 -0.463,0.466 -0.694,1.117 -0.694,1.952 0,0.823 0.254,1.489 0.763,1.999 0.509,0.51 1.119,0.766 1.83,0.766 0.758,0 1.365,-0.226 1.824,-0.679 0.458,-0.451 0.687,-1.026 0.687,-1.725 0,-0.149 -0.034,-0.375 -0.102,-0.678" />
      </g>
      <g
         transform="translate(1169.1805,806.1692)"
         id="g1071"
         style="fill:#ffffff">
        <path
           id="path1073"
           style="fill:#ffffff;fill-opacity:1;fill-rule:nonzero;stroke:none"
           d="m 0,0 -0.522,-0.912 c -0.286,0.269 -0.669,0.405 -1.15,0.405 -0.462,0 -0.827,-0.154 -1.094,-0.461 -0.268,-0.307 -0.403,-0.732 -0.403,-1.275 0,-1.095 0.522,-1.642 1.565,-1.642 0.452,0 0.85,0.148 1.194,0.448 l 0.449,-0.96 c -0.354,-0.221 -0.664,-0.361 -0.929,-0.419 -0.265,-0.059 -0.577,-0.089 -0.938,-0.089 -0.806,0 -1.442,0.235 -1.909,0.705 -0.466,0.47 -0.699,1.122 -0.699,1.957 0,0.822 0.255,1.487 0.765,1.994 0.511,0.507 1.206,0.761 2.087,0.761 C -0.977,0.512 -0.448,0.341 0,0" />
      </g>
      <g
         transform="translate(1173.5533,801.3623)"
         id="g1075"
         style="fill:#ffffff">
        <path
           id="path1077"
           style="fill:#ffffff;fill-opacity:1;fill-rule:nonzero;stroke:none"
           d="M 0,0 V 3.018 C 0,3.462 -0.085,3.788 -0.256,3.992 -0.427,4.198 -0.705,4.3 -1.092,4.3 -1.271,4.3 -1.462,4.249 -1.665,4.148 -1.868,4.048 -2.026,3.923 -2.14,3.773 V 0 h -1.219 v 5.221 h 0.878 l 0.224,-0.488 c 0.331,0.391 0.82,0.586 1.467,0.586 0.621,0 1.111,-0.186 1.47,-0.559 C 1.039,4.388 1.219,3.869 1.219,3.202 V 0 Z" />
      </g>
      <g
         transform="translate(1177.0145,803.9849)"
         id="g1079"
         style="fill:#ffffff">
        <path
           id="path1081"
           style="fill:#ffffff;fill-opacity:1;fill-rule:nonzero;stroke:none"
           d="m 0,0 c 0,-1.151 0.415,-1.726 1.243,-1.726 0.381,0 0.682,0.15 0.905,0.449 C 2.37,-0.978 2.482,-0.552 2.482,0 2.482,1.135 2.069,1.702 1.243,1.702 0.863,1.702 0.561,1.552 0.336,1.253 0.112,0.954 0,0.536 0,0 m -1.267,0 c 0,0.796 0.229,1.444 0.689,1.945 0.46,0.501 1.067,0.751 1.821,0.751 0.793,0 1.409,-0.241 1.848,-0.722 C 3.53,1.493 3.749,0.835 3.749,0 3.749,-0.832 3.525,-1.494 3.079,-1.984 2.632,-2.474 2.02,-2.72 1.243,-2.72 c -0.793,0 -1.409,0.248 -1.85,0.743 -0.44,0.496 -0.66,1.154 -0.66,1.977" />
      </g>
      <g
         transform="translate(1181.9479,808.5288)"
         id="g1083"
         style="fill:#ffffff">
        <path
           id="path1085"
           style="fill:#ffffff;fill-opacity:1;fill-rule:nonzero;stroke:none"
           d="m 0,0 1.219,0.292 v -5.869 c 0,-0.643 0.192,-1.027 0.575,-1.151 C 1.606,-7.086 1.284,-7.264 0.829,-7.264 0.277,-7.264 0,-6.881 0,-6.114 Z" />
      </g>
      <g
         transform="translate(1185.6093,803.9849)"
         id="g1087"
         style="fill:#ffffff">
        <path
           id="path1089"
           style="fill:#ffffff;fill-opacity:1;fill-rule:nonzero;stroke:none"
           d="m 0,0 c 0,-1.151 0.414,-1.726 1.243,-1.726 0.38,0 0.682,0.15 0.904,0.449 C 2.37,-0.978 2.481,-0.552 2.481,0 2.481,1.135 2.069,1.702 1.243,1.702 0.863,1.702 0.561,1.552 0.336,1.253 0.112,0.954 0,0.536 0,0 m -1.267,0 c 0,0.796 0.229,1.444 0.689,1.945 0.46,0.501 1.067,0.751 1.821,0.751 0.793,0 1.409,-0.241 1.848,-0.722 C 3.53,1.493 3.749,0.835 3.749,0 3.749,-0.832 3.525,-1.494 3.078,-1.984 2.632,-2.474 2.02,-2.72 1.243,-2.72 c -0.793,0 -1.41,0.248 -1.85,0.743 -0.44,0.496 -0.66,1.154 -0.66,1.977" />
      </g>
      <g
         transform="translate(1191.1617,804.7502)"
         id="g1091"
         style="fill:#ffffff">
        <path
           id="path1093"
           style="fill:#ffffff;fill-opacity:1;fill-rule:nonzero;stroke:none"
           d="m 0,0 c 0,-0.309 0.085,-0.556 0.256,-0.743 0.171,-0.187 0.4,-0.281 0.69,-0.281 0.289,0 0.512,0.091 0.668,0.274 C 1.77,-0.569 1.848,-0.319 1.848,0 1.848,0.263 1.764,0.486 1.596,0.668 1.429,0.85 1.212,0.941 0.946,0.941 0.666,0.941 0.439,0.853 0.263,0.677 0.088,0.502 0,0.276 0,0 m -1.219,-4.729 0.771,0.951 c 0.425,-0.39 0.9,-0.585 1.423,-0.585 0.351,0 0.64,0.052 0.868,0.156 0.227,0.104 0.341,0.247 0.341,0.429 0,0.309 -0.252,0.463 -0.756,0.463 -0.136,0 -0.339,-0.016 -0.609,-0.049 -0.27,-0.032 -0.473,-0.049 -0.61,-0.049 -0.838,0 -1.257,0.301 -1.257,0.903 0,0.172 0.07,0.341 0.21,0.506 0.139,0.167 0.302,0.288 0.487,0.366 -0.595,0.387 -0.892,0.934 -0.892,1.643 0,0.559 0.205,1.021 0.614,1.387 0.41,0.365 0.913,0.548 1.512,0.548 0.468,0 0.859,-0.088 1.174,-0.263 L 2.535,2.233 3.378,1.467 2.798,1.043 C 3,0.738 3.101,0.377 3.101,-0.039 c 0,-0.595 -0.182,-1.07 -0.544,-1.426 -0.362,-0.356 -0.82,-0.533 -1.372,-0.533 -0.088,0 -0.205,0.008 -0.352,0.023 l -0.199,0.03 c -0.023,0 -0.11,-0.035 -0.261,-0.105 -0.151,-0.07 -0.227,-0.142 -0.227,-0.217 0,-0.13 0.112,-0.195 0.336,-0.195 0.101,0 0.27,0.025 0.508,0.073 0.237,0.049 0.44,0.074 0.609,0.074 1.186,0 1.779,-0.477 1.779,-1.429 0,-0.527 -0.237,-0.94 -0.711,-1.241 -0.475,-0.3 -1.047,-0.45 -1.716,-0.45 -0.8,0 -1.523,0.235 -2.17,0.706" />
      </g>
      <g
         transform="translate(1196.2999,808.6064)"
         id="g1095"
         style="fill:#ffffff">
        <path
           id="path1097"
           style="fill:#ffffff;fill-opacity:1;fill-rule:nonzero;stroke:none"
           d="m 0,0 c 0.195,0 0.362,-0.069 0.5,-0.207 0.138,-0.138 0.207,-0.305 0.207,-0.5 0,-0.195 -0.069,-0.361 -0.207,-0.5 C 0.362,-1.345 0.195,-1.414 0,-1.414 c -0.195,0 -0.362,0.069 -0.5,0.207 -0.138,0.139 -0.207,0.305 -0.207,0.5 0,0.195 0.069,0.362 0.207,0.5 C -0.362,-0.069 -0.195,0 0,0 m -0.629,-7.244 v 4.221 h -0.668 v 1 h 1.901 v -5.221 z" />
      </g>
      <g
         transform="translate(1201.1117,803.8191)"
         id="g1099"
         style="fill:#ffffff">
        <path
           id="path1101"
           style="fill:#ffffff;fill-opacity:1;fill-rule:nonzero;stroke:none"
           d="m 0,0 c -0.208,0.042 -0.364,0.063 -0.468,0.063 -0.962,0 -1.443,-0.315 -1.443,-0.946 0,-0.467 0.271,-0.701 0.814,-0.701 0.731,0 1.097,0.365 1.097,1.097 z m 0.117,-1.936 c -0.111,-0.181 -0.303,-0.33 -0.578,-0.446 -0.274,-0.115 -0.561,-0.172 -0.86,-0.172 -0.562,0 -1.004,0.14 -1.326,0.421 -0.322,0.281 -0.483,0.68 -0.483,1.197 0,0.605 0.227,1.077 0.68,1.419 0.454,0.341 1.098,0.511 1.933,0.511 0.143,0 0.312,-0.024 0.507,-0.072 0,0.614 -0.388,0.921 -1.165,0.921 -0.458,0 -0.842,-0.077 -1.15,-0.229 l -0.264,0.945 c 0.42,0.202 0.918,0.303 1.497,0.303 0.796,0 1.38,-0.182 1.75,-0.544 0.371,-0.362 0.556,-1.049 0.556,-2.06 v -1.116 c 0,-0.696 0.14,-1.132 0.419,-1.311 C 1.532,-2.344 1.42,-2.453 1.297,-2.493 1.173,-2.534 1.032,-2.554 0.873,-2.554 c -0.176,0 -0.333,0.065 -0.473,0.195 -0.14,0.13 -0.234,0.271 -0.283,0.423" />
      </g>
      <g
         transform="translate(1207.6241,804.5164)"
         id="g1103"
         style="fill:#ffffff">
        <path
           id="path1105"
           style="fill:#ffffff;fill-opacity:1;fill-rule:nonzero;stroke:none"
           d="M 0,0 H 2.564 C 2.48,0.764 2.057,1.146 1.297,1.146 0.601,1.146 0.169,0.764 0,0 m 3.685,-0.917 h -3.729 c 0.023,-0.416 0.166,-0.739 0.429,-0.969 0.263,-0.232 0.618,-0.347 1.063,-0.347 0.556,0 0.978,0.145 1.268,0.434 L 3.188,-2.73 c -0.429,-0.348 -1.069,-0.522 -1.92,-0.522 -0.797,0 -1.426,0.233 -1.89,0.7 -0.463,0.466 -0.694,1.117 -0.694,1.952 0,0.823 0.254,1.489 0.763,1.999 0.509,0.51 1.119,0.766 1.83,0.766 0.758,0 1.365,-0.226 1.824,-0.679 0.458,-0.451 0.687,-1.026 0.687,-1.725 0,-0.149 -0.034,-0.375 -0.103,-0.678" />
      </g>
      <g
         transform="translate(1216.7357,807.3782)"
         id="g1107"
         style="fill:#ffffff">
        <path
           id="path1109"
           style="fill:#ffffff;fill-opacity:1;fill-rule:nonzero;stroke:none"
           d="M 0,0 V -1.673 H 2.359 V -2.75 H 0 V -4.89 H 3.237 V -6.016 H -1.267 V 1.126 H 3.291 V 0 Z" />
      </g>
      <g
         transform="translate(1224.4674,805.3452)"
         id="g1111"
         style="fill:#ffffff">
        <path
           id="path1113"
           style="fill:#ffffff;fill-opacity:1;fill-rule:nonzero;stroke:none"
           d="m 0,0 c -0.218,0.201 -0.502,0.302 -0.853,0.302 -0.474,0 -0.846,-0.157 -1.114,-0.47 -0.268,-0.314 -0.402,-0.732 -0.402,-1.256 0,-1.085 0.492,-1.628 1.477,-1.628 0.361,0 0.658,0.085 0.892,0.253 z m 0,-6.03 v 2.194 c -0.292,-0.163 -0.696,-0.245 -1.209,-0.245 -0.761,0 -1.355,0.232 -1.784,0.696 -0.429,0.462 -0.644,1.117 -0.644,1.961 0,0.842 0.246,1.513 0.739,2.011 0.492,0.499 1.122,0.749 1.889,0.749 0.455,0 0.868,-0.137 1.238,-0.41 l 0.2,0.312 h 0.79 V -6.03 Z" />
      </g>
      <g
         transform="translate(1230.2684,801.3574)"
         id="g1115"
         style="fill:#ffffff">
        <path
           id="path1117"
           style="fill:#ffffff;fill-opacity:1;fill-rule:nonzero;stroke:none"
           d="M 0,0 V 0.439 C -0.172,0.292 -0.41,0.167 -0.712,0.063 c -0.302,-0.103 -0.58,-0.156 -0.833,-0.156 -1.213,0 -1.819,0.644 -1.819,1.93 v 3.389 h 1.219 V 1.93 c 0,-0.67 0.301,-1.004 0.902,-1.004 0.276,0 0.533,0.072 0.77,0.215 C -0.236,1.284 -0.078,1.449 0,1.638 V 5.226 H 1.219 V 0 Z" />
      </g>
      <g
         transform="translate(1233.7589,808.6064)"
         id="g1119"
         style="fill:#ffffff">
        <path
           id="path1121"
           style="fill:#ffffff;fill-opacity:1;fill-rule:nonzero;stroke:none"
           d="m 0,0 c 0.195,0 0.362,-0.069 0.5,-0.207 0.138,-0.138 0.207,-0.305 0.207,-0.5 0,-0.195 -0.069,-0.361 -0.207,-0.5 C 0.362,-1.345 0.195,-1.414 0,-1.414 c -0.195,0 -0.362,0.069 -0.5,0.207 -0.138,0.139 -0.207,0.305 -0.207,0.5 0,0.195 0.069,0.362 0.207,0.5 C -0.362,-0.069 -0.195,0 0,0 m -0.629,-7.244 v 4.221 h -0.668 v 1 h 1.901 v -5.221 z" />
      </g>
      <g
         transform="translate(1239.1407,805.3357)"
         id="g1123"
         style="fill:#ffffff">
        <path
           id="path1125"
           style="fill:#ffffff;fill-opacity:1;fill-rule:nonzero;stroke:none"
           d="m 0,0 c -0.26,0.208 -0.532,0.311 -0.814,0.311 -0.488,0 -0.863,-0.148 -1.126,-0.446 -0.263,-0.297 -0.395,-0.723 -0.395,-1.279 0,-1.086 0.523,-1.628 1.57,-1.628 0.117,0 0.26,0.034 0.431,0.104 0.171,0.071 0.282,0.141 0.334,0.212 z m 0,-3.973 v 0.317 c -0.101,-0.112 -0.271,-0.208 -0.512,-0.291 -0.24,-0.083 -0.489,-0.124 -0.746,-0.124 -0.728,0 -1.301,0.231 -1.718,0.693 -0.418,0.461 -0.627,1.104 -0.627,1.93 0,0.825 0.24,1.497 0.719,2.015 0.48,0.519 1.08,0.778 1.802,0.778 0.396,0 0.757,-0.081 1.082,-0.244 v 2.092 l 1.219,0.292 v -7.458 z" />
      </g>
      <g
         transform="translate(1244.3668,803.8191)"
         id="g1127"
         style="fill:#ffffff">
        <path
           id="path1129"
           style="fill:#ffffff;fill-opacity:1;fill-rule:nonzero;stroke:none"
           d="m 0,0 c -0.208,0.042 -0.364,0.063 -0.468,0.063 -0.962,0 -1.443,-0.315 -1.443,-0.946 0,-0.467 0.271,-0.701 0.814,-0.701 0.731,0 1.097,0.365 1.097,1.097 z m 0.117,-1.936 c -0.111,-0.181 -0.303,-0.33 -0.578,-0.446 -0.274,-0.115 -0.561,-0.172 -0.86,-0.172 -0.562,0 -1.004,0.14 -1.326,0.421 -0.322,0.281 -0.483,0.68 -0.483,1.197 0,0.605 0.227,1.077 0.68,1.419 0.454,0.341 1.098,0.511 1.933,0.511 0.143,0 0.312,-0.024 0.507,-0.072 0,0.614 -0.388,0.921 -1.165,0.921 -0.458,0 -0.841,-0.077 -1.15,-0.229 l -0.264,0.945 c 0.42,0.202 0.918,0.303 1.497,0.303 0.796,0 1.38,-0.182 1.75,-0.544 0.371,-0.362 0.556,-1.049 0.556,-2.06 v -1.116 c 0,-0.696 0.14,-1.132 0.419,-1.311 C 1.532,-2.344 1.42,-2.453 1.297,-2.493 1.173,-2.534 1.032,-2.554 0.873,-2.554 c -0.176,0 -0.333,0.065 -0.473,0.195 -0.14,0.13 -0.234,0.271 -0.283,0.423" />
      </g>
      <g
         transform="translate(1250.2557,805.3357)"
         id="g1131"
         style="fill:#ffffff">
        <path
           id="path1133"
           style="fill:#ffffff;fill-opacity:1;fill-rule:nonzero;stroke:none"
           d="m 0,0 c -0.26,0.208 -0.532,0.311 -0.814,0.311 -0.488,0 -0.863,-0.148 -1.126,-0.446 -0.263,-0.297 -0.395,-0.723 -0.395,-1.279 0,-1.086 0.523,-1.628 1.57,-1.628 0.116,0 0.26,0.034 0.431,0.104 0.171,0.071 0.282,0.141 0.334,0.212 z m 0,-3.973 v 0.317 c -0.101,-0.112 -0.271,-0.208 -0.512,-0.291 -0.24,-0.083 -0.489,-0.124 -0.746,-0.124 -0.728,0 -1.301,0.231 -1.718,0.693 -0.418,0.461 -0.627,1.104 -0.627,1.93 0,0.825 0.24,1.497 0.719,2.015 0.48,0.519 1.08,0.778 1.802,0.778 0.396,0 0.757,-0.081 1.082,-0.244 v 2.092 l 1.219,0.292 v -7.458 z" />
      </g>
      <g
         transform="translate(1253.6678,804.5164)"
         id="g1135"
         style="fill:#ffffff">
        <path
           id="path1137"
           style="fill:#ffffff;fill-opacity:1;fill-rule:nonzero;stroke:none"
           d="M 0,0 H 2.564 C 2.48,0.764 2.057,1.146 1.297,1.146 0.601,1.146 0.169,0.764 0,0 m 3.685,-0.917 h -3.729 c 0.023,-0.416 0.166,-0.739 0.429,-0.969 0.263,-0.232 0.618,-0.347 1.063,-0.347 0.556,0 0.978,0.145 1.268,0.434 L 3.188,-2.73 c -0.429,-0.348 -1.069,-0.522 -1.92,-0.522 -0.797,0 -1.426,0.233 -1.89,0.7 -0.463,0.466 -0.694,1.117 -0.694,1.952 0,0.823 0.254,1.489 0.763,1.999 0.509,0.51 1.119,0.766 1.83,0.766 0.758,0 1.365,-0.226 1.824,-0.679 0.458,-0.451 0.687,-1.026 0.687,-1.725 0,-0.149 -0.034,-0.375 -0.103,-0.678" />
      </g>
      <g
         transform="translate(1262.4137,804.5164)"
         id="g1139"
         style="fill:#ffffff">
        <path
           id="path1141"
           style="fill:#ffffff;fill-opacity:1;fill-rule:nonzero;stroke:none"
           d="M 0,0 H 2.564 C 2.48,0.764 2.057,1.146 1.297,1.146 0.601,1.146 0.169,0.764 0,0 m 3.686,-0.917 h -3.729 c 0.022,-0.416 0.165,-0.739 0.428,-0.969 0.263,-0.232 0.618,-0.347 1.063,-0.347 0.556,0 0.978,0.145 1.268,0.434 L 3.188,-2.73 c -0.429,-0.348 -1.069,-0.522 -1.92,-0.522 -0.797,0 -1.426,0.233 -1.89,0.7 -0.463,0.466 -0.694,1.117 -0.694,1.952 0,0.823 0.254,1.489 0.763,1.999 0.509,0.51 1.119,0.766 1.83,0.766 0.758,0 1.365,-0.226 1.824,-0.679 0.458,-0.451 0.687,-1.026 0.687,-1.725 0,-0.149 -0.034,-0.375 -0.102,-0.678" />
      </g>
      <g
         transform="translate(1273.2213,801.3623)"
         id="g1143"
         style="fill:#ffffff">
        <path
           id="path1145"
           style="fill:#ffffff;fill-opacity:1;fill-rule:nonzero;stroke:none"
           d="M 0,0 V 3.271 C 0,3.957 -0.307,4.3 -0.921,4.3 -1.103,4.3 -1.279,4.246 -1.448,4.139 -1.617,4.031 -1.736,3.908 -1.804,3.768 V 0 h -1.218 v 3.461 c 0,0.257 -0.08,0.461 -0.239,0.612 C -3.42,4.224 -3.645,4.3 -3.934,4.3 -4.087,4.3 -4.253,4.243 -4.434,4.129 -4.614,4.015 -4.745,3.89 -4.826,3.754 V 0 h -1.219 v 5.221 h 0.839 l 0.248,-0.459 c 0.338,0.371 0.775,0.557 1.312,0.557 0.692,0 1.214,-0.189 1.564,-0.566 0.153,0.172 0.366,0.31 0.639,0.412 0.273,0.102 0.546,0.154 0.819,0.154 0.582,0 1.034,-0.167 1.358,-0.5 C 1.057,4.486 1.219,4.028 1.219,3.447 V 0 Z" />
      </g>
      <g
         transform="translate(1278.4962,801.7568)"
         id="g1147"
         style="fill:#ffffff">
        <path
           id="path1149"
           style="fill:#ffffff;fill-opacity:1;fill-rule:nonzero;stroke:none"
           d="M 0,0 0.468,1.136 C 0.969,0.785 1.461,0.609 1.945,0.609 2.689,0.609 3.062,0.87 3.062,1.39 3.062,1.634 2.974,1.866 2.798,2.087 2.623,2.308 2.261,2.555 1.714,2.83 1.166,3.105 0.797,3.331 0.607,3.508 0.417,3.685 0.271,3.895 0.168,4.139 0.066,4.383 0.015,4.652 0.015,4.948 c 0,0.553 0.202,1.011 0.607,1.375 0.404,0.364 0.923,0.546 1.557,0.546 0.826,0 1.432,-0.154 1.819,-0.463 L 3.613,5.314 C 3.167,5.633 2.697,5.792 2.204,5.792 1.911,5.792 1.684,5.714 1.523,5.56 1.363,5.406 1.282,5.205 1.282,4.958 1.282,4.549 1.736,4.123 2.642,3.681 3.12,3.447 3.464,3.232 3.676,3.034 3.887,2.838 4.048,2.609 4.158,2.348 4.269,2.086 4.324,1.794 4.324,1.473 4.324,0.894 4.096,0.417 3.639,0.044 3.183,-0.33 2.571,-0.517 1.804,-0.517 1.138,-0.517 0.536,-0.344 0,0" />
      </g>
      <g
         transform="translate(1286.6566,803.8191)"
         id="g1151"
         style="fill:#ffffff">
        <path
           id="path1153"
           style="fill:#ffffff;fill-opacity:1;fill-rule:nonzero;stroke:none"
           d="m 0,0 c -0.208,0.042 -0.364,0.063 -0.468,0.063 -0.962,0 -1.443,-0.315 -1.443,-0.946 0,-0.467 0.271,-0.701 0.814,-0.701 0.731,0 1.097,0.365 1.097,1.097 z m 0.117,-1.936 c -0.111,-0.181 -0.303,-0.33 -0.578,-0.446 -0.274,-0.115 -0.561,-0.172 -0.86,-0.172 -0.562,0 -1.004,0.14 -1.326,0.421 -0.322,0.281 -0.483,0.68 -0.483,1.197 0,0.605 0.227,1.077 0.68,1.419 0.454,0.341 1.098,0.511 1.933,0.511 0.143,0 0.312,-0.024 0.507,-0.072 0,0.614 -0.388,0.921 -1.165,0.921 -0.458,0 -0.842,-0.077 -1.15,-0.229 l -0.264,0.945 c 0.42,0.202 0.918,0.303 1.497,0.303 0.796,0 1.38,-0.182 1.75,-0.544 0.371,-0.362 0.556,-1.049 0.556,-2.06 v -1.116 c 0,-0.696 0.14,-1.132 0.419,-1.311 C 1.532,-2.344 1.42,-2.453 1.297,-2.493 1.173,-2.534 1.032,-2.554 0.873,-2.554 c -0.176,0 -0.333,0.065 -0.473,0.195 -0.14,0.13 -0.234,0.271 -0.283,0.423" />
      </g>
      <g
         transform="translate(1292.7555,808.7134)"
         id="g1155"
         style="fill:#ffffff">
        <path
           id="path1157"
           style="fill:#ffffff;fill-opacity:1;fill-rule:nonzero;stroke:none"
           d="M 0,0 -1.102,-1.428 H -2.028 L -1.204,0 Z m -0.205,-7.356 v 0.439 c -0.172,-0.146 -0.41,-0.272 -0.712,-0.375 -0.302,-0.104 -0.58,-0.157 -0.833,-0.157 -1.213,0 -1.819,0.644 -1.819,1.93 v 3.389 h 1.219 v -3.296 c 0,-0.669 0.301,-1.004 0.902,-1.004 0.276,0 0.533,0.072 0.77,0.215 0.237,0.143 0.395,0.308 0.473,0.497 v 3.588 h 1.219 v -5.226 z" />
      </g>
      <g
         transform="translate(1298.4447,805.3357)"
         id="g1159"
         style="fill:#ffffff">
        <path
           id="path1161"
           style="fill:#ffffff;fill-opacity:1;fill-rule:nonzero;stroke:none"
           d="m 0,0 c -0.26,0.208 -0.532,0.311 -0.814,0.311 -0.488,0 -0.863,-0.148 -1.126,-0.446 -0.264,-0.297 -0.395,-0.723 -0.395,-1.279 0,-1.086 0.523,-1.628 1.57,-1.628 0.116,0 0.26,0.034 0.431,0.104 0.171,0.071 0.282,0.141 0.334,0.212 z m 0,-3.973 v 0.317 c -0.101,-0.112 -0.271,-0.208 -0.512,-0.291 -0.24,-0.083 -0.489,-0.124 -0.746,-0.124 -0.728,0 -1.301,0.231 -1.718,0.693 -0.418,0.461 -0.627,1.104 -0.627,1.93 0,0.825 0.24,1.497 0.719,2.015 0.48,0.519 1.08,0.778 1.802,0.778 0.396,0 0.757,-0.081 1.082,-0.244 v 2.092 l 1.219,0.292 v -7.458 z" />
      </g>
      <g
         transform="translate(1301.8568,804.5164)"
         id="g1163"
         style="fill:#ffffff">
        <path
           id="path1165"
           style="fill:#ffffff;fill-opacity:1;fill-rule:nonzero;stroke:none"
           d="M 0,0 H 2.564 C 2.48,0.764 2.057,1.146 1.297,1.146 0.601,1.146 0.169,0.764 0,0 m 3.685,-0.917 h -3.729 c 0.023,-0.416 0.166,-0.739 0.429,-0.969 0.263,-0.232 0.618,-0.347 1.063,-0.347 0.556,0 0.978,0.145 1.268,0.434 L 3.188,-2.73 c -0.429,-0.348 -1.069,-0.522 -1.92,-0.522 -0.797,0 -1.426,0.233 -1.89,0.7 -0.463,0.466 -0.694,1.117 -0.694,1.952 0,0.823 0.254,1.489 0.763,1.999 0.509,0.51 1.119,0.766 1.83,0.766 0.758,0 1.365,-0.226 1.824,-0.679 0.458,-0.451 0.687,-1.026 0.687,-1.725 0,-0.149 -0.034,-0.375 -0.103,-0.678" />
      </g>
    </g>
  </g>
</svg>
