<?xml version="1.0" encoding="UTF-8" standalone="no"?>
<svg
   xmlns:dc="http://purl.org/dc/elements/1.1/"
   xmlns:cc="http://creativecommons.org/ns#"
   xmlns:rdf="http://www.w3.org/1999/02/22-rdf-syntax-ns#"
   xmlns:svg="http://www.w3.org/2000/svg"
   xmlns="http://www.w3.org/2000/svg"
   xmlns:sodipodi="http://sodipodi.sourceforge.net/DTD/sodipodi-0.dtd"
   xmlns:inkscape="http://www.inkscape.org/namespaces/inkscape"
   sodipodi:docname="min_ciencia.svg"
   inkscape:version="1.0 (1.0+r73+1)"
   width="200px"
   height="32px"
   viewBox="0 0 200 32"
   version="1.1"
   id="SVGRoot">
  <defs
     id="defs9371" />
  <sodipodi:namedview
     inkscape:window-maximized="0"
     inkscape:window-y="27"
     inkscape:window-x="67"
     inkscape:window-height="1023"
     inkscape:window-width="1795"
     showgrid="false"
     inkscape:document-rotation="0"
     inkscape:current-layer="layer1"
     inkscape:document-units="px"
     inkscape:cy="43.239196"
     inkscape:cx="78.634504"
     inkscape:zoom="3.959798"
     inkscape:pageshadow="2"
     inkscape:pageopacity="0.0"
     borderopacity="1.0"
     bordercolor="#666666"
     pagecolor="#ffffff"
     id="base" />
  <metadata
     id="metadata9374">
    <rdf:RDF>
      <cc:Work
         rdf:about="">
        <dc:format>image/svg+xml</dc:format>
        <dc:type
           rdf:resource="http://purl.org/dc/dcmitype/StillImage" />
        <dc:title></dc:title>
      </cc:Work>
    </rdf:RDF>
  </metadata>
  <g
     id="layer1"
     inkscape:groupmode="layer"
     inkscape:label="Layer 1">
    <g
       transform="matrix(0.89224487,0,0,-0.89224487,-501.33565,65.72336)"
       id="g12488">
      <g
         transform="translate(678.8839,61.9153)"
         id="g1633">
        <path
           id="path1635"
           style="fill:#08532a;fill-opacity:1;fill-rule:nonzero;stroke:none"
           d="m 0,0 0.516,6.636 c 0.125,0.02 0.293,0.03 0.506,0.03 0.213,0 0.376,-0.01 0.487,-0.03 L 2.621,3.22 C 2.679,3.058 2.756,2.799 2.853,2.442 2.95,2.085 3.004,1.871 3.018,1.8 h 0.048 c 0.09,0.448 0.223,0.921 0.399,1.42 l 1.119,3.416 c 0.135,0.02 0.3,0.03 0.491,0.03 0.192,0 0.355,-0.01 0.492,-0.03 L 6.083,0 C 5.966,-0.033 5.844,-0.049 5.718,-0.049 5.591,-0.049 5.473,-0.04 5.362,-0.02 L 5.08,4.009 C 5.06,4.301 5.035,4.915 5.002,5.849 H 4.954 L 3.417,1.031 C 3.26,1.005 3.131,0.992 3.027,0.992 2.923,0.992 2.806,1.005 2.676,1.031 L 1.139,5.849 H 1.091 C 1.083,5.686 1.073,5.379 1.056,4.928 1.04,4.478 1.026,4.171 1.013,4.009 L 0.74,-0.02 C 0.622,-0.04 0.497,-0.049 0.365,-0.049 0.234,-0.049 0.112,-0.033 0,0" />
      </g>
      <g
         transform="translate(686.4156,61.9055)"
         id="g1637">
        <path
           id="path1639"
           style="fill:#08532a;fill-opacity:1;fill-rule:nonzero;stroke:none"
           d="m 0,0 v 6.646 c 0.092,0.02 0.21,0.029 0.355,0.029 0.146,0 0.275,-0.009 0.385,-0.029 V 0 C 0.63,-0.02 0.501,-0.03 0.355,-0.03 0.21,-0.03 0.092,-0.02 0,0" />
      </g>
      <g
         transform="translate(693.2967,68.5808)"
         id="g1641">
        <path
           id="path1643"
           style="fill:#08532a;fill-opacity:1;fill-rule:nonzero;stroke:none"
           d="m 0,0 0.058,-0.048 v -6.627 c -0.123,-0.02 -0.276,-0.03 -0.457,-0.03 -0.182,0 -0.337,0.01 -0.467,0.03 l -2.365,4.408 c -0.194,0.363 -0.416,0.81 -0.662,1.343 h -0.029 c 0.039,-1.207 0.059,-1.908 0.059,-2.103 v -3.648 c -0.137,-0.02 -0.257,-0.03 -0.361,-0.03 -0.104,0 -0.214,0.01 -0.33,0.03 V -0.03 C -4.438,-0.01 -4.291,0 -4.111,0 -3.933,0 -3.78,-0.01 -3.65,-0.03 l 2.366,-4.407 c 0.155,-0.28 0.381,-0.736 0.681,-1.373 h 0.028 c -0.045,0.831 -0.068,1.571 -0.068,2.219 v 3.105 c 0,0.175 0.026,0.3 0.078,0.374 C -0.513,-0.038 -0.409,0 -0.253,0 Z" />
      </g>
      <g
         transform="translate(694.9405,61.9055)"
         id="g1645">
        <path
           id="path1647"
           style="fill:#08532a;fill-opacity:1;fill-rule:nonzero;stroke:none"
           d="m 0,0 v 6.646 c 0.092,0.02 0.21,0.029 0.355,0.029 0.146,0 0.275,-0.009 0.385,-0.029 V 0 C 0.63,-0.02 0.501,-0.03 0.355,-0.03 0.21,-0.03 0.092,-0.02 0,0" />
      </g>
      <g
         transform="translate(696.6827,62.5183)"
         id="g1649">
        <path
           id="path1651"
           style="fill:#08532a;fill-opacity:1;fill-rule:nonzero;stroke:none"
           d="m 0,0 c 0.019,0.24 0.133,0.438 0.341,0.594 0.661,-0.448 1.31,-0.672 1.946,-0.672 0.46,0 0.823,0.098 1.089,0.292 0.266,0.195 0.4,0.46 0.4,0.798 0,0.5 -0.345,0.902 -1.032,1.207 L 1.605,2.715 C 0.729,3.091 0.292,3.636 0.292,4.35 c 0,0.247 0.052,0.48 0.155,0.701 0.104,0.22 0.248,0.411 0.433,0.574 0.185,0.162 0.408,0.29 0.667,0.384 C 1.806,6.103 2.095,6.15 2.413,6.15 3.042,6.15 3.684,5.995 4.34,5.684 4.34,5.431 4.24,5.223 4.038,5.061 3.72,5.223 3.427,5.339 3.158,5.411 2.888,5.482 2.64,5.518 2.413,5.518 2.205,5.518 2.019,5.489 1.854,5.431 1.688,5.372 1.545,5.296 1.425,5.201 1.305,5.108 1.213,4.998 1.148,4.871 1.083,4.745 1.05,4.613 1.05,4.477 1.05,4.191 1.133,3.969 1.298,3.81 1.464,3.651 1.696,3.509 1.994,3.386 L 3.094,2.91 C 4.06,2.487 4.545,1.901 4.545,1.148 4.545,0.584 4.353,0.13 3.97,-0.214 3.587,-0.558 2.993,-0.73 2.189,-0.73 1.398,-0.73 0.667,-0.486 0,0" />
      </g>
      <g
         transform="translate(704.5838,67.9094)"
         id="g1653">
        <path
           id="path1655"
           style="fill:#08532a;fill-opacity:1;fill-rule:nonzero;stroke:none"
           d="m 0,0 -0.536,0.01 v -6.014 c -0.102,-0.02 -0.224,-0.03 -0.365,-0.03 -0.141,0 -0.265,0.01 -0.374,0.03 V 0.01 L -1.8,0 h -1.245 c -0.02,0.11 -0.03,0.216 -0.03,0.316 0,0.101 0.01,0.21 0.03,0.326 H 1.226 C 1.265,0.558 1.284,0.454 1.284,0.331 1.284,0.11 1.132,0 0.827,0 Z" />
      </g>
      <g
         transform="translate(707.7178,69.4084)"
         id="g1657">
        <path
           id="path1659"
           style="fill:#08532a;fill-opacity:1;fill-rule:nonzero;stroke:none"
           d="M 0,0 1.858,1.08 C 2.046,0.963 2.17,0.745 2.228,0.428 L 0.233,-0.409 C 0.103,-0.319 0.025,-0.182 0,0 M -0.37,-6.499 -0.38,-6.87 c 0.22,0.013 0.422,0.018 0.603,0.018 H 2.89 c 0,-0.135 -0.006,-0.24 -0.019,-0.311 -0.046,-0.227 -0.205,-0.34 -0.477,-0.34 h -3.065 c -0.13,0 -0.233,0.043 -0.308,0.131 -0.073,0.087 -0.111,0.206 -0.111,0.355 v 6.102 l 0.058,0.058 h 3.756 c 0.013,-0.078 0.02,-0.179 0.02,-0.306 0,-0.127 -0.016,-0.238 -0.048,-0.336 H -0.38 l 0.01,-0.604 v -1.722 l 0.584,0.01 h 2.014 c 0.02,-0.115 0.03,-0.223 0.03,-0.321 0,-0.099 -0.01,-0.203 -0.03,-0.312 H 0.214 c -0.247,0 -0.442,0.004 -0.584,0.01 z" />
      </g>
      <g
         transform="translate(712.4759,67.9773)"
         id="g1661">
        <path
           id="path1663"
           style="fill:#08532a;fill-opacity:1;fill-rule:nonzero;stroke:none"
           d="m 0,0 v -2.657 c 0.137,0.008 0.303,0.012 0.501,0.015 0.198,0.003 0.433,0.005 0.706,0.005 0.272,0 0.498,0.036 0.676,0.109 0.178,0.071 0.323,0.166 0.433,0.283 0.11,0.118 0.188,0.257 0.233,0.417 0.045,0.16 0.069,0.328 0.069,0.505 0,0.183 -0.024,0.355 -0.069,0.515 -0.045,0.16 -0.123,0.298 -0.233,0.416 -0.11,0.118 -0.258,0.211 -0.443,0.28 -0.185,0.068 -0.416,0.102 -0.696,0.102 h -0.7 C 0.282,-0.01 0.123,-0.006 0,0 m -0.681,0.574 1.965,0.03 c 0.669,0 1.187,-0.169 1.558,-0.506 0.37,-0.338 0.555,-0.812 0.555,-1.423 0,-0.435 -0.115,-0.81 -0.341,-1.125 C 2.829,-2.765 2.517,-2.98 2.121,-3.098 2.388,-3.181 2.604,-3.444 2.774,-3.885 L 3.28,-5.197 C 3.35,-5.379 3.422,-5.526 3.493,-5.64 3.565,-5.753 3.633,-5.836 3.698,-5.887 3.594,-6.049 3.422,-6.13 3.182,-6.13 c -0.136,0 -0.242,0.035 -0.316,0.106 -0.074,0.072 -0.147,0.198 -0.219,0.38 L 2.083,-4.165 C 1.972,-3.873 1.841,-3.651 1.688,-3.498 1.536,-3.346 1.31,-3.27 1.012,-3.27 H 0 v -2.802 c -0.116,-0.02 -0.243,-0.03 -0.379,-0.03 -0.143,0 -0.263,0.01 -0.36,0.03 v 6.588 z" />
      </g>
      <g
         transform="translate(717.1561,61.9055)"
         id="g1665">
        <path
           id="path1667"
           style="fill:#08532a;fill-opacity:1;fill-rule:nonzero;stroke:none"
           d="m 0,0 v 6.646 c 0.092,0.02 0.21,0.029 0.355,0.029 0.146,0 0.275,-0.009 0.385,-0.029 V 0 C 0.63,-0.02 0.501,-0.03 0.355,-0.03 0.21,-0.03 0.092,-0.02 0,0" />
      </g>
      <g
         transform="translate(719.9495,66.2195)"
         id="g1669">
        <path
           id="path1671"
           style="fill:#08532a;fill-opacity:1;fill-rule:nonzero;stroke:none"
           d="m 0,0 c -0.032,-0.157 -0.053,-0.317 -0.063,-0.483 -0.01,-0.167 -0.015,-0.334 -0.015,-0.503 0,-0.293 0.023,-0.604 0.069,-0.932 0.045,-0.329 0.133,-0.635 0.262,-0.919 0.13,-0.282 0.315,-0.517 0.555,-0.703 0.24,-0.186 0.555,-0.278 0.944,-0.278 0.26,0 0.486,0.045 0.681,0.137 0.195,0.091 0.36,0.209 0.496,0.356 0.137,0.147 0.245,0.318 0.326,0.513 0.082,0.195 0.147,0.398 0.195,0.61 0.049,0.212 0.083,0.421 0.102,0.63 0.02,0.209 0.03,0.404 0.03,0.586 0,0.286 -0.024,0.595 -0.069,0.928 C 3.468,0.273 3.379,0.58 3.246,0.859 3.112,1.139 2.928,1.372 2.691,1.557 2.454,1.743 2.141,1.835 1.752,1.835 1.46,1.835 1.211,1.783 1.003,1.675 0.795,1.567 0.625,1.427 0.492,1.255 0.359,1.083 0.255,0.887 0.18,0.669 0.105,0.451 0.045,0.229 0,0 m 0.167,-3.866 c -0.689,0.609 -1.032,1.567 -1.032,2.87 0,0.513 0.056,0.981 0.17,1.407 0.113,0.424 0.281,0.788 0.501,1.089 C 0.027,1.802 0.3,2.036 0.628,2.201 0.956,2.366 1.33,2.449 1.752,2.449 2.2,2.449 2.589,2.356 2.919,2.171 3.251,1.987 3.525,1.737 3.742,1.422 3.96,1.107 4.12,0.743 4.224,0.328 4.328,-0.087 4.379,-0.526 4.379,-0.986 4.379,-1.499 4.323,-1.968 4.209,-2.392 4.096,-2.817 3.928,-3.18 3.708,-3.482 3.487,-3.784 3.214,-4.017 2.886,-4.183 2.558,-4.349 2.18,-4.431 1.752,-4.431 c -0.643,0 -1.171,0.188 -1.585,0.565" />
      </g>
      <g
         transform="translate(727.9776,62.489)"
         id="g1673">
        <path
           id="path1675"
           style="fill:#08532a;fill-opacity:1;fill-rule:nonzero;stroke:none"
           d="m 0,0 1.284,-0.01 c 0.371,0 0.676,0.074 0.915,0.22 0.24,0.146 0.43,0.34 0.57,0.582 0.139,0.239 0.236,0.51 0.291,0.81 C 3.115,1.901 3.143,2.201 3.143,2.5 3.143,2.936 3.12,3.337 3.075,3.701 3.03,4.066 2.935,4.38 2.793,4.644 2.651,4.908 2.453,5.112 2.199,5.259 1.946,5.406 1.642,5.479 1.284,5.479 L 0,5.488 Z M 2.929,-0.126 C 2.839,-0.204 2.728,-0.274 2.598,-0.336 2.469,-0.398 2.331,-0.449 2.185,-0.491 2.038,-0.534 1.893,-0.566 1.747,-0.589 1.6,-0.611 1.472,-0.623 1.362,-0.623 c -0.116,0 -0.343,0.004 -0.681,0.01 -0.337,0.007 -0.791,0.016 -1.362,0.03 l -0.058,0.057 v 6.53 l 0.058,0.058 c 0.565,0.02 1.222,0.03 1.975,0.03 C 1.8,6.092 2.222,6.004 2.559,5.829 2.897,5.654 3.167,5.416 3.372,5.114 3.576,4.812 3.72,4.456 3.805,4.043 3.889,3.631 3.931,3.192 3.931,2.725 3.931,2.401 3.917,2.101 3.888,1.825 3.858,1.549 3.805,1.294 3.728,1.061 3.65,0.828 3.545,0.611 3.415,0.414 3.285,0.215 3.124,0.035 2.929,-0.126" />
      </g>
      <g
         transform="translate(733.8558,64.2698)"
         id="g1677">
        <path
           id="path1679"
           style="fill:#08532a;fill-opacity:1;fill-rule:nonzero;stroke:none"
           d="M 0,0 0.564,0.01 H 1.683 C 1.69,0.01 1.769,0.009 1.921,0.005 2.074,0.002 2.183,0 2.247,0 L 1.635,1.849 C 1.388,2.608 1.222,3.149 1.138,3.474 H 1.09 C 0.967,2.994 0.856,2.608 0.759,2.316 Z M 2.452,-0.632 1.771,-0.642 H 0.467 l -0.682,0.01 -0.564,-1.743 c -0.084,-0.019 -0.188,-0.029 -0.312,-0.029 -0.123,0 -0.249,0.017 -0.379,0.05 l -0.019,0.029 2.228,6.606 c 0.11,0.02 0.256,0.03 0.438,0.03 0.181,0 0.315,-0.01 0.399,-0.03 L 3.804,-2.325 C 3.701,-2.39 3.571,-2.422 3.416,-2.422 c -0.156,0 -0.266,0.025 -0.331,0.077 -0.065,0.052 -0.12,0.156 -0.166,0.311 z" />
      </g>
      <g
         transform="translate(651.6168,56.3874)"
         id="g1681">
        <path
           id="path1683"
           style="fill:#08532a;fill-opacity:1;fill-rule:nonzero;stroke:none"
           d="m 0,0 v 0.097 c 0,0.215 -0.023,0.411 -0.068,0.589 -0.045,0.179 -0.116,0.335 -0.213,0.467 -0.098,0.133 -0.223,0.238 -0.375,0.311 -0.153,0.075 -0.336,0.113 -0.551,0.113 -0.473,0 -0.817,-0.213 -1.031,-0.638 -0.214,-0.424 -0.321,-1.068 -0.321,-1.931 0,-0.688 0.132,-1.222 0.394,-1.601 0.263,-0.38 0.622,-0.57 1.075,-0.57 0.241,0 0.501,0.058 0.784,0.171 0.282,0.114 0.586,0.293 0.909,0.54 0.137,-0.09 0.267,-0.217 0.39,-0.38 C 1.116,-2.993 1.194,-3.15 1.226,-3.298 1.084,-3.441 0.917,-3.573 0.725,-3.693 0.533,-3.813 0.328,-3.918 0.107,-4.009 -0.113,-4.1 -0.344,-4.17 -0.584,-4.223 -0.824,-4.275 -1.064,-4.3 -1.303,-4.3 c -0.48,0 -0.886,0.092 -1.217,0.276 -0.331,0.185 -0.602,0.435 -0.813,0.75 -0.21,0.314 -0.363,0.679 -0.457,1.095 -0.094,0.415 -0.141,0.852 -0.141,1.314 0,0.583 0.072,1.094 0.214,1.532 0.143,0.438 0.336,0.801 0.579,1.09 0.243,0.288 0.529,0.506 0.857,0.651 0.327,0.147 0.676,0.22 1.046,0.22 0.383,0 0.728,-0.052 1.036,-0.156 C 0.109,2.368 0.37,2.228 0.585,2.049 0.798,1.87 0.964,1.662 1.081,1.426 1.197,1.189 1.256,0.935 1.256,0.662 c 0,-0.487 -0.247,-0.73 -0.74,-0.73 -0.071,0 -0.149,0.005 -0.234,0.015 C 0.198,-0.043 0.104,-0.026 0,0" />
      </g>
      <g
         transform="translate(653.3589,52.2229)"
         id="g1685">
        <path
           id="path1687"
           style="fill:#08532a;fill-opacity:1;fill-rule:nonzero;stroke:none"
           d="m 0,0 v 6.646 c 0.163,0.032 0.378,0.049 0.643,0.049 0.264,0 0.488,-0.017 0.671,-0.049 V 0 C 1.131,-0.033 0.907,-0.048 0.643,-0.048 0.378,-0.048 0.163,-0.033 0,0" />
      </g>
      <g
         transform="translate(658.867,59.3845)"
         id="g1689">
        <path
           id="path1691"
           style="fill:#08532a;fill-opacity:1;fill-rule:nonzero;stroke:none"
           d="m 0,0 -1.119,0.721 -1.148,-0.818 c -0.104,0.039 -0.211,0.111 -0.322,0.214 -0.11,0.103 -0.181,0.215 -0.213,0.331 l 1.139,1.138 c 0.369,0.079 0.729,0.079 1.08,0 L 0.516,0.536 C 0.478,0.413 0.407,0.302 0.307,0.205 0.206,0.107 0.104,0.04 0,0 m -1.926,-5.498 -0.01,-0.603 0.681,0.019 H 1.129 C 1.129,-6.29 1.119,-6.448 1.1,-6.559 1.029,-6.974 0.749,-7.182 0.263,-7.182 h -2.734 c -0.234,0 -0.418,0.071 -0.551,0.21 -0.133,0.139 -0.198,0.329 -0.198,0.569 v 5.82 l 0.067,0.067 h 4.059 c 0.031,-0.161 0.048,-0.336 0.048,-0.52 0,-0.185 -0.036,-0.378 -0.107,-0.579 h -2.783 l 0.01,-0.672 v -1.002 l 0.632,0.01 H 0.351 C 0.403,-3.428 0.428,-3.606 0.428,-3.814 0.428,-4.022 0.403,-4.2 0.351,-4.35 h -2.277 z" />
      </g>
      <g
         transform="translate(665.5613,58.928)"
         id="g1693">
        <path
           id="path1695"
           style="fill:#08532a;fill-opacity:1;fill-rule:nonzero;stroke:none"
           d="m 0,0 0.068,-0.068 v -6.618 c -0.201,-0.045 -0.454,-0.067 -0.759,-0.067 -0.305,0 -0.571,0.015 -0.798,0.048 l -1.791,3.766 c -0.259,0.57 -0.453,1.024 -0.584,1.362 l -0.038,-0.01 c 0.071,-0.914 0.107,-1.796 0.107,-2.647 v -2.471 c -0.182,-0.033 -0.388,-0.048 -0.618,-0.048 -0.23,0 -0.43,0.015 -0.598,0.048 v 6.627 c 0.188,0.045 0.434,0.068 0.739,0.068 0.305,0 0.571,-0.017 0.798,-0.049 l 1.771,-3.766 0.633,-1.44 0.028,0.01 c -0.064,0.941 -0.097,1.829 -0.097,2.666 v 1.781 c 0,0.292 0.055,0.5 0.165,0.623 C -0.863,-0.062 -0.678,0 -0.418,0 Z" />
      </g>
      <g
         transform="translate(670.1255,56.3874)"
         id="g1697">
        <path
           id="path1699"
           style="fill:#08532a;fill-opacity:1;fill-rule:nonzero;stroke:none"
           d="m 0,0 v 0.097 c 0,0.215 -0.023,0.411 -0.068,0.589 -0.045,0.179 -0.116,0.335 -0.213,0.467 -0.098,0.133 -0.223,0.238 -0.375,0.311 -0.153,0.075 -0.336,0.113 -0.551,0.113 -0.473,0 -0.817,-0.213 -1.031,-0.638 -0.214,-0.424 -0.321,-1.068 -0.321,-1.931 0,-0.688 0.132,-1.222 0.394,-1.601 0.263,-0.38 0.622,-0.57 1.075,-0.57 0.24,0 0.501,0.058 0.784,0.171 0.282,0.114 0.586,0.293 0.909,0.54 0.137,-0.09 0.267,-0.217 0.39,-0.38 C 1.116,-2.993 1.194,-3.15 1.226,-3.298 1.084,-3.441 0.916,-3.573 0.725,-3.693 0.533,-3.813 0.328,-3.918 0.107,-4.009 -0.113,-4.1 -0.344,-4.17 -0.584,-4.223 -0.824,-4.275 -1.064,-4.3 -1.303,-4.3 c -0.481,0 -0.886,0.092 -1.217,0.276 -0.331,0.185 -0.602,0.435 -0.813,0.75 -0.21,0.314 -0.363,0.679 -0.457,1.095 -0.094,0.415 -0.141,0.852 -0.141,1.314 0,0.583 0.071,1.094 0.214,1.532 0.143,0.438 0.336,0.801 0.579,1.09 0.243,0.288 0.529,0.506 0.856,0.651 0.328,0.147 0.677,0.22 1.047,0.22 0.382,0 0.728,-0.052 1.036,-0.156 C 0.109,2.368 0.37,2.228 0.585,2.049 0.798,1.87 0.964,1.662 1.081,1.426 1.197,1.189 1.256,0.935 1.256,0.662 c 0,-0.487 -0.247,-0.73 -0.74,-0.73 -0.071,0 -0.149,0.005 -0.234,0.015 C 0.198,-0.043 0.104,-0.026 0,0" />
      </g>
      <g
         transform="translate(671.8677,52.2229)"
         id="g1701">
        <path
           id="path1703"
           style="fill:#08532a;fill-opacity:1;fill-rule:nonzero;stroke:none"
           d="m 0,0 v 6.646 c 0.163,0.032 0.378,0.049 0.643,0.049 0.264,0 0.488,-0.017 0.671,-0.049 V 0 C 1.131,-0.033 0.907,-0.048 0.643,-0.048 0.378,-0.048 0.163,-0.033 0,0" />
      </g>
      <g
         transform="translate(675.5067,54.7624)"
         id="g1705">
        <path
           id="path1707"
           style="fill:#08532a;fill-opacity:1;fill-rule:nonzero;stroke:none"
           d="M 0,0 0.438,0.01 H 1.275 L 1.683,0 1.392,0.993 C 1.171,1.732 0.996,2.361 0.866,2.881 H 0.808 C 0.749,2.601 0.606,2.053 0.379,1.236 Z M 1.995,-1.032 1.518,-1.041 H 0.156 l -0.477,0.009 -0.458,-1.517 c -0.136,-0.033 -0.329,-0.049 -0.578,-0.049 -0.25,0 -0.453,0.029 -0.609,0.088 l -0.049,0.068 2.171,6.548 c 0.24,0.033 0.5,0.049 0.778,0.049 0.279,0 0.522,-0.019 0.73,-0.058 L 3.795,-2.452 C 3.606,-2.563 3.381,-2.618 3.119,-2.618 c -0.263,0 -0.452,0.049 -0.565,0.146 -0.113,0.097 -0.209,0.283 -0.287,0.555 z" />
      </g>
      <g
         transform="translate(680.8397,53.3518)"
         id="g1709">
        <path
           id="path1711"
           style="fill:#08532a;fill-opacity:1;fill-rule:nonzero;stroke:none"
           d="m 0,0 c 0.078,-0.188 0.117,-0.425 0.117,-0.711 0,-0.227 -0.036,-0.448 -0.107,-0.661 -0.072,-0.215 -0.174,-0.414 -0.306,-0.599 -0.134,-0.185 -0.3,-0.348 -0.497,-0.491 -0.198,-0.142 -0.424,-0.254 -0.677,-0.331 -0.103,0.052 -0.185,0.126 -0.243,0.224 -0.058,0.097 -0.084,0.223 -0.078,0.379 0.234,0.091 0.43,0.222 0.589,0.395 0.159,0.171 0.251,0.368 0.278,0.588 -0.234,0.033 -0.378,0.098 -0.433,0.195 -0.056,0.097 -0.083,0.259 -0.083,0.486 0,0.163 0.013,0.283 0.038,0.36 0.027,0.078 0.062,0.138 0.108,0.181 0.045,0.041 0.136,0.075 0.272,0.101 0.136,0.027 0.263,0.039 0.38,0.039 C -0.357,0.155 -0.143,0.104 0,0" />
      </g>
      <g
         transform="translate(685.6873,57.0686)"
         id="g1713">
        <path
           id="path1715"
           style="fill:#08532a;fill-opacity:1;fill-rule:nonzero;stroke:none"
           d="m 0,0 v -4.846 c -0.188,-0.032 -0.408,-0.048 -0.658,-0.048 -0.249,0 -0.468,0.016 -0.656,0.048 V 0 l 0.01,0.72 -0.594,-0.01 h -1.08 c -0.033,0.163 -0.049,0.344 -0.049,0.546 0,0.201 0.016,0.383 0.049,0.544 H 1.673 C 1.719,1.639 1.741,1.461 1.741,1.271 1.741,1.079 1.686,0.938 1.576,0.847 1.466,0.756 1.287,0.71 1.041,0.71 H 0.583 L -0.01,0.72 Z" />
      </g>
      <g
         transform="translate(689.1815,53.8869)"
         id="g1717">
        <path
           id="path1719"
           style="fill:#08532a;fill-opacity:1;fill-rule:nonzero;stroke:none"
           d="m 0,0 -0.01,-0.603 0.681,0.019 h 2.384 c 0,-0.208 -0.01,-0.367 -0.029,-0.477 C 2.955,-1.476 2.675,-1.684 2.189,-1.684 h -2.734 c -0.234,0 -0.418,0.07 -0.55,0.21 -0.134,0.139 -0.199,0.328 -0.199,0.569 v 5.819 l 0.068,0.068 H 2.832 C 2.863,4.82 2.88,4.646 2.88,4.462 2.88,4.277 2.845,4.084 2.773,3.882 H -0.01 L 0,3.211 V 2.209 l 0.632,0.01 H 2.277 C 2.329,2.069 2.354,1.891 2.354,1.684 2.354,1.476 2.329,1.297 2.277,1.148 H 0 Z" />
      </g>
      <g
         transform="translate(696.605,56.3874)"
         id="g1721">
        <path
           id="path1723"
           style="fill:#08532a;fill-opacity:1;fill-rule:nonzero;stroke:none"
           d="m 0,0 v 0.097 c 0,0.215 -0.023,0.411 -0.068,0.589 -0.045,0.179 -0.116,0.335 -0.213,0.467 -0.098,0.133 -0.223,0.238 -0.375,0.311 -0.153,0.075 -0.336,0.113 -0.551,0.113 -0.473,0 -0.817,-0.213 -1.031,-0.638 -0.214,-0.424 -0.321,-1.068 -0.321,-1.931 0,-0.688 0.132,-1.222 0.394,-1.601 0.263,-0.38 0.622,-0.57 1.075,-0.57 0.241,0 0.501,0.058 0.784,0.171 0.282,0.114 0.586,0.293 0.909,0.54 0.137,-0.09 0.267,-0.217 0.39,-0.38 C 1.116,-2.993 1.194,-3.15 1.226,-3.298 1.084,-3.441 0.916,-3.573 0.725,-3.693 0.533,-3.813 0.328,-3.918 0.107,-4.009 -0.113,-4.1 -0.344,-4.17 -0.584,-4.223 -0.824,-4.275 -1.064,-4.3 -1.303,-4.3 c -0.481,0 -0.886,0.092 -1.217,0.276 -0.331,0.185 -0.602,0.435 -0.813,0.75 -0.21,0.314 -0.363,0.679 -0.457,1.095 -0.094,0.415 -0.141,0.852 -0.141,1.314 0,0.583 0.072,1.094 0.214,1.532 0.143,0.438 0.336,0.801 0.579,1.09 0.243,0.288 0.529,0.506 0.856,0.651 0.328,0.147 0.677,0.22 1.047,0.22 0.382,0 0.728,-0.052 1.036,-0.156 C 0.109,2.368 0.37,2.228 0.585,2.049 0.798,1.87 0.964,1.662 1.081,1.426 1.197,1.189 1.256,0.935 1.256,0.662 c 0,-0.487 -0.247,-0.73 -0.74,-0.73 -0.071,0 -0.149,0.005 -0.234,0.015 C 0.198,-0.043 0.104,-0.026 0,0" />
      </g>
      <g
         transform="translate(703.6121,58.928)"
         id="g1725">
        <path
           id="path1727"
           style="fill:#08532a;fill-opacity:1;fill-rule:nonzero;stroke:none"
           d="m 0,0 0.068,-0.068 v -6.618 c -0.201,-0.045 -0.454,-0.067 -0.759,-0.067 -0.305,0 -0.571,0.015 -0.798,0.048 l -1.791,3.766 c -0.258,0.57 -0.453,1.024 -0.583,1.362 l -0.039,-0.01 c 0.071,-0.914 0.107,-1.796 0.107,-2.647 v -2.471 c -0.182,-0.033 -0.388,-0.048 -0.618,-0.048 -0.23,0 -0.43,0.015 -0.598,0.048 v 6.627 c 0.188,0.045 0.434,0.068 0.739,0.068 0.305,0 0.571,-0.017 0.799,-0.049 l 1.77,-3.766 0.633,-1.44 0.029,0.01 c -0.065,0.941 -0.098,1.829 -0.098,2.666 v 1.781 c 0,0.292 0.056,0.5 0.166,0.623 C -0.863,-0.062 -0.678,0 -0.418,0 Z" />
      </g>
      <g
         transform="translate(708.7798,55.5408)"
         id="g1729">
        <path
           id="path1731"
           style="fill:#08532a;fill-opacity:1;fill-rule:nonzero;stroke:none"
           d="m 0,0 c 0,1.629 -0.48,2.443 -1.441,2.443 -0.96,0 -1.44,-0.814 -1.44,-2.443 0,-1.622 0.48,-2.432 1.44,-2.432 C -0.48,-2.432 0,-1.622 0,0 m -3.212,-2.86 c -0.694,0.596 -1.041,1.55 -1.041,2.86 0,0.551 0.063,1.042 0.19,1.47 0.127,0.428 0.311,0.79 0.555,1.085 0.243,0.295 0.538,0.52 0.885,0.676 0.347,0.156 0.745,0.234 1.192,0.234 0.441,0 0.836,-0.078 1.183,-0.234 C 0.098,3.075 0.392,2.85 0.632,2.555 0.872,2.26 1.055,1.896 1.182,1.465 1.308,1.034 1.372,0.545 1.372,0 c 0,-0.544 -0.064,-1.032 -0.19,-1.459 -0.127,-0.429 -0.31,-0.79 -0.55,-1.085 -0.24,-0.296 -0.534,-0.521 -0.88,-0.677 -0.347,-0.155 -0.742,-0.233 -1.183,-0.233 -0.707,0 -1.3,0.198 -1.781,0.594" />
      </g>
      <g
         transform="translate(713.1876,53.3323)"
         id="g1733">
        <path
           id="path1735"
           style="fill:#08532a;fill-opacity:1;fill-rule:nonzero;stroke:none"
           d="M 0,0 H 1.81 C 1.81,-0.195 1.797,-0.36 1.771,-0.496 1.7,-0.918 1.417,-1.129 0.924,-1.129 H -1.44 c -0.233,0 -0.418,0.07 -0.555,0.21 -0.136,0.138 -0.204,0.328 -0.204,0.568 v 5.878 l 0.068,0.069 h 0.486 c 0.26,0 0.451,-0.067 0.575,-0.2 0.123,-0.133 0.184,-0.346 0.184,-0.637 V -0.039 C -0.606,-0.013 -0.311,0 0,0" />
      </g>
      <g
         transform="translate(719.5125,55.5408)"
         id="g1737">
        <path
           id="path1739"
           style="fill:#08532a;fill-opacity:1;fill-rule:nonzero;stroke:none"
           d="m 0,0 c 0,1.629 -0.48,2.443 -1.441,2.443 -0.96,0 -1.44,-0.814 -1.44,-2.443 0,-1.622 0.48,-2.432 1.44,-2.432 C -0.48,-2.432 0,-1.622 0,0 m -3.212,-2.86 c -0.694,0.596 -1.041,1.55 -1.041,2.86 0,0.551 0.063,1.042 0.19,1.47 0.127,0.428 0.311,0.79 0.555,1.085 0.243,0.295 0.539,0.52 0.885,0.676 0.347,0.156 0.745,0.234 1.192,0.234 0.441,0 0.836,-0.078 1.183,-0.234 C 0.098,3.075 0.392,2.85 0.632,2.555 0.872,2.26 1.055,1.896 1.182,1.465 1.308,1.034 1.372,0.545 1.372,0 c 0,-0.544 -0.064,-1.032 -0.19,-1.459 -0.127,-0.429 -0.31,-0.79 -0.55,-1.085 -0.24,-0.296 -0.534,-0.521 -0.88,-0.677 -0.347,-0.155 -0.742,-0.233 -1.183,-0.233 -0.707,0 -1.3,0.198 -1.781,0.594" />
      </g>
      <g
         transform="translate(724.2806,55.8625)"
         id="g1741">
        <path
           id="path1743"
           style="fill:#08532a;fill-opacity:1;fill-rule:nonzero;stroke:none"
           d="m 0,0 1.508,0.009 c 0.597,0 0.896,-0.276 0.896,-0.827 v -2.549 c -0.773,-0.273 -1.62,-0.408 -2.541,-0.408 -0.467,0 -0.877,0.08 -1.23,0.242 -0.355,0.162 -0.648,0.392 -0.881,0.692 -0.233,0.298 -0.409,0.658 -0.526,1.079 -0.116,0.422 -0.175,0.889 -0.175,1.402 0,0.596 0.084,1.115 0.253,1.557 0.169,0.441 0.393,0.805 0.671,1.095 0.28,0.288 0.603,0.502 0.969,0.641 0.366,0.14 0.751,0.21 1.153,0.21 0.83,0 1.593,-0.233 2.287,-0.701 C 2.364,2.254 2.294,2.071 2.174,1.892 2.054,1.714 1.923,1.579 1.781,1.488 1.262,1.858 0.717,2.043 0.146,2.043 c -1.168,0 -1.751,-0.795 -1.751,-2.383 0,-1.59 0.579,-2.386 1.741,-2.386 0.357,0 0.701,0.04 1.031,0.118 v 0.866 c 0,0.143 0.002,0.268 0.005,0.375 0.003,0.106 0.008,0.196 0.015,0.267 H 0.525 c -0.227,0 -0.387,0.045 -0.482,0.137 -0.093,0.09 -0.141,0.236 -0.141,0.438 0,0.168 0.033,0.343 0.098,0.525" />
      </g>
      <g
         transform="translate(727.7059,52.2229)"
         id="g1745">
        <path
           id="path1747"
           style="fill:#08532a;fill-opacity:1;fill-rule:nonzero;stroke:none"
           d="m 0,0 v 6.646 c 0.163,0.032 0.378,0.049 0.643,0.049 0.264,0 0.488,-0.017 0.671,-0.049 V 0 C 1.131,-0.033 0.907,-0.048 0.643,-0.048 0.378,-0.048 0.163,-0.033 0,0" />
      </g>
      <g
         transform="translate(731.6185,54.7624)"
         id="g1749">
        <path
           id="path1751"
           style="fill:#08532a;fill-opacity:1;fill-rule:nonzero;stroke:none"
           d="M 0,0 0.438,0.01 H 1.275 L 1.683,0 1.392,0.993 C 1.171,1.732 0.996,2.361 0.866,2.881 H 0.808 C 0.749,2.601 0.606,2.053 0.379,1.236 Z M 1.995,-1.032 1.518,-1.041 H 0.156 l -0.477,0.009 -0.458,-1.517 c -0.136,-0.033 -0.329,-0.049 -0.578,-0.049 -0.25,0 -0.453,0.029 -0.609,0.088 l -0.049,0.068 2.171,6.548 c 0.24,0.033 0.5,0.049 0.778,0.049 0.279,0 0.522,-0.019 0.73,-0.058 L 3.795,-2.452 C 3.606,-2.563 3.381,-2.618 3.119,-2.618 c -0.263,0 -0.452,0.049 -0.565,0.146 -0.113,0.097 -0.209,0.283 -0.287,0.555 z" />
      </g>
      <g
         transform="translate(737.2327,53.3518)"
         id="g1753">
        <path
           id="path1755"
           style="fill:#08532a;fill-opacity:1;fill-rule:nonzero;stroke:none"
           d="m 0,0 c 0.078,-0.188 0.117,-0.425 0.117,-0.711 0,-0.227 -0.036,-0.448 -0.107,-0.661 -0.072,-0.215 -0.173,-0.414 -0.306,-0.599 -0.134,-0.185 -0.299,-0.348 -0.497,-0.491 -0.198,-0.142 -0.424,-0.254 -0.676,-0.331 -0.104,0.052 -0.186,0.126 -0.244,0.224 -0.058,0.097 -0.084,0.223 -0.077,0.379 0.233,0.091 0.429,0.222 0.588,0.395 0.159,0.171 0.251,0.368 0.278,0.588 -0.233,0.033 -0.378,0.098 -0.433,0.195 -0.055,0.097 -0.083,0.259 -0.083,0.486 0,0.163 0.013,0.283 0.038,0.36 0.027,0.078 0.062,0.138 0.108,0.181 0.045,0.041 0.137,0.075 0.273,0.101 0.135,0.027 0.262,0.039 0.379,0.039 C -0.357,0.155 -0.143,0.104 0,0" />
      </g>
      <g
         transform="translate(614.5215,42.5403)"
         id="g1757">
        <path
           id="path1759"
           style="fill:#08532a;fill-opacity:1;fill-rule:nonzero;stroke:none"
           d="m 0,0 v 6.646 c 0.163,0.032 0.378,0.049 0.643,0.049 0.264,0 0.488,-0.017 0.671,-0.049 V 0 C 1.131,-0.033 0.907,-0.048 0.643,-0.048 0.378,-0.048 0.163,-0.033 0,0" />
      </g>
      <g
         transform="translate(622.1026,49.2453)"
         id="g1761">
        <path
           id="path1763"
           style="fill:#08532a;fill-opacity:1;fill-rule:nonzero;stroke:none"
           d="m 0,0 0.068,-0.068 v -6.618 c -0.201,-0.045 -0.454,-0.067 -0.759,-0.067 -0.305,0 -0.571,0.015 -0.798,0.048 l -1.791,3.766 c -0.259,0.571 -0.453,1.024 -0.583,1.362 l -0.039,-0.01 c 0.071,-0.914 0.107,-1.796 0.107,-2.646 v -2.472 c -0.182,-0.033 -0.388,-0.048 -0.618,-0.048 -0.23,0 -0.43,0.015 -0.598,0.048 v 6.627 c 0.188,0.045 0.434,0.068 0.739,0.068 0.305,0 0.571,-0.017 0.798,-0.049 l 1.771,-3.766 0.633,-1.44 0.029,0.01 c -0.065,0.941 -0.098,1.83 -0.098,2.666 v 1.781 c 0,0.292 0.055,0.5 0.166,0.623 C -0.863,-0.062 -0.678,0 -0.418,0 Z" />
      </g>
      <g
         transform="translate(627.2701,45.8581)"
         id="g1765">
        <path
           id="path1767"
           style="fill:#08532a;fill-opacity:1;fill-rule:nonzero;stroke:none"
           d="m 0,0 c 0,1.629 -0.48,2.443 -1.441,2.443 -0.96,0 -1.44,-0.814 -1.44,-2.443 0,-1.622 0.48,-2.432 1.44,-2.432 C -0.48,-2.432 0,-1.622 0,0 m -3.212,-2.86 c -0.694,0.596 -1.041,1.55 -1.041,2.86 0,0.551 0.063,1.042 0.19,1.47 0.127,0.428 0.311,0.79 0.555,1.085 0.243,0.295 0.539,0.52 0.885,0.676 0.347,0.156 0.745,0.234 1.192,0.234 0.441,0 0.836,-0.078 1.183,-0.234 C 0.099,3.075 0.392,2.85 0.632,2.555 0.872,2.26 1.055,1.896 1.182,1.465 1.308,1.034 1.372,0.545 1.372,0 c 0,-0.544 -0.064,-1.031 -0.19,-1.459 -0.127,-0.429 -0.31,-0.79 -0.55,-1.085 -0.24,-0.295 -0.533,-0.521 -0.88,-0.677 -0.347,-0.155 -0.742,-0.233 -1.183,-0.233 -0.707,0 -1.3,0.198 -1.781,0.594" />
      </g>
      <g
         transform="translate(631.6778,43.6594)"
         id="g1769">
        <path
           id="path1771"
           style="fill:#08532a;fill-opacity:1;fill-rule:nonzero;stroke:none"
           d="m 0,0 1.412,5.527 c 0.123,0.032 0.304,0.049 0.544,0.049 0.24,0 0.448,-0.03 0.623,-0.088 L 2.637,5.411 0.759,-1.119 C 0.5,-1.152 0.203,-1.167 -0.131,-1.167 c -0.335,0 -0.573,0.04 -0.715,0.121 -0.143,0.08 -0.248,0.242 -0.311,0.482 l -1.704,5.975 c 0.292,0.13 0.545,0.194 0.76,0.194 0.213,0 0.376,-0.051 0.486,-0.151 0.11,-0.1 0.195,-0.264 0.253,-0.491 L -0.486,1.83 C -0.35,1.33 -0.218,0.756 -0.087,0.107 -0.075,0.035 -0.045,0 0,0" />
      </g>
      <g
         transform="translate(636.2125,45.0798)"
         id="g1773">
        <path
           id="path1775"
           style="fill:#08532a;fill-opacity:1;fill-rule:nonzero;stroke:none"
           d="M 0,0 0.438,0.01 H 1.275 L 1.683,0 1.392,0.993 C 1.171,1.732 0.996,2.361 0.866,2.881 H 0.808 C 0.749,2.602 0.606,2.053 0.379,1.236 Z M 1.995,-1.032 1.518,-1.041 H 0.156 l -0.477,0.009 -0.458,-1.517 c -0.135,-0.033 -0.329,-0.049 -0.578,-0.049 -0.25,0 -0.453,0.029 -0.609,0.088 l -0.049,0.068 2.171,6.548 c 0.24,0.033 0.5,0.05 0.778,0.05 0.279,0 0.522,-0.02 0.731,-0.058 l 2.13,-6.55 c -0.189,-0.11 -0.414,-0.165 -0.676,-0.165 -0.263,0 -0.452,0.048 -0.565,0.145 -0.113,0.098 -0.208,0.283 -0.287,0.555 z" />
      </g>
      <g
         transform="translate(642.2747,41.801)"
         id="g1777">
        <path
           id="path1779"
           style="fill:#08532a;fill-opacity:1;fill-rule:nonzero;stroke:none"
           d="M 0,0 C 0.026,0.11 0.055,0.217 0.088,0.321 0.12,0.424 0.156,0.524 0.194,0.622 -0.227,0.662 -0.583,0.783 -0.871,0.987 -1.159,1.192 -1.397,1.45 -1.582,1.761 -1.767,2.072 -1.9,2.424 -1.98,2.817 c -0.082,0.392 -0.122,0.799 -0.122,1.222 0,0.583 0.071,1.094 0.214,1.532 0.143,0.438 0.336,0.802 0.579,1.09 0.243,0.288 0.528,0.506 0.856,0.651 0.328,0.147 0.677,0.22 1.047,0.22 0.383,0 0.728,-0.053 1.036,-0.156 C 1.938,7.272 2.199,7.131 2.414,6.953 2.627,6.774 2.792,6.566 2.91,6.33 3.026,6.093 3.085,5.839 3.085,5.566 3.085,5.079 2.838,4.836 2.345,4.836 2.274,4.836 2.196,4.841 2.111,4.851 2.027,4.86 1.933,4.878 1.829,4.904 V 5.001 C 1.829,5.216 1.806,5.412 1.761,5.59 1.716,5.769 1.645,5.924 1.547,6.057 1.45,6.19 1.325,6.294 1.172,6.368 1.02,6.443 0.837,6.48 0.622,6.48 0.149,6.48 -0.195,6.268 -0.409,5.843 -0.623,5.418 -0.73,4.775 -0.73,3.912 c 0,-0.688 0.132,-1.222 0.395,-1.601 0.262,-0.38 0.621,-0.57 1.074,-0.57 0.24,0 0.501,0.057 0.784,0.171 0.282,0.114 0.585,0.293 0.909,0.54 C 2.569,2.361 2.699,2.234 2.822,2.072 2.945,1.911 3.023,1.754 3.055,1.605 2.809,1.358 2.494,1.145 2.111,0.962 1.729,0.782 1.327,0.668 0.905,0.622 0.859,0.544 0.827,0.474 0.807,0.409 1.1,0.389 1.33,0.301 1.498,0.146 1.667,-0.01 1.751,-0.225 1.751,-0.497 1.751,-0.633 1.719,-0.76 1.654,-0.876 1.589,-0.993 1.5,-1.097 1.387,-1.188 1.273,-1.279 1.142,-1.35 0.992,-1.402 0.843,-1.454 0.684,-1.479 0.516,-1.479 c -0.35,0 -0.626,0.07 -0.828,0.213 0.007,0.24 0.082,0.435 0.225,0.585 0.123,-0.085 0.278,-0.127 0.466,-0.127 0.26,0 0.39,0.107 0.39,0.321 0,0.117 -0.037,0.199 -0.107,0.248 -0.072,0.049 -0.16,0.073 -0.263,0.073 -0.078,0 -0.146,-0.009 -0.205,-0.029 C 0.098,-0.143 0.032,-0.078 0,0" />
      </g>
      <g
         transform="translate(649.9532,45.8581)"
         id="g1781">
        <path
           id="path1783"
           style="fill:#08532a;fill-opacity:1;fill-rule:nonzero;stroke:none"
           d="m 0,0 c 0,1.629 -0.48,2.443 -1.441,2.443 -0.96,0 -1.44,-0.814 -1.44,-2.443 0,-1.622 0.48,-2.432 1.44,-2.432 C -0.48,-2.432 0,-1.622 0,0 M -1.441,4.059 -1.937,4.292 C -1.982,4.318 -2.031,4.339 -2.083,4.355 -2.135,4.372 -2.187,4.379 -2.238,4.379 -2.375,4.386 -2.501,4.309 -2.618,4.146 L -2.716,4.01 c -0.129,0.006 -0.257,0.046 -0.383,0.116 -0.127,0.072 -0.213,0.163 -0.258,0.273 l 0.087,0.185 c 0.24,0.525 0.61,0.789 1.11,0.789 0.097,0.005 0.194,-0.007 0.291,-0.04 0.097,-0.032 0.202,-0.075 0.312,-0.126 L -1.061,4.973 C -1.009,4.947 -0.958,4.926 -0.91,4.91 -0.861,4.894 -0.811,4.885 -0.76,4.885 -0.623,4.879 -0.497,4.957 -0.38,5.12 l 0.098,0.126 c 0.13,0 0.258,-0.036 0.384,-0.108 C 0.229,5.067 0.314,4.977 0.359,4.867 L 0.272,4.682 C 0.026,4.156 -0.344,3.893 -0.837,3.893 c -0.201,0 -0.402,0.055 -0.604,0.166 M -3.212,-2.86 c -0.694,0.596 -1.041,1.55 -1.041,2.86 0,0.551 0.063,1.042 0.19,1.47 0.127,0.428 0.311,0.79 0.555,1.085 0.243,0.295 0.539,0.52 0.885,0.676 0.347,0.156 0.745,0.234 1.192,0.234 0.441,0 0.836,-0.078 1.183,-0.234 C 0.099,3.075 0.392,2.85 0.632,2.555 0.872,2.26 1.055,1.896 1.182,1.465 1.308,1.034 1.372,0.545 1.372,0 c 0,-0.544 -0.064,-1.031 -0.19,-1.459 -0.127,-0.429 -0.31,-0.79 -0.55,-1.085 -0.24,-0.295 -0.533,-0.521 -0.88,-0.677 -0.347,-0.155 -0.742,-0.233 -1.183,-0.233 -0.707,0 -1.3,0.198 -1.781,0.594" />
      </g>
      <g
         transform="translate(653.4564,44.2048)"
         id="g1785">
        <path
           id="path1787"
           style="fill:#08532a;fill-opacity:1;fill-rule:nonzero;stroke:none"
           d="m 0,0 -0.01,-0.604 0.681,0.019 h 2.384 c 0,-0.207 -0.01,-0.366 -0.029,-0.476 C 2.955,-1.477 2.675,-1.684 2.189,-1.684 h -2.734 c -0.234,0 -0.418,0.07 -0.55,0.209 -0.133,0.139 -0.199,0.329 -0.199,0.569 v 5.82 l 0.068,0.067 H 2.832 C 2.863,4.82 2.88,4.646 2.88,4.461 2.88,4.276 2.845,4.083 2.773,3.882 H -0.01 L 0,3.21 V 2.208 l 0.632,0.01 H 2.277 C 2.329,2.069 2.354,1.891 2.354,1.683 2.354,1.475 2.329,1.297 2.277,1.147 H 0 Z" />
      </g>
      <g
         transform="translate(656.7547,43.1238)"
         id="g1789">
        <path
           id="path1791"
           style="fill:#08532a;fill-opacity:1;fill-rule:nonzero;stroke:none"
           d="M 0,0 C 0.019,0.182 0.079,0.365 0.179,0.55 0.281,0.735 0.395,0.882 0.525,0.993 1.193,0.565 1.849,0.351 2.49,0.351 2.802,0.351 3.048,0.423 3.23,0.57 3.412,0.716 3.503,0.899 3.503,1.119 3.49,1.495 3.24,1.791 2.753,2.005 L 1.605,2.491 C 1.151,2.679 0.81,2.921 0.584,3.217 0.356,3.512 0.243,3.851 0.243,4.233 0.243,4.525 0.299,4.792 0.414,5.032 0.527,5.271 0.689,5.478 0.9,5.649 1.11,5.821 1.36,5.956 1.649,6.054 1.937,6.15 2.257,6.199 2.607,6.199 3.321,6.199 4.022,6.021 4.71,5.664 4.69,5.268 4.538,4.937 4.252,4.671 3.597,4.976 3.026,5.128 2.54,5.128 2.229,5.128 1.989,5.058 1.824,4.916 1.659,4.774 1.576,4.6 1.576,4.394 1.576,4.098 1.806,3.853 2.267,3.66 L 3.416,3.172 C 3.882,2.978 4.242,2.722 4.495,2.404 4.748,2.086 4.875,1.72 4.875,1.304 4.875,1.012 4.823,0.741 4.719,0.491 4.615,0.242 4.458,0.028 4.247,-0.15 4.037,-0.329 3.774,-0.468 3.459,-0.569 3.144,-0.669 2.773,-0.719 2.345,-0.719 1.514,-0.719 0.732,-0.48 0,0" />
      </g>
      <g
         transform="translate(665.4354,44.2048)"
         id="g1793">
        <path
           id="path1795"
           style="fill:#08532a;fill-opacity:1;fill-rule:nonzero;stroke:none"
           d="m 0,0 -0.01,-0.604 0.681,0.019 h 2.384 c 0,-0.207 -0.01,-0.366 -0.029,-0.476 C 2.955,-1.477 2.675,-1.684 2.189,-1.684 h -2.734 c -0.234,0 -0.418,0.07 -0.551,0.209 -0.133,0.139 -0.198,0.329 -0.198,0.569 v 5.82 l 0.067,0.067 H 2.832 C 2.863,4.82 2.88,4.646 2.88,4.461 2.88,4.276 2.844,4.083 2.773,3.882 H -0.01 L 0,3.21 V 2.208 l 0.632,0.01 H 2.277 C 2.329,2.069 2.354,1.891 2.354,1.683 2.354,1.475 2.329,1.297 2.277,1.147 H 0 Z" />
      </g>
      <g
         transform="translate(674.6307,46.7048)"
         id="g1797">
        <path
           id="path1799"
           style="fill:#08532a;fill-opacity:1;fill-rule:nonzero;stroke:none"
           d="m 0,0 v 0.097 c 0,0.215 -0.023,0.411 -0.068,0.589 -0.045,0.179 -0.116,0.335 -0.213,0.467 -0.098,0.134 -0.223,0.238 -0.375,0.311 -0.153,0.076 -0.336,0.113 -0.551,0.113 -0.473,0 -0.817,-0.213 -1.031,-0.638 -0.214,-0.424 -0.321,-1.068 -0.321,-1.931 0,-0.688 0.132,-1.222 0.394,-1.601 0.263,-0.38 0.622,-0.57 1.075,-0.57 0.24,0 0.501,0.058 0.784,0.171 0.282,0.114 0.586,0.293 0.909,0.54 0.137,-0.09 0.267,-0.217 0.39,-0.38 C 1.116,-2.993 1.194,-3.15 1.226,-3.298 1.084,-3.441 0.916,-3.573 0.725,-3.693 0.533,-3.813 0.328,-3.918 0.107,-4.009 -0.113,-4.1 -0.344,-4.17 -0.584,-4.223 -0.824,-4.275 -1.064,-4.3 -1.303,-4.3 c -0.481,0 -0.886,0.092 -1.217,0.276 -0.331,0.185 -0.602,0.435 -0.813,0.75 -0.21,0.314 -0.363,0.679 -0.457,1.095 -0.094,0.415 -0.141,0.852 -0.141,1.314 0,0.583 0.071,1.094 0.214,1.532 0.143,0.438 0.336,0.802 0.579,1.09 0.243,0.288 0.529,0.506 0.856,0.652 0.328,0.146 0.677,0.219 1.047,0.219 0.382,0 0.728,-0.052 1.036,-0.155 C 0.109,2.368 0.37,2.228 0.585,2.049 0.798,1.87 0.964,1.663 1.081,1.426 1.197,1.189 1.256,0.935 1.256,0.663 c 0,-0.488 -0.247,-0.731 -0.74,-0.731 -0.071,0 -0.149,0.005 -0.234,0.015 C 0.198,-0.043 0.104,-0.026 0,0" />
      </g>
      <g
         transform="translate(680.4793,45.8581)"
         id="g1801">
        <path
           id="path1803"
           style="fill:#08532a;fill-opacity:1;fill-rule:nonzero;stroke:none"
           d="m 0,0 c 0,1.629 -0.48,2.443 -1.441,2.443 -0.96,0 -1.44,-0.814 -1.44,-2.443 0,-1.622 0.48,-2.432 1.44,-2.432 C -0.48,-2.432 0,-1.622 0,0 m -3.212,-2.86 c -0.694,0.596 -1.041,1.55 -1.041,2.86 0,0.551 0.063,1.042 0.19,1.47 0.127,0.428 0.311,0.79 0.555,1.085 0.243,0.295 0.538,0.52 0.885,0.676 0.347,0.156 0.745,0.234 1.192,0.234 0.441,0 0.836,-0.078 1.183,-0.234 C 0.098,3.075 0.392,2.85 0.632,2.555 0.872,2.26 1.055,1.896 1.182,1.465 1.308,1.034 1.372,0.545 1.372,0 c 0,-0.544 -0.064,-1.031 -0.19,-1.459 -0.127,-0.429 -0.31,-0.79 -0.55,-1.085 -0.24,-0.295 -0.534,-0.521 -0.88,-0.677 -0.347,-0.155 -0.742,-0.233 -1.183,-0.233 -0.707,0 -1.3,0.198 -1.781,0.594" />
      </g>
      <g
         transform="translate(682.5128,42.5598)"
         id="g1805">
        <path
           id="path1807"
           style="fill:#08532a;fill-opacity:1;fill-rule:nonzero;stroke:none"
           d="m 0,0 0.516,6.618 c 0.266,0.045 0.553,0.068 0.861,0.068 0.308,0 0.589,-0.023 0.842,-0.068 L 2.968,3.921 c 0.2,-0.804 0.324,-1.359 0.37,-1.664 h 0.068 c 0.045,0.305 0.168,0.86 0.37,1.664 l 0.739,2.697 c 0.273,0.045 0.558,0.068 0.856,0.068 0.299,0 0.584,-0.023 0.857,-0.068 L 6.743,0 C 6.568,-0.045 6.36,-0.068 6.115,-0.068 c -0.243,0 -0.445,0.013 -0.607,0.039 L 5.323,3.095 C 5.271,3.899 5.245,4.603 5.245,5.206 H 5.177 L 4.039,0.973 C 3.824,0.94 3.602,0.924 3.371,0.924 3.141,0.924 2.919,0.94 2.705,0.973 L 1.566,5.206 H 1.498 C 1.485,4.408 1.46,3.704 1.42,3.095 L 1.235,-0.029 C 1.073,-0.055 0.871,-0.068 0.627,-0.068 0.384,-0.068 0.175,-0.045 0,0" />
      </g>
      <g
         transform="translate(695.3184,49.1863)"
         id="g1809">
        <path
           id="path1811"
           style="fill:#08532a;fill-opacity:1;fill-rule:nonzero;stroke:none"
           d="m 0,0 v -4.252 c 0,-0.811 -0.222,-1.435 -0.666,-1.873 -0.445,-0.438 -1.072,-0.657 -1.883,-0.657 -0.804,0 -1.43,0.219 -1.873,0.657 -0.445,0.438 -0.667,1.062 -0.667,1.873 v 4.243 l 0.058,0.068 h 0.49 c 0.262,0 0.455,-0.067 0.579,-0.2 0.124,-0.133 0.186,-0.345 0.186,-0.637 v -3.484 c 0,-0.987 0.41,-1.48 1.227,-1.48 0.824,0 1.236,0.493 1.236,1.48 V 0 c 0.182,0.032 0.402,0.049 0.657,0.049 C -0.401,0.049 -0.183,0.032 0,0" />
      </g>
      <g
         transform="translate(701.4881,49.2453)"
         id="g1813">
        <path
           id="path1815"
           style="fill:#08532a;fill-opacity:1;fill-rule:nonzero;stroke:none"
           d="m 0,0 0.068,-0.068 v -6.618 c -0.201,-0.045 -0.454,-0.067 -0.759,-0.067 -0.305,0 -0.571,0.015 -0.798,0.048 l -1.791,3.766 c -0.259,0.571 -0.453,1.024 -0.583,1.362 l -0.039,-0.01 c 0.071,-0.914 0.107,-1.796 0.107,-2.646 v -2.472 c -0.182,-0.033 -0.388,-0.048 -0.618,-0.048 -0.23,0 -0.43,0.015 -0.598,0.048 v 6.627 c 0.188,0.045 0.434,0.068 0.739,0.068 0.305,0 0.571,-0.017 0.798,-0.049 l 1.771,-3.766 0.633,-1.44 0.029,0.01 c -0.065,0.941 -0.098,1.83 -0.098,2.666 v 1.781 c 0,0.292 0.055,0.5 0.166,0.623 C -0.863,-0.062 -0.678,0 -0.418,0 Z" />
      </g>
      <g
         transform="translate(702.8306,42.5403)"
         id="g1817">
        <path
           id="path1819"
           style="fill:#08532a;fill-opacity:1;fill-rule:nonzero;stroke:none"
           d="m 0,0 v 6.646 c 0.164,0.032 0.378,0.049 0.643,0.049 0.264,0 0.488,-0.017 0.671,-0.049 V 0 C 1.131,-0.033 0.907,-0.048 0.643,-0.048 0.378,-0.048 0.164,-0.033 0,0" />
      </g>
      <g
         transform="translate(708.9324,46.7048)"
         id="g1821">
        <path
           id="path1823"
           style="fill:#08532a;fill-opacity:1;fill-rule:nonzero;stroke:none"
           d="m 0,0 v 0.097 c 0,0.215 -0.023,0.411 -0.068,0.589 -0.045,0.179 -0.116,0.335 -0.213,0.467 -0.098,0.134 -0.223,0.238 -0.376,0.311 -0.152,0.076 -0.335,0.113 -0.55,0.113 -0.473,0 -0.817,-0.213 -1.031,-0.638 -0.214,-0.424 -0.321,-1.068 -0.321,-1.931 0,-0.688 0.132,-1.222 0.394,-1.601 0.263,-0.38 0.622,-0.57 1.075,-0.57 0.24,0 0.501,0.058 0.784,0.171 0.282,0.114 0.586,0.293 0.909,0.54 0.137,-0.09 0.267,-0.217 0.39,-0.38 C 1.116,-2.993 1.194,-3.15 1.226,-3.298 1.084,-3.441 0.916,-3.573 0.725,-3.693 0.533,-3.813 0.328,-3.918 0.107,-4.009 -0.113,-4.1 -0.344,-4.17 -0.584,-4.223 -0.824,-4.275 -1.064,-4.3 -1.303,-4.3 c -0.481,0 -0.886,0.092 -1.217,0.276 -0.331,0.185 -0.602,0.435 -0.813,0.75 -0.21,0.314 -0.363,0.679 -0.457,1.095 -0.094,0.415 -0.141,0.852 -0.141,1.314 0,0.583 0.071,1.094 0.214,1.532 0.143,0.438 0.336,0.802 0.579,1.09 0.243,0.288 0.529,0.506 0.856,0.652 0.328,0.146 0.677,0.219 1.047,0.219 0.382,0 0.728,-0.052 1.036,-0.155 C 0.109,2.368 0.37,2.228 0.584,2.049 0.798,1.87 0.964,1.663 1.081,1.426 1.197,1.189 1.256,0.935 1.256,0.663 c 0,-0.488 -0.247,-0.731 -0.74,-0.731 -0.071,0 -0.149,0.005 -0.234,0.015 C 0.198,-0.043 0.104,-0.026 0,0" />
      </g>
      <g
         transform="translate(712.2711,45.0798)"
         id="g1825">
        <path
           id="path1827"
           style="fill:#08532a;fill-opacity:1;fill-rule:nonzero;stroke:none"
           d="M 0,0 0.438,0.01 H 1.275 L 1.683,0 1.392,0.993 C 1.171,1.732 0.996,2.361 0.866,2.881 H 0.808 C 0.749,2.602 0.606,2.053 0.379,1.236 Z M 1.995,-1.032 1.518,-1.041 H 0.156 l -0.477,0.009 -0.458,-1.517 c -0.135,-0.033 -0.329,-0.049 -0.578,-0.049 -0.25,0 -0.453,0.029 -0.609,0.088 l -0.049,0.068 2.171,6.548 c 0.24,0.033 0.5,0.05 0.778,0.05 0.279,0 0.522,-0.02 0.731,-0.058 l 2.13,-6.55 c -0.189,-0.11 -0.414,-0.165 -0.676,-0.165 -0.263,0 -0.452,0.048 -0.565,0.145 -0.113,0.098 -0.208,0.283 -0.287,0.555 z" />
      </g>
      <g
         transform="translate(718.3431,41.801)"
         id="g1829">
        <path
           id="path1831"
           style="fill:#08532a;fill-opacity:1;fill-rule:nonzero;stroke:none"
           d="M 0,0 C 0.026,0.11 0.055,0.217 0.088,0.321 0.12,0.424 0.156,0.524 0.194,0.622 -0.227,0.662 -0.583,0.783 -0.871,0.987 -1.159,1.192 -1.396,1.45 -1.582,1.761 -1.767,2.072 -1.9,2.424 -1.98,2.817 c -0.082,0.392 -0.122,0.799 -0.122,1.222 0,0.583 0.071,1.094 0.214,1.532 0.143,0.438 0.336,0.802 0.579,1.09 0.243,0.288 0.528,0.506 0.856,0.651 0.328,0.147 0.677,0.22 1.047,0.22 0.383,0 0.728,-0.053 1.036,-0.156 C 1.938,7.272 2.199,7.131 2.414,6.953 2.627,6.774 2.792,6.566 2.91,6.33 3.026,6.093 3.085,5.839 3.085,5.566 3.085,5.079 2.838,4.836 2.345,4.836 2.274,4.836 2.196,4.841 2.111,4.851 2.027,4.86 1.933,4.878 1.829,4.904 V 5.001 C 1.829,5.216 1.806,5.412 1.761,5.59 1.716,5.769 1.645,5.924 1.547,6.057 1.45,6.19 1.325,6.294 1.172,6.368 1.02,6.443 0.837,6.48 0.622,6.48 0.149,6.48 -0.195,6.268 -0.409,5.843 -0.623,5.418 -0.73,4.775 -0.73,3.912 c 0,-0.688 0.132,-1.222 0.395,-1.601 0.262,-0.38 0.621,-0.57 1.074,-0.57 0.24,0 0.501,0.057 0.784,0.171 0.282,0.114 0.585,0.293 0.909,0.54 C 2.569,2.361 2.699,2.234 2.822,2.072 2.945,1.911 3.023,1.754 3.055,1.605 2.809,1.358 2.494,1.145 2.111,0.962 1.729,0.782 1.327,0.668 0.905,0.622 0.859,0.544 0.827,0.474 0.807,0.409 1.1,0.389 1.33,0.301 1.498,0.146 1.667,-0.01 1.751,-0.225 1.751,-0.497 1.751,-0.633 1.719,-0.76 1.654,-0.876 1.589,-0.993 1.5,-1.097 1.387,-1.188 1.273,-1.279 1.142,-1.35 0.992,-1.402 0.843,-1.454 0.684,-1.479 0.516,-1.479 c -0.35,0 -0.626,0.07 -0.828,0.213 0.007,0.24 0.082,0.435 0.225,0.585 0.123,-0.085 0.278,-0.127 0.466,-0.127 0.26,0 0.39,0.107 0.39,0.321 0,0.117 -0.037,0.199 -0.107,0.248 -0.072,0.049 -0.16,0.073 -0.263,0.073 -0.078,0 -0.146,-0.009 -0.205,-0.029 C 0.098,-0.143 0.033,-0.078 0,0" />
      </g>
      <g
         transform="translate(726.0208,45.8581)"
         id="g1833">
        <path
           id="path1835"
           style="fill:#08532a;fill-opacity:1;fill-rule:nonzero;stroke:none"
           d="m 0,0 c 0,1.629 -0.48,2.443 -1.441,2.443 -0.96,0 -1.44,-0.814 -1.44,-2.443 0,-1.622 0.48,-2.432 1.44,-2.432 C -0.48,-2.432 0,-1.622 0,0 M -1.441,4.059 -1.937,4.292 C -1.982,4.318 -2.031,4.339 -2.083,4.355 -2.135,4.372 -2.187,4.379 -2.238,4.379 -2.375,4.386 -2.501,4.309 -2.618,4.146 L -2.716,4.01 C -2.846,4.016 -2.974,4.056 -3.1,4.126 -3.227,4.198 -3.312,4.289 -3.357,4.399 l 0.087,0.185 c 0.24,0.525 0.609,0.789 1.109,0.789 0.098,0.005 0.195,-0.007 0.292,-0.04 0.097,-0.032 0.202,-0.075 0.312,-0.126 l 0.496,-0.234 c 0.052,-0.026 0.102,-0.047 0.15,-0.063 0.05,-0.016 0.1,-0.025 0.151,-0.025 0.137,-0.006 0.263,0.072 0.38,0.235 l 0.097,0.126 c 0.13,0 0.258,-0.036 0.384,-0.108 C 0.228,5.067 0.314,4.977 0.359,4.867 L 0.271,4.682 C 0.025,4.156 -0.345,3.893 -0.838,3.893 c -0.201,0 -0.401,0.055 -0.603,0.166 M -3.212,-2.86 c -0.694,0.596 -1.041,1.55 -1.041,2.86 0,0.551 0.063,1.042 0.19,1.47 0.127,0.428 0.311,0.79 0.555,1.085 0.243,0.295 0.538,0.52 0.885,0.676 0.347,0.156 0.745,0.234 1.192,0.234 0.441,0 0.835,-0.078 1.183,-0.234 C 0.098,3.075 0.392,2.85 0.632,2.555 0.872,2.26 1.055,1.896 1.182,1.465 1.308,1.034 1.372,0.545 1.372,0 c 0,-0.544 -0.064,-1.031 -0.19,-1.459 -0.127,-0.429 -0.31,-0.79 -0.55,-1.085 -0.24,-0.295 -0.534,-0.521 -0.88,-0.677 -0.348,-0.155 -0.742,-0.233 -1.183,-0.233 -0.707,0 -1.3,0.198 -1.781,0.594" />
      </g>
      <g
         transform="translate(729.5237,44.2048)"
         id="g1837">
        <path
           id="path1839"
           style="fill:#08532a;fill-opacity:1;fill-rule:nonzero;stroke:none"
           d="m 0,0 -0.01,-0.604 0.681,0.019 h 2.384 c 0,-0.207 -0.01,-0.366 -0.029,-0.476 C 2.955,-1.477 2.675,-1.684 2.189,-1.684 h -2.734 c -0.234,0 -0.418,0.07 -0.55,0.209 -0.133,0.139 -0.199,0.329 -0.199,0.569 v 5.82 l 0.068,0.067 H 2.832 C 2.863,4.82 2.88,4.646 2.88,4.461 2.88,4.276 2.845,4.083 2.773,3.882 H -0.01 L 0,3.21 V 2.208 l 0.632,0.01 H 2.277 C 2.329,2.069 2.354,1.891 2.354,1.683 2.354,1.475 2.329,1.297 2.277,1.147 H 0 Z" />
      </g>
      <g
         transform="translate(732.8233,43.1238)"
         id="g1841">
        <path
           id="path1843"
           style="fill:#08532a;fill-opacity:1;fill-rule:nonzero;stroke:none"
           d="M 0,0 C 0.019,0.182 0.079,0.365 0.179,0.55 0.281,0.735 0.395,0.882 0.524,0.993 1.193,0.565 1.848,0.351 2.49,0.351 2.802,0.351 3.048,0.423 3.23,0.57 3.411,0.716 3.503,0.899 3.503,1.119 3.489,1.495 3.24,1.791 2.753,2.005 L 1.605,2.491 C 1.151,2.679 0.81,2.921 0.583,3.217 0.356,3.512 0.243,3.851 0.243,4.233 c 0,0.292 0.056,0.559 0.17,0.799 C 0.526,5.271 0.689,5.478 0.899,5.649 1.11,5.821 1.36,5.956 1.649,6.054 1.937,6.15 2.257,6.199 2.607,6.199 3.321,6.199 4.022,6.021 4.71,5.664 4.69,5.268 4.538,4.937 4.252,4.671 3.596,4.976 3.026,5.128 2.539,5.128 2.228,5.128 1.989,5.058 1.824,4.916 1.658,4.774 1.576,4.6 1.576,4.394 1.576,4.098 1.806,3.853 2.267,3.66 L 3.415,3.172 C 3.882,2.978 4.242,2.722 4.495,2.404 4.748,2.086 4.875,1.72 4.875,1.304 4.875,1.012 4.823,0.741 4.719,0.491 4.615,0.242 4.458,0.028 4.247,-0.15 4.036,-0.329 3.774,-0.468 3.459,-0.569 3.144,-0.669 2.773,-0.719 2.344,-0.719 1.514,-0.719 0.732,-0.48 0,0" />
      </g>
    </g>
  </g>
</svg>
