<?xml version="1.0" encoding="UTF-8" standalone="no"?>
<svg
   xmlns:dc="http://purl.org/dc/elements/1.1/"
   xmlns:cc="http://creativecommons.org/ns#"
   xmlns:rdf="http://www.w3.org/1999/02/22-rdf-syntax-ns#"
   xmlns:svg="http://www.w3.org/2000/svg"
   xmlns="http://www.w3.org/2000/svg"
   xmlns:sodipodi="http://sodipodi.sourceforge.net/DTD/sodipodi-0.dtd"
   xmlns:inkscape="http://www.inkscape.org/namespaces/inkscape"
   sodipodi:docname="min_saude.svg"
   inkscape:version="1.0 (1.0+r73+1)"
   width="200px"
   height="32px"
   viewBox="0 0 200 32"
   version="1.1"
   id="SVGRoot">
  <defs
     id="defs9371" />
  <sodipodi:namedview
     inkscape:window-maximized="0"
     inkscape:window-y="27"
     inkscape:window-x="67"
     inkscape:window-height="1023"
     inkscape:window-width="1795"
     showgrid="false"
     inkscape:document-rotation="0"
     inkscape:current-layer="layer1"
     inkscape:document-units="px"
     inkscape:cy="43.239196"
     inkscape:cx="78.634504"
     inkscape:zoom="3.959798"
     inkscape:pageshadow="2"
     inkscape:pageopacity="0.0"
     borderopacity="1.0"
     bordercolor="#666666"
     pagecolor="#ffffff"
     id="base" />
  <metadata
     id="metadata9374">
    <rdf:RDF>
      <cc:Work
         rdf:about="">
        <dc:format>image/svg+xml</dc:format>
        <dc:type
           rdf:resource="http://purl.org/dc/dcmitype/StillImage" />
        <dc:title></dc:title>
      </cc:Work>
    </rdf:RDF>
  </metadata>
  <g
     id="layer1"
     inkscape:groupmode="layer"
     inkscape:label="Layer 1">
    <g
       transform="matrix(1.3333333,0,0,-1.3333333,-939.40761,84.223057)"
       id="g12245">
      <g
         transform="translate(752.8714,52.2165)"
         id="g1565">
        <path
           id="path1567"
           style="fill:#08532a;fill-opacity:1;fill-rule:nonzero;stroke:none"
           d="m 0,0 0.516,6.636 c 0.125,0.02 0.293,0.03 0.507,0.03 0.212,0 0.375,-0.01 0.486,-0.03 L 2.621,3.221 C 2.679,3.058 2.756,2.799 2.854,2.442 2.95,2.085 3.004,1.871 3.018,1.8 h 0.048 c 0.09,0.448 0.224,0.922 0.399,1.421 l 1.119,3.415 c 0.136,0.02 0.3,0.03 0.491,0.03 0.192,0 0.355,-0.01 0.492,-0.03 L 6.083,0 C 5.966,-0.033 5.844,-0.049 5.718,-0.049 5.591,-0.049 5.473,-0.04 5.362,-0.02 L 5.08,4.009 C 5.06,4.301 5.035,4.915 5.002,5.849 H 4.954 L 3.417,1.031 C 3.26,1.005 3.131,0.992 3.027,0.992 2.923,0.992 2.806,1.005 2.676,1.031 L 1.139,5.849 H 1.091 C 1.084,5.686 1.073,5.379 1.056,4.928 1.04,4.478 1.026,4.171 1.013,4.009 L 0.74,-0.02 C 0.622,-0.04 0.497,-0.049 0.365,-0.049 0.234,-0.049 0.112,-0.033 0,0" />
      </g>
      <g
         transform="translate(760.4031,52.2068)"
         id="g1569">
        <path
           id="path1571"
           style="fill:#08532a;fill-opacity:1;fill-rule:nonzero;stroke:none"
           d="m 0,0 v 6.646 c 0.092,0.02 0.21,0.029 0.355,0.029 0.146,0 0.275,-0.009 0.385,-0.029 V 0 C 0.63,-0.02 0.501,-0.03 0.355,-0.03 0.21,-0.03 0.092,-0.02 0,0" />
      </g>
      <g
         transform="translate(767.2845,58.8821)"
         id="g1573">
        <path
           id="path1575"
           style="fill:#08532a;fill-opacity:1;fill-rule:nonzero;stroke:none"
           d="m 0,0 0.058,-0.048 v -6.627 c -0.123,-0.02 -0.276,-0.03 -0.458,-0.03 -0.181,0 -0.336,0.01 -0.466,0.03 l -2.365,4.408 c -0.195,0.363 -0.416,0.81 -0.662,1.343 h -0.03 c 0.04,-1.207 0.059,-1.908 0.059,-2.103 v -3.648 c -0.136,-0.02 -0.256,-0.03 -0.36,-0.03 -0.104,0 -0.214,0.01 -0.33,0.03 v 6.646 C -4.438,-0.01 -4.291,0 -4.112,0 -3.933,0 -3.78,-0.01 -3.65,-0.029 l 2.365,-4.408 c 0.156,-0.28 0.382,-0.736 0.681,-1.372 h 0.029 c -0.045,0.83 -0.068,1.57 -0.068,2.218 v 3.105 c 0,0.175 0.026,0.3 0.078,0.374 C -0.513,-0.037 -0.41,0 -0.253,0 Z" />
      </g>
      <g
         transform="translate(768.928,52.2068)"
         id="g1577">
        <path
           id="path1579"
           style="fill:#08532a;fill-opacity:1;fill-rule:nonzero;stroke:none"
           d="m 0,0 v 6.646 c 0.092,0.02 0.21,0.029 0.355,0.029 0.146,0 0.275,-0.009 0.385,-0.029 V 0 C 0.63,-0.02 0.501,-0.03 0.355,-0.03 0.21,-0.03 0.092,-0.02 0,0" />
      </g>
      <g
         transform="translate(770.6705,52.8201)"
         id="g1581">
        <path
           id="path1583"
           style="fill:#08532a;fill-opacity:1;fill-rule:nonzero;stroke:none"
           d="m 0,0 c 0.019,0.24 0.133,0.438 0.341,0.593 0.661,-0.447 1.31,-0.671 1.945,-0.671 0.461,0 0.824,0.098 1.09,0.291 0.266,0.195 0.4,0.461 0.4,0.799 0,0.5 -0.345,0.901 -1.032,1.206 L 1.605,2.714 C 0.729,3.09 0.291,3.636 0.291,4.35 c 0,0.247 0.053,0.48 0.156,0.7 C 0.551,5.271 0.695,5.461 0.88,5.624 1.065,5.787 1.287,5.915 1.547,6.009 1.806,6.103 2.094,6.15 2.412,6.15 3.042,6.15 3.684,5.994 4.34,5.683 4.34,5.43 4.239,5.223 4.037,5.06 3.719,5.223 3.426,5.338 3.157,5.411 2.888,5.481 2.64,5.518 2.412,5.518 2.205,5.518 2.019,5.488 1.853,5.43 1.688,5.371 1.545,5.295 1.425,5.201 1.305,5.107 1.213,4.997 1.147,4.87 1.083,4.744 1.05,4.612 1.05,4.477 1.05,4.191 1.133,3.968 1.298,3.809 1.464,3.65 1.696,3.509 1.994,3.386 l 1.1,-0.477 C 4.06,2.487 4.544,1.9 4.544,1.147 4.544,0.583 4.353,0.13 3.969,-0.215 3.587,-0.558 2.993,-0.73 2.189,-0.73 1.398,-0.73 0.667,-0.486 0,0" />
      </g>
      <g
         transform="translate(778.5714,58.2107)"
         id="g1585">
        <path
           id="path1587"
           style="fill:#08532a;fill-opacity:1;fill-rule:nonzero;stroke:none"
           d="m 0,0 -0.535,0.01 v -6.014 c -0.103,-0.02 -0.225,-0.03 -0.366,-0.03 -0.141,0 -0.265,0.01 -0.374,0.03 V 0.01 L -1.8,0 h -1.245 c -0.02,0.11 -0.03,0.216 -0.03,0.316 0,0.101 0.01,0.21 0.03,0.326 H 1.226 C 1.265,0.558 1.284,0.454 1.284,0.331 1.284,0.11 1.132,0 0.827,0 Z" />
      </g>
      <g
         transform="translate(781.7054,59.7097)"
         id="g1589">
        <path
           id="path1591"
           style="fill:#08532a;fill-opacity:1;fill-rule:nonzero;stroke:none"
           d="M 0,0 1.858,1.08 C 2.046,0.963 2.17,0.745 2.228,0.428 L 0.233,-0.409 C 0.103,-0.319 0.026,-0.182 0,0 M -0.37,-6.499 -0.38,-6.87 c 0.221,0.013 0.422,0.018 0.603,0.018 H 2.89 c 0,-0.135 -0.006,-0.24 -0.019,-0.311 -0.046,-0.227 -0.204,-0.34 -0.477,-0.34 h -3.065 c -0.13,0 -0.233,0.043 -0.308,0.131 -0.073,0.087 -0.111,0.206 -0.111,0.355 v 6.102 l 0.058,0.058 h 3.756 c 0.013,-0.078 0.02,-0.179 0.02,-0.306 0,-0.126 -0.015,-0.238 -0.048,-0.336 H -0.38 l 0.01,-0.603 v -1.723 l 0.585,0.01 h 2.013 c 0.02,-0.115 0.03,-0.223 0.03,-0.321 0,-0.099 -0.01,-0.202 -0.03,-0.312 H 0.215 c -0.247,0 -0.443,0.004 -0.585,0.01 z" />
      </g>
      <g
         transform="translate(786.4634,58.2785)"
         id="g1593">
        <path
           id="path1595"
           style="fill:#08532a;fill-opacity:1;fill-rule:nonzero;stroke:none"
           d="m 0,0 v -2.656 c 0.137,0.007 0.303,0.011 0.501,0.014 0.198,0.003 0.433,0.005 0.706,0.005 0.272,0 0.498,0.037 0.676,0.109 0.178,0.071 0.323,0.166 0.433,0.283 0.11,0.118 0.188,0.257 0.233,0.417 0.045,0.16 0.069,0.328 0.069,0.505 0,0.183 -0.024,0.355 -0.069,0.515 -0.045,0.16 -0.123,0.298 -0.233,0.416 -0.11,0.118 -0.258,0.211 -0.443,0.28 -0.185,0.068 -0.416,0.102 -0.696,0.102 h -0.7 C 0.282,-0.01 0.123,-0.006 0,0 m -0.681,0.574 1.965,0.03 c 0.669,0 1.187,-0.169 1.558,-0.506 0.37,-0.338 0.555,-0.812 0.555,-1.423 0,-0.435 -0.115,-0.81 -0.341,-1.125 C 2.829,-2.765 2.517,-2.98 2.121,-3.097 2.388,-3.181 2.604,-3.444 2.774,-3.885 L 3.28,-5.197 C 3.351,-5.379 3.422,-5.526 3.493,-5.64 3.565,-5.753 3.633,-5.836 3.698,-5.887 3.595,-6.049 3.422,-6.13 3.182,-6.13 c -0.136,0 -0.242,0.035 -0.316,0.106 -0.074,0.072 -0.147,0.198 -0.219,0.38 L 2.083,-4.165 C 1.972,-3.873 1.841,-3.65 1.688,-3.498 1.536,-3.345 1.31,-3.27 1.012,-3.27 H 0 v -2.802 c -0.116,-0.02 -0.243,-0.03 -0.379,-0.03 -0.143,0 -0.263,0.01 -0.36,0.03 v 6.588 z" />
      </g>
      <g
         transform="translate(791.1436,52.2068)"
         id="g1597">
        <path
           id="path1599"
           style="fill:#08532a;fill-opacity:1;fill-rule:nonzero;stroke:none"
           d="m 0,0 v 6.646 c 0.092,0.02 0.21,0.029 0.355,0.029 0.146,0 0.275,-0.009 0.385,-0.029 V 0 C 0.63,-0.02 0.501,-0.03 0.355,-0.03 0.21,-0.03 0.092,-0.02 0,0" />
      </g>
      <g
         transform="translate(793.9371,56.5207)"
         id="g1601">
        <path
           id="path1603"
           style="fill:#08532a;fill-opacity:1;fill-rule:nonzero;stroke:none"
           d="m 0,0 c -0.032,-0.156 -0.053,-0.317 -0.063,-0.483 -0.01,-0.166 -0.015,-0.334 -0.015,-0.503 0,-0.292 0.023,-0.603 0.069,-0.932 0.046,-0.329 0.133,-0.635 0.262,-0.919 0.13,-0.282 0.315,-0.517 0.555,-0.703 0.24,-0.186 0.555,-0.278 0.944,-0.278 0.26,0 0.486,0.045 0.681,0.137 0.195,0.091 0.36,0.209 0.496,0.356 0.137,0.147 0.246,0.318 0.326,0.513 0.082,0.195 0.147,0.398 0.195,0.61 0.049,0.212 0.083,0.421 0.102,0.63 0.02,0.209 0.03,0.404 0.03,0.586 0,0.286 -0.024,0.595 -0.069,0.928 C 3.468,0.274 3.379,0.58 3.246,0.859 3.113,1.139 2.928,1.372 2.691,1.557 2.454,1.743 2.141,1.836 1.752,1.836 1.46,1.836 1.211,1.783 1.003,1.675 0.795,1.567 0.625,1.427 0.492,1.255 0.359,1.083 0.255,0.887 0.18,0.669 0.105,0.451 0.045,0.229 0,0 m 0.167,-3.866 c -0.688,0.609 -1.032,1.567 -1.032,2.87 0,0.513 0.056,0.981 0.17,1.407 0.113,0.425 0.281,0.788 0.501,1.089 C 0.027,1.802 0.3,2.036 0.628,2.201 0.956,2.366 1.33,2.449 1.752,2.449 2.2,2.449 2.589,2.356 2.919,2.171 3.251,1.987 3.525,1.737 3.742,1.422 3.96,1.107 4.12,0.743 4.224,0.328 4.328,-0.087 4.379,-0.525 4.379,-0.986 4.379,-1.499 4.323,-1.968 4.209,-2.392 4.096,-2.817 3.928,-3.18 3.708,-3.482 3.488,-3.784 3.214,-4.017 2.886,-4.183 2.558,-4.349 2.18,-4.431 1.752,-4.431 c -0.643,0 -1.171,0.188 -1.585,0.565" />
      </g>
      <g
         transform="translate(801.9651,52.7903)"
         id="g1605">
        <path
           id="path1607"
           style="fill:#08532a;fill-opacity:1;fill-rule:nonzero;stroke:none"
           d="m 0,0 1.284,-0.01 c 0.371,0 0.676,0.074 0.915,0.22 0.24,0.146 0.43,0.34 0.57,0.582 0.139,0.24 0.236,0.51 0.291,0.81 0.055,0.3 0.083,0.599 0.083,0.898 0,0.436 -0.023,0.837 -0.068,1.201 C 3.03,4.066 2.935,4.38 2.793,4.644 2.651,4.908 2.453,5.112 2.199,5.259 1.946,5.406 1.642,5.479 1.284,5.479 L 0,5.488 Z M 2.929,-0.126 C 2.839,-0.204 2.729,-0.273 2.598,-0.335 2.469,-0.397 2.331,-0.449 2.185,-0.491 2.038,-0.534 1.893,-0.566 1.747,-0.588 1.6,-0.611 1.472,-0.623 1.362,-0.623 c -0.116,0 -0.343,0.004 -0.681,0.01 -0.337,0.007 -0.791,0.016 -1.362,0.03 l -0.058,0.058 v 6.529 l 0.058,0.058 c 0.565,0.02 1.222,0.03 1.975,0.03 C 1.8,6.092 2.222,6.004 2.559,5.829 2.897,5.654 3.167,5.416 3.372,5.114 3.576,4.812 3.72,4.456 3.805,4.043 3.889,3.631 3.931,3.192 3.931,2.725 3.931,2.401 3.917,2.101 3.888,1.825 3.858,1.549 3.805,1.294 3.728,1.061 3.65,0.828 3.545,0.611 3.416,0.414 3.285,0.216 3.124,0.036 2.929,-0.126" />
      </g>
      <g
         transform="translate(807.8433,54.571)"
         id="g1609">
        <path
           id="path1611"
           style="fill:#08532a;fill-opacity:1;fill-rule:nonzero;stroke:none"
           d="M 0,0 0.564,0.01 H 1.683 C 1.69,0.01 1.769,0.009 1.921,0.005 2.074,0.002 2.183,0 2.247,0 L 1.635,1.849 C 1.388,2.608 1.222,3.149 1.138,3.475 H 1.09 C 0.967,2.994 0.856,2.608 0.759,2.316 Z M 2.452,-0.632 1.771,-0.642 H 0.467 l -0.682,0.01 -0.564,-1.742 c -0.084,-0.02 -0.188,-0.03 -0.312,-0.03 -0.123,0 -0.249,0.017 -0.378,0.05 l -0.02,0.029 2.228,6.607 c 0.11,0.019 0.256,0.029 0.438,0.029 0.181,0 0.315,-0.01 0.399,-0.029 L 3.804,-2.325 C 3.701,-2.39 3.571,-2.422 3.416,-2.422 c -0.156,0 -0.266,0.025 -0.331,0.077 -0.065,0.052 -0.12,0.156 -0.166,0.311 z" />
      </g>
      <g
         transform="translate(783.5843,43.1067)"
         id="g1613">
        <path
           id="path1615"
           style="fill:#08532a;fill-opacity:1;fill-rule:nonzero;stroke:none"
           d="M 0,0 C 0.019,0.182 0.079,0.365 0.179,0.55 0.281,0.735 0.395,0.882 0.525,0.993 1.193,0.565 1.849,0.351 2.49,0.351 2.802,0.351 3.048,0.423 3.23,0.57 3.412,0.716 3.503,0.899 3.503,1.119 3.489,1.495 3.24,1.791 2.753,2.005 L 1.605,2.491 C 1.151,2.679 0.81,2.921 0.584,3.217 0.356,3.512 0.243,3.851 0.243,4.233 c 0,0.292 0.056,0.559 0.17,0.799 C 0.527,5.271 0.689,5.478 0.9,5.649 1.11,5.821 1.36,5.956 1.649,6.054 1.937,6.15 2.257,6.199 2.607,6.199 3.321,6.199 4.022,6.021 4.71,5.664 4.69,5.268 4.538,4.937 4.252,4.671 3.597,4.976 3.026,5.128 2.54,5.128 2.229,5.128 1.989,5.058 1.824,4.916 1.659,4.774 1.576,4.6 1.576,4.394 1.576,4.098 1.806,3.853 2.267,3.66 L 3.416,3.172 C 3.882,2.978 4.242,2.722 4.495,2.404 4.748,2.086 4.875,1.72 4.875,1.304 4.875,1.012 4.823,0.741 4.719,0.491 4.615,0.242 4.458,0.028 4.247,-0.15 4.037,-0.329 3.774,-0.468 3.459,-0.569 3.144,-0.669 2.773,-0.719 2.345,-0.719 1.514,-0.719 0.732,-0.48 0,0" />
      </g>
      <g
         transform="translate(790.5511,45.0627)"
         id="g1617">
        <path
           id="path1619"
           style="fill:#08532a;fill-opacity:1;fill-rule:nonzero;stroke:none"
           d="M 0,0 0.438,0.01 H 1.275 L 1.683,0 1.392,0.993 C 1.171,1.732 0.996,2.361 0.866,2.881 H 0.808 C 0.749,2.602 0.606,2.053 0.379,1.236 Z M 1.995,-1.032 1.518,-1.041 H 0.156 l -0.477,0.009 -0.458,-1.517 c -0.135,-0.033 -0.329,-0.049 -0.578,-0.049 -0.25,0 -0.453,0.029 -0.609,0.088 l -0.049,0.068 2.171,6.548 c 0.24,0.033 0.5,0.05 0.778,0.05 0.279,0 0.522,-0.02 0.731,-0.058 l 2.131,-6.55 c -0.19,-0.11 -0.415,-0.165 -0.677,-0.165 -0.263,0 -0.452,0.048 -0.565,0.145 -0.113,0.098 -0.208,0.283 -0.287,0.555 z" />
      </g>
      <g
         transform="translate(796.264,50.2302)"
         id="g1621">
        <path
           id="path1623"
           style="fill:#08532a;fill-opacity:1;fill-rule:nonzero;stroke:none"
           d="M 0,0 2.073,1.255 C 2.189,1.165 2.303,1.023 2.414,0.832 2.524,0.641 2.585,0.454 2.599,0.272 L 0.37,-0.623 C 0.279,-0.571 0.198,-0.483 0.126,-0.36 0.055,-0.237 0.013,-0.117 0,0 m 3.659,-1.061 v -4.252 c 0,-0.812 -0.223,-1.436 -0.667,-1.874 -0.445,-0.438 -1.072,-0.656 -1.883,-0.656 -0.804,0 -1.429,0.218 -1.873,0.656 -0.445,0.438 -0.666,1.062 -0.666,1.874 v 4.243 l 0.058,0.068 h 0.49 c 0.262,0 0.455,-0.067 0.579,-0.2 0.124,-0.133 0.186,-0.345 0.186,-0.637 v -3.484 c 0,-0.987 0.409,-1.48 1.226,-1.48 0.824,0 1.237,0.493 1.237,1.48 v 4.262 c 0.182,0.032 0.401,0.049 0.656,0.049 0.255,0 0.474,-0.017 0.657,-0.049" />
      </g>
      <g
         transform="translate(804.6531,47.4079)"
         id="g1625">
        <path
           id="path1627"
           style="fill:#08532a;fill-opacity:1;fill-rule:nonzero;stroke:none"
           d="m 0,0 c -0.194,0.519 -0.594,0.779 -1.202,0.779 h -0.601 c -0.174,0 -0.326,0.003 -0.456,0.01 v -4.7 c 0.123,0.006 0.264,0.01 0.422,0.01 0.158,0 0.318,0.003 0.48,0.008 0.161,0.007 0.312,0.02 0.451,0.039 0.138,0.021 0.253,0.053 0.344,0.098 0.167,0.09 0.305,0.213 0.411,0.365 0.108,0.152 0.189,0.327 0.247,0.525 0.059,0.198 0.1,0.412 0.123,0.643 0.021,0.23 0.033,0.468 0.033,0.715 0,0.279 -0.018,0.539 -0.053,0.779 C 0.163,-0.49 0.096,-0.247 0,0 m 0.534,-4.447 c -0.194,-0.169 -0.459,-0.292 -0.793,-0.37 -0.335,-0.078 -0.676,-0.116 -1.026,-0.116 -0.176,0 -0.446,0.003 -0.813,0.009 -0.367,0.007 -0.835,0.017 -1.406,0.029 l -0.068,0.059 v 6.549 l 0.068,0.058 c 0.376,0.014 0.754,0.022 1.134,0.029 0.379,0.008 0.767,0.011 1.162,0.011 0.546,0 0.997,-0.088 1.358,-0.264 C 0.51,1.373 0.797,1.13 1.011,0.822 1.226,0.514 1.376,0.156 1.464,-0.253 1.551,-0.661 1.595,-1.099 1.595,-1.567 1.595,-2.215 1.522,-2.774 1.376,-3.245 1.23,-3.715 0.949,-4.116 0.534,-4.447" />
      </g>
      <g
         transform="translate(808.3985,44.1877)"
         id="g1629">
        <path
           id="path1631"
           style="fill:#08532a;fill-opacity:1;fill-rule:nonzero;stroke:none"
           d="m 0,0 -0.01,-0.604 0.681,0.019 h 2.384 c 0,-0.207 -0.01,-0.366 -0.029,-0.476 C 2.955,-1.477 2.675,-1.684 2.189,-1.684 h -2.734 c -0.234,0 -0.418,0.07 -0.55,0.209 -0.134,0.139 -0.199,0.329 -0.199,0.569 v 5.82 l 0.067,0.067 H 2.832 C 2.863,4.82 2.88,4.646 2.88,4.461 2.88,4.276 2.844,4.083 2.773,3.882 H -0.01 L 0,3.21 V 2.208 l 0.632,0.01 H 2.277 C 2.329,2.069 2.354,1.891 2.354,1.683 2.354,1.475 2.329,1.297 2.277,1.147 H 0 Z" />
      </g>
    </g>
  </g>
</svg>
