<?xml version="1.0" encoding="utf-8"?>
<!-- Generator: Adobe Illustrator 24.3.0, SVG Export Plug-In . SVG Version: 6.00 Build 0)  -->
<svg version="1.1" id="Layer_1" xmlns="http://www.w3.org/2000/svg" xmlns:xlink="http://www.w3.org/1999/xlink" x="0px" y="0px"
	 viewBox="0 0 595.28 841.89" style="enable-background:new 0 0 595.28 841.89;" xml:space="preserve">
<style type="text/css">
	.st0{fill:#FFFFFF;}
</style>
<g>
	<path class="st0" d="M115.75,418.44c-38.75,0-61.46-17.44-61.46-51.2c0-33.18,22.71-51.19,61.46-51.19
		c38.75,0,61.94,18.01,61.94,51.19C177.69,401,154.5,418.44,115.75,418.44 M115.75,394.61c16.83,0,17.31-16.73,17.47-27.38
		c-0.16-9.21-1.27-27.37-17.47-27.37c-15.72,0-16.99,18.15-16.99,27.37C98.76,377.88,100.51,394.61,115.75,394.61"/>
	<path class="st0" d="M188.66,317.75h73.22c17.31,0,40.66,7.38,40.66,34.04c0,25.81-18.58,36.45-40.82,36.45h-30.49v28.51h-42.56
		V317.75z M230.11,365.26h9.37c10.16,0,20.49-1.7,20.49-12.76c0-10.5-10.32-11.77-20.65-11.77h-9.21V365.26z"/>
	<path class="st0" d="M331.92,317.75h58.6l39.54,98.99h-44.63l-7.31-21.41h-35.89l-6.83,21.41h-42.4L331.92,317.75z M348.12,371.5
		h24.62l-12.07-32.48h-0.32L348.12,371.5z"/>
	<path class="st0" d="M525.37,344.83c-9.53-2.98-20.81-4.97-32.88-4.97c-6.67,0-18.26,0.15-18.26,6.53
		c0,12.9,58.28,0.71,58.28,38.85c0,26.53-29.38,33.19-54,33.19c-16.35,0-29.86-1.42-45.74-4.68v-25.67
		c11.43,4.25,25.41,6.52,38.11,6.52c10.01,0,19.06-1.84,19.06-6.8c0-13.33-58.29-1.28-58.29-39.71c0-27.23,31.76-32.05,57.02-32.05
		c11.91,0,25.09,1.28,36.69,3.4V344.83z"/>
	<path class="st0" d="M419.56,519.22h-4.27l-0.94,3.41h-3.08l4.53-15.26h3.51l4.37,15.26h-3.28 M417.53,510.3h-0.04l-1.62,6.34h3.06
		L417.53,510.3z"/>
	<path class="st0" d="M435.9,515.61c0-1.31-0.49-1.79-1.17-1.79c-0.91,0-1.27,0.74-1.27,1.59v7.21h-3.08v-7.01
		c0-1.44-0.56-1.79-1.07-1.79c-1.01,0-1.37,0.98-1.37,2.42v6.38h-3.08v-9.01c0-1.09-0.02-1.79-0.08-2.38h2.81
		c0.04,0.51,0.08,1.14,0.08,1.9h0.04c0.47-1.25,1.25-2.08,2.86-2.08c1.46,0,2.2,0.77,2.63,1.9c0.45-1.07,1.17-1.9,2.79-1.9
		c2.24,0,2.98,1.84,2.98,4.11v7.45h-3.08"/>
	<path class="st0" d="M449.77,517.84h-5.98c0,1.36,0.78,2.6,2.51,2.6c1.05,0,2.1-0.44,2.86-0.9l0.06,2.6
		c-0.99,0.42-2.16,0.66-3.21,0.66c-3.57,0-5.15-2.42-5.15-5.9c0-3.06,1.6-5.84,4.51-5.84c0.92,0,4.41,0,4.41,5.95 M446.97,515.96
		c0-1.44-0.33-2.8-1.6-2.8c-1.58,0-1.58,2.19-1.58,2.8H446.97z"/>
	<path class="st0" d="M451.59,513.62c0-1.09-0.02-1.79-0.08-2.38h2.81c0.02,0.68,0.06,1.37,0.08,2.06h0.04
		c0.62-1.22,1.05-2.23,2.83-2.23h0.45v3.19c-0.33-0.09-0.6-0.13-1.03-0.13c-1.8,0-2.01,1.75-2.01,3.4v5.1h-3.08"/>
	<path class="st0" d="M459.27,506.24h3.08v3.06h-3.08 M459.27,511.24h3.08v11.39h-3.08V511.24z"/>
	<path class="st0" d="M471.77,522.33c-0.9,0.26-1.81,0.48-2.79,0.48c-3.92,0-4.8-3.67-4.8-5.75c0-3.5,1.8-5.99,5.03-5.99
		c1.02,0,1.56,0.29,2.46,0.55l-0.16,2.6c-0.57-0.24-1.15-0.48-1.8-0.48c-2.34,0-2.34,2.89-2.34,3.32c0,2.41,1.33,3.17,2.5,3.17
		c0.64,0,1.23-0.26,1.79-0.51"/>
	<path class="st0" d="M473.95,511.79c0.8-0.28,2.16-0.72,3.27-0.72c3.57,0,4.39,1.66,4.39,4.2v4.15c0,1.68,0.02,2.45,0.08,3.21
		h-2.81l-0.08-1.57h-0.04c-0.14,0.7-1.33,1.75-2.79,1.75c-1.89,0-3.14-1.37-3.14-3.45c0-3.8,3.96-3.82,5.03-3.82h0.94
		c0-2.19-1.44-2.19-1.89-2.19c-0.78,0-1.62,0.2-2.82,1.01 M478.81,517.15c-1.23,0-3.16,0.09-3.16,1.99c0,1.49,1.08,1.49,1.33,1.49
		c0.27,0,1.83-0.04,1.83-2.82V517.15z"/>
	<path class="st0" d="M489.77,514.11c-0.82-0.37-1.59-0.61-2.48-0.61c-0.8,0-1.15,0.44-1.15,0.83c0,0.7,0.45,0.94,2.13,1.64
		c1.05,0.44,2.13,1.18,2.13,3.32c0,2.54-1.7,3.52-3.74,3.52c-0.9,0-2.26-0.11-3.33-0.54l0.08-2.67c0.74,0.5,1.68,0.79,2.54,0.79
		c1.44,0,1.54-0.57,1.54-1.08c0-0.5-0.8-0.72-2.13-1.33c-1.08-0.51-2.13-1.46-2.13-3.49c0-1.23,0.78-3.41,3.8-3.41
		c1.27,0,2.32,0.26,2.83,0.46"/>
	<line class="st0" x1="555.36" y1="501.16" x2="391.35" y2="501.16"/>
	<rect x="391.35" y="500.45" class="st0" width="164.01" height="1.43"/>
	<path class="st0" d="M369.84,457.56c1.49,1.71,4.09,2.72,5.62,4.43c-1.09-5.06-5.16-9.19-9.96-10.17
		C367.85,453.51,368.35,455.86,369.84,457.56 M312.09,470.39c3.31-6.92,8.25-5.46,10.34-12.05c-1.18,2.02-6.57,2.87-9.08,8.06
		c1.28-3.08,0.64-7.79,2.8-10.34C309.68,460.65,312.44,468.07,312.09,470.39 M318.08,486.99c0.59,2.7-1.15,6.59,1.62,10.3
		c-2.87-3.09-8.95-3.88-11.44-8.58c3.11,11.5,11.18,9.13,14.83,11.63C320.09,496.2,322.54,493.45,318.08,486.99 M317.15,494.21
		c-1.79-6.43,1.39-8.64-1.03-14.81c-0.25,3.47-2.66,5.16-1.03,11.51c-2.87-5.38-7.31-7.38-8.59-11.07
		C306.58,489.94,315.02,491.43,317.15,494.21 M330.1,504.99c-2.48-3.3-0.79-5.17-7.76-11.17c1.48,2.19-0.05,4.94,4.66,9.23
		c-4.6-2.61-10.96-1.5-14.02-4.98C318.24,507.74,327.49,503.79,330.1,504.99 M363.87,503.05c4.7-4.29,3.18-7.04,4.66-9.23
		c-6.98,6-5.28,7.87-7.77,11.17c2.62-1.2,11.87,2.75,17.13-6.92C374.83,501.55,368.47,500.44,363.87,503.05 M371.16,497.29
		c2.77-3.71,1.03-7.61,1.62-10.3c-4.46,6.45-2.01,9.21-5.01,13.35c3.65-2.5,11.73-0.13,14.83-11.63
		C380.12,493.42,374.04,494.2,371.16,497.29 M360.02,505.45c-2.73-0.7-5.54-1.05-7.63-1.1c-2.61-0.06-4.94,0.41-6.95,1.14
		c-2.02-0.72-4.35-1.2-6.96-1.14c-2.09,0.05-4.9,0.4-7.63,1.1c-4.2,1.08-7.83,1.9-10.98,0.37c3.02,2.58,6.57,3.51,11.68,2.98
		c4.25-0.44,7.68-2.48,11.69-2.45c0.06,0,0.1,0,0.16,0.01c-4.22,2.05-9.27,4.94-9.27,4.94l1.93,0.25c0,0,4.7-3.93,9.38-4.96
		c4.68,1.02,4.06,4.96,4.06,4.96l1.93-0.25c0,0,0.28-2.89-3.95-4.94c0.05,0,0.1-0.01,0.16-0.01c4.01-0.03,7.44,2.02,11.7,2.45
		c5.11,0.53,8.65-0.39,11.68-2.98C367.85,507.35,364.22,506.52,360.02,505.45 M316.41,472.43c-1.73,3.19-4.42,3.93-4.13,10.51
		c-1.45-5.85-4.92-8.03-4.87-11.77c-2.41,9.76,4.03,10.92,5.69,15.01C312.85,480.32,316.74,479.14,316.41,472.43 M318.83,464.89
		c-0.6,0.81-1.02,1.16-2.63,2.43c-2.19,1.73-3.94,4.01-4.68,7.34c0.16-3.58-2.13-8.72-0.6-12.47c-5.92,8.04,0.34,12.85,0.56,15.76
		C313.01,472.35,316.53,472.31,318.83,464.89 M379.35,474.66c-0.74-3.32-2.49-5.6-4.68-7.34c-1.61-1.27-2.03-1.62-2.63-2.43
		c2.29,7.41,5.82,7.46,7.35,13.06c0.22-2.91,6.48-7.72,0.56-15.76C381.48,465.95,379.19,471.09,379.35,474.66 M384.38,479.84
		c-1.29,3.69-5.73,5.69-8.6,11.07c1.63-6.35-0.78-8.04-1.04-11.51c-2.41,6.16,0.76,8.38-1.02,14.81
		C375.85,491.43,384.28,489.94,384.38,479.84 M374.46,472.43c-0.33,6.7,3.57,7.89,3.33,13.75c1.65-4.09,8.1-5.25,5.68-15.01
		c0.05,3.74-3.42,5.92-4.87,11.77C378.88,476.36,376.19,475.62,374.46,472.43 M321.03,457.56c1.49-1.7,2-4.05,4.34-5.75
		c-4.8,0.98-8.87,5.11-9.96,10.17C316.93,460.28,319.53,459.28,321.03,457.56 M368.44,458.34c2.09,6.6,7.03,5.13,10.34,12.05
		c-0.35-2.33,2.41-9.74-4.06-14.33c2.16,2.54,1.52,7.26,2.8,10.34C375.02,461.21,369.62,460.36,368.44,458.34 M351.67,462.09
		c-1.24-0.49-2.56-0.84-3.94-1.03c-0.01,0.28-0.01,0.56-0.02,0.85c1.27,0.18,2.48,0.5,3.63,0.96
		C351.5,462.63,351.61,462.38,351.67,462.09 M350.67,453.92l0.27-0.23l-0.5-0.2l-1.33-0.03l-0.34,0.23l-0.78-0.06l-0.01,0.18
		c0.49,0.03,0.98,0.08,1.36,0.14l0.64-0.06L350.67,453.92z M348.12,481.3c0-0.22-0.3-0.43-0.74-0.63h-0.08
		c-0.01,0.17-0.02,1.03-0.03,1.45C347.82,481.89,348.12,481.63,348.12,481.3 M332.82,465.16c0.03-0.17,0.07-0.31,0.11-0.46
		c-0.16,0.04-0.35,0.05-0.54,0.05L332.82,465.16z M345.46,502.5c14.86,0,26.95-11.61,26.95-25.89c0-13.4-10.63-24.44-24.21-25.76
		c-0.01,0.05-0.02,0.09-0.03,0.15c-0.06,0.25-0.11,0.48-0.15,0.68c6.08,0.57,11.55,3.16,15.69,7.06l-2.98,2.86l0.11-0.51l-0.39-0.16
		l-0.53-0.03l0.12-0.33l-0.36-1.17l-0.74-0.78l-2.32-1.18l-0.2,0.21l-0.42,0.12c0.8,1.13,1.23,2.43,1.23,3.75
		c0,0.17,0,0.34-0.01,0.51l1.15,1.39l-0.54,0.12l0.36,0.51l-1.02,0.98l-0.41-0.75c-0.19,0.52-0.45,1-0.77,1.46
		c0.08,0.07,0.15,0.14,0.22,0.21l-3.13,3c-0.19-0.17-0.39-0.34-0.59-0.5c-0.3,0.13-0.61,0.26-0.92,0.37
		c0.09,0.06,0.17,0.13,0.26,0.2l-0.16,0.16l-0.37,0.2l-0.13,0.35l-0.23-0.22l-0.66,0.21l0.18,0.28l0.45-0.12l0.3,0.02l0.03-0.15
		l0.22-0.11l0.07-0.13l0.41-0.12l0.32-0.01c0.06,0.05,0.13,0.11,0.19,0.16l-1.24,1.2l-0.09-0.13l-1.3,0.21l-0.29,0.28l-0.29,0.03
		l0.81-0.74l-0.29-0.14l-0.75,0.96l0.22-0.02l-0.01,0.36l0.28,0.1l0.06,0.38l-0.45-0.09l-0.47,0.08l-1.14-0.56
		c0,0-0.06,2.94-0.1,4.41c2.69,0.87,5.55,2.12,5.55,5.42c0,1.45-0.65,2.62-1.94,3.48l0.01,0c-0.02,0.01-0.04,0.02-0.06,0.03l0,0
		c-0.03,0.01-0.06,0.03-0.09,0.06c-1.08,0.69-2.48,1.06-3.69,1.43c-0.01,0-0.04,2.31-0.04,2.31c1.93,0.92,4.27,2.26,4.05,6.09
		c-0.02,0.95-0.41,1.21-0.73,1.29c-1.13,0.27-2.29,0.44-3.49,0.53c-0.01,0.3-0.01,0.58-0.02,0.85c5.19-0.34,9.89-2.45,13.43-5.7
		l3.13,3.01c-4.69,4.34-11.05,7-18.06,7c-6.96,0-13.3-2.64-17.98-6.93l3.13-3.01c3.51,3.19,8.13,5.26,13.24,5.62
		c0-0.26-0.01-0.55-0.01-0.84c-4.86-0.36-9.26-2.34-12.61-5.38l0.83-0.8l1.14,0.13l0.61-0.63l1.6,0.06l0.24-0.53l-0.06-0.22
		c2.32,1.69,5.11,2.8,8.16,3.1c-0.01-0.33-0.01-0.61-0.02-0.84c-3.36-0.36-6.4-1.75-8.76-3.85l3.13-3.01
		c0.76,0.65,1.61,1.2,2.54,1.64c0.07-0.29,0.18-0.55,0.32-0.79c-0.81-0.39-1.56-0.87-2.24-1.44l3.14-3.01
		c0.5,0.38,1.06,0.69,1.67,0.9c-0.01-0.3-0.01-0.61-0.02-0.91c-0.38-0.15-0.72-0.35-1.04-0.59l0.89-0.85
		c-0.31-0.09-0.62-0.18-0.94-0.29l-0.59,0.57c-0.3-0.32-0.55-0.68-0.75-1.07c-0.54-0.23-1.06-0.49-1.55-0.79
		c-1.93-1.22-2.91-2.94-2.91-5.11c0-1.66,0.48-2.92,1.27-3.89l-3.13-3c2.25-2.07,5.15-3.49,8.36-3.96c0-0.29-0.01-0.57-0.02-0.85
		c-3.45,0.48-6.55,2-8.96,4.21l-0.53-0.51c-0.12,0.2-0.26,0.46-0.42,0.79l0.33,0.32c-2.69,2.75-4.36,6.43-4.43,10.47h-4.43
		c0.07-5.22,2.24-9.96,5.72-13.48l1.41,1.35c0.06,0,0.13,0,0.2-0.01c0.25-0.02,0.53-0.09,0.8-0.22l-1.79-1.72
		c0.95-0.88,1.97-1.67,3.08-2.36c0.09-0.29,0.17-0.54,0.22-0.63c0.05-0.1,0.34-0.46,0.68-0.88c-1.68,0.9-3.23,2-4.6,3.27l-3.13-3.01
		c4.1-3.84,9.52-6.39,15.53-6.98l-0.04-0.18c-0.04-0.2-0.09-0.41-0.13-0.65c-13.54,1.35-24.13,12.39-24.13,25.76
		C318.52,490.89,330.6,502.5,345.46,502.5 M351.28,484.61l0-0.02L351.28,484.61C351.28,484.61,351.28,484.61,351.28,484.61
		 M364.33,459.33c4.41,4.44,7.13,10.43,7.21,17.01h-4.43c-0.04-3.26-0.87-6.34-2.31-9.08l0.04-0.08l0.3,0.16l0.07-0.22l-0.79-1.33
		l-0.94-1.25l-1.1-0.88c-0.38-0.45-0.77-0.89-1.18-1.31L364.33,459.33z M358.69,464.78l1.07,0.05l0.25,0.29l-0.13,0.43l1.48,0.89
		l0.29-0.04l1.89,2.08l0.77-0.26c1.2,2.48,1.89,5.23,1.92,8.12h-4.43c-0.02-1.11-0.16-2.19-0.41-3.23l0.2-0.26l0.28-1.34l-0.21-1.43
		l-0.54-1.65l-1.24-1.73l0.3,0.15l0.15-0.15l-0.99-0.65l-0.07,0.21l0.99,1.36l0.56,1.12l0.4,1.11l0.13,0.74l0.21,1.26l-0.37,0.03
		c0,0-0.43-0.77-0.57-1.09l0.2-0.28l-0.38-0.52v-0.52l-0.27-0.33l-0.34,0.04c-0.12-0.21-0.25-0.43-0.38-0.63l0.24,0.12l0.06-0.06
		l-0.13-0.27l0.29-0.16l-0.13-0.16l-0.43,0.16l0.16-0.64l-0.25-0.14l-0.23,0.51c-0.48-0.7-1.02-1.35-1.62-1.97L358.69,464.78z
		 M357.8,474.76l0.79-0.42l0.81-0.12l0.18-0.38l0.45-0.27l0.17-0.36l0.14-0.63c0.06,0.22,0.12,0.45,0.17,0.67l-0.43,1.24l-0.02,0.41
		l0.63-0.8c0.13,0.73,0.21,1.47,0.22,2.23h-3.88l-0.09-0.32l0.45-0.35l0.09-0.21l0.2-0.13l0.52-0.05l0.06-0.22L357.8,474.76z
		 M352.48,471.83l0.4-0.09l-0.02-0.09l-0.4-0.26l0.13-0.8l0.48-0.45c0.29,0.32,0.57,0.67,0.82,1.02l-0.17,0.49l-0.44-0.29
		l-0.32,0.09l0.16,0.29h0.17l-0.18,0.43l-0.12-0.17L352.48,471.83z M354.18,485.96l-0.96-0.27l-0.29,0.11l-0.54-0.4l-0.51-0.18
		c0.25-0.18,0.5-0.35,0.73-0.55l0.79,0.54l0.6,0.31l0.3,0.29L354.18,485.96z M353.69,469.55l3.13-3.01c0.73,0.76,1.38,1.6,1.94,2.5
		l-0.39,0.11l0.02,0.67l1.17,0.71c0.29,0.61,0.54,1.25,0.73,1.9l-0.2,0.29l-0.43,0.26l-0.11,0.63l-0.29,0.15l-0.24,0.28l-0.25-0.09
		l-0.43-0.02l0.25-0.33l0.18-0.85l0.29-0.17l-0.85-0.78L357.6,472l-0.14,0.57l-0.4,0.42l-0.41-0.33l-0.15-0.35l0.24-0.13l0.13,0.23
		l0.19-0.07l-0.08-0.38l-0.28-0.02l-0.02,0.16l-0.18,0.03l-0.97-1.09l-0.33-0.24l0.13-0.13l0.29-0.1l-0.27-0.1
		c0,0-0.35,0.08-0.38,0.08l0.19,0.23l-0.49-0.01C354.37,470.33,354.05,469.93,353.69,469.55 M355.29,485.57l-0.43-0.41l0.33-0.41
		l0.41-0.8l-0.16-0.23l0.27-0.59l-0.03-0.53l-0.17-0.55l-0.39-0.13l-0.14,0.31l-0.23-0.06c0.33-0.51,0.69-0.99,0.93-1.55l0.39-0.16
		l0.22-0.29l0.11,0.12l0.27-0.31l-0.21-0.26l0.19-0.05l0.36,0.14l0.68,0.01l0.41-0.2l1.08-0.27l-0.2-0.35l-0.07-0.42l0.58,0.24
		l0.22-0.12l-0.11-0.43l-0.71,0.25l-0.78-0.15l-0.59-1.17h3.38c-0.15,3.74-1.75,7.14-4.27,9.68l-0.47-0.45l0.2-0.6l-0.36-1.31
		L355.29,485.57z M355.89,493.87l0.41-0.86l-0.16-0.38l0.61-0.52v-0.32l-0.52-0.31l0.43-0.83l0.65-0.81l-0.65-0.68h-0.48l-0.3-0.47
		c0.26-0.2,0.51-0.42,0.76-0.64l3.13,3.01C358.6,492.14,357.3,493.08,355.89,493.87 M359.79,489.89l0.34-0.37l-0.32-1.65l-0.23-0.08
		l0.14-0.28l-0.74-0.22l-0.15,0.58l-0.07,0.75l-0.16,0.14l-1.35-1.3c2.69-2.69,4.38-6.29,4.53-10.27h4.43
		c-0.15,5.15-2.35,9.82-5.83,13.28L359.79,489.89z M361.01,491.06c3.64-3.62,5.94-8.5,6.09-13.87h4.43
		c-0.16,6.55-2.95,12.5-7.39,16.88L361.01,491.06z M334.36,486.94c-0.32-0.32-0.63-0.66-0.92-1l0.14-1.08l-0.47-1.03l-0.11-1.62
		l-0.53-0.98l0.11-0.61l-0.63-1.17l-0.55-0.26l0.22-0.62l-0.23-0.49l0.23-0.56h0.6l0.21-0.34h1.04l0.16,0.29l-0.19,1.01l-0.13,0.17
		l0.39,0.82l-0.26,0.13l-0.18-0.22l-0.07,0.08l0.18,0.48l0.3,0.57l0.14-0.02l0.08-0.5l-0.15-0.19l-0.02-0.34l-0.04-0.71l0.22-1.25
		l-0.21-0.34h0.74c0.14,2.61,1.28,4.97,3.05,6.75L334.36,486.94z M331.43,478.62l-0.42,0.62h-0.72l-0.06-0.03
		c-0.13-0.66-0.2-1.34-0.22-2.02h1.33l-0.32,1.03L331.43,478.62z M332.89,475.7l0.08-0.84l0.52-0.29l0.94,0.16l0.14,0.16
		c-0.08,0.48-0.13,0.96-0.14,1.46h-1.06L332.89,475.7z M337.38,478.88l0.22-0.1l0.58,0.42l-0.25,0.2l0.65,0.42l-0.04-0.45l0.35-0.55
		l0.37,0.37l0.37,0.51l-0.67,0.14l0.3,0.58l0.47-0.24l-0.06-0.19l0.35-0.23l0.21-0.92c0.25,0.55,0.6,1.05,1.01,1.49l-3.13,3.01
		c-1.49-1.51-2.49-3.47-2.74-5.65l0.64,0.66l0.6-0.01L337.38,478.88z M334.17,466.46l3.13,3.01c-0.65,0.69-1.21,1.46-1.66,2.3
		l-0.22-0.01l-0.44,0.13l-0.15-0.01l-0.48,0.42l0.59-0.09l0.54-0.13c-0.04,0.06-0.07,0.13-0.09,0.2l-0.47,0.28h-0.22l-0.69,0.5
		l-0.66-0.05l-0.96,1.72l0.19,0.35l-0.53,0.56l-0.08,0.72h-1.97C330.07,472.53,331.64,469.06,334.17,466.46 M330.13,489.16l1,0.56
		l0.2,0.13l-0.72,0.7c-0.34-0.34-0.66-0.68-0.97-1.04L330.13,489.16z M329.14,477.19c0.01,0.41,0.05,0.82,0.1,1.23l-0.54,0.12
		l-0.11,0.53l-1.13,1.38l0.03,1.9l-1.16,0.36l-0.63,0c-0.59-1.75-0.93-3.6-0.99-5.52H329.14z M324.77,482.69l-0.26-0.05l-0.25-0.26
		l-1.24-0.11l0.38,0.51l-1.15-0.21l0.3-0.26l-0.28-0.27l-0.83,0.35l-0.29,0.53l0.11,1.21l0.96,2.2l0.46,0.69l0.26,0.09l-0.73-1.32
		l-0.16-0.67l0.16-0.17l-0.09-0.37l0.43,0.05l0.67,0.97l0.17,0.07l-0.02-0.71l0.28,0.15l0.06,0.39l0.7,0.18l0.29-0.21l0.1,0.07
		l-0.01,0.52l0.31,0.36l0.38,0.08l0.82,1.33l0.5,0.13l0.16-0.62c0.86,1.37,1.89,2.64,3.05,3.78l-3.13,3.01
		c-4.49-4.4-7.3-10.37-7.46-16.96h4.43C323.88,479.09,324.21,480.94,324.77,482.69 M326.67,459.26l3.13,3.01
		c-3.65,3.68-5.91,8.63-5.98,14.08h-4.43C319.47,469.72,322.22,463.71,326.67,459.26 M358.73,457.7l-0.27-0.41l-0.58-0.28
		l-0.45,0.33l0.58,0.29l0.65,0.45L358.73,457.7z M356.04,469.71l0.02,0.33l0.76-0.22l0.23-0.45l-0.53-0.67l0.29-0.4l0.71,0.49
		l0.13-0.1l-0.14-0.1l-0.16-0.29l0.29-0.16l-0.29-0.36l-0.67,0.32l-0.23,0.39l-0.13,0.35l0.3,0.48l-0.11,0.22L356.04,469.71z
		 M324.03,488.8l0.05-0.19l-0.4-0.83l-0.47-0.17L324.03,488.8z M342.13,472.81c0,0.72,0.45,1.22,1.28,1.65c0,0,0-0.12-0.01-0.32
		l-0.52-0.5l0.27-0.48l0.22-0.06c-0.02-0.83-0.04-1.76-0.04-1.89l-0.04,0C342.55,471.62,342.13,472.11,342.13,472.81"/>
	<path class="st0" d="M347.08,491.25c1.39,0.67,2.67,1.61,3.21,3.38c0.23-2.93-1.48-4.2-3.17-5.06
		C347.12,489.57,347.08,491.25,347.08,491.25"/>
	<path class="st0" d="M356.31,461.51c0-2.66-2.01-5.62-6.94-6.66c-0.36-0.08-0.92-0.13-1.5-0.16c-0.01,0.4-0.03,1.32-0.03,1.32
		c-0.01,0.29-0.03,1.36-0.04,1.59c0.45,0.04,0.79,0.1,0.94,0.13c2.86,0.66,3.89,2.23,3.89,3.8c0,2.53-2.25,3.48-5.01,4.2
		c-0.3,0.08-0.61,0.16-0.92,0.23c-0.84,0.2-1.7,0.39-2.55,0.61c-0.3,0.08-0.61,0.16-0.91,0.25c-3.06,0.9-5.7,2.31-5.7,5.95
		c0,3.6,3.01,4.95,5.94,5.81c-0.02-1.03-0.04-2.08-0.06-3.12c-1.3-0.58-2.21-1.35-2.21-2.65c0-1.26,0.83-2.02,2.1-2.58
		c0.28-0.12,0.58-0.23,0.9-0.34c0.73-0.24,1.55-0.44,2.41-0.64c0.3-0.07,0.61-0.14,0.92-0.21
		C351.69,468.07,356.31,466.84,356.31,461.51"/>
	<path class="st0" d="M341.47,486.92c0.01,1.46,1.12,2.25,2.23,2.85c0-0.25-0.05-2.5-0.05-2.54c0.02-0.45,0.48-0.72,0.84-0.89
		c0.54-0.24,1.08-0.42,1.77-0.65c0.33-0.11,0.62-0.22,0.93-0.31c2.24-0.65,4.83-1.48,4.83-4.09c0-2.63-2.22-3.7-4.65-4.51
		c-0.02,0.84-0.04,2.06-0.06,2.9c1.03,0.39,1.71,0.86,1.71,1.61c0,0.94-1.04,1.48-1.79,1.75c-0.31,0.12-0.77,0.26-0.9,0.3
		c-0.6,0.18-1.24,0.39-1.84,0.6c-0.32,0.11-0.62,0.24-0.91,0.38C342.56,484.84,341.47,485.6,341.47,486.92"/>
	<path class="st0" d="M342.99,455.1c-1.49,0.41-2.37,0.95-2.7,1.06c-0.96,0.31-2.33,0.36-3.73,1.83c-0.25,0.26-0.86,1-1.29,1.6
		c-0.42,0.59-0.44,1.53-0.76,2.04c-0.45,0.73-0.34,1.15-0.34,1.15l0.01,0.03c-0.02,0.09-0.1,0.48-0.52,0.92
		c-0.47,0.51-1.09,0.78-1.82,0.67c0.64,0.31,1.52-0.12,1.52-0.12s-0.17,0.47-0.34,1.22c0.72-1.57,1.38-2.14,1.59-2.29
		c0.31,0.07,0.95,0.03,2.14-0.62c1.34-0.74,3.36-1.95,3.93-2.72c0.62-0.82,1.47-1.37,2.38-1.72
		C343.04,456.99,343.01,455.97,342.99,455.1 M337.32,459.98l-0.7,0.14l0.83-1.31l0.97,0.03L337.32,459.98z"/>
	<path class="st0" d="M345.77,486.74c-0.13,0.04-0.47,0.18-0.68,0.25c-0.22,0.08-0.51,0.19-0.51,0.26c0,0.02,0.21,11.29,0.21,11.53
		c0,2.32,1.23,2.33,1.23,0c0-0.16,0.25-12.21,0.25-12.21S345.97,486.67,345.77,486.74"/>
	<path class="st0" d="M344.49,483.02c0.38-0.13,0.76-0.24,1.12-0.34c0.27-0.08,0.52-0.16,0.74-0.22c0.01-0.71,0.22-10.52,0.26-12.3
		c-0.92,0.22-1.71,0.43-2.37,0.66C344.28,472.15,344.47,481.95,344.49,483.02"/>
	<path class="st0" d="M345.52,445.47c-3.45,0-1.98,4.92-1.71,6.53c0.01,0.08,0.28,11.12,0.33,13.66c0.52-0.13,1.05-0.26,1.55-0.38
		c0.36-0.09,0.71-0.17,1.04-0.25c0.06-2.44,0.31-12.98,0.32-13.05C347.25,450.26,349.06,445.47,345.52,445.47"/>
	<path class="st0" d="M396.17,451.54c3.29,0,6.31,2.75,6.31,9.14c0,6.39-3.02,9.13-6.31,9.13c-3.29,0-6.31-2.74-6.31-9.13
		C389.86,454.29,392.87,451.54,396.17,451.54 M396.17,467.31c1.84,0,3.31-1.76,3.31-6.64c0-4.89-1.47-6.64-3.31-6.64
		c-1.84,0-3.32,1.75-3.32,6.64C392.85,465.56,394.33,467.31,396.17,467.31"/>
	<path class="st0" d="M404.43,458.61c0-0.81-0.02-1.58-0.09-2.16h2.54c0.02,0.79,0.09,1.61,0.09,2.39h0.04
		c0.35-1.02,1.23-2.6,2.98-2.6c0.18,0,0.32,0.05,0.47,0.08v2.95c-0.25-0.08-0.49-0.13-0.79-0.13c-1.16,0-2.43,0.79-2.43,3.23v7.17
		h-2.81"/>
	<path class="st0" d="M411.91,471.59c0.66,0.41,1.98,1.12,3.45,1.12c2.66,0,3.08-2.06,3.08-4.12v-1.25h-0.04
		c-0.46,1.02-1.25,2.22-3.09,2.22c-1.64,0-4.08-1.22-4.08-6.52c0-3.61,1.16-6.79,4.22-6.79c1.71,0,2.5,1.09,3.08,2.24h0.1
		c0-0.69,0.07-1.35,0.09-2.04h2.54c-0.04,0.69-0.09,1.37-0.09,2.06v9.66c0,4.09-1.11,7.02-5.4,7.02c-1.86,0-3.34-0.53-4.02-0.81
		 M415.97,467.24c1.77,0,2.47-1.43,2.47-4.4c0-2.75-0.93-4.23-2.27-4.2c-1.48,0.03-2.04,1.56-2.04,4.22
		C414.13,465.94,415.02,467.24,415.97,467.24"/>
	<path class="st0" d="M423.96,457.21c0.79-0.4,1.91-0.97,3.7-0.97c3.63,0,4.47,1.98,4.47,5.27v5.72c0,0.94,0.09,1.81,0.16,2.32
		h-2.54c-0.13-0.51-0.16-1.15-0.16-1.78h-0.05c-0.7,1.07-1.59,1.98-3.27,1.98c-1.81,0-3.49-1.4-3.49-3.84
		c0-3.56,2.59-4.45,6.15-4.45h0.57v-0.48c0-1.3-0.57-2.49-2.18-2.49c-1.41,0-2.65,0.76-3.2,1.27 M429.49,463.14h-0.25
		c-2.41,0-3.84,0.56-3.84,2.47c0,1.2,0.7,2.01,1.79,2.01c1.68,0,2.29-1.4,2.29-3.74V463.14z"/>
	<path class="st0" d="M434.39,458.61c0-0.81-0.02-1.58-0.09-2.16h2.63c0.02,0.67,0.09,1.35,0.09,2.01h0.06h-0.02
		c0.41-0.79,1.2-2.22,3.11-2.22c2.65,0,3.45,2.22,3.45,4.86v8.45h-2.82v-7.86c0-2.01-0.45-2.85-1.61-2.85c-1.47,0-2,1.4-2,3.08v7.63
		h-2.81"/>
	<path class="st0" d="M445.95,450.88h2.91v3.11h-2.91 M445.99,456.45h2.81v13.1h-2.81V456.45z"/>
	<polyline class="st0" points="450.86,466.83 455.86,458.84 451.02,458.84 451.02,456.45 458.67,456.45 458.67,459.15 
		453.77,467.16 458.83,467.16 458.83,469.55 450.86,469.55 	"/>
	<path class="st0" d="M461.18,457.21c0.8-0.4,1.9-0.97,3.7-0.97c3.63,0,4.47,1.98,4.47,5.27v5.72c0,0.94,0.09,1.81,0.16,2.32h-2.54
		c-0.13-0.51-0.16-1.15-0.16-1.78h-0.05c-0.7,1.07-1.59,1.98-3.27,1.98c-1.81,0-3.49-1.4-3.49-3.84c0-3.56,2.59-4.45,6.15-4.45h0.57
		v-0.48c0-1.3-0.57-2.49-2.18-2.49c-1.41,0-2.66,0.76-3.2,1.27 M466.72,463.14h-0.25c-2.41,0-3.83,0.56-3.83,2.47
		c0,1.2,0.7,2.01,1.79,2.01c1.68,0,2.29-1.4,2.29-3.74V463.14z"/>
	<path class="st0" d="M479.01,469.22c-0.66,0.28-1.63,0.53-2.77,0.53h-0.14l-0.41,1.37c0.23-0.08,0.5-0.15,0.89-0.15
		c1.25,0,1.97,0.79,1.97,1.88c0,1.61-1.4,2.35-2.52,2.35c-0.95,0-1.93-0.26-2.38-0.51l0.37-1.02c0.45,0.18,0.91,0.36,1.58,0.36
		c0.75,0,1.18-0.43,1.18-1.04c0-0.58-0.43-0.94-1.04-0.94c-0.41,0-0.68,0.08-0.89,0.18l-0.41-0.43l0.68-2.13
		c-3.08-0.56-4.38-3.33-4.38-6.64c0-3.74,1.72-6.77,5.65-6.77c0.89,0,1.93,0.3,2.45,0.54l-0.16,2.49c-0.5-0.28-1.2-0.63-1.98-0.63
		c-2.13,0-3.06,1.6-3.06,4.4c0,2.44,1.05,4.32,3.2,4.32c0.68,0,1.61-0.36,2-0.64"/>
	<path class="st0" d="M481.51,457.21c0.79-0.4,1.91-0.97,3.7-0.97c3.63,0,4.47,1.98,4.47,5.27v5.72c0,0.94,0.09,1.81,0.16,2.32
		h-2.54c-0.13-0.51-0.16-1.15-0.16-1.78h-0.05c-0.7,1.07-1.59,1.98-3.27,1.98c-1.82,0-3.49-1.4-3.49-3.84
		c0-3.56,2.59-4.45,6.15-4.45h0.57v-0.48c0-1.3-0.57-2.49-2.18-2.49c-1.41,0-2.65,0.76-3.2,1.27 M481.94,454.72
		c0-0.89,0.43-2.93,2.13-2.97c1.04,0,1.93,0.86,2.61,0.86c0.45,0,0.66-0.48,0.66-0.99h1.41c0,0.74-0.43,2.98-2.11,2.98
		c-0.88,0-1.72-0.87-2.54-0.87c-0.57,0-0.84,0.46-0.84,0.99H481.94z M487.05,463.14h-0.25c-2.41,0-3.84,0.56-3.84,2.47
		c0,1.2,0.7,2.01,1.79,2.01c1.68,0,2.29-1.4,2.29-3.74V463.14z"/>
	<path class="st0" d="M496.78,456.25c2.38,0,5.13,1.4,5.13,6.74c0,5.5-2.75,6.77-5.13,6.77c-2.38,0-5.15-1.27-5.15-6.77
		C491.63,457.65,494.4,456.25,496.78,456.25 M496.78,467.52c1.81,0,2.22-2.34,2.22-4.53c0-2.19-0.41-4.51-2.22-4.51
		c-1.81,0-2.25,2.32-2.25,4.51C494.54,465.18,494.97,467.52,496.78,467.52"/>
	<polyline class="st0" points="403.72,479.18 403.67,479.18 399.7,493.99 397.64,493.99 393.85,479.18 393.8,479.18 393.8,493.99 
		391.17,493.99 391.17,476.23 395.5,476.23 398.77,489.49 398.82,489.49 402.15,476.23 406.35,476.23 406.35,493.99 403.72,493.99 	
		"/>
	<path class="st0" d="M417.85,491.83c0,0.82,0.03,1.58,0.09,2.16h-2.63c-0.03-0.66-0.1-1.34-0.1-2.01l-0.06-0.03l0.02,0.03
		c-0.54,0.97-1.27,2.21-3.11,2.21c-2.65,0-3.45-2.21-3.45-4.86v-8.45h2.81v7.86c0,2.01,0.5,2.85,1.68,2.85c1.5,0,1.93-1.52,1.93-3.2
		v-7.51h2.81"/>
	<path class="st0" d="M420.27,483.05c0-0.82-0.02-1.58-0.09-2.16h2.63c0.02,0.67,0.1,1.35,0.1,2.01h0.06h-0.03
		c0.41-0.79,1.21-2.21,3.11-2.21c2.65,0,3.45,2.21,3.45,4.86v8.44h-2.81v-7.86c0-2.01-0.45-2.85-1.61-2.85c-1.47,0-2,1.4-2,3.08
		v7.63h-2.82"/>
	<path class="st0" d="M441.42,474.91v16.84c0,0.95,0.02,1.76,0.09,2.24h-2.63c-0.04-0.38-0.09-1.14-0.09-2.03h-0.07
		c-0.46,1.12-1.3,2.24-3.11,2.24c-2.91,0-4.11-3.11-4.11-6.74c0-4.28,1.52-6.77,4.04-6.77c1.68,0,2.61,1.07,3.02,2.09h0.05v-7.86
		 M436.38,491.88c1.66,0,2.22-2.01,2.22-4.48c0-2.54-0.63-4.4-2.18-4.4c-1.57,0-2.11,1.7-2.11,4.32
		C434.31,490.35,434.75,491.88,436.38,491.88"/>
	<path class="st0" d="M443.68,475.32h2.91v3.1h-2.91 M443.72,480.89h2.82v13.1h-2.82V480.89z"/>
	<path class="st0" d="M449.69,481.65c0.79-0.41,1.9-0.96,3.7-0.96c3.63,0,4.47,1.98,4.47,5.27v5.73c0,0.94,0.09,1.81,0.16,2.31
		h-2.54c-0.13-0.51-0.16-1.14-0.16-1.78h-0.05c-0.7,1.07-1.59,1.98-3.27,1.98c-1.81,0-3.49-1.4-3.49-3.84
		c0-3.55,2.59-4.45,6.15-4.45h0.57v-0.48c0-1.3-0.57-2.49-2.18-2.49c-1.4,0-2.65,0.76-3.2,1.27 M455.23,487.58h-0.25
		c-2.41,0-3.84,0.56-3.84,2.47c0,1.2,0.7,2.01,1.79,2.01c1.68,0,2.29-1.4,2.29-3.74V487.58z"/>
	<rect x="460.52" y="474.91" class="st0" width="2.81" height="19.07"/>
	<path class="st0" d="M481.84,474.91v16.84c0,0.95,0.02,1.76,0.1,2.24h-2.63c-0.04-0.38-0.09-1.14-0.09-2.03h-0.07
		c-0.45,1.12-1.3,2.24-3.11,2.24c-2.91,0-4.11-3.11-4.11-6.74c0-4.28,1.52-6.77,4.04-6.77c1.68,0,2.61,1.07,3.02,2.09h0.05v-7.86
		 M476.81,491.88c1.65,0,2.22-2.01,2.22-4.48c0-2.54-0.63-4.4-2.18-4.4c-1.57,0-2.12,1.7-2.12,4.32
		C474.74,490.35,475.17,491.88,476.81,491.88"/>
	<path class="st0" d="M484.77,481.65c0.79-0.41,1.9-0.96,3.7-0.96c3.63,0,4.47,1.98,4.47,5.27v5.73c0,0.94,0.09,1.81,0.16,2.31
		h-2.54c-0.13-0.51-0.16-1.14-0.16-1.78h-0.04c-0.7,1.07-1.59,1.98-3.27,1.98c-1.81,0-3.49-1.4-3.49-3.84
		c0-3.55,2.59-4.45,6.15-4.45h0.57v-0.48c0-1.3-0.57-2.49-2.18-2.49c-1.41,0-2.65,0.76-3.2,1.27 M490.31,487.58h-0.25
		c-2.41,0-3.83,0.56-3.83,2.47c0,1.2,0.7,2.01,1.79,2.01c1.68,0,2.29-1.4,2.29-3.74V487.58z"/>
	<path class="st0" d="M501.2,490.56c0.57,0.41,1.81,1.09,3.36,1.09c1.27,0,2.41-0.79,2.41-2.57c0-1.27-0.65-1.83-2.06-2.7
		l-1.48-0.92c-1.56-0.97-2.58-2.37-2.58-4.66c0-3.18,2.34-4.83,4.99-4.83c1.68,0,2.86,0.48,3.32,0.63l-0.14,2.72
		c-0.7-0.31-1.63-0.76-2.97-0.76c-1.45,0-2.2,0.87-2.2,2.09c0,1.32,0.79,1.83,1.68,2.39l1.7,1.07c1.86,1.17,2.75,2.29,2.75,4.79
		c0,3.61-2.29,5.34-5.31,5.34c-1.59,0-2.81-0.26-3.6-0.79"/>
	<path class="st0" d="M512.57,481.65c0.79-0.41,1.91-0.96,3.7-0.96c3.63,0,4.47,1.98,4.47,5.27v5.73c0,0.94,0.09,1.81,0.16,2.31
		h-2.54c-0.14-0.51-0.16-1.14-0.16-1.78h-0.05c-0.7,1.07-1.59,1.98-3.27,1.98c-1.81,0-3.49-1.4-3.49-3.84
		c0-3.55,2.58-4.45,6.15-4.45h0.57v-0.48c0-1.3-0.57-2.49-2.18-2.49c-1.4,0-2.66,0.76-3.2,1.27 M518.11,487.58h-0.25
		c-2.41,0-3.84,0.56-3.84,2.47c0,1.2,0.7,2.01,1.79,2.01c1.68,0,2.29-1.4,2.29-3.74V487.58z"/>
	<path class="st0" d="M531.92,491.83c0,0.81,0.03,1.57,0.09,2.16h-2.63c-0.02-0.66-0.09-1.34-0.09-2l-0.07-0.03l0.02,0.03
		c-0.54,0.97-1.27,2.21-3.11,2.21c-2.65,0-3.45-2.21-3.45-4.86v-8.45h2.81v7.86c0,2.01,0.5,2.85,1.68,2.85
		c1.5,0,1.93-1.52,1.93-3.21v-7.5h2.81 M527.43,475.78h2.63l-2.32,3.66h-1.77L527.43,475.78z"/>
	<path class="st0" d="M543.94,474.91v16.84c0,0.95,0.03,1.76,0.09,2.24h-2.63c-0.04-0.38-0.09-1.14-0.09-2.03h-0.07
		c-0.46,1.12-1.3,2.24-3.11,2.24c-2.91,0-4.11-3.11-4.11-6.74c0-4.28,1.52-6.77,4.04-6.77c1.68,0,2.61,1.07,3.01,2.09h0.05v-7.86
		 M538.9,491.88c1.66,0,2.22-2.01,2.22-4.48c0-2.54-0.64-4.4-2.18-4.4c-1.57,0-2.11,1.7-2.11,4.32
		C536.84,490.35,537.27,491.88,538.9,491.88"/>
	<path class="st0" d="M554.77,493.36c-0.59,0.28-1.82,0.84-3.49,0.84c-3.77,0-5.4-3.02-5.4-6.56c0-3.92,1.84-6.94,4.81-6.94
		c2.52,0,4.67,1.65,4.67,6.99v0.61h-6.76c0,2.24,0.79,3.59,2.97,3.59c1.72,0,2.54-0.58,3.06-1.02 M552.64,486.31
		c0-2.32-0.68-3.49-1.95-3.49c-1.47,0-2.09,1.75-2.09,3.49H552.64z"/>
	<polygon class="st0" points="305.97,515.75 308.92,515.75 308.92,516.73 307,516.73 307,518.53 308.82,518.53 308.82,519.52 
		307,519.52 307,521.5 309,521.5 309,522.49 305.97,522.49 	"/>
	<path class="st0" d="M309.72,521.19c0.2,0.15,0.64,0.41,1.19,0.41c0.45,0,0.85-0.3,0.85-0.98c0-0.48-0.23-0.7-0.73-1.02l-0.52-0.35
		c-0.55-0.37-0.92-0.9-0.92-1.77c0-1.21,0.83-1.83,1.77-1.83c0.59,0,1.01,0.18,1.17,0.24l-0.05,1.03c-0.25-0.12-0.58-0.29-1.05-0.29
		c-0.51,0-0.78,0.33-0.78,0.79c0,0.5,0.28,0.7,0.6,0.91l0.6,0.4c0.66,0.45,0.97,0.87,0.97,1.82c0,1.37-0.81,2.03-1.88,2.03
		c-0.56,0-0.99-0.1-1.27-0.3L309.72,521.19z"/>
	<path class="st0" d="M317.18,522.34c-0.21,0.14-0.71,0.24-1.21,0.24c-1.71,0-2.58-1.5-2.58-3.47c0-1.97,0.87-3.47,2.55-3.47
		c0.57,0,1.04,0.18,1.24,0.28l-0.06,1.11c-0.21-0.13-0.54-0.37-1.06-0.37c-0.86,0-1.59,0.69-1.59,2.44c0,1.75,0.73,2.44,1.59,2.44
		c0.5,0,0.83-0.14,1.06-0.35L317.18,522.34z"/>
	<path class="st0" d="M317.83,515.75h1.75c1,0,1.67,0.54,1.67,1.78c0,0.88-0.46,1.47-1.08,1.59v0.03c0.21,0.04,0.44,0.16,0.62,0.78
		l0.73,2.57h-1.09l-0.55-2.19c-0.14-0.53-0.4-0.7-0.78-0.7h-0.23v2.9h-1.03V515.75z M319.28,518.68c0.54,0,0.92-0.34,0.92-1.02
		c0-0.77-0.34-0.97-0.92-0.97h-0.42v1.99H319.28z"/>
	<rect x="322.17" y="515.75" class="st0" width="1.03" height="6.74"/>
	<polygon class="st0" points="325.03,516.73 323.77,516.73 323.77,515.75 327.3,515.75 327.3,516.73 326.06,516.73 326.06,522.49 
		325.03,522.49 	"/>
	<path class="st0" d="M329.53,515.65c1.17,0,2.24,1.04,2.24,3.47c0,2.42-1.07,3.47-2.24,3.47c-1.17,0-2.23-1.04-2.23-3.47
		C327.3,516.69,328.36,515.65,329.53,515.65 M329.53,521.64c0.65,0,1.17-0.67,1.17-2.52c0-1.86-0.52-2.52-1.17-2.52
		c-0.65,0-1.17,0.67-1.17,2.52C328.35,520.97,328.88,521.64,329.53,521.64"/>
	<path class="st0" d="M332.49,515.75h1.75c1,0,1.67,0.54,1.67,1.78c0,0.88-0.46,1.47-1.08,1.59v0.03c0.21,0.04,0.44,0.16,0.62,0.78
		l0.73,2.57h-1.09l-0.55-2.19c-0.14-0.53-0.4-0.7-0.78-0.7h-0.24v2.9h-1.03V515.75z M333.94,518.68c0.54,0,0.92-0.34,0.92-1.02
		c0-0.77-0.34-0.97-0.92-0.97h-0.42v1.99H333.94z"/>
	<rect x="336.8" y="515.75" class="st0" width="1.03" height="6.74"/>
	<path class="st0" d="M340.83,515.65c1.17,0,2.23,1.04,2.23,3.47c0,2.42-1.07,3.47-2.23,3.47c-1.17,0-2.23-1.04-2.23-3.47
		C338.6,516.69,339.66,515.65,340.83,515.65 M340.83,521.64c0.65,0,1.17-0.67,1.17-2.52c0-1.86-0.52-2.52-1.17-2.52
		c-0.65,0-1.17,0.67-1.17,2.52C339.66,520.97,340.18,521.64,340.83,521.64"/>
	<path class="st0" d="M345.67,515.75h1.75c1,0,1.67,0.54,1.67,1.78c0,0.88-0.46,1.47-1.08,1.59v0.03c0.21,0.04,0.44,0.16,0.62,0.78
		l0.73,2.57h-1.09l-0.55-2.19c-0.14-0.53-0.4-0.7-0.78-0.7h-0.23v2.9h-1.03V515.75z M347.12,518.68c0.54,0,0.92-0.34,0.92-1.02
		c0-0.77-0.34-0.97-0.92-0.97h-0.42v1.99H347.12z"/>
	<polygon class="st0" points="349.99,515.75 352.93,515.75 352.93,516.73 351.02,516.73 351.02,518.53 352.83,518.53 352.83,519.52 
		351.02,519.52 351.02,521.5 353.02,521.5 353.02,522.49 349.99,522.49 	"/>
	<path class="st0" d="M356.04,518.71h1.81v3.52c-0.29,0.19-0.79,0.35-1.52,0.35c-1.8,0-2.76-1.47-2.76-3.47c0-2,0.96-3.47,2.76-3.47
		c0.64,0,1.15,0.17,1.37,0.29l-0.06,1.11c-0.33-0.24-0.78-0.41-1.29-0.41c-1.09,0-1.68,1.08-1.68,2.48c0,1.52,0.57,2.48,1.62,2.48
		c0.24,0,0.46-0.06,0.59-0.12v-1.82h-0.85V518.71z"/>
	<rect x="358.82" y="515.75" class="st0" width="1.03" height="6.74"/>
	<path class="st0" d="M362.86,515.65c1.17,0,2.23,1.04,2.23,3.47c0,2.42-1.07,3.47-2.23,3.47c-1.17,0-2.24-1.04-2.24-3.47
		C360.62,516.69,361.69,515.65,362.86,515.65 M362.86,521.64c0.65,0,1.17-0.67,1.17-2.52c0-1.86-0.52-2.52-1.17-2.52
		c-0.65,0-1.17,0.67-1.17,2.52C361.68,520.97,362.21,521.64,362.86,521.64"/>
	<polygon class="st0" points="365.85,515.75 367.07,515.75 368.94,521.04 368.95,521.04 368.95,515.75 369.88,515.75 369.88,522.49 
		368.65,522.49 366.8,517.23 366.78,517.23 366.78,522.49 365.85,522.49 	"/>
	<path class="st0" d="M373.7,520.87h-1.93l-0.4,1.62h-1.03l1.88-6.74h1.12l1.81,6.74h-1.06L373.7,520.87z M373.48,519.92l-0.71-3.15
		h-0.01l-0.77,3.15H373.48z"/>
	<polygon class="st0" points="375.55,515.75 376.57,515.75 376.57,521.5 378.42,521.5 378.42,522.49 375.55,522.49 	"/>
	<path class="st0" d="M380.83,515.75h1.61c1.16,0,1.76,0.77,1.76,2.05c0,1.28-0.6,2.06-1.76,2.06h-0.58v2.64h-1.03V515.75z
		 M382.24,518.9c0.64,0,0.92-0.37,0.92-1.11c0-0.73-0.28-1.1-0.92-1.1h-0.38v2.21H382.24z"/>
	<path class="st0" d="M387.07,520.87h-1.93l-0.4,1.62h-1.03l1.88-6.74h1.12l1.81,6.74h-1.06L387.07,520.87z M386.85,519.92
		l-0.71-3.15h-0.02l-0.77,3.15H386.85z"/>
	<path class="st0" d="M388.89,515.75h1.75c1,0,1.67,0.54,1.67,1.78c0,0.88-0.46,1.47-1.09,1.59v0.03c0.21,0.04,0.44,0.16,0.62,0.78
		l0.73,2.57h-1.09l-0.56-2.19c-0.14-0.53-0.4-0.7-0.78-0.7h-0.23v2.9h-1.03V515.75z M390.34,518.68c0.55,0,0.92-0.34,0.92-1.02
		c0-0.77-0.34-0.97-0.92-0.97h-0.42v1.99H390.34z"/>
	<path class="st0" d="M396.02,520.87h-1.93l-0.4,1.62h-1.03l1.88-6.74h1.13l1.81,6.74h-1.06L396.02,520.87z M395.8,519.92
		l-0.71-3.15h-0.01l-0.77,3.15H395.8z"/>
	<path class="st0" d="M402.19,520.87h-1.93l-0.4,1.62h-1.03l1.88-6.74h1.12l1.81,6.74h-1.06L402.19,520.87z M401.97,519.92
		l-0.71-3.15h-0.01l-0.77,3.15H401.97z"/>
	<path class="st0" d="M404.02,521.19c0.2,0.15,0.64,0.41,1.19,0.41c0.45,0,0.85-0.3,0.85-0.98c0-0.48-0.23-0.7-0.73-1.02l-0.52-0.35
		c-0.55-0.37-0.92-0.9-0.92-1.77c0-1.21,0.83-1.83,1.77-1.83c0.6,0,1.02,0.18,1.17,0.24l-0.05,1.03c-0.25-0.12-0.58-0.29-1.05-0.29
		c-0.51,0-0.78,0.33-0.78,0.79c0,0.5,0.28,0.7,0.6,0.91l0.6,0.4c0.66,0.45,0.97,0.87,0.97,1.82c0,1.37-0.81,2.03-1.88,2.03
		c-0.56,0-1-0.1-1.28-0.3L404.02,521.19z"/>
	<polyline class="st0" points="443.46,510.1 445.17,505.96 447.76,505.96 445.17,510.1 	"/>
	<polyline class="st0" points="329.11,515.21 329.96,513.14 331.26,513.14 329.96,515.21 	"/>
	<path class="st0" d="M136.2,448.89c3.96,0,7.6,3.14,7.6,10.46c0,7.31-3.63,10.45-7.6,10.45c-3.96,0-7.59-3.14-7.59-10.45
		C128.61,452.03,132.24,448.89,136.2,448.89 M136.2,466.95c2.21,0,3.99-2.01,3.99-7.6c0-5.59-1.78-7.61-3.99-7.61
		c-2.21,0-3.99,2.01-3.99,7.61C132.21,464.94,133.99,466.95,136.2,466.95"/>
	<path class="st0" d="M146.28,456.98c0-0.93-0.03-1.8-0.11-2.47h3.06c0.03,0.9,0.11,1.84,0.11,2.74h0.06
		c0.41-1.17,1.48-2.97,3.58-2.97c0.22,0,0.38,0.06,0.57,0.08v3.38c-0.3-0.09-0.6-0.14-0.96-0.14c-1.39,0-2.92,0.9-2.92,3.7v8.21
		h-3.39"/>
	<path class="st0" d="M155.55,471.84c0.79,0.47,2.38,1.28,4.15,1.28c3.2,0,3.71-2.36,3.71-4.72v-1.43h-0.06
		c-0.54,1.17-1.5,2.53-3.71,2.53c-1.97,0-4.92-1.4-4.92-7.46c0-4.14,1.39-7.78,5.08-7.78c2.05,0,3.01,1.25,3.71,2.56h0.11
		c0-0.79,0.08-1.55,0.11-2.33h3.06c-0.06,0.79-0.11,1.57-0.11,2.36v11.07c0,4.69-1.34,8.04-6.51,8.04c-2.24,0-4.01-0.61-4.83-0.93
		 M160.44,466.86c2.13,0,2.98-1.63,2.98-5.04c0-3.14-1.12-4.84-2.73-4.8c-1.78,0.03-2.46,1.78-2.46,4.84
		C158.22,465.37,159.29,466.86,160.44,466.86"/>
	<path class="st0" d="M170.05,455.38c0.96-0.47,2.29-1.11,4.45-1.11c4.37,0,5.38,2.27,5.38,6.03v6.55c0,1.08,0.11,2.06,0.19,2.65
		h-3.06c-0.16-0.58-0.19-1.31-0.19-2.04h-0.06c-0.85,1.22-1.91,2.27-3.93,2.27c-2.19,0-4.21-1.6-4.21-4.4c0-4.08,3.11-5.1,7.4-5.1
		h0.68v-0.55c0-1.48-0.68-2.85-2.62-2.85c-1.69,0-3.2,0.87-3.85,1.45 M176.72,462.17h-0.3c-2.9,0-4.62,0.64-4.62,2.83
		c0,1.37,0.84,2.3,2.16,2.3c2.02,0,2.76-1.6,2.76-4.28V462.17z"/>
	<path class="st0" d="M182.62,456.98c0-0.93-0.03-1.8-0.11-2.47h3.17c0.03,0.76,0.11,1.54,0.11,2.3h0.08h-0.03
		c0.49-0.9,1.45-2.53,3.74-2.53c3.2,0,4.15,2.53,4.15,5.56v9.67h-3.39v-9c0-2.3-0.54-3.26-1.94-3.26c-1.78,0-2.41,1.6-2.41,3.52
		v8.73h-3.39"/>
	<path class="st0" d="M196.66,448.13h3.5v3.56h-3.5 M196.71,454.51h3.39v15h-3.39V454.51z"/>
	<polyline class="st0" points="202.31,466.39 208.32,457.25 202.51,457.25 202.51,454.51 211.71,454.51 211.71,457.6 205.81,466.77 
		211.9,466.77 211.9,469.51 202.31,469.51 	"/>
	<path class="st0" d="M214.47,455.38c0.96-0.47,2.29-1.11,4.45-1.11c4.37,0,5.38,2.27,5.38,6.03v6.55c0,1.08,0.11,2.06,0.19,2.65
		h-3.06c-0.16-0.58-0.19-1.31-0.19-2.04h-0.06c-0.85,1.22-1.91,2.27-3.93,2.27c-2.19,0-4.21-1.6-4.21-4.4c0-4.08,3.11-5.1,7.4-5.1
		h0.68v-0.55c0-1.48-0.68-2.85-2.62-2.85c-1.69,0-3.2,0.87-3.85,1.45 M221.13,462.17h-0.3c-2.89,0-4.62,0.64-4.62,2.83
		c0,1.37,0.84,2.3,2.16,2.3c2.02,0,2.76-1.6,2.76-4.28V462.17z"/>
	<path class="st0" d="M236.59,469.13c-0.79,0.32-1.97,0.61-3.33,0.61h-0.16l-0.49,1.57c0.27-0.09,0.6-0.17,1.07-0.17
		c1.5,0,2.38,0.9,2.38,2.16c0,1.84-1.69,2.68-3.03,2.68c-1.14,0-2.32-0.29-2.87-0.58l0.44-1.17c0.55,0.21,1.1,0.41,1.91,0.41
		c0.9,0,1.42-0.5,1.42-1.2c0-0.67-0.52-1.08-1.26-1.08c-0.49,0-0.82,0.09-1.07,0.2l-0.49-0.49l0.82-2.45
		c-3.71-0.64-5.27-3.81-5.27-7.6c0-4.28,2.08-7.74,6.8-7.74c1.07,0,2.32,0.35,2.95,0.61l-0.19,2.86c-0.6-0.32-1.45-0.73-2.38-0.73
		c-2.57,0-3.69,1.83-3.69,5.04c0,2.79,1.25,4.95,3.85,4.95c0.82,0,1.94-0.41,2.4-0.73"/>
	<path class="st0" d="M238.95,455.38c0.96-0.47,2.29-1.11,4.45-1.11c4.37,0,5.38,2.27,5.38,6.03v6.55c0,1.08,0.11,2.06,0.19,2.65
		h-3.06c-0.16-0.58-0.19-1.31-0.19-2.04h-0.06c-0.85,1.22-1.91,2.27-3.93,2.27c-2.19,0-4.21-1.6-4.21-4.4c0-4.08,3.11-5.1,7.4-5.1
		h0.68v-0.55c0-1.48-0.68-2.85-2.62-2.85c-1.69,0-3.2,0.87-3.85,1.45 M239.46,452.53c0-1.02,0.52-3.35,2.57-3.41
		c1.26,0,2.32,0.99,3.14,0.99c0.55,0,0.79-0.55,0.79-1.13h1.7c0,0.84-0.52,3.4-2.54,3.4c-1.06,0-2.07-0.99-3.06-0.99
		c-0.68,0-1.01,0.53-1.01,1.14H239.46z M245.61,462.17h-0.3c-2.9,0-4.62,0.64-4.62,2.83c0,1.37,0.84,2.3,2.16,2.3
		c2.02,0,2.76-1.6,2.76-4.28V462.17z"/>
	<path class="st0" d="M257.33,454.28c2.87,0,6.18,1.6,6.18,7.71c0,6.29-3.31,7.75-6.18,7.75c-2.87,0-6.2-1.46-6.2-7.75
		C251.13,455.88,254.46,454.28,257.33,454.28 M257.33,467.18c2.19,0,2.68-2.68,2.68-5.19c0-2.5-0.49-5.15-2.68-5.15
		c-2.19,0-2.7,2.65-2.7,5.15C254.62,464.5,255.14,467.18,257.33,467.18"/>
	<path class="st0" d="M129.21,474.73h5.46c3.93,0,5.98,2.33,5.98,6.17c0,3.84-2.05,6.2-5.98,6.2h-1.97v7.95h-3.49 M134.02,484.25
		c2.18,0,3.14-1.14,3.14-3.35c0-2.21-0.96-3.32-3.14-3.32h-1.31v6.67H134.02z"/>
	<path class="st0" d="M141.83,480.93c0.95-0.47,2.29-1.1,4.45-1.1c4.37,0,5.38,2.27,5.38,6.03v6.55c0,1.08,0.11,2.07,0.19,2.65
		h-3.06c-0.16-0.58-0.19-1.31-0.19-2.03h-0.06c-0.85,1.22-1.91,2.27-3.93,2.27c-2.19,0-4.21-1.6-4.21-4.4c0-4.08,3.11-5.09,7.4-5.09
		h0.68v-0.56c0-1.48-0.68-2.85-2.62-2.85c-1.69,0-3.2,0.87-3.85,1.45 M148.5,487.71h-0.3c-2.89,0-4.62,0.64-4.62,2.83
		c0,1.37,0.85,2.3,2.16,2.3c2.02,0,2.76-1.6,2.76-4.28V487.71z"/>
	<path class="st0" d="M154.4,482.53c0-0.93-0.03-1.81-0.11-2.48h3.17c0.03,0.76,0.11,1.54,0.11,2.3h0.08h-0.03
		c0.49-0.9,1.45-2.53,3.74-2.53c3.2,0,4.15,2.53,4.15,5.56v9.67h-3.39v-9c0-2.3-0.54-3.26-1.94-3.26c-1.78,0-2.41,1.6-2.41,3.52
		v8.73h-3.39"/>
	<rect x="167.78" y="485.3" class="st0" width="6.31" height="2.97"/>
	<path class="st0" d="M186.41,490.16h-6.56l-1.37,4.89h-3.49l6.39-20.33h3.83l6.14,20.33h-3.6 M185.67,487.31l-2.4-9.5h-0.06
		l-2.62,9.5H185.67z"/>
	<path class="st0" d="M192.56,482.5c0-1.08-0.05-1.89-0.11-2.45h3.39c0.03,0.79,0.11,1.57,0.11,2.36H196
		c0.52-1.16,1.61-2.59,3.55-2.59c2.38,0,3.14,1.57,3.55,2.39c0.68-1.05,1.69-2.39,3.77-2.39c3.06,0,4.04,2.33,4.04,5.97v9.26h-3.39
		v-9.47c0-1.87-0.55-2.79-1.8-2.79c-1.5,0-2.29,1.51-2.29,3.17v9.09h-3.39v-9.47c0-1.87-0.54-2.79-1.8-2.79
		c-1.5,0-2.3,1.51-2.3,3.17v9.09h-3.39"/>
	<path class="st0" d="M223.8,494.32c-0.71,0.32-2.18,0.96-4.21,0.96c-4.53,0-6.5-3.46-6.5-7.51c0-4.49,2.21-7.95,5.79-7.95
		c3.03,0,5.63,1.89,5.63,8.01v0.7h-8.14c0,2.57,0.95,4.11,3.58,4.11c2.08,0,3.06-0.67,3.69-1.17 M221.24,486.26
		c0-2.66-0.82-3.99-2.35-3.99c-1.78,0-2.51,2.01-2.51,3.99H221.24z"/>
	<path class="st0" d="M226.84,482.53c0-0.93-0.03-1.81-0.11-2.48h3.06c0.03,0.9,0.11,1.83,0.11,2.73h0.06
		c0.41-1.17,1.47-2.97,3.58-2.97c0.22,0,0.38,0.06,0.58,0.09v3.38c-0.3-0.09-0.6-0.14-0.96-0.14c-1.39,0-2.92,0.9-2.92,3.7v8.21
		h-3.39"/>
	<path class="st0" d="M236.21,473.68h3.49v3.55h-3.49 M236.26,480.05h3.39v15h-3.39V480.05z"/>
	<path class="st0" d="M252.19,494.67c-0.79,0.32-1.97,0.61-3.33,0.61c-4.64,0-6.61-3.46-6.61-7.72c0-4.28,2.08-7.74,6.81-7.74
		c1.06,0,2.32,0.35,2.95,0.61l-0.19,2.86c-0.6-0.32-1.45-0.73-2.38-0.73c-2.57,0-3.69,1.84-3.69,5.04c0,2.79,1.25,4.95,3.85,4.95
		c0.82,0,1.94-0.41,2.41-0.73"/>
	<path class="st0" d="M254.54,480.93c0.96-0.47,2.29-1.1,4.45-1.1c4.37,0,5.38,2.27,5.38,6.03v6.55c0,1.08,0.11,2.07,0.19,2.65
		h-3.06c-0.16-0.58-0.19-1.31-0.19-2.03h-0.06c-0.85,1.22-1.91,2.27-3.93,2.27c-2.19,0-4.21-1.6-4.21-4.4c0-4.08,3.11-5.09,7.4-5.09
		h0.68v-0.56c0-1.48-0.68-2.85-2.62-2.85c-1.69,0-3.2,0.87-3.85,1.45 M261.2,487.71h-0.3c-2.9,0-4.62,0.64-4.62,2.83
		c0,1.37,0.84,2.3,2.16,2.3c2.02,0,2.76-1.6,2.76-4.28V487.71z"/>
	<path class="st0" d="M267.1,482.53c0-0.93-0.03-1.81-0.11-2.48h3.17c0.03,0.76,0.11,1.54,0.11,2.3h0.08h-0.03
		c0.49-0.9,1.45-2.53,3.74-2.53c3.2,0,4.15,2.53,4.15,5.56v9.67h-3.39v-9c0-2.3-0.54-3.26-1.94-3.26c-1.78,0-2.41,1.6-2.41,3.52
		v8.73h-3.39"/>
	<path class="st0" d="M281.55,480.93c0.96-0.47,2.29-1.1,4.45-1.1c4.37,0,5.38,2.27,5.38,6.03v6.55c0,1.08,0.11,2.07,0.19,2.65
		h-3.06c-0.16-0.58-0.19-1.31-0.19-2.03h-0.06c-0.85,1.22-1.91,2.27-3.93,2.27c-2.19,0-4.21-1.6-4.21-4.4c0-4.08,3.11-5.09,7.4-5.09
		h0.68v-0.56c0-1.48-0.68-2.85-2.62-2.85c-1.69,0-3.2,0.87-3.85,1.45 M288.22,487.71h-0.3c-2.9,0-4.62,0.64-4.62,2.83
		c0,1.37,0.85,2.3,2.16,2.3c2.02,0,2.76-1.6,2.76-4.28V487.71z"/>
	<path class="st0" d="M140.43,498.76v19.28c0,1.08,0.03,2.01,0.11,2.56h-3.17c-0.06-0.44-0.11-1.31-0.11-2.33h-0.08
		c-0.54,1.28-1.56,2.57-3.74,2.57c-3.5,0-4.95-3.56-4.95-7.72c0-4.89,1.83-7.74,4.86-7.74c2.02,0,3.14,1.22,3.63,2.39h0.06v-9
		 M134.37,518.18c1.99,0,2.68-2.3,2.68-5.12c0-2.91-0.77-5.04-2.63-5.04c-1.88,0-2.54,1.95-2.54,4.95
		C131.88,516.43,132.4,518.18,134.37,518.18"/>
	<path class="st0" d="M143.82,506.47c0.95-0.47,2.29-1.11,4.45-1.11c4.37,0,5.38,2.27,5.38,6.03v6.55c0,1.08,0.11,2.07,0.19,2.65
		h-3.06c-0.16-0.58-0.19-1.31-0.19-2.04h-0.06c-0.84,1.22-1.91,2.27-3.93,2.27c-2.19,0-4.21-1.6-4.21-4.4c0-4.08,3.11-5.09,7.4-5.09
		h0.68v-0.55c0-1.48-0.68-2.86-2.62-2.86c-1.7,0-3.2,0.87-3.85,1.46 M150.49,513.26h-0.3c-2.89,0-4.62,0.64-4.62,2.83
		c0,1.37,0.85,2.3,2.16,2.3c2.02,0,2.76-1.6,2.76-4.28V513.26z"/>
	<path class="st0" d="M163.33,516.66c0.68,0.47,2.18,1.26,4.04,1.26c1.53,0,2.9-0.91,2.9-2.94c0-1.45-0.79-2.09-2.49-3.09
		l-1.78-1.05c-1.89-1.11-3.11-2.7-3.11-5.33c0-3.64,2.82-5.53,6.01-5.53c2.02,0,3.44,0.55,3.99,0.73l-0.16,3.12
		c-0.85-0.35-1.97-0.88-3.58-0.88c-1.75,0-2.65,0.99-2.65,2.39c0,1.51,0.95,2.1,2.02,2.73l2.04,1.22c2.24,1.34,3.31,2.62,3.31,5.48
		c0,4.13-2.76,6.11-6.39,6.11c-1.91,0-3.39-0.29-4.34-0.89"/>
	<path class="st0" d="M177.01,506.47c0.96-0.47,2.29-1.11,4.45-1.11c4.37,0,5.38,2.27,5.38,6.03v6.55c0,1.08,0.11,2.07,0.19,2.65
		h-3.06c-0.16-0.58-0.19-1.31-0.19-2.04h-0.06c-0.85,1.22-1.91,2.27-3.93,2.27c-2.19,0-4.21-1.6-4.21-4.4c0-4.08,3.11-5.09,7.4-5.09
		h0.68v-0.55c0-1.48-0.68-2.86-2.62-2.86c-1.69,0-3.2,0.87-3.85,1.46 M183.68,513.26h-0.3c-2.9,0-4.62,0.64-4.62,2.83
		c0,1.37,0.85,2.3,2.16,2.3c2.02,0,2.76-1.6,2.76-4.28V513.26z"/>
	<path class="st0" d="M200.7,518.12c0,0.93,0.03,1.8,0.11,2.48h-3.17c-0.03-0.76-0.11-1.55-0.11-2.3l-0.08-0.03l0.03,0.03
		c-0.65,1.11-1.53,2.54-3.74,2.54c-3.2,0-4.15-2.54-4.15-5.56v-9.67h3.39v9c0,2.3,0.6,3.26,2.02,3.26c1.8,0,2.32-1.75,2.32-3.67
		v-8.59h3.39 M195.29,499.75h3.17l-2.79,4.19h-2.13L195.29,499.75z"/>
	<path class="st0" d="M214.9,498.76v19.28c0,1.08,0.02,2.01,0.11,2.56h-3.17c-0.06-0.44-0.11-1.31-0.11-2.33h-0.08
		c-0.55,1.28-1.56,2.57-3.74,2.57c-3.5,0-4.95-3.56-4.95-7.72c0-4.89,1.83-7.74,4.86-7.74c2.02,0,3.14,1.22,3.63,2.39h0.06v-9
		 M208.84,518.18c1.99,0,2.68-2.3,2.68-5.12c0-2.91-0.77-5.04-2.62-5.04c-1.89,0-2.54,1.95-2.54,4.95
		C206.35,516.43,206.87,518.18,208.84,518.18"/>
	<path class="st0" d="M227.93,519.87c-0.71,0.32-2.18,0.96-4.21,0.96c-4.54,0-6.5-3.47-6.5-7.52c0-4.48,2.21-7.95,5.79-7.95
		c3.03,0,5.63,1.89,5.63,8.01v0.69h-8.14c0,2.57,0.96,4.11,3.58,4.11c2.07,0,3.06-0.67,3.69-1.17 M225.36,511.8
		c0-2.65-0.82-3.99-2.35-3.99c-1.78,0-2.51,2.01-2.51,3.99H225.36z"/>
	<path class="st0" d="M80.24,525.3c-22.76,0-41.27-18.19-41.27-40.56c0-22.36,18.52-40.56,41.27-40.56
		c22.76,0,41.27,18.19,41.27,40.56C121.51,507.11,103,525.3,80.24,525.3 M80.24,446.04c-21.72,0-39.38,17.36-39.38,38.7
		c0,21.34,17.67,38.69,39.38,38.69c21.72,0,39.38-17.36,39.38-38.69C119.62,463.4,101.96,446.04,80.24,446.04"/>
	<path class="st0" d="M80.24,514.15c-16.95,0-30.73-13.19-30.73-29.41c0-16.22,13.78-29.41,30.73-29.41
		c16.95,0,30.73,13.19,30.73,29.41C110.97,500.96,97.19,514.15,80.24,514.15 M80.24,457.41c-15.78,0-28.62,12.26-28.62,27.34
		c0,15.08,12.84,27.34,28.62,27.34c15.78,0,28.62-12.26,28.62-27.34C108.86,469.67,96.02,457.41,80.24,457.41"/>
	<polyline class="st0" points="47.64,470.63 48.18,472.62 50.15,472.62 48.72,473.73 49.25,475.47 47.56,474.1 45.9,475.6 
		46.57,473.73 44.87,472.62 46.84,472.67 	"/>
	<path class="st0" d="M49.46,475.77l-1.9-1.53l-1.59,1.44l-0.17-0.11l0.64-1.79l-1.94-1.26l2.26,0.05l0.89-2.26l0.6,2.21h2.19
		l-1.62,1.26 M45.23,472.74l1.47,0.95l-0.56,1.55l1.42-1.28l1.5,1.21l-0.46-1.48l1.25-0.97H48.1l-0.48-1.75l-0.71,1.8L45.23,472.74z
		"/>
	<polyline class="st0" points="110.59,498.77 111.13,500.75 113.11,500.75 111.67,501.87 112.21,503.61 110.51,502.24 
		108.85,503.73 109.52,501.87 107.81,500.76 109.79,500.8 	"/>
	<path class="st0" d="M112.42,503.91l-1.9-1.54l-1.6,1.44l-0.17-0.11l0.65-1.79l-1.94-1.26l2.26,0.05l0.9-2.26l0.6,2.21h2.19
		l-1.62,1.26 M108.18,500.87l1.47,0.96l-0.56,1.55l1.41-1.28l1.51,1.22l-0.46-1.48l1.25-0.98h-1.75l-0.48-1.76l-0.72,1.81
		L108.18,500.87z"/>
	<polyline class="st0" points="49.75,498.33 50.29,500.31 52.26,500.31 50.83,501.43 51.37,503.17 49.66,501.79 48,503.28 
		48.68,501.43 46.97,500.32 48.95,500.36 	"/>
	<path class="st0" d="M51.57,503.46l-1.9-1.54l-1.59,1.44l-0.17-0.11l0.64-1.79l-1.93-1.26l2.26,0.05l0.89-2.26l0.6,2.21h2.19
		l-1.62,1.26 M47.34,500.43l1.47,0.95l-0.56,1.55l1.41-1.27l1.51,1.21l-0.46-1.48l1.25-0.97h-1.75l-0.48-1.76l-0.71,1.81
		L47.34,500.43z"/>
	<polyline class="st0" points="113.04,469.2 113.76,471.19 115.55,471.19 114.12,472.3 114.65,474.04 113.04,472.57 111.3,474.17 
		111.97,472.3 110.26,471.2 112.24,471.24 	"/>
	<path class="st0" d="M114.87,474.38l-1.83-1.67l-1.68,1.53l-0.17-0.11l0.64-1.79l-1.94-1.26l2.27,0.05l0.88-2.23l0.79,2.18h2.03
		l-1.62,1.25 M110.62,471.31l1.47,0.95l-0.56,1.54l1.5-1.38l1.4,1.28l-0.44-1.44l1.25-0.97h-1.57l-0.65-1.79l-0.73,1.85
		L110.62,471.31z"/>
	<path class="st0" d="M82.67,484.73c0.16-0.01,0.34-0.01,0.49,0"/>
	<polyline class="st0" points="59.33,507.79 60.2,508.56 56.09,512.93 55.16,512.09 56.28,507.35 56.27,507.34 53.34,510.45 
		52.47,509.67 56.59,505.31 57.56,506.19 56.46,510.81 56.47,510.83 	"/>
	<path class="st0" d="M81.78,453.7l-1.34-0.13l2.77-5.65l1.47,0.14l1.55,6.07l-1.38-0.13l-0.27-1.25l-2.25-0.22 M82.77,451.55
		l1.55,0.15l-0.52-2.39h-0.01L82.77,451.55z"/>
	<polyline class="st0" points="90.01,453.97 92.9,454.88 92.55,455.88 88.45,454.6 90.38,449.06 91.6,449.44 	"/>
	<path class="st0" d="M99.32,457.58c-0.87,1.29-2.05,1.34-3.34,0.54c-0.47-0.29-1.09-0.84-1.21-1.61c-0.07-0.47,0.09-0.93,0.41-1.44
		l2.21-3.25l1.08,0.67l-2.16,3.19c-0.46,0.68-0.25,1.24,0.24,1.55c0.73,0.46,1.26,0.3,1.66-0.29l2.19-3.24l1.08,0.68"/>
	<polyline class="st0" points="102.09,462.24 101.1,461.46 104.34,457.76 102.91,456.64 103.61,455.84 107.44,458.87 106.74,459.67 
		105.32,458.54 	"/>
	<path class="st0" d="M75.01,452.32c0.06,0.33,0.34,0.92,1.44,0.76c0.59-0.09,1.23-0.32,1.13-0.94c-0.08-0.45-0.55-0.52-1.22-0.57
		l-0.67-0.05c-1.01-0.08-1.98-0.16-2.2-1.44c-0.11-0.65,0.06-1.85,2.01-2.14c1.85-0.26,2.54,0.84,2.67,1.55l-1.21,0.17
		c-0.08-0.26-0.29-0.86-1.39-0.7c-0.48,0.07-1.02,0.32-0.93,0.85c0.08,0.45,0.48,0.5,0.74,0.52l1.53,0.13
		c0.86,0.08,1.66,0.29,1.84,1.34c0.29,1.76-1.52,2.19-2.06,2.26c-2.2,0.32-2.79-0.86-2.91-1.59"/>
	<path class="st0" d="M61.2,452.48c0.71-0.36,2.75-1.01,4.08,1.44c1.32,2.45-0.4,3.7-1.11,4.06c-0.72,0.36-2.76,1.01-4.08-1.44
		C58.77,454.09,60.49,452.85,61.2,452.48 M63.67,457.06c0.61-0.31,1.27-1.11,0.48-2.56c-0.79-1.46-1.84-1.4-2.46-1.09
		c-0.6,0.31-1.27,1.1-0.48,2.56C62.01,457.44,63.06,457.37,63.67,457.06"/>
	<path class="st0" d="M52.41,459.59l2.12-2.15c1.12-1.14,2.17-0.57,2.55-0.22c0.48,0.44,0.65,1.06,0.38,1.61
		c0.5-0.21,0.82-0.27,1.64,0.47c0.63,0.58,0.79,0.73,1.05,0.61l0.11,0.1l-0.98,0.99c-0.26-0.13-0.52-0.3-0.97-0.71
		c-0.59-0.55-0.86-0.73-1.51-0.06l-0.91,0.92l1.7,1.57l-0.86,0.87 M56.21,459.43c0.46-0.46,0.52-0.84,0.09-1.23
		c-0.23-0.21-0.67-0.42-1.19,0.11l-1.1,1.11l1.16,1.07L56.21,459.43z"/>
	<polyline class="st0" points="96.81,511.26 97.84,510.7 100.8,515.79 99.69,516.39 95.42,513.92 95.4,513.94 97.5,517.56 
		96.47,518.12 93.52,513.03 94.68,512.4 98.85,514.81 98.87,514.8 	"/>
	<path class="st0" d="M99.02,509.63l2.12-1.59c1.62-1.21,3.03-0.13,3.74,0.75c0.8,0.99,1.55,2.73-0.04,3.92l-2.08,1.55
		 M103.1,512.73l0.98-0.73c0.82-0.61,0.45-1.61-0.17-2.37c-1.1-1.37-1.87-0.98-2.3-0.65l-0.96,0.72L103.1,512.73z"/>
	<polyline class="st0" points="109.18,508.77 108.34,509.69 103.78,505.83 104.61,504.91 	"/>
	<polyline class="st0" points="111.14,465.15 109.18,462.66 108.16,463.41 109.96,465.68 109.1,466.31 107.3,464.04 106.05,464.95 
		108.09,467.54 107.23,468.17 104.43,464.62 109.28,461.08 111.99,464.52 	"/>
	<path class="st0" d="M63.38,510.82c0.66,0.44,2.19,1.89,0.57,4.15c-1.62,2.26-3.56,1.36-4.22,0.92c-0.66-0.44-2.2-1.89-0.57-4.15
		C60.78,509.49,62.71,510.38,63.38,510.82 M60.34,515.04c0.56,0.38,1.59,0.58,2.57-0.77c0.97-1.35,0.42-2.22-0.15-2.6
		c-0.56-0.38-1.59-0.57-2.56,0.77C59.23,513.79,59.78,514.66,60.34,515.04"/>
	<polyline class="st0" points="69.83,514 71.05,514.46 66.92,519.24 65.8,518.83 66.12,512.63 67.38,513.09 66.91,517.71 
		66.93,517.71 	"/>
	<polyline class="st0" points="71.9,520.67 70.66,520.36 72.23,514.73 73.46,515.04 	"/>
	<polyline class="st0" points="86.32,521.12 85.13,521.2 84.79,516.3 84.77,516.3 83.98,521.28 82.73,521.36 81.27,516.53 
		81.25,516.53 81.59,521.44 80.42,521.52 80,515.66 81.86,515.53 83.28,520.08 83.3,520.08 84.07,515.38 85.91,515.26 	"/>
	<path class="st0" d="M93.38,517.48c0.4,1.51-0.36,2.38-1.85,2.75c-0.54,0.13-1.39,0.2-2.06-0.23c-0.41-0.27-0.67-0.7-0.83-1.28
		l-1.01-3.79l1.26-0.31l0.98,3.71c0.21,0.8,0.79,1.03,1.37,0.89c0.84-0.21,1.08-0.69,0.89-1.39l-1-3.77l1.26-0.31"/>
	<path class="st0" d="M53.03,468.18l-0.71,1.02l-5.03-3.31l1.56-2.25c0.67-0.95,1.69-1.11,2.67-0.46c0.46,0.29,1.43,1.3,0.52,2.62
		l-0.82,1.18 M51.01,465.46c0.53-0.76-0.03-1.13-0.25-1.28c-0.49-0.32-0.88-0.19-1.32,0.44l-0.57,0.81l1.48,0.98L51.01,465.46z"/>
	<path class="st0" d="M86.26,507.85c0.44,1.01-0.71,0.75-1.16,1.11h-0.37C84.81,508.39,85.44,507.46,86.26,507.85"/>
	<path class="st0" d="M79.71,489.94v0.4h-1.56C77.99,489.47,79.34,489.33,79.71,489.94"/>
	<polyline class="st0" points="82.43,479.68 83.18,478.77 85.19,478.61 86.11,478.44 85.69,479.27 84.6,479.68 84.77,479.27 
		83.52,479.19 82.84,479.68 	"/>
	<polyline class="st0" points="87.37,478.53 88.04,478.44 88.79,478.78 88.37,479.27 87.62,479.44 87.28,479.84 86.86,479.52 
		86.2,479.68 86.11,479.35 86.7,479.19 86.45,478.86 86.7,478.61 	"/>
	<polyline class="st0" points="89.44,479.3 89.86,478.97 90.61,479.06 90.44,479.47 89.35,479.71 	"/>
	<polyline class="st0" points="83.52,480.26 84.35,480.18 84.18,480.67 83.35,480.67 	"/>
	<polyline class="st0" points="89.21,480.13 89.7,479.76 89.97,480.02 89.65,480.3 	"/>
	<polyline class="st0" points="88.78,480.93 89.2,481.43 89.53,481.27 89.27,480.44 	"/>
	<polyline class="st0" points="90.31,481.25 90.56,480.91 89.8,480.5 	"/>
	<line class="st0" x1="90.31" y1="481.25" x2="90.56" y2="480.91"/>
	<polyline class="st0" points="91.15,480.88 91.44,480.99 91.33,482.2 90.92,481.11 	"/>
	<path class="st0" d="M77.77,462.37c0.3-0.33,0.08-1.73-0.41-1.87c-0.56,0.86,1.15,1.26,0,1.87 M80.45,466.85
		c-0.07-0.67-0.24-2.09,0.4-2.99l0.38-0.39c-0.15,0.11-0.28,0.24-0.38,0.39l-0.77-0.75l0.37-0.39c-0.56,0.18-0.75-0.47-1.15-0.72
		c-0.52,1.4,2.83,3.19-0.38,3.34c-0.22-0.21-0.52-0.39-0.41-0.76h-0.37v0.4h0.37c-0.22,0.18-0.41,0.47-0.74,0.36
		c-0.03,0.43,0.08,0.9-0.41,1.11h0.78c0.22,0.22,0.52,0.39,0.37,0.75c0.52,0.15,1.3-0.32,1.57,0.36
		C79.97,467.25,80.26,467.07,80.45,466.85 M84.56,484.73c0.82-0.51,1.29-0.84,2.48-1.11c-0.12,0.36,0.18,0.54,0.37,0.75
		c0.85-0.96,1.38-0.17,2.01,0.36c0.32,0.27,0.66,0.47,1.08,0.36c0.02-0.12,0.08-0.23,0.15-0.36h0.41c0.57,1.38,2.75,2.2,2.94,3.74
		c1.34,0.65,3.2,0.1,4.24,1.47c2.72,2.98-3.27,4.06-2.31,7.11c-0.48,1.97-2.01,2.3-3.87,2.59c-0.6,1.5-1.79,2.11-3.09,2.98
		c-1.94-0.07-2.2,1.33-3.87,1.87c-0.59,1.94-2.24,2.48-2.72,4.49c0.3,0.61,1.34,0.25,1.15,1.11c-1.34,0.03-3.05-0.76-3.08-2.22
		c0.52-4.17,3.61-7.33,3.87-11.56c-2.09-1.51-2.42-4.38-2.31-7.07c1.34-0.68,1.05-2.01,1.52-2.98l-0.74-0.75
		c-0.78,1.11-1.3-0.57-2.34,0c-0.07-0.28-0.21-0.53-0.39-0.76c-0.43-0.54-1.08-0.98-1.55-1.5c-1.52-0.47-3.24-0.57-4.61-1.47
		c-1.75-0.14-0.75-2.08-2.31-2.62c-0.22,0.21-0.52,0.39-0.41,0.75c-2.49-0.65-1.49-3.34-2.68-4.85c0.26-1.06,0.31-2.04,0.08-2.98
		c-0.15-0.64-0.44-1.26-0.86-1.86c-2.46-2.66-5.18,1.93-8.12,0.36c1.08-0.07,1.97-0.58,2.68-1.47c-0.22-0.36-0.9-0.58-0.75-1.12
		l0.38-0.39l-0.38-0.36l0.38-0.36c-0.23-0.21-0.53-0.39-0.38-0.75c1.45-1.15,3.43-2.73,5.77-2.62c1.79-0.64,4.21,1.44,5.81-0.75
		c-0.82-0.04-1.68-1.22-0.78-1.83c0.56,0.07,1.15-0.9,1.57,0c0.48-0.25,0.37-0.72,0.37-1.15c1.27-0.68,2.64,1.43,3.09-0.36h0.78
		c-0.11,0.36,0.19,0.54,0.37,0.76l0.41-0.39l0.38,0.39c1.04-1,1.71,1.04,3.09,0.36c1.04,0.64,1.68,2.08,1.94,3.37
		c-0.41,0-0.89-0.11-1.16,0.36l1.56,1.51c0.48-0.25,0.37-0.72,0.37-1.15c1.86,0.94,2.98,2.84,3.87,4.49
		c-2.01,0.32-3.84,1.18-5.03,2.97c1.23,3.02-3.95,2.95-1.56,5.96l-0.77,0.76c-0.08-0.7-0.32-1.33-0.76-1.88
		c-2.01,1.26-5.51-1.26-5.02,2.62c0.52,0.43,0.48,1.08,1.15,1.47c0.97,0.43,1.3-0.76,1.93-1.11v-0.36h1.53
		c0.82,1.37-1.71,2.98,0.78,3.34c0,0.43,0.12,0.9-0.37,1.12c0.19,0.51,0.53,0.7,0.91,0.75c0.28,0.05,0.59,0.02,0.89,0h0.49
		c0.3,0.03,0.58,0.11,0.79,0.36C84.18,484.96,84.38,484.84,84.56,484.73"/>
	<path class="st0" d="M113.1,477.36c0.29-0.05,0.71-0.08,1.33-0.08c0.57,0,0.98,0.1,1.26,0.31c0.28,0.2,0.46,0.55,0.46,0.95
		c0,0.4-0.13,0.75-0.38,0.97c-0.33,0.28-0.8,0.41-1.33,0.41c-0.11,0-0.2-0.01-0.26-0.01v1.33h-1.06 M114.16,479.1
		c0.06,0,0.13,0.01,0.24,0.01c0.42,0,0.68-0.21,0.68-0.55c0-0.29-0.2-0.49-0.6-0.49c-0.16,0-0.27,0.01-0.32,0.02V479.1z"/>
	<path class="st0" d="M114.84,485.78l-0.23,0.91h-1.11l1.16-3.93h1.42l1.19,3.93h-1.15l-0.26-0.91 M115.72,485l-0.19-0.71
		c-0.06-0.22-0.13-0.54-0.19-0.78h-0.01c-0.06,0.23-0.12,0.56-0.18,0.78l-0.17,0.7H115.72z"/>
	<polyline class="st0" points="113.98,488.37 113.98,489.82 115.28,489.82 115.28,488.37 116.34,488.37 116.34,492.3 115.28,492.3 
		115.28,490.74 113.98,490.74 113.98,492.3 112.91,492.3 112.91,488.37 	"/>
	<path class="st0" d="M115.39,495.86c0,1.27-0.77,2.07-2,2.07c-1.24,0-1.92-0.91-1.92-2.01c0-1.14,0.77-2.05,1.99-2.05
		C114.74,493.87,115.39,494.81,115.39,495.86 M112.61,495.9c0,0.73,0.33,1.19,0.84,1.19c0.51,0,0.82-0.49,0.82-1.2
		c0-0.68-0.31-1.19-0.83-1.19C112.93,494.7,112.61,495.18,112.61,495.9"/>
	<path class="st0" d="M47.94,481.32c0,1.27-0.77,2.07-2,2.07c-1.24,0-1.92-0.91-1.92-2c0-1.14,0.77-2.05,1.99-2.05
		C47.28,479.34,47.94,480.27,47.94,481.32 M45.14,481.37c0,0.73,0.33,1.19,0.84,1.19s0.82-0.49,0.82-1.2c0-0.68-0.31-1.19-0.83-1.19
		C45.47,480.17,45.14,480.64,45.14,481.37"/>
	<path class="st0" d="M44.02,485.72c0.29-0.05,0.71-0.08,1.32-0.08c0.57,0,0.98,0.1,1.26,0.31c0.27,0.2,0.46,0.55,0.46,0.95
		c0,0.4-0.13,0.75-0.38,0.97c-0.33,0.28-0.79,0.41-1.33,0.41c-0.1,0-0.2,0-0.26-0.01v1.33h-1.06 M45.07,487.46
		c0.06,0,0.13,0.01,0.24,0.01c0.42,0,0.68-0.21,0.68-0.55c0-0.29-0.2-0.49-0.6-0.49c-0.16,0-0.27,0.01-0.32,0.02V487.46z"/>
	<path class="st0" d="M45.73,494.06c0.24,0.12,0.64,0.25,1.04,0.25c0.37,0,0.54-0.13,0.54-0.32c0-0.19-0.18-0.3-0.62-0.45
		c-0.68-0.23-1.12-0.6-1.12-1.18c0-0.69,0.59-1.23,1.6-1.23c0.48,0,0.82,0.09,1.08,0.2l-0.22,0.84c-0.17-0.08-0.47-0.19-0.87-0.19
		c-0.33,0-0.51,0.12-0.51,0.29c0,0.2,0.21,0.28,0.72,0.47c0.72,0.25,1.04,0.63,1.04,1.18c0,0.67-0.54,1.26-1.71,1.26
		c-0.48,0-0.95-0.13-1.17-0.25"/>
</g>
</svg>
