<?xml version="1.0" encoding="UTF-8" standalone="no"?>
<svg
   xmlns:dc="http://purl.org/dc/elements/1.1/"
   xmlns:cc="http://creativecommons.org/ns#"
   xmlns:rdf="http://www.w3.org/1999/02/22-rdf-syntax-ns#"
   xmlns:svg="http://www.w3.org/2000/svg"
   xmlns="http://www.w3.org/2000/svg"
   xmlns:sodipodi="http://sodipodi.sourceforge.net/DTD/sodipodi-0.dtd"
   xmlns:inkscape="http://www.inkscape.org/namespaces/inkscape"
   sodipodi:docname="ufba.svg"
   inkscape:version="1.0 (1.0+r73+1)"
   width="200px"
   height="32px"
   viewBox="0 0 200 32"
   version="1.1"
   id="SVGRoot">
  <defs
     id="defs9371" />
  <sodipodi:namedview
     inkscape:window-maximized="0"
     inkscape:window-y="27"
     inkscape:window-x="67"
     inkscape:window-height="1023"
     inkscape:window-width="1795"
     showgrid="false"
     inkscape:document-rotation="0"
     inkscape:current-layer="layer1"
     inkscape:document-units="px"
     inkscape:cy="43.239196"
     inkscape:cx="78.634504"
     inkscape:zoom="3.959798"
     inkscape:pageshadow="2"
     inkscape:pageopacity="0.0"
     borderopacity="1.0"
     bordercolor="#666666"
     pagecolor="#ffffff"
     id="base" />
  <metadata
     id="metadata9374">
    <rdf:RDF>
      <cc:Work
         rdf:about="">
        <dc:format>image/svg+xml</dc:format>
        <dc:type
           rdf:resource="http://purl.org/dc/dcmitype/StillImage" />
        <dc:title></dc:title>
      </cc:Work>
    </rdf:RDF>
  </metadata>
  <g
     id="layer1"
     inkscape:groupmode="layer"
     inkscape:label="Layer 1">
    <g
       transform="matrix(0.58792356,0,0,-0.58792356,-488.13259,51.734346)"
       id="g11288">
      <g
         transform="translate(1044.5367,42.1843)"
         id="g1195">
        <path
           id="path1197"
           style="fill:#08532a;fill-opacity:1;fill-rule:nonzero;stroke:none"
           d="m 0,0 c 0,-0.085 0.006,-0.177 0.012,-0.233 -0.11,-0.085 -0.281,-0.128 -0.441,-0.128 -0.263,0 -0.422,0.171 -0.422,0.446 0,0.27 0.319,0.521 0.851,0.576 z M 1.04,-0.196 C 0.899,-0.251 0.857,-0.257 0.827,-0.257 c -0.093,0 -0.129,0.024 -0.129,0.159 v 1.39 c 0,0.582 -0.471,0.832 -0.82,0.832 -0.618,0 -1.414,-0.336 -1.414,-0.807 0,-0.11 0.024,-0.209 0.098,-0.319 l 0.685,0.275 C -0.808,1.39 -0.839,1.5 -0.839,1.562 c 0,0.245 0.184,0.305 0.361,0.305 C -0.25,1.867 0,1.739 0,1.39 V 0.82 c -1.102,-0.134 -1.599,-0.379 -1.599,-0.913 0,-0.299 0.32,-0.624 0.681,-0.624 0.226,0 0.599,0.092 0.954,0.338 0.007,-0.092 0.037,-0.24 0.099,-0.338 0.232,0.112 0.832,0.338 0.905,0.338 z m -4.139,3.275 c 0,-0.238 0.191,-0.428 0.43,-0.428 0.238,0 0.428,0.19 0.428,0.428 0,0.239 -0.19,0.429 -0.428,0.429 -0.239,0 -0.43,-0.19 -0.43,-0.429 m -0.244,-3.752 c 0.196,0.005 0.508,0.017 0.698,0.017 0.19,0 0.501,-0.012 0.697,-0.017 v 0.183 h -0.048 c -0.189,0 -0.3,0.092 -0.3,0.289 V 2.124 C -2.62,1.959 -3.214,1.788 -3.367,1.763 V 1.567 c 0.067,0.024 0.135,0.037 0.17,0.037 0.161,0 0.204,-0.074 0.204,-0.238 v -1.567 c 0,-0.197 -0.111,-0.289 -0.301,-0.289 h -0.049 z m -3.514,0 c 0.196,0.005 0.508,0.017 0.698,0.017 0.19,0 0.503,-0.012 0.698,-0.017 V -0.49 H -5.51 c -0.19,0 -0.3,0.092 -0.3,0.289 v 1.603 c 0.325,0.269 0.564,0.318 0.667,0.318 0.19,0 0.446,-0.055 0.446,-0.483 v -1.33 c 0,-0.348 -0.091,-0.397 -0.409,-0.397 v -0.183 c 0.178,0.005 0.527,0.017 0.741,0.017 0.215,0 0.562,-0.012 0.74,-0.017 v 0.183 c -0.232,0 -0.374,0.055 -0.374,0.276 v 1.531 c 0,0.575 -0.335,0.807 -0.733,0.807 -0.263,0 -0.551,-0.11 -1.078,-0.514 v 2.4 C -6.171,3.875 -6.513,3.784 -6.881,3.741 V 3.557 c 0.049,0.012 0.104,0.025 0.171,0.025 0.16,0 0.202,-0.074 0.202,-0.251 v -3.532 c 0,-0.197 -0.11,-0.289 -0.3,-0.289 H -6.857 Z M -8.16,0 c 0,-0.085 0.006,-0.177 0.012,-0.233 -0.111,-0.085 -0.282,-0.128 -0.441,-0.128 -0.264,0 -0.422,0.171 -0.422,0.446 0,0.27 0.318,0.521 0.851,0.576 z m 1.041,-0.196 c -0.142,-0.055 -0.185,-0.061 -0.215,-0.061 -0.092,0 -0.129,0.024 -0.129,0.159 v 1.39 c 0,0.582 -0.471,0.832 -0.82,0.832 -0.619,0 -1.415,-0.336 -1.415,-0.807 0,-0.11 0.025,-0.209 0.099,-0.319 l 0.685,0.275 C -8.969,1.39 -9,1.5 -9,1.562 c 0,0.245 0.184,0.305 0.362,0.305 0.226,0 0.478,-0.128 0.478,-0.477 V 0.82 c -1.103,-0.134 -1.599,-0.379 -1.599,-0.913 0,-0.299 0.319,-0.624 0.679,-0.624 0.227,0 0.601,0.092 0.956,0.338 0.006,-0.092 0.037,-0.24 0.098,-0.338 0.232,0.112 0.832,0.338 0.907,0.338 z m -5.29,3.674 h 0.275 c 0.667,0 1.005,-0.368 1.005,-1.005 0,-0.575 -0.362,-0.833 -0.986,-0.833 h -0.294 z m 0,-1.996 h 0.079 c 0.827,0 1.316,-0.429 1.316,-1.127 0,-0.52 -0.287,-0.796 -0.876,-0.796 -0.403,0 -0.519,0.086 -0.519,0.379 z m -1.28,-2.155 c 0.196,0.01 0.422,0.017 0.699,0.017 0.317,0 0.825,-0.017 1.236,-0.017 0.672,0 0.98,0.078 1.231,0.312 0.202,0.189 0.342,0.508 0.342,0.845 0,0.716 -0.471,1.029 -1.206,1.133 v 0.012 c 0.648,0.103 1.029,0.501 1.029,0.985 0,0.888 -0.777,1.072 -1.415,1.072 -0.379,0 -0.759,-0.019 -1.138,-0.019 -0.246,0 -0.483,0.006 -0.778,0.019 V 3.502 c 0.398,-0.006 0.507,-0.153 0.507,-0.496 V 0.007 c 0,-0.344 -0.109,-0.49 -0.507,-0.497 z M -16.665,0 c 0,-0.085 0.007,-0.177 0.012,-0.233 -0.109,-0.085 -0.281,-0.128 -0.44,-0.128 -0.263,0 -0.422,0.171 -0.422,0.446 0,0.27 0.318,0.521 0.85,0.576 z m 1.041,-0.196 c -0.14,-0.055 -0.184,-0.061 -0.213,-0.061 -0.092,0 -0.13,0.024 -0.13,0.159 v 1.39 c 0,0.582 -0.47,0.832 -0.82,0.832 -0.618,0 -1.414,-0.336 -1.414,-0.807 0,-0.11 0.025,-0.209 0.098,-0.319 l 0.685,0.275 c -0.054,0.117 -0.085,0.227 -0.085,0.289 0,0.245 0.183,0.305 0.361,0.305 0.227,0 0.477,-0.128 0.477,-0.477 V 0.82 c -1.101,-0.134 -1.597,-0.379 -1.597,-0.913 0,-0.299 0.318,-0.624 0.68,-0.624 0.226,0 0.599,0.092 0.954,0.338 0.007,-0.092 0.037,-0.24 0.098,-0.338 0.233,0.112 0.833,0.338 0.906,0.338 z m -4.114,-0.055 c -0.097,-0.043 -0.232,-0.11 -0.434,-0.11 -0.6,0 -0.998,0.68 -0.998,1.279 0,0.595 0.282,1.022 0.753,1.022 0.257,0 0.452,-0.073 0.679,-0.251 z m -0.434,3.802 c 0.06,0.018 0.104,0.025 0.19,0.025 0.202,0 0.244,-0.08 0.244,-0.19 v -1.39 c -0.25,0.098 -0.397,0.128 -0.74,0.128 -0.809,0 -1.415,-0.686 -1.415,-1.537 0,-0.74 0.594,-1.304 1.28,-1.304 0.312,0 0.625,0.105 0.875,0.282 0.019,-0.104 0.068,-0.245 0.111,-0.319 0.22,0.099 0.753,0.301 0.93,0.301 v 0.184 c -0.067,-0.037 -0.116,-0.062 -0.183,-0.062 -0.11,0 -0.16,0.056 -0.16,0.178 V 4.01 c -0.294,-0.128 -0.869,-0.275 -1.132,-0.275 z m -5.168,-4.224 c 0.197,0.005 0.509,0.017 0.699,0.017 0.189,0 0.502,-0.012 0.698,-0.017 v 0.183 h -0.05 c -0.189,0 -0.299,0.092 -0.299,0.289 V 4.01 C -24.654,3.875 -24.996,3.784 -25.364,3.741 V 3.557 c 0.049,0.012 0.104,0.025 0.171,0.025 0.16,0 0.202,-0.074 0.202,-0.251 v -3.532 c 0,-0.197 -0.109,-0.289 -0.299,-0.289 h -0.05 z M -26.643,0 c 0,-0.085 0.005,-0.177 0.012,-0.233 -0.111,-0.085 -0.282,-0.128 -0.44,-0.128 -0.264,0 -0.423,0.171 -0.423,0.446 0,0.27 0.318,0.521 0.851,0.576 z m 1.04,-0.196 c -0.141,-0.055 -0.184,-0.061 -0.215,-0.061 -0.091,0 -0.128,0.024 -0.128,0.159 v 1.39 c 0,0.582 -0.471,0.832 -0.82,0.832 -0.618,0 -1.414,-0.336 -1.414,-0.807 0,-0.11 0.024,-0.209 0.097,-0.319 l 0.687,0.275 c -0.055,0.117 -0.086,0.227 -0.086,0.289 0,0.245 0.183,0.305 0.361,0.305 0.226,0 0.478,-0.128 0.478,-0.477 V 0.82 c -1.102,-0.134 -1.598,-0.379 -1.598,-0.913 0,-0.299 0.318,-0.624 0.679,-0.624 0.227,0 0.601,0.092 0.955,0.338 0.006,-0.092 0.037,-0.24 0.099,-0.338 0.232,0.112 0.832,0.338 0.905,0.338 z m -5.087,1.763 c 0.067,0.024 0.134,0.037 0.171,0.037 0.159,0 0.203,-0.074 0.203,-0.238 v -1.567 c 0,-0.197 -0.111,-0.289 -0.301,-0.289 h -0.049 v -0.183 c 0.165,0.005 0.478,0.017 0.674,0.017 0.177,0 0.489,-0.012 0.685,-0.017 v 0.183 h -0.049 c -0.19,0 -0.3,0.092 -0.3,0.289 v 1.334 c 0.184,0.226 0.386,0.342 0.551,0.342 0.214,0 0.306,-0.109 0.355,-0.256 h 0.159 v 0.868 c -0.08,0.025 -0.159,0.037 -0.238,0.037 -0.257,0 -0.521,-0.152 -0.815,-0.783 h -0.012 V 2.124 C -29.98,1.959 -30.574,1.788 -30.69,1.763 Z m -2.131,-0.588 c 0.007,0.496 0.079,0.961 0.557,0.961 0.435,0 0.502,-0.378 0.502,-0.961 z m 1.752,-0.936 c -0.252,-0.398 -0.521,-0.526 -0.797,-0.526 -0.398,0 -0.948,0.379 -0.955,1.279 h 1.806 c 0,1.028 -0.631,1.328 -1.102,1.328 -0.722,0 -1.451,-0.447 -1.451,-1.481 0,-0.71 0.453,-1.36 1.451,-1.36 0.423,0 0.771,0.074 1.084,0.282 z m -3.974,-0.294 c -0.098,-0.043 -0.233,-0.11 -0.435,-0.11 -0.599,0 -0.998,0.68 -0.998,1.279 0,0.595 0.282,1.022 0.753,1.022 0.257,0 0.453,-0.073 0.68,-0.251 z m -0.435,3.802 c 0.061,0.018 0.105,0.025 0.19,0.025 0.202,0 0.245,-0.08 0.245,-0.19 v -1.39 c -0.251,0.098 -0.398,0.128 -0.741,0.128 -0.808,0 -1.415,-0.686 -1.415,-1.537 0,-0.74 0.595,-1.304 1.28,-1.304 0.312,0 0.625,0.105 0.876,0.282 0.018,-0.104 0.067,-0.245 0.111,-0.319 0.219,0.099 0.752,0.301 0.93,0.301 v 0.184 c -0.067,-0.037 -0.117,-0.062 -0.184,-0.062 -0.11,0 -0.16,0.056 -0.16,0.178 V 4.01 c -0.293,-0.128 -0.868,-0.275 -1.132,-0.275 z m -3.918,-2.572 c 0.007,0.496 0.079,0.961 0.557,0.961 0.434,0 0.502,-0.378 0.502,-0.961 z m 1.751,-0.936 c -0.251,-0.398 -0.52,-0.526 -0.796,-0.526 -0.398,0 -0.948,0.379 -0.955,1.279 h 1.806 c 0,1.028 -0.63,1.328 -1.102,1.328 -0.722,0 -1.451,-0.447 -1.451,-1.481 0,-0.71 0.453,-1.36 1.451,-1.36 0.422,0 0.772,0.074 1.083,0.282 z m -5.902,-0.716 c 0.49,0.018 0.698,0.017 0.894,0.017 0.196,0 0.404,0.001 0.894,-0.017 v 0.183 c -0.398,0.007 -0.509,0.153 -0.509,0.497 v 1.444 h 0.478 c 0.484,0 0.741,-0.123 0.771,-0.606 h 0.209 c -0.012,0.238 -0.018,0.405 -0.018,0.704 0,0.306 0.012,0.545 0.018,0.722 h -0.209 c -0.024,-0.464 -0.153,-0.588 -0.679,-0.588 h -0.57 v 1.746 c 0.154,0.018 0.239,0.024 0.515,0.024 0.845,0 1.102,-0.079 1.231,-0.827 h 0.215 l -0.068,1.06 c -0.521,-0.007 -1.292,-0.019 -2.303,-0.019 -0.379,0 -0.581,0.012 -0.869,0.019 V 3.502 c 0.398,-0.006 0.508,-0.153 0.508,-0.496 V 0.007 c 0,-0.344 -0.11,-0.49 -0.508,-0.497 z" />
      </g>
      <g
         transform="translate(1034.588,49.614)"
         id="g1199">
        <path
           id="path1201"
           style="fill:#08532a;fill-opacity:1;fill-rule:nonzero;stroke:none"
           d="M 0,0 C 0.006,0.496 0.08,0.961 0.557,0.961 0.992,0.961 1.06,0.582 1.06,0 Z M 1.75,-0.937 C 1.499,-1.335 1.231,-1.463 0.955,-1.463 0.557,-1.463 0.006,-1.083 0,-0.184 h 1.806 c 0,1.029 -0.631,1.329 -1.102,1.329 -0.723,0 -1.451,-0.447 -1.451,-1.482 0,-0.71 0.453,-1.36 1.451,-1.36 0.421,0 0.771,0.075 1.084,0.282 z M -2.223,-1.23 c -0.097,-0.043 -0.232,-0.11 -0.434,-0.11 -0.601,0 -0.998,0.678 -0.998,1.279 0,0.594 0.282,1.022 0.753,1.022 0.257,0 0.453,-0.074 0.679,-0.252 z m -0.434,3.801 c 0.062,0.019 0.104,0.025 0.189,0.025 0.202,0 0.245,-0.08 0.245,-0.19 v -1.39 c -0.25,0.098 -0.397,0.129 -0.74,0.129 -0.808,0 -1.414,-0.687 -1.414,-1.537 0,-0.74 0.595,-1.305 1.279,-1.305 0.313,0 0.625,0.105 0.875,0.282 0.019,-0.103 0.068,-0.245 0.11,-0.319 0.221,0.1 0.753,0.301 0.931,0.301 v 0.184 c -0.067,-0.037 -0.116,-0.061 -0.184,-0.061 -0.109,0 -0.158,0.055 -0.158,0.178 V 3.031 C -1.818,2.902 -2.394,2.755 -2.657,2.755 Z M -5.724,-0.98 c 0,-0.085 0.005,-0.177 0.012,-0.232 -0.11,-0.087 -0.282,-0.128 -0.441,-0.128 -0.263,0 -0.422,0.17 -0.422,0.446 0,0.269 0.318,0.52 0.851,0.575 z m 1.041,-0.196 c -0.141,-0.054 -0.184,-0.061 -0.215,-0.061 -0.092,0 -0.129,0.025 -0.129,0.159 v 1.39 c 0,0.581 -0.471,0.833 -0.82,0.833 -0.618,0 -1.414,-0.336 -1.414,-0.808 0,-0.111 0.025,-0.208 0.098,-0.319 l 0.685,0.276 c -0.054,0.116 -0.085,0.226 -0.085,0.288 0,0.245 0.184,0.305 0.361,0.305 0.226,0 0.478,-0.129 0.478,-0.477 v -0.569 c -1.102,-0.135 -1.599,-0.38 -1.599,-0.913 0,-0.3 0.32,-0.625 0.68,-0.625 0.227,0 0.601,0.093 0.956,0.338 0.006,-0.092 0.036,-0.24 0.097,-0.338 0.234,0.111 0.833,0.338 0.907,0.338 z M -8.798,-1.23 c -0.098,-0.043 -0.233,-0.11 -0.434,-0.11 -0.6,0 -0.998,0.678 -0.998,1.279 0,0.594 0.281,1.022 0.753,1.022 0.257,0 0.453,-0.074 0.679,-0.252 z m -0.434,3.801 c 0.061,0.019 0.104,0.025 0.189,0.025 0.202,0 0.245,-0.08 0.245,-0.19 v -1.39 c -0.25,0.098 -0.397,0.129 -0.741,0.129 -0.807,0 -1.414,-0.687 -1.414,-1.537 0,-0.74 0.594,-1.305 1.28,-1.305 0.313,0 0.625,0.105 0.875,0.282 0.019,-0.103 0.068,-0.245 0.111,-0.319 0.22,0.1 0.753,0.301 0.931,0.301 v 0.184 c -0.068,-0.037 -0.117,-0.061 -0.185,-0.061 -0.11,0 -0.159,0.055 -0.159,0.178 V 3.031 C -8.394,2.902 -8.968,2.755 -9.232,2.755 Z M -12.452,2.1 c 0,-0.239 0.189,-0.429 0.428,-0.429 0.239,0 0.428,0.19 0.428,0.429 0,0.239 -0.189,0.428 -0.428,0.428 -0.239,0 -0.428,-0.189 -0.428,-0.428 m -0.246,-3.754 c 0.197,0.006 0.509,0.019 0.698,0.019 0.19,0 0.503,-0.013 0.699,-0.019 v 0.184 h -0.05 c -0.189,0 -0.299,0.093 -0.299,0.288 V 1.145 C -11.975,0.979 -12.569,0.809 -12.722,0.784 V 0.587 c 0.068,0.026 0.135,0.038 0.171,0.038 0.159,0 0.202,-0.074 0.202,-0.239 v -1.568 c 0,-0.195 -0.11,-0.288 -0.299,-0.288 h -0.05 z m -2.381,0.142 c 0.276,-0.13 0.606,-0.185 0.802,-0.185 0.759,0 1.163,0.362 1.163,0.864 0,0.864 -1.402,0.895 -1.402,1.415 0,0.245 0.202,0.379 0.454,0.379 0.379,0 0.623,-0.294 0.679,-0.649 h 0.171 l -0.025,0.716 c -0.262,0.074 -0.519,0.117 -0.77,0.117 -0.71,0 -1.047,-0.367 -1.047,-0.839 0,-0.919 1.402,-0.906 1.402,-1.432 0,-0.233 -0.227,-0.386 -0.521,-0.386 -0.312,0 -0.643,0.159 -0.722,0.667 h -0.184 z m -2.516,2.099 c 0.068,0.026 0.135,0.038 0.171,0.038 0.16,0 0.202,-0.074 0.202,-0.239 v -1.568 c 0,-0.195 -0.11,-0.288 -0.3,-0.288 h -0.048 v -0.184 c 0.164,0.006 0.477,0.019 0.673,0.019 0.177,0 0.489,-0.013 0.686,-0.019 v 0.184 h -0.05 c -0.19,0 -0.3,0.093 -0.3,0.288 v 1.335 c 0.184,0.226 0.386,0.343 0.552,0.343 0.214,0 0.305,-0.11 0.355,-0.257 h 0.159 v 0.869 c -0.079,0.025 -0.159,0.037 -0.239,0.037 -0.257,0 -0.52,-0.153 -0.815,-0.784 h -0.012 V 1.145 C -16.885,0.979 -17.479,0.809 -17.595,0.784 Z M -19.726,0 c 0.006,0.496 0.08,0.961 0.557,0.961 0.436,0 0.502,-0.379 0.502,-0.961 z m 1.752,-0.937 c -0.252,-0.398 -0.521,-0.526 -0.796,-0.526 -0.399,0 -0.95,0.38 -0.956,1.279 h 1.806 c 0,1.029 -0.63,1.329 -1.102,1.329 -0.722,0 -1.45,-0.447 -1.45,-1.482 0,-0.71 0.452,-1.36 1.45,-1.36 0.422,0 0.772,0.075 1.084,0.282 z m -5.567,1.855 c 0.246,-0.025 0.301,-0.042 0.429,-0.331 l 1.017,-2.284 h 0.11 l 0.912,2.187 c 0.117,0.275 0.208,0.422 0.441,0.428 v 0.184 c -0.152,-0.006 -0.337,-0.019 -0.495,-0.019 -0.178,0 -0.398,0.013 -0.552,0.019 V 0.918 c 0.3,0 0.367,-0.025 0.367,-0.189 0,-0.074 -0.024,-0.172 -0.079,-0.332 l -0.398,-1.156 -0.514,1.23 c -0.086,0.202 -0.086,0.227 -0.086,0.282 0,0.104 0.061,0.165 0.202,0.165 h 0.092 v 0.184 c -0.251,-0.006 -0.6,-0.019 -0.723,-0.019 -0.122,0 -0.471,0.013 -0.723,0.019 z M -24.807,2.1 c 0,-0.239 0.19,-0.429 0.428,-0.429 0.239,0 0.429,0.19 0.429,0.429 0,0.239 -0.19,0.428 -0.429,0.428 -0.238,0 -0.428,-0.189 -0.428,-0.428 m -0.246,-3.754 c 0.196,0.006 0.509,0.019 0.699,0.019 0.189,0 0.501,-0.013 0.698,-0.019 v 0.184 h -0.049 c -0.19,0 -0.3,0.093 -0.3,0.288 V 1.145 C -24.33,0.979 -24.924,0.809 -25.077,0.784 V 0.587 c 0.067,0.026 0.135,0.038 0.171,0.038 0.16,0 0.202,-0.074 0.202,-0.239 v -1.568 c 0,-0.195 -0.109,-0.288 -0.299,-0.288 h -0.05 z m -3.513,0 c 0.196,0.006 0.508,0.019 0.698,0.019 0.19,0 0.502,-0.013 0.698,-0.019 v 0.184 h -0.049 c -0.189,0 -0.3,0.093 -0.3,0.288 v 1.635 c 0.238,0.209 0.459,0.288 0.667,0.288 0.19,0 0.447,-0.055 0.447,-0.484 v -1.329 c 0,-0.348 -0.092,-0.398 -0.41,-0.398 v -0.184 c 0.177,0.006 0.526,0.019 0.741,0.019 0.214,0 0.563,-0.013 0.74,-0.019 v 0.184 c -0.232,0 -0.373,0.055 -0.373,0.276 v 1.531 c 0,0.575 -0.337,0.808 -0.734,0.808 -0.294,0 -0.624,-0.142 -1.078,-0.509 V 1.145 C -27.843,0.979 -28.437,0.809 -28.591,0.784 V 0.587 c 0.068,0.026 0.135,0.038 0.172,0.038 0.159,0 0.202,-0.074 0.202,-0.239 v -1.568 c 0,-0.195 -0.11,-0.288 -0.3,-0.288 h -0.049 z m -0.263,4.36 c -0.239,-0.007 -0.484,-0.019 -0.679,-0.019 -0.191,0 -0.436,0.012 -0.663,0.019 V 2.523 c 0.448,0 0.527,-0.16 0.533,-0.527 l 0.019,-0.888 c 0.006,-0.269 0.012,-0.515 0.012,-0.857 0,-1.065 -0.379,-1.751 -1.445,-1.751 -0.685,0 -1.267,0.496 -1.267,1.414 v 2.113 c 0,0.342 0.11,0.489 0.508,0.496 v 0.183 c -0.489,-0.019 -0.698,-0.019 -0.893,-0.019 -0.197,0 -0.405,0 -0.894,0.019 V 2.523 c 0.397,-0.007 0.507,-0.154 0.507,-0.496 v -1.96 c 0,-1.31 0.865,-1.801 1.997,-1.801 1.346,0 1.72,0.901 1.732,1.796 l 0.024,1.965 c 0.007,0.342 0.11,0.489 0.509,0.496 z" />
      </g>
      <g
         transform="translate(1011.0609,63.8547)"
         id="g1203">
        <path
           id="path1205"
           style="fill:#08532a;fill-opacity:1;fill-rule:nonzero;stroke:none"
           d="m 0,0 c -0.504,-0.014 -1.022,-0.039 -1.435,-0.039 -0.4,0 -0.917,0.025 -1.397,0.039 v -0.391 c 0.945,0 1.113,-0.337 1.125,-1.118 l 0.04,-1.887 c 0.013,-0.575 0.025,-1.096 0.025,-1.824 0,-2.264 -0.803,-3.723 -3.052,-3.723 -1.447,0 -2.675,1.055 -2.675,3.007 v 4.49 c 0,0.73 0.233,1.043 1.074,1.055 V 0 c -1.035,-0.039 -1.476,-0.039 -1.889,-0.039 -0.413,0 -0.852,0 -1.887,0.039 v -0.391 c 0.841,-0.012 1.072,-0.325 1.072,-1.055 V -5.61 c 0,-2.784 1.823,-3.83 4.216,-3.83 2.844,0 3.631,1.917 3.658,3.816 l 0.05,4.178 c 0.015,0.73 0.233,1.043 1.075,1.055 z m 0.491,-9.269 c 1.035,0.039 1.475,0.037 1.888,0.037 0.415,0 0.853,0.002 1.888,-0.037 v 0.393 C 3.426,-8.864 3.193,-8.55 3.193,-7.822 v 3.07 h 1.01 c 1.021,0 1.564,-0.26 1.629,-1.288 h 0.439 c -0.025,0.51 -0.04,0.859 -0.04,1.498 0,0.651 0.028,1.159 0.04,1.536 H 5.832 C 5.779,-3.998 5.507,-4.256 4.397,-4.256 H 3.193 v 3.708 c 0.324,0.041 0.504,0.053 1.087,0.053 1.785,0 2.326,-0.17 2.597,-1.756 H 7.332 L 7.189,0 C 6.09,-0.014 4.461,-0.039 2.327,-0.039 1.526,-0.039 1.099,-0.014 0.491,0 v -0.391 c 0.841,-0.012 1.073,-0.325 1.073,-1.055 v -6.376 c 0,-0.728 -0.232,-1.042 -1.073,-1.054 z m 7.421,0 c 0.415,0.025 0.894,0.037 1.473,0.037 0.675,0 1.748,-0.037 2.614,-0.037 1.421,0 2.068,0.169 2.598,0.665 0.426,0.403 0.724,1.081 0.724,1.796 0,1.522 -0.996,2.188 -2.546,2.408 v 0.027 c 1.371,0.222 2.172,1.068 2.172,2.094 0,1.888 -1.642,2.279 -2.988,2.279 -0.8,0 -1.602,-0.039 -2.404,-0.039 -0.518,0 -1.02,0.013 -1.643,0.039 v -0.391 c 0.842,-0.012 1.075,-0.325 1.075,-1.055 v -6.376 c 0,-0.728 -0.233,-1.042 -1.075,-1.054 z m 2.704,4.584 h 0.167 c 1.746,0 2.78,-0.912 2.78,-2.396 0,-1.107 -0.607,-1.692 -1.849,-1.692 -0.853,0 -1.098,0.181 -1.098,0.807 z m 0,4.242 h 0.581 c 1.41,0 2.122,-0.78 2.122,-2.134 0,-1.225 -0.766,-1.77 -2.083,-1.77 h -0.62 z m 8.015,-5.167 1.191,3.346 1.396,-3.346 z m -3.04,-3.659 c 1.1,0.039 1.23,0.037 1.553,0.037 0.309,0 0.441,0.002 1.553,-0.037 v 0.393 c -0.801,0.012 -0.958,0.157 -0.958,0.492 0,0.132 0.026,0.314 0.35,1.224 l 0.376,1.055 h 2.96 l 0.515,-1.224 c 0.273,-0.65 0.364,-0.923 0.364,-1.065 0,-0.354 -0.208,-0.482 -0.933,-0.482 v -0.393 c 0.907,0.013 1.463,0.037 1.98,0.037 0.517,0 1.087,-0.024 1.978,-0.037 v 0.393 c -0.672,0 -0.983,0.209 -1.318,0.963 l -3.505,7.874 h -0.219 l -2.845,-6.912 c -0.711,-1.744 -0.956,-1.874 -1.851,-1.925 z" />
      </g>
      <g
         transform="translate(983.0318,75.4104)"
         id="g1207">
        <path
           id="path1209"
           style="fill:#08532a;fill-opacity:1;fill-rule:nonzero;stroke:none"
           d="M 0,0 C 0.243,0.181 0.56,0.23 0.673,0.23 H 3.576 C 3.784,0.23 4.082,0.174 4.298,0.012 4.451,-0.115 4.571,-0.304 4.573,-0.573 4.575,-0.869 4.419,-1.072 4.327,-1.168 4.208,-1.293 4.08,-1.35 4.033,-1.35 H 3.951 V -1.374 L 0.347,-1.375 V -1.35 H 0.264 c -0.046,0 -0.173,0.057 -0.293,0.182 -0.093,0.094 -0.249,0.299 -0.247,0.594 C -0.273,-0.303 -0.148,-0.121 0,0 M 0.241,-1.492 0.239,-2.019 H 0.307 C 0.528,-2.231 0.664,-2.305 0.743,-4.057 0.744,-4.098 0.75,-4.281 0.76,-4.581 h 0.412 c -0.022,0.956 -0.035,1.507 -0.035,1.507 0,0.534 0.487,0.638 0.489,0.203 0,0 -10e-4,0 -0.002,-0.109 0,0.371 -0.342,0.251 -0.342,-0.153 0,0 0.01,-0.529 0.029,-1.448 h 0.638 c -0.011,1.064 -0.018,1.683 -0.018,1.683 0,0.534 0.633,0.51 0.636,0.076 0,0 -0.002,-0.057 -0.003,-0.164 -0.047,0.438 -0.46,0.364 -0.46,0.01 0,0 0.006,-0.589 0.012,-1.605 h 0.66 c 0.007,0.956 0.01,1.507 0.01,1.507 0,0.534 0.487,0.638 0.491,0.203 0,0 0,-0.006 -0.004,-0.114 0,0.376 -0.342,0.24 -0.342,-0.148 0,0 -0.005,-0.529 -0.014,-1.448 h 0.625 c 0.008,0.3 0.012,0.483 0.015,0.524 0.076,1.735 0.189,1.852 0.426,2.038 h 0.065 v 0.524 c 0.137,0.03 0.659,0.305 0.663,0.901 0.002,0.25 -0.078,0.457 -0.24,0.618 -0.21,0.212 -0.531,0.305 -0.785,0.327 0,0.125 -0.002,0.474 -0.002,0.474 H 3.48 C 3.44,0.814 3.413,0.812 3.407,0.825 3.38,0.816 3.348,0.811 3.315,0.803 3.294,0.796 3.278,0.787 3.254,0.78 L 3.215,0.781 C 3.134,0.769 3.054,0.76 2.97,0.757 2.615,0.727 2.159,0.726 1.746,0.74 1.417,0.79 1.125,0.705 0.822,0.811 0.792,0.816 0.769,0.821 0.75,0.825 H 0.647 L 0.652,0.354 C 0.394,0.345 -0.424,0.172 -0.424,-0.594 c 0,-0.661 0.575,-0.87 0.665,-0.898" />
      </g>
      <g
         transform="translate(984.3885,50.7732)"
         id="g1211">
        <path
           id="path1213"
           style="fill:#08532a;fill-opacity:1;fill-rule:nonzero;stroke:none"
           d="m 0,0 c 0.021,-0.445 0.041,-0.884 0.061,-1.31 l 0.261,0.018 C 0.306,-0.873 0.292,-0.441 0.275,0 Z" />
      </g>
      <g
         transform="translate(985.7693,50.7732)"
         id="g1215">
        <path
           id="path1217"
           style="fill:#08532a;fill-opacity:1;fill-rule:nonzero;stroke:none"
           d="M 0,0 C -0.007,-0.42 -0.012,-0.833 -0.018,-1.234 L 0.349,-1.258 C 0.361,-0.848 0.375,-0.427 0.388,0 Z" />
      </g>
      <g
         transform="translate(985.2935,50.7732)"
         id="g1219">
        <path
           id="path1221"
           style="fill:#08532a;fill-opacity:1;fill-rule:nonzero;stroke:none"
           d="m 0,0 c 0.004,-0.427 0.008,-0.848 0.014,-1.255 l 0.355,0.022 C 0.373,-0.832 0.376,-0.42 0.382,0 Z" />
      </g>
      <g
         transform="translate(984.7574,50.7732)"
         id="g1223">
        <path
           id="path1225"
           style="fill:#08532a;fill-opacity:1;fill-rule:nonzero;stroke:none"
           d="m 0,0 c 0.015,-0.439 0.029,-0.869 0.044,-1.287 l 0.411,0.025 C 0.448,-0.852 0.439,-0.429 0.433,0 Z" />
      </g>
      <g
         transform="translate(985.4256,44.6409)"
         id="g1227">
        <path
           id="path1229"
           style="fill:#08532a;fill-opacity:1;fill-rule:nonzero;stroke:none"
           d="M 0,0 C 0.054,-0.006 0.11,-0.012 0.165,-0.023 0.18,-0.024 0.19,-0.029 0.201,-0.036 0.206,0.433 0.208,0.933 0.212,1.46 L -0.094,1.469 C -0.09,0.957 -0.086,0.472 -0.083,0.014 -0.055,0.01 -0.027,0.004 0,0" />
      </g>
      <g
         transform="translate(986.012,44.5105)"
         id="g1231">
        <path
           id="path1233"
           style="fill:#08532a;fill-opacity:1;fill-rule:nonzero;stroke:none"
           d="M 0,0 C 0.01,0.494 0.021,1.021 0.034,1.579 L -0.292,1.587 C -0.296,1.053 -0.302,0.549 -0.305,0.077 -0.202,0.053 -0.101,0.027 0,0" />
      </g>
      <g
         transform="translate(984.8238,44.6887)"
         id="g1235">
        <path
           id="path1237"
           style="fill:#08532a;fill-opacity:1;fill-rule:nonzero;stroke:none"
           d="M 0,0 C -0.01,0.44 -0.021,0.909 -0.031,1.4 L -0.271,1.39 C -0.255,0.896 -0.242,0.429 -0.228,-0.014 -0.151,-0.007 -0.075,-0.001 0,0" />
      </g>
      <g
         transform="translate(985.2637,44.6643)"
         id="g1239">
        <path
           id="path1241"
           style="fill:#08532a;fill-opacity:1;fill-rule:nonzero;stroke:none"
           d="M 0,0 C -0.005,0.454 -0.01,0.935 -0.015,1.443 L -0.391,1.428 C -0.381,0.935 -0.371,0.466 -0.362,0.024 -0.241,0.023 -0.12,0.016 0,0" />
      </g>
      <g
         transform="translate(986.3795,40.4836)"
         id="g1243">
        <path
           id="path1245"
           style="fill:#08532a;fill-opacity:1;fill-rule:nonzero;stroke:none"
           d="m 0,0 c -0.004,0.013 -0.01,0.032 -0.036,0.046 -0.125,0.059 -0.283,0.028 -0.417,-0.072 0.005,0.191 0.017,0.793 0.037,1.703 C -0.509,1.674 -0.6,1.669 -0.692,1.656 H -0.695 C -0.704,0.718 -0.708,0.168 -0.708,0.144 c 0,-0.056 0,-0.084 -0.031,-0.09 -0.03,0.002 -0.04,0.027 -0.04,0.083 0,0.025 0.004,0.564 0.01,1.488 C -0.792,1.609 -0.82,1.598 -0.852,1.596 -0.907,1.592 -0.963,1.59 -1.018,1.59 -1.013,1.014 -1.01,0.582 -1.009,0.325 V 0.156 C -1.006,0.151 -1,0.147 -0.994,0.141 c 0.096,-0.098 0.255,-0.343 0.184,-0.614 -0.048,-0.035 -0.075,-0.102 -0.063,-0.165 0.015,-0.075 0.072,-0.125 0.15,-0.129 h 0.006 c 0.071,0.003 0.126,0.05 0.144,0.122 0.013,0.062 -0.004,0.123 -0.042,0.159 -0.002,0.11 0.049,0.231 0.137,0.326 0.089,0.097 0.2,0.154 0.301,0.154 0.033,0 0.064,-0.007 0.092,-0.017 -0.008,-0.017 -0.025,-0.038 -0.039,-0.057 -0.061,-0.084 -0.153,-0.21 -0.159,-0.384 0,-0.03 -0.001,-0.058 -0.002,-0.088 -0.012,-0.37 -0.024,-0.754 -0.312,-0.832 l -0.008,-0.003 c -0.025,-0.01 -0.061,-0.015 -0.109,-0.016 -0.052,0.276 -0.287,0.452 -0.334,0.453 H -1.05 -1.052 c -0.054,-0.001 -0.286,-0.186 -0.339,-0.453 -0.049,0 -0.086,0.006 -0.111,0.016 l -0.005,0.003 c -0.292,0.078 -0.303,0.462 -0.315,0.832 -10e-4,0.03 -0.002,0.058 -0.002,0.088 -0.007,0.174 -0.098,0.3 -0.159,0.384 -0.013,0.019 -0.03,0.04 -0.038,0.055 0.118,0.048 0.276,-0.007 0.392,-0.135 0.089,-0.095 0.139,-0.216 0.137,-0.326 -0.039,-0.036 -0.056,-0.097 -0.04,-0.159 0.016,-0.072 0.073,-0.119 0.144,-0.122 h 0.005 c 0.076,0.004 0.135,0.054 0.148,0.129 0.012,0.063 -0.013,0.13 -0.061,0.165 -0.078,0.292 0.133,0.538 0.222,0.62 v 0.207 c -0.002,0.256 -0.008,0.678 -0.013,1.236 -0.112,0 -0.223,0.003 -0.334,0.009 0.019,-0.904 0.03,-1.431 0.031,-1.455 0,-0.056 0,-0.084 -0.032,-0.09 -0.03,0.002 -0.04,0.027 -0.04,0.083 0,0.025 -0.012,0.555 -0.032,1.465 -0.03,0.002 -0.061,0.002 -0.091,0.004 -0.055,0.003 -0.095,0.03 -0.122,0.064 0.028,-0.902 0.046,-1.501 0.053,-1.693 -0.133,0.1 -0.287,0.13 -0.42,0.067 C -2.096,0.032 -2.105,0.013 -2.107,0 c -0.008,-0.04 0.018,-0.076 0.059,-0.131 0.057,-0.079 0.136,-0.188 0.142,-0.338 10e-4,-0.028 0.002,-0.055 0.003,-0.086 0.012,-0.382 0.025,-0.814 0.372,-0.908 0.032,-0.016 0.072,-0.022 0.121,-0.023 0.004,-0.007 0.004,-0.015 0.008,-0.029 10e-4,-0.009 0.002,-0.019 0.003,-0.03 0.002,-0.022 0.004,-0.049 0.009,-0.079 0.018,-0.123 0.079,-0.28 0.33,-0.313 l 0.005,-10e-4 10e-4,10e-4 h 0.001 l 10e-4,-10e-4 h 0.002 l 0.005,10e-4 c 0.27,0.037 0.318,0.215 0.333,0.343 0.002,0.016 0.004,0.033 0.005,0.049 0.001,0.011 0.003,0.021 0.003,0.03 0,0.013 0.004,0.022 0.006,0.029 0.05,10e-4 0.091,0.007 0.122,0.023 0.347,0.094 0.361,0.526 0.372,0.908 0.002,0.031 0.003,0.058 0.005,0.086 0.005,0.15 0.084,0.259 0.141,0.338 C -0.016,-0.076 0.01,-0.04 0,0" />
      </g>
      <g
         transform="translate(976.8553,75.4104)"
         id="g1247">
        <path
           id="path1249"
           style="fill:#08532a;fill-opacity:1;fill-rule:nonzero;stroke:none"
           d="M 0,0 C 0.242,0.181 0.559,0.23 0.672,0.23 H 3.575 C 3.785,0.23 4.081,0.174 4.297,0.012 4.45,-0.115 4.571,-0.304 4.573,-0.573 4.575,-0.869 4.419,-1.072 4.326,-1.168 4.206,-1.293 4.08,-1.35 4.033,-1.35 H 3.95 V -1.374 L 0.347,-1.375 V -1.35 H 0.265 c -0.049,0 -0.175,0.057 -0.295,0.182 -0.092,0.094 -0.248,0.299 -0.246,0.594 C -0.273,-0.303 -0.149,-0.121 0,0 M 0.24,-1.492 0.236,-2.019 h 0.07 c 0.221,-0.212 0.356,-0.286 0.435,-2.038 0.001,-0.021 0.004,-0.073 0.006,-0.154 0.136,0.003 0.276,0.008 0.417,0.013 -0.018,0.718 -0.029,1.124 -0.029,1.124 0,0.534 0.487,0.638 0.49,0.203 0,0 0,0 -0.003,-0.109 0,0.371 -0.341,0.251 -0.341,-0.153 0,0 0.007,-0.38 0.022,-1.057 0.21,0.011 0.424,0.029 0.641,0.046 -0.008,0.794 -0.014,1.246 -0.014,1.246 0,0.534 0.633,0.51 0.636,0.076 0,0 0,-0.057 -0.003,-0.164 -0.047,0.438 -0.459,0.364 -0.459,0.01 0,0 0.003,-0.415 0.009,-1.153 0.219,0.019 0.44,0.044 0.666,0.068 0.004,0.632 0.009,0.987 0.009,0.987 0,0.534 0.485,0.638 0.487,0.203 0,0 0,-0.006 -0.002,-0.114 0,0.376 -0.344,0.24 -0.344,-0.148 0,0 -0.003,-0.327 -0.008,-0.909 0.213,0.023 0.425,0.049 0.639,0.078 0.078,1.646 0.189,1.765 0.422,1.945 h 0.065 v 0.524 c 0.138,0.03 0.659,0.305 0.664,0.901 0.002,0.25 -0.078,0.457 -0.238,0.618 -0.212,0.212 -0.534,0.305 -0.787,0.327 0,0.125 -0.003,0.474 -0.003,0.474 H 3.479 C 3.44,0.814 3.412,0.812 3.407,0.825 3.378,0.816 3.346,0.811 3.314,0.803 3.293,0.796 3.278,0.787 3.254,0.78 L 3.214,0.781 C 3.135,0.769 3.053,0.76 2.97,0.757 2.615,0.727 2.159,0.726 1.747,0.74 1.415,0.79 1.124,0.705 0.821,0.811 0.792,0.816 0.768,0.821 0.75,0.825 H 0.648 L 0.652,0.354 C 0.394,0.345 -0.424,0.172 -0.424,-0.594 c 0,-0.661 0.575,-0.87 0.664,-0.898" />
      </g>
      <g
         transform="translate(978.3004,50.4924)"
         id="g1251">
        <path
           id="path1253"
           style="fill:#08532a;fill-opacity:1;fill-rule:nonzero;stroke:none"
           d="M 0,0 C -0.013,-0.001 -0.024,0.001 -0.035,0.004 -0.018,-0.553 0,-1.095 0.016,-1.62 l 0.251,0.023 C 0.253,-1.062 0.241,-0.508 0.227,0.061 0.151,0.027 0.073,0.004 0,0" />
      </g>
      <g
         transform="translate(979.3419,50.9582)"
         id="g1255">
        <path
           id="path1257"
           style="fill:#08532a;fill-opacity:1;fill-rule:nonzero;stroke:none"
           d="m 0,0 c -0.068,-0.044 -0.141,-0.085 -0.216,-0.125 0.005,-0.646 0.01,-1.275 0.015,-1.882 l 0.333,0.031 C 0.138,-1.301 0.143,-0.6 0.147,0.122 0.106,0.072 0.053,0.033 0,0" />
      </g>
      <g
         transform="translate(979.5855,51.3606)"
         id="g1259">
        <path
           id="path1261"
           style="fill:#08532a;fill-opacity:1;fill-rule:nonzero;stroke:none"
           d="m 0,0 c -0.01,-0.817 -0.016,-1.611 -0.024,-2.368 l 0.35,0.033 c 0.017,0.713 0.032,1.458 0.049,2.223 C 0.247,-0.078 0.123,-0.039 0,0" />
      </g>
      <g
         transform="translate(978.7283,50.6428)"
         id="g1263">
        <path
           id="path1265"
           style="fill:#08532a;fill-opacity:1;fill-rule:nonzero;stroke:none"
           d="m 0,0 c -0.036,-0.014 -0.074,-0.032 -0.112,-0.049 0.012,-0.58 0.025,-1.144 0.038,-1.688 l 0.397,0.038 C 0.315,-1.106 0.309,-0.492 0.302,0.141 0.201,0.092 0.098,0.046 0,0" />
      </g>
      <g
         transform="translate(990.213,51.2175)"
         id="g1267">
        <path
           id="path1269"
           style="fill:#08532a;fill-opacity:1;fill-rule:nonzero;stroke:none"
           d="M 0,0 C 0.023,-0.712 0.045,-1.402 0.066,-2.069 L 0.32,-2.092 C 0.303,-1.396 0.285,-0.672 0.267,0.073 0.179,0.048 0.09,0.022 0,0" />
      </g>
      <g
         transform="translate(988.826,75.4104)"
         id="g1271">
        <path
           id="path1273"
           style="fill:#08532a;fill-opacity:1;fill-rule:nonzero;stroke:none"
           d="M 0,0 C 0.242,0.181 0.559,0.23 0.671,0.23 H 3.575 C 3.785,0.23 4.082,0.174 4.297,0.012 4.45,-0.115 4.571,-0.304 4.573,-0.573 4.575,-0.869 4.418,-1.072 4.327,-1.168 4.207,-1.293 4.08,-1.35 4.032,-1.35 H 3.951 V -1.374 L 0.346,-1.375 V -1.35 H 0.263 c -0.046,0 -0.172,0.057 -0.292,0.182 -0.093,0.094 -0.249,0.299 -0.247,0.594 C -0.272,-0.303 -0.148,-0.121 0,0 M 0.24,-1.492 0.237,-2.019 h 0.068 c 0.216,-0.208 0.349,-0.282 0.43,-1.888 0.14,-0.019 0.281,-0.036 0.423,-0.055 -0.015,0.571 -0.021,0.888 -0.021,0.888 0,0.534 0.487,0.638 0.489,0.203 0,0 -10e-4,0 -0.002,-0.109 0,0.371 -0.344,0.251 -0.344,-0.153 0,0 0.007,-0.304 0.019,-0.845 0.215,-0.027 0.431,-0.051 0.644,-0.075 -0.008,0.737 -0.013,1.155 -0.013,1.155 0,0.534 0.633,0.51 0.635,0.076 0,0 0,-0.057 -0.002,-0.164 -0.047,0.438 -0.457,0.364 -0.457,0.01 0,0 0.001,-0.394 0.007,-1.093 0.226,-0.023 0.448,-0.044 0.665,-0.062 0.006,0.676 0.009,1.057 0.009,1.057 0,0.534 0.487,0.638 0.489,0.203 0,0 0,-0.006 -0.002,-0.114 0,0.376 -0.344,0.24 -0.344,-0.148 0,0 -0.003,-0.363 -0.01,-1.009 0.216,-0.015 0.426,-0.027 0.63,-0.037 0.003,0.063 0.006,0.103 0.006,0.122 0.077,1.735 0.191,1.852 0.425,2.038 h 0.067 v 0.524 c 0.137,0.03 0.659,0.305 0.661,0.901 0.004,0.25 -0.078,0.457 -0.237,0.618 -0.211,0.212 -0.533,0.305 -0.786,0.327 0,0.125 -0.003,0.474 -0.003,0.474 H 0.648 L 0.652,0.354 C 0.393,0.345 -0.424,0.172 -0.424,-0.594 c 0,-0.661 0.575,-0.87 0.664,-0.898" />
      </g>
      <g
         transform="translate(990.5718,51.3205)"
         id="g1275">
        <path
           id="path1277"
           style="fill:#08532a;fill-opacity:1;fill-rule:nonzero;stroke:none"
           d="M 0,0 C 0.015,-0.761 0.031,-1.498 0.047,-2.204 L 0.449,-2.242 C 0.439,-1.479 0.431,-0.684 0.421,0.14 0.284,0.089 0.143,0.043 0,0" />
      </g>
      <g
         transform="translate(991.0923,51.4949)"
         id="g1279">
        <path
           id="path1281"
           style="fill:#08532a;fill-opacity:1;fill-rule:nonzero;stroke:none"
           d="M 0,0 C 0.005,-0.837 0.013,-1.65 0.018,-2.425 L 0.352,-2.457 C 0.359,-1.626 0.365,-0.751 0.373,0.15 0.251,0.098 0.128,0.048 0,0" />
      </g>
      <g
         transform="translate(991.5582,51.6877)"
         id="g1283">
        <path
           id="path1285"
           style="fill:#08532a;fill-opacity:1;fill-rule:nonzero;stroke:none"
           d="m 0,0 c -0.009,-0.92 -0.017,-1.812 -0.026,-2.656 l 0.349,-0.035 c 0.02,0.919 0.042,1.888 0.065,2.885 C 0.265,0.126 0.135,0.062 0,0" />
      </g>
      <g
         transform="translate(979.8253,45.0613)"
         id="g1287">
        <path
           id="path1289"
           style="fill:#08532a;fill-opacity:1;fill-rule:nonzero;stroke:none"
           d="M 0,0 C 0.006,0.262 0.012,0.538 0.018,0.82 L -0.294,0.811 C -0.296,0.484 -0.3,0.173 -0.302,-0.119 -0.211,-0.062 -0.112,-0.017 0,0" />
      </g>
      <g
         transform="translate(979.2383,44.7366)"
         id="g1291">
        <path
           id="path1293"
           style="fill:#08532a;fill-opacity:1;fill-rule:nonzero;stroke:none"
           d="M 0,0 C 0.071,0.05 0.138,0.104 0.206,0.153 0.208,0.462 0.211,0.787 0.214,1.131 L -0.074,1.119 c 0.003,-0.426 0.006,-0.826 0.008,-1.2 C -0.051,-0.049 -0.03,-0.021 0,0" />
      </g>
      <g
         transform="translate(980.2017,41.592)"
         id="g1295">
        <path
           id="path1297"
           style="fill:#08532a;fill-opacity:1;fill-rule:nonzero;stroke:none"
           d="m 0,0 c -0.001,0.013 -0.01,0.032 -0.035,0.046 -0.124,0.058 -0.283,0.029 -0.418,-0.071 0.006,0.247 0.026,1.171 0.056,2.544 -0.004,0 -0.007,0 -0.011,10e-4 -0.086,0.012 -0.184,0.018 -0.279,0.035 -0.012,-1.477 -0.02,-2.382 -0.02,-2.412 0,-0.056 0,-0.085 -0.031,-0.088 -0.03,0.001 -0.041,0.024 -0.041,0.083 0,0.031 0.008,0.942 0.018,2.435 C -0.816,2.588 -0.866,2.61 -0.91,2.639 -0.953,2.67 -0.999,2.709 -1.026,2.756 -1.018,1.59 -1.011,0.739 -1.008,0.324 H -1.009 V 0.155 c 0.007,-0.004 0.01,-0.009 0.016,-0.015 0.095,-0.098 0.255,-0.344 0.184,-0.615 -0.048,-0.033 -0.074,-0.098 -0.063,-0.163 0.015,-0.076 0.07,-0.125 0.15,-0.131 h 0.005 c 0.071,0.005 0.127,0.052 0.144,0.123 0.014,0.062 -0.003,0.124 -0.041,0.159 -0.002,0.111 0.049,0.231 0.135,0.326 0.089,0.098 0.201,0.154 0.303,0.154 0.034,0 0.063,-0.006 0.091,-0.017 -0.008,-0.015 -0.025,-0.038 -0.039,-0.057 -0.059,-0.085 -0.153,-0.209 -0.157,-0.384 -10e-4,-0.029 -0.002,-0.057 -0.004,-0.088 -0.011,-0.369 -0.023,-0.754 -0.313,-0.83 l -0.006,-0.004 c -0.026,-0.011 -0.062,-0.015 -0.109,-0.017 -0.052,0.278 -0.288,0.452 -0.334,0.454 h -0.002 -0.003 c -0.053,-0.002 -0.286,-0.187 -0.339,-0.454 -0.049,0 -0.086,0.006 -0.111,0.017 l -0.004,0.004 c -0.292,0.076 -0.303,0.461 -0.314,0.83 -0.002,0.031 -0.003,0.059 -0.004,0.088 -0.006,0.175 -0.098,0.299 -0.159,0.384 -0.012,0.019 -0.031,0.042 -0.038,0.056 0.12,0.047 0.278,-0.008 0.393,-0.136 0.09,-0.095 0.14,-0.215 0.138,-0.326 -0.04,-0.035 -0.056,-0.097 -0.042,-0.159 0.017,-0.072 0.073,-0.118 0.144,-0.123 h 0.007 c 0.076,0.006 0.134,0.055 0.146,0.131 0.012,0.065 -0.012,0.13 -0.06,0.163 -0.078,0.294 0.132,0.538 0.222,0.621 V 0.353 C -1.081,0.942 -1.095,2.352 -1.117,4.26 L -1.481,4.245 c 0.055,-2.454 0.09,-4.06 0.091,-4.102 0.002,-0.056 0.002,-0.085 -0.033,-0.088 -0.029,0.001 -0.038,0.024 -0.038,0.083 0,0.039 -0.039,1.647 -0.098,4.104 L -1.788,4.234 C -1.716,1.93 -1.666,0.322 -1.655,-0.024 -1.788,0.076 -1.94,0.105 -2.074,0.044 -2.095,0.032 -2.104,0.013 -2.106,0 c -0.01,-0.04 0.016,-0.076 0.056,-0.132 0.06,-0.079 0.139,-0.188 0.144,-0.337 10e-4,-0.028 0.003,-0.057 0.005,-0.085 0.011,-0.383 0.024,-0.817 0.37,-0.91 0.033,-0.014 0.072,-0.023 0.122,-0.023 0.002,-0.006 0.005,-0.016 0.007,-0.027 10e-4,-0.011 0.002,-0.02 0.002,-0.032 0.003,-0.022 0.006,-0.049 0.01,-0.079 0.019,-0.121 0.08,-0.278 0.331,-0.312 l 0.004,-0.003 0.002,0.003 h 10e-4 V -1.94 h 0.003 l 0.004,0.003 c 0.271,0.036 0.319,0.215 0.334,0.342 0.002,0.018 0.004,0.034 0.004,0.049 0.002,0.012 0.003,0.021 0.005,0.03 0,0.013 0.003,0.023 0.004,0.029 0.051,0 0.094,0.009 0.122,0.023 0.349,0.093 0.362,0.527 0.373,0.91 0.002,0.028 0.002,0.057 0.002,0.085 0.007,0.149 0.087,0.259 0.143,0.337 C -0.017,-0.076 0.009,-0.04 0,0" />
      </g>
      <g
         transform="translate(990.4522,45.0686)"
         id="g1299">
        <path
           id="path1301"
           style="fill:#08532a;fill-opacity:1;fill-rule:nonzero;stroke:none"
           d="M 0,0 C 0.059,-0.035 0.12,-0.067 0.183,-0.097 0.174,0.213 0.167,0.542 0.158,0.888 l -0.23,0.004 C -0.062,0.59 -0.053,0.299 -0.043,0.018 -0.03,0.014 -0.014,0.009 0,0" />
      </g>
      <g
         transform="translate(991.0682,44.7141)"
         id="g1303">
        <path
           id="path1305"
           style="fill:#08532a;fill-opacity:1;fill-rule:nonzero;stroke:none"
           d="M 0,0 C -0.004,0.38 -0.009,0.792 -0.013,1.23 L -0.378,1.24 C -0.371,0.88 -0.364,0.54 -0.356,0.22 -0.23,0.159 -0.104,0.096 0,0" />
      </g>
      <g
         transform="translate(992.1732,41.592)"
         id="g1307">
        <path
           id="path1309"
           style="fill:#08532a;fill-opacity:1;fill-rule:nonzero;stroke:none"
           d="m 0,0 c -0.002,0.013 -0.011,0.032 -0.036,0.046 -0.124,0.058 -0.283,0.029 -0.416,-0.071 0.007,0.346 0.042,1.994 0.093,4.353 l -0.31,0.008 C -0.693,1.831 -0.708,0.185 -0.708,0.143 c 0,-0.056 0,-0.085 -0.031,-0.088 -0.03,0.001 -0.04,0.024 -0.04,0.083 0,0.039 0.012,1.69 0.03,4.202 l -0.29,0.008 c 0.004,-0.466 0.007,-0.904 0.01,-1.307 0.035,-0.056 0.042,-0.134 10e-4,-0.188 0.011,-1.215 0.017,-2.103 0.02,-2.529 V 0.155 c 0.005,-0.004 0.009,-0.009 0.014,-0.015 0.096,-0.098 0.255,-0.344 0.183,-0.615 -0.048,-0.033 -0.074,-0.098 -0.062,-0.163 0.015,-0.076 0.071,-0.125 0.148,-0.131 h 0.007 c 0.072,0.005 0.127,0.052 0.144,0.123 0.014,0.062 -0.001,0.124 -0.041,0.159 -0.001,0.111 0.05,0.231 0.136,0.326 0.091,0.098 0.201,0.154 0.301,0.154 0.034,0 0.065,-0.006 0.093,-0.017 C -0.092,-0.039 -0.11,-0.062 -0.124,-0.081 -0.185,-0.166 -0.276,-0.29 -0.282,-0.465 -0.284,-0.494 -0.284,-0.522 -0.285,-0.553 -0.297,-0.922 -0.308,-1.307 -0.6,-1.383 l -0.005,-0.004 c -0.025,-0.011 -0.062,-0.015 -0.109,-0.017 -0.052,0.278 -0.288,0.452 -0.333,0.454 h -0.002 -0.003 c -0.054,-0.002 -0.286,-0.187 -0.339,-0.454 -0.05,0 -0.085,0.006 -0.112,0.017 l -0.004,0.004 c -0.291,0.076 -0.302,0.461 -0.315,0.83 -10e-4,0.031 -0.002,0.059 -0.003,0.088 -0.005,0.175 -0.097,0.299 -0.158,0.384 -0.014,0.019 -0.03,0.042 -0.038,0.056 0.117,0.047 0.276,-0.008 0.391,-0.136 0.09,-0.095 0.141,-0.215 0.139,-0.326 -0.039,-0.035 -0.056,-0.097 -0.042,-0.159 0.017,-0.072 0.073,-0.118 0.145,-0.123 h 0.005 c 0.077,0.006 0.135,0.055 0.147,0.131 0.012,0.065 -0.012,0.13 -0.058,0.163 -0.08,0.294 0.13,0.538 0.219,0.621 V 0.353 C -1.079,0.777 -1.087,1.63 -1.101,2.792 -1.206,2.711 -1.322,2.65 -1.445,2.604 -1.411,1.098 -1.39,0.176 -1.39,0.143 c 0,-0.056 0,-0.085 -0.032,-0.088 -0.031,0.001 -0.04,0.024 -0.04,0.083 0,0.029 -0.021,0.944 -0.058,2.437 C -1.546,2.565 -1.573,2.557 -1.599,2.551 -1.65,2.536 -1.698,2.548 -1.737,2.579 -1.691,1.175 -1.663,0.232 -1.654,-0.024 -1.788,0.076 -1.941,0.105 -2.073,0.044 -2.096,0.032 -2.104,0.013 -2.108,0 c -0.007,-0.04 0.019,-0.076 0.058,-0.132 0.059,-0.079 0.137,-0.188 0.144,-0.337 0.002,-0.028 0.002,-0.057 0.002,-0.085 0.013,-0.383 0.026,-0.817 0.373,-0.91 0.033,-0.014 0.073,-0.023 0.122,-0.023 0.002,-0.006 0.004,-0.016 0.006,-0.027 0.003,-0.011 0.004,-0.02 0.004,-0.032 0.001,-0.022 0.004,-0.049 0.009,-0.079 0.019,-0.121 0.079,-0.278 0.331,-0.312 l 0.002,-0.003 0.003,0.003 h 0.001 l 10e-4,-0.003 h 0.003 l 0.004,0.003 c 0.27,0.036 0.318,0.215 0.333,0.342 0.003,0.018 0.004,0.034 0.004,0.049 0.002,0.012 0.002,0.021 0.004,0.03 0.002,0.013 0.005,0.023 0.006,0.029 0.05,0 0.093,0.009 0.123,0.023 0.348,0.093 0.36,0.527 0.371,0.91 0.002,0.028 0.003,0.057 0.003,0.085 0.006,0.149 0.085,0.259 0.144,0.337 C -0.018,-0.076 0.01,-0.04 0,0" />
      </g>
      <g
         transform="translate(996.4402,52.3489)"
         id="g1311">
        <path
           id="path1313"
           style="fill:#08532a;fill-opacity:1;fill-rule:nonzero;stroke:none"
           d="M 0,0 C -0.357,0.13 -1.164,0.241 -1.637,0.69 -0.997,0.345 -0.292,0.232 0.055,0.127 0.405,0.023 1.187,-0.17 1.497,-0.88 1.032,-0.259 0.359,-0.129 0,0 m -0.285,-0.363 c -0.356,0.131 -1.163,0.242 -1.637,0.693 0.64,-0.346 1.345,-0.46 1.693,-0.564 0.348,-0.104 1.131,-0.299 1.44,-1.007 -0.467,0.621 -1.137,0.748 -1.496,0.878 m -0.542,-0.368 c -0.365,0.128 -1.184,0.237 -1.664,0.683 0.651,-0.341 1.366,-0.452 1.72,-0.556 0.355,-0.104 1.147,-0.296 1.462,-0.999 -0.473,0.616 -1.156,0.742 -1.518,0.872 m -0.279,-0.424 c -0.369,0.135 -1.199,0.249 -1.686,0.718 0.658,-0.359 1.384,-0.478 1.742,-0.587 0.36,-0.107 1.165,-0.308 1.484,-1.044 -0.48,0.643 -1.171,0.777 -1.54,0.913 M 0.406,-3.879 C 0.357,-4.019 0.179,-4.479 0.161,-4.532 0.135,-4.607 0.208,-4.67 0.197,-4.691 0.186,-4.712 0.083,-4.694 0.064,-4.66 c -0.021,0.038 -0.003,0.306 -0.041,0.446 -0.038,0.142 -0.289,0.308 -0.459,0.132 -0.169,-0.18 -0.148,-0.462 -0.066,-0.561 0.083,-0.1 0.554,-0.47 0.462,-0.885 -0.091,-0.414 -0.226,-0.777 -0.774,-0.777 -0.216,0 -0.371,0.215 -0.397,0.278 -0.025,0.063 -0.097,-0.141 -0.133,-0.234 -0.036,-0.096 -0.083,-0.106 -0.145,-0.111 -0.062,-0.005 -0.024,0.078 0.007,0.166 0.031,0.091 0.195,0.467 0.235,0.687 0.042,0.221 0.133,0.425 0.179,0.356 0.047,-0.067 0.083,-0.109 0.026,-0.261 -0.055,-0.152 -0.02,-0.272 -0.014,-0.345 0.004,-0.074 0.142,-0.337 0.369,-0.288 0.226,0.045 0.437,0.293 0.431,0.534 -0.004,0.241 -0.107,0.231 -0.275,0.398 -0.171,0.167 -0.422,0.493 -0.217,0.891 0.207,0.398 0.538,0.387 0.668,0.339 0.127,-0.047 0.194,-0.171 0.281,-0.125 0.089,0.047 0.092,0.078 0.109,0.153 0.015,0.072 0.124,0.063 0.096,-0.012 M -2.365,-6.42 c -0.468,-0.077 -0.448,0.524 -0.413,0.777 0.04,0.274 0.186,1.163 0.195,1.231 0.012,0.067 0.032,0.136 -0.009,0.141 -0.041,0.003 -0.186,-0.027 -0.196,0.021 -0.015,0.074 0.052,0.11 0.052,0.11 0.293,-0.027 0.428,-0.047 0.575,-0.011 0.149,0.036 0.189,0.011 0.165,-0.042 -0.027,-0.052 -0.18,-0.041 -0.222,-0.088 -0.04,-0.048 -0.261,-0.98 -0.277,-1.121 -0.015,-0.142 -0.076,-0.614 -0.061,-0.672 0.014,-0.058 0.081,-0.231 0.312,-0.147 0.232,0.084 0.306,0.399 0.319,0.509 0.015,0.109 0.278,1.026 0.303,1.199 0.028,0.173 0.088,0.232 0.03,0.257 -0.055,0.027 -0.081,-0.02 -0.138,0.022 -0.055,0.041 -0.081,0.067 -0.041,0.099 0.041,0.031 0.248,0.031 0.391,0.046 0.144,0.017 0.375,0.048 0.421,0.08 0.045,0.031 0.067,-0.08 0.01,-0.101 -0.056,-0.019 -0.307,-0.066 -0.334,-0.158 -0.038,-0.124 -0.293,-1.134 -0.381,-1.371 -0.087,-0.235 -0.147,-0.686 -0.701,-0.781 m -0.536,2.059 c -0.041,-0.282 0.01,-0.325 -0.103,-0.346 -0.112,-0.02 -0.163,-0.02 -0.133,0.116 0.032,0.136 0.108,0.262 0.041,0.257 -0.065,-0.006 -0.329,0.031 -0.334,-0.015 -0.005,-0.048 -0.39,-1.876 -0.405,-1.924 -0.016,-0.046 0.082,-0.089 0.142,-0.099 0.063,-0.011 0.191,-0.016 0.165,-0.089 -0.025,-0.073 -0.36,0 -0.586,0.037 -0.226,0.036 -0.219,0.036 -0.209,0.105 0.01,0.067 0.169,-0.012 0.205,0.084 0.035,0.092 0.283,1.399 0.312,1.565 0.031,0.168 0.099,0.325 0.031,0.325 -0.055,0 -0.199,0.036 -0.236,-0.009 -0.035,-0.047 -0.053,-0.131 -0.093,-0.247 -0.036,-0.111 -0.138,-0.146 -0.142,-0.085 -0.011,0.122 -0.062,0.11 -0.057,0.147 l 0.005,0.037 c 0.078,0.183 0.133,0.383 0.201,0.378 0.066,-0.005 0.986,-0.038 1.053,-0.038 0.066,0 0.184,0.084 0.143,-0.199 m -1.556,0.136 c -0.072,0.032 -0.113,0.016 -0.124,-0.025 -0.026,-0.107 -0.266,-1.273 -0.291,-1.446 -0.027,-0.174 -0.109,-0.55 -0.068,-0.57 0.041,-0.024 0.221,0.019 0.215,-0.091 -0.004,-0.093 -0.456,0.007 -0.61,0.026 -0.083,0.012 -0.078,0.094 -0.006,0.085 0.041,-0.006 0.111,-0.022 0.112,0.021 0.043,0.596 0.201,1.112 0.243,1.376 0,0 0.056,0.452 0.087,0.599 0.014,0.062 -0.067,0.086 -0.221,0.099 -0.142,0.011 -0.087,0.126 -0.026,0.117 0.124,-0.023 0.371,-0.023 0.51,-0.032 0.137,-0.012 0.388,0.024 0.296,-0.116 -0.029,-0.047 -0.044,-0.074 -0.117,-0.043 m -1.33,-2.027 c -0.15,0.105 -0.262,0.011 -0.248,0.513 0.012,0.374 -0.081,0.337 -0.209,0.398 -0.129,0.063 -0.288,0.095 -0.221,0.19 0.076,0.106 0.029,-0.058 0.359,-0.02 0.328,0.037 0.411,0.417 0.411,0.574 0,0.158 0.092,0.493 -0.355,0.583 -0.447,0.09 -0.343,0.01 -0.343,-0.078 0,-0.065 -0.098,-0.515 -0.144,-0.759 -0.046,-0.248 -0.145,-1.082 -0.15,-1.144 -0.005,-0.062 -0.071,-0.083 0.01,-0.12 0.083,-0.037 0.201,-0.11 0.1,-0.116 -0.105,-0.004 -0.448,0.047 -0.53,0.047 -0.082,0 -0.235,-0.012 -0.196,0.101 0.026,0.071 0.341,-0.043 0.349,0.037 0.022,0.156 0.159,1.266 0.185,1.544 0.023,0.252 0.082,0.524 0,0.596 -0.081,0.076 -0.42,0.066 -0.452,0.011 -0.062,-0.103 -0.19,-0.838 -0.236,-1.077 -0.044,-0.235 -0.169,-0.948 -0.128,-1.04 0.04,-0.088 0.159,-0.015 0.163,-0.083 0.005,-0.068 -0.035,-0.048 -0.158,-0.037 -0.125,0.012 -0.355,0.037 -0.448,0.037 -0.091,0 -0.101,0.083 -0.041,0.1 0.063,0.015 0.164,-0.009 0.185,0.037 0.067,0.142 0.161,0.913 0.186,1.126 0.035,0.303 0.122,0.88 0.106,0.948 -0.014,0.069 -0.281,-0.011 -0.281,0.069 0,0.079 0.087,0.051 0.087,0.051 0.432,0 0.89,-0.02 1.249,-0.072 0.359,-0.053 0.698,-0.043 0.903,-0.198 0.205,-0.159 0.453,-0.684 0.062,-0.996 -0.389,-0.315 -0.477,-0.179 -0.488,-0.268 -0.005,-0.037 0.067,-0.004 0.175,-0.037 0.107,-0.03 0.201,-0.241 0.174,-0.418 -0.026,-0.18 -0.051,-0.316 0.021,-0.384 0.07,-0.069 0.173,-0.058 0.241,-0.026 0.067,0.031 0.128,-0.01 0.087,-0.037 -0.04,-0.025 -0.277,-0.157 -0.425,-0.052 m 0.368,-1.585 c 0.009,-0.073 -0.035,-0.141 -0.119,-0.186 -0.26,-0.149 -0.826,-0.152 -1.068,-0.149 -1.064,0.061 -2.191,0.44 -3.212,0.53 -0.279,0.025 -0.774,0.08 -1.079,0.098 -0.153,0.007 -0.317,0.007 -0.481,0.009 -0.164,-0.002 -0.328,-0.002 -0.48,-0.009 -0.304,-0.018 -0.8,-0.073 -1.078,-0.098 -1.023,-0.09 -2.148,-0.469 -3.212,-0.53 -0.242,-0.005 -0.809,0 -1.068,0.149 -0.085,0.045 -0.128,0.113 -0.119,0.186 0.017,0.171 0.325,0.373 0.91,0.607 l 1.233,0.492 0.087,0.046 c 0.016,0.01 0.019,0.023 0.01,0.039 1.317,0.136 2.618,0.249 3.735,0.255 1.822,-0.03 2.891,-0.089 3.817,-0.174 -0.092,-0.041 -0.153,-0.095 -0.108,-0.12 l 0.087,-0.046 1.233,-0.492 c 0.588,-0.234 0.893,-0.436 0.912,-0.607 m -3.586,-1.905 c -0.119,-0.375 -0.377,-0.428 -0.468,-0.44 -0.053,-0.006 -0.175,0.004 -0.275,0.053 -0.111,0.051 -0.242,0.157 -0.308,0.4 -0.076,0.271 0.133,0.492 0.26,0.6 -0.112,0.093 -0.201,0.242 -0.181,0.407 0.035,0.303 0.239,0.411 0.366,0.443 0.001,10e-4 0.004,10e-4 0.006,10e-4 0.076,0.024 0.134,0.008 0.205,-0.012 0.125,-0.037 0.325,-0.154 0.35,-0.458 0.012,-0.162 -0.077,-0.303 -0.189,-0.393 0.125,-0.114 0.314,-0.34 0.234,-0.601 m -1.31,0.059 c -0.086,-0.158 -0.253,-0.275 -0.411,-0.273 -0.127,0.002 -0.387,0.016 -0.449,0.403 0,0 -0.039,0.334 -0.039,0.58 0,0.232 0.041,0.431 0.101,0.532 0.117,0.289 0.329,0.304 0.445,0.298 0.159,-0.005 0.314,-0.135 0.396,-0.297 0.029,-0.058 0.041,-0.147 0.044,-0.253 10e-4,-0.009 0.003,-0.017 0.003,-0.027 0,0 -0.004,-0.805 -0.09,-0.963 m -1.079,0.141 c -0.091,-0.385 -0.344,-0.457 -0.435,-0.476 -0.066,-0.015 -0.245,-0.012 -0.361,0.077 -0.089,0.053 -0.177,0.15 -0.24,0.317 -0.1,0.263 0.09,0.508 0.207,0.626 -0.118,0.084 -0.22,0.226 -0.212,0.393 0.01,0.261 0.153,0.388 0.273,0.447 0.097,0.059 0.163,0.047 0.249,0.033 0.128,-0.023 0.34,-0.118 0.39,-0.419 0.031,-0.161 -0.048,-0.31 -0.153,-0.413 0.134,-0.103 0.345,-0.314 0.282,-0.585 m -1.183,-0.551 c -0.031,-0.004 -0.135,-0.018 -0.239,-0.027 -0.097,-0.009 -0.194,-0.015 -0.225,-0.019 -0.061,-0.007 -0.185,-0.021 -0.185,0.017 0,0.069 0.148,0.085 0.245,0.1 0.11,0.015 0.033,0.317 0.023,0.416 -0.014,0.153 -0.039,0.518 -0.041,0.585 -0.002,0.069 -0.021,0.216 -0.017,0.281 0.006,0.219 -0.134,0.157 -0.144,0.153 -0.044,-0.015 -0.128,-0.08 -0.132,-0.028 0,0 0.042,0.082 0.074,0.088 0.014,0.002 0.09,0.073 0.116,0.124 0.03,0.06 0.093,0.14 0.178,0.134 0.075,-0.005 0.104,-0.013 0.108,-0.051 0.003,-0.037 0.022,-0.105 0.019,-0.191 -0.004,-0.082 0.069,-0.985 0.074,-1.138 0.004,-0.154 -0.004,-0.345 0.037,-0.352 0.058,-0.006 0.169,0.007 0.171,-0.036 0.003,-0.042 -0.005,-0.051 -0.062,-0.056 m -4.015,4.318 c 0,0 -0.105,0.422 -0.144,0.736 -0.055,0.442 -0.095,0.973 -0.163,0.98 -0.071,0.008 -0.243,0.029 -0.297,0.034 -0.052,0.011 -0.055,0.119 0.013,0.119 0.119,0 0.471,-0.003 0.614,0.006 0.144,0.011 0.25,0.039 0.264,0.014 0.014,-0.023 0.043,-0.082 -0.041,-0.103 -0.082,-0.023 -0.161,0 -0.161,-0.039 0,-0.038 0.033,-0.591 0.036,-0.723 0.002,-0.134 0.058,-0.744 0.107,-0.916 0,0 0.094,-0.35 0.264,-0.395 0.263,-0.065 0.473,0.089 0.454,0.469 -0.022,0.409 -0.052,0.68 -0.073,0.905 -0.021,0.223 -0.052,0.708 -0.053,0.766 -0.004,0.055 -0.155,0.016 -0.22,0.013 -0.074,-0.004 -0.054,0.045 -0.054,0.091 0,0.04 0.022,0.068 0.078,0.063 0.055,-0.009 0.14,0.003 0.208,0.01 0.069,0.007 0.376,0.014 0.432,0.02 0.056,0.007 0.066,-0.01 0.068,-0.055 0.004,-0.053 -0.025,-0.046 -0.063,-0.056 -0.033,-0.011 -0.082,-0.021 -0.129,-0.028 0,0 -0.06,0.01 -0.044,-0.161 0,0 0.162,-1.551 0.071,-1.767 -0.087,-0.218 -0.294,-0.395 -0.505,-0.421 -0.17,-0.018 -0.519,-0.044 -0.662,0.438 m -0.62,1.365 c -0.017,-0.029 -0.044,-0.092 -0.108,-0.092 -0.083,0 -0.117,0.099 -0.117,0.099 -0.011,0.063 -0.02,0.246 -0.02,0.284 0,0.037 -0.137,0.004 -0.218,-0.005 -0.074,-0.011 -0.085,-0.021 -0.085,-0.052 0,-0.033 0.009,-0.456 0.025,-0.703 0.016,-0.246 0.042,-1.116 0.051,-1.231 0.009,-0.103 0.273,-0.101 0.303,-0.111 0.03,-0.01 0.067,-0.115 0.015,-0.121 -0.052,-0.004 -0.533,-0.059 -0.795,-0.078 -0.077,-0.004 -0.062,0.095 -0.036,0.101 0.133,0.027 0.263,0.094 0.263,0.151 0,0.058 -0.088,0.739 -0.1,0.902 -0.009,0.162 -0.039,0.685 -0.055,0.905 -0.016,0.221 -0.041,0.194 -0.088,0.185 -0.046,-0.011 -0.118,-0.027 -0.205,-0.053 -0.089,-0.027 -0.067,-0.168 -0.057,-0.278 0.011,-0.11 -0.006,-0.179 -0.046,-0.187 -0.041,-0.013 -0.093,0.067 -0.16,0.103 -0.066,0.037 -0.032,0.362 -0.031,0.476 0.003,0.07 0.228,0.062 0.362,0.072 0.134,0.011 0.79,0.078 0.904,0.095 0.113,0.015 0.113,0.003 0.123,-0.05 0.011,-0.052 0.091,-0.379 0.075,-0.412 m -1.36,-2.046 c -0.112,0 -0.479,0.008 -0.533,0.36 -0.056,0.349 -0.024,0.446 -0.195,0.45 -0.176,0.003 -0.486,0.021 -0.486,0.133 0,0.059 0.194,0.032 0.278,0.055 0.074,0.023 0.351,0.15 0.266,0.717 -0.078,0.527 -0.49,0.473 -0.585,0.473 -0.124,0 -0.24,-0.003 -0.234,-0.041 0.004,-0.04 0.184,-1.341 0.201,-1.556 0.013,-0.165 0.05,-0.466 0.056,-0.547 0.002,-0.055 0.005,-0.055 0.047,-0.057 0.045,-0.002 0.14,-0.012 0.253,-0.007 0.081,0.001 0.092,-0.106 0.007,-0.106 0,0 -0.58,0.027 -0.64,0.03 -0.053,0 -0.061,0.116 0.019,0.115 0.047,-0.003 0.078,-0.012 0.074,0.039 -0.006,0.052 -0.279,1.904 -0.296,2.036 -0.014,0.117 -0.039,0.091 -0.132,0.077 -0.058,-0.007 -0.261,-0.021 -0.366,-0.013 -0.037,0.003 -0.012,-0.068 -0.009,-0.147 0.001,-0.084 0.235,-1.884 0.242,-1.934 0.007,-0.055 0.13,-0.044 0.178,-0.045 0.056,-0.002 0.062,-0.104 -0.008,-0.104 0,0 -0.519,0.002 -0.632,0.015 -0.102,0.01 -0.071,0.124 -0.006,0.122 0.082,-0.004 0.221,0.034 0.212,0.103 -0.015,0.15 -0.049,0.277 -0.064,0.388 -0.022,0.145 -0.156,1.079 -0.177,1.212 -0.02,0.131 -0.045,0.471 -0.075,0.467 -0.027,-0.002 -0.294,-0.004 -0.308,-0.007 -0.031,-0.002 -0.082,0.035 -0.079,-0.055 0.012,-0.294 -0.075,-1.917 -0.075,-2.02 0,-0.101 0.018,-0.128 -0.086,-0.133 -0.103,-0.002 -0.134,-0.031 -0.163,0.036 -0.018,0.037 -0.358,0.79 -0.663,1.465 -0.228,0.503 -0.4,0.951 -0.557,1.054 -0.142,0.09 -0.184,0.071 -0.179,0.125 0.007,0.063 0.078,0.038 0.078,0.038 0.127,-0.045 0.27,-0.104 0.412,-0.149 0.261,-0.085 0.5,-0.145 0.528,-0.152 0.041,-0.009 0.046,-0.08 -0.028,-0.065 -0.129,0.023 -0.299,0.07 -0.286,0.018 0.009,-0.053 0.684,-1.754 0.751,-1.933 0.041,-0.105 0.058,-0.159 0.062,-0.123 0.004,0.062 0.053,1.819 0.054,1.888 -0.002,0.072 -0.183,0.064 -0.351,0.135 -0.044,0.02 -0.063,0.104 0.018,0.091 0.109,-0.017 0.622,-0.103 0.792,-0.118 0.23,-0.023 0.526,-0.061 0.743,-0.056 0.425,0.047 0.881,0.063 1.063,0.02 0.182,-0.041 0.482,-0.199 0.544,-0.494 0.062,-0.299 0.12,-0.636 -0.302,-0.78 -0.06,-0.022 -0.057,-0.128 -0.017,-0.134 0.057,-0.003 0.347,-0.027 0.399,-0.357 0.039,-0.258 0.054,-0.392 0.35,-0.392 0.105,0 0.012,-0.137 -0.095,-0.137 m -5.075,4.035 c 0.255,0.683 0.952,0.923 1.519,1.145 -0.554,-0.256 -1.251,-0.607 -1.402,-1.223 z m -0.226,0.244 -0.116,0.104 c 0.114,0.37 0.462,0.624 0.723,0.806 0.271,0.171 0.564,0.306 0.863,0.411 -0.29,-0.129 -0.571,-0.281 -0.824,-0.471 -0.241,-0.184 -0.59,-0.581 -0.646,-0.85 m -0.319,0.577 c 0.132,0.363 0.408,0.544 0.665,0.734 0.268,0.181 0.562,0.318 0.864,0.415 -0.295,-0.12 -0.573,-0.278 -0.821,-0.472 -0.237,-0.192 -0.593,-0.573 -0.662,-0.836 z m 0.006,0.659 c 0.351,0.575 0.97,0.751 1.496,1.005 -0.498,-0.276 -1.314,-0.822 -1.56,-1.32 z m 1.715,2.333 c 0.449,-0.053 0.9,-0.027 1.352,-0.154 l -0.047,-0.136 c -0.404,0.164 -0.866,0.192 -1.305,0.29 m 2.902,0.766 -0.052,-0.134 c -0.925,0.36 -1.93,0.561 -2.931,0.64 1.005,-0.035 2.012,-0.181 2.983,-0.506 m -0.066,0.549 -0.028,-0.141 c -0.991,0.235 -1.974,0.489 -2.986,0.601 1.017,-0.064 2.017,-0.273 3.014,-0.46 m -0.074,0.446 -0.043,-0.138 c -0.978,0.297 -1.999,0.498 -3.02,0.613 1.03,-0.067 2.051,-0.219 3.063,-0.475 m -0.034,0.484 -0.059,-0.129 c -1.092,0.34 -2.282,0.496 -3.436,0.679 1.171,-0.139 2.33,-0.233 3.495,-0.55 m -1.881,0.86 c 0.62,-0.106 1.237,-0.191 1.845,-0.442 l -0.068,-0.128 c -0.547,0.253 -1.182,0.373 -1.79,0.501 -0.615,0.114 -1.236,0.208 -1.861,0.233 0.625,0 1.252,-0.073 1.874,-0.164 m 2.179,-3.263 c -0.274,-0.185 -0.564,-0.335 -0.859,-0.469 0.279,0.169 0.55,0.352 0.799,0.565 z m 0.203,-0.407 c -0.398,-0.242 -0.821,-0.413 -1.245,-0.575 0.41,0.197 0.819,0.404 1.188,0.672 z m 0.27,-0.37 c -0.444,-0.372 -0.968,-0.53 -1.469,-0.728 0.488,0.233 1.005,0.432 1.411,0.819 z m 0.156,-0.243 0.071,-0.068 c -0.214,-0.279 -0.495,-0.41 -0.763,-0.55 -0.275,-0.132 -0.555,-0.24 -0.839,-0.335 0.279,0.114 0.554,0.239 0.819,0.385 0.26,0.15 0.534,0.311 0.712,0.568 m 0.319,-0.287 0.06,-0.088 c -0.498,-0.5 -1.098,-0.745 -1.687,-0.978 0.577,0.266 1.171,0.557 1.627,1.066 m 0.35,-0.24 0.068,-0.069 c -0.2,-0.32 -0.477,-0.463 -0.741,-0.62 -0.27,-0.147 -0.548,-0.267 -0.831,-0.36 0.279,0.11 0.55,0.25 0.813,0.411 0.254,0.168 0.526,0.345 0.691,0.638 m 0.486,-0.297 0.064,-0.086 c -0.239,-0.331 -0.548,-0.479 -0.846,-0.629 -0.304,-0.141 -0.618,-0.246 -0.934,-0.319 0.315,0.092 0.621,0.219 0.916,0.377 0.29,0.163 0.595,0.342 0.8,0.657 m 0.547,-0.21 0.072,-0.079 c -0.245,-0.343 -0.562,-0.541 -0.881,-0.715 -0.32,-0.165 -0.659,-0.289 -1.005,-0.351 0.344,0.082 0.673,0.222 0.986,0.406 0.307,0.187 0.617,0.409 0.828,0.739 m -5.301,3.037 c 0.942,-0.057 1.878,-0.212 2.799,-0.448 l -0.003,-0.088 -0.082,-0.043 c -0.897,0.279 -1.778,0.474 -2.714,0.579 m 2.283,-0.756 -0.175,-0.09 c -0.712,0.204 -1.426,0.301 -2.164,0.427 0.748,-0.079 1.593,-0.176 2.339,-0.337 M -21.607,-2.5 c 0.262,0.147 0.538,0.269 0.814,0.378 -0.506,-0.271 -1.106,-0.504 -1.327,-1.019 l -0.117,0.035 c 0.142,0.318 0.374,0.451 0.63,0.606 m -1.484,-0.285 -0.124,0.077 c 0.062,0.39 0.37,0.552 0.632,0.73 0.277,0.174 0.575,0.3 0.879,0.408 -0.295,-0.13 -0.584,-0.279 -0.84,-0.47 -0.247,-0.182 -0.533,-0.457 -0.547,-0.745 m 0.974,0.524 c 0.279,0.167 0.577,0.291 0.878,0.398 -0.292,-0.129 -0.579,-0.276 -0.841,-0.459 -0.246,-0.178 -0.536,-0.369 -0.553,-0.644 l -0.117,0.034 c 0.069,0.398 0.373,0.496 0.633,0.671 m 1.113,-0.476 c -0.241,-0.136 -0.511,-0.288 -0.554,-0.537 l -0.13,0.028 c 0.105,0.346 0.4,0.448 0.655,0.572 0.267,0.119 0.543,0.205 0.823,0.288 -0.271,-0.105 -0.541,-0.216 -0.794,-0.351 m 5.902,-0.963 c 0.019,0.004 0.164,0.013 0.237,0.028 0.025,0.005 0.219,0.046 0.436,0.07 0.276,0.034 0.593,0.053 0.625,0.053 0.058,0 0.044,-0.053 0.05,-0.123 0.008,-0.07 0.022,-0.293 0.025,-0.367 0.003,-0.073 0,-0.116 -0.025,-0.112 -0.023,0.004 -0.093,0.049 -0.112,0.085 -0.021,0.034 -0.017,0.292 -0.017,0.316 0,0.025 -0.274,0.012 -0.325,0.008 -0.052,-0.003 -0.056,-0.038 -0.059,-0.147 -0.003,-0.109 0.102,-1.343 0.11,-1.544 0.007,-0.199 -0.002,-0.444 0.054,-0.453 0.077,-0.01 0.227,0.011 0.23,-0.047 0.004,-0.055 -0.006,-0.066 -0.082,-0.072 -0.044,-0.005 -0.182,-0.023 -0.324,-0.037 -0.126,-0.014 -0.259,-0.023 -0.303,-0.027 -0.082,-0.009 -0.246,-0.031 -0.246,0.023 0,0.087 0.197,0.11 0.328,0.129 0.15,0.021 0.042,0.411 0.028,0.536 -0.023,0.2 -0.089,1.119 -0.092,1.205 -0.004,0.087 -0.008,0.287 -0.018,0.372 -0.003,0.03 -0.341,-0.018 -0.345,-0.053 -0.005,-0.043 -0.01,-0.405 -0.025,-0.411 -0.056,-0.017 -0.185,0.07 -0.195,0.123 -0.009,0.053 0.007,0.249 0.007,0.389 0,0 -0.003,0.048 0.038,0.056 m 1.507,0.132 c 0.189,0.009 0.539,0.052 0.744,0.073 0.206,0.02 0.484,0.04 0.606,0.04 0.122,0 0.263,0.027 0.263,-0.03 0,-0.057 0,-0.702 -0.005,-0.74 -0.005,-0.037 -0.076,0.022 -0.108,0.08 -0.03,0.056 -0.112,0.435 -0.133,0.481 -0.02,0.047 -0.103,0.026 -0.158,0.053 -0.058,0.026 -0.588,-0.03 -0.634,-0.131 -0.047,-0.1 -0.021,-0.288 -0.021,-0.425 0,-0.136 -0.015,-0.362 0.01,-0.403 0.025,-0.041 0.052,-0.052 0.151,-0.052 0.096,0 0.575,0.021 0.626,0.063 0.051,0.041 0.087,0.11 0.092,0.158 0.005,0.047 0.061,0.009 0.088,-0.148 0.024,-0.158 0,-0.3 -0.032,-0.341 -0.029,-0.041 -0.097,0.103 -0.122,0.136 -0.026,0.036 -0.258,-0.046 -0.376,-0.051 -0.118,-0.007 -0.261,0.025 -0.318,-0.011 -0.057,-0.035 -0.092,-0.035 -0.098,-0.214 -0.006,-0.179 0,-0.587 0.006,-0.646 0.004,-0.057 0.015,-0.073 0.134,-0.073 0.116,0 0.586,0.01 0.644,0.068 0.069,0.064 0.098,0.161 0.146,0.304 0.05,0.159 0.154,0.194 0.154,0.147 0,-0.048 0.051,-0.503 0.051,-0.575 0,-0.075 -0.196,-0.043 -0.36,-0.069 -0.163,-0.026 -0.477,-0.052 -0.647,-0.073 -0.157,-0.021 -0.431,-0.058 -0.518,-0.048 -0.088,0.011 -0.144,0.075 -0.052,0.105 0.093,0.032 0.211,-0.03 0.2,0.161 -0.01,0.195 -0.072,1.605 -0.072,1.72 0,0.114 0.031,0.335 -0.03,0.341 -0.062,0.004 -0.155,-0.074 -0.21,-0.022 -0.057,0.052 -0.021,0.122 -0.021,0.122 m 2.455,-1.39 c 0.031,-0.051 0.061,-0.014 0.071,-0.152 0.012,-0.136 0.113,-0.38 0.175,-0.429 0.062,-0.048 0.3,-0.387 0.678,-0.137 0.278,0.186 0.196,0.593 0.093,0.735 0,0 -0.21,0.155 -0.442,0.229 -0.232,0.073 -0.616,0.3 -0.575,0.662 0.046,0.391 0.317,0.534 0.489,0.575 0.168,0.043 0.393,0.077 0.688,-0.178 0.101,-0.089 0.071,-0.011 0.076,0.073 0.004,0.085 0.004,0.163 0.067,0.168 0.05,0.003 0.086,-0.051 0.086,-0.104 0,-0.052 -0.03,-0.871 -0.04,-0.907 -0.009,-0.036 -0.071,-0.079 -0.097,0.031 -0.025,0.111 -0.052,0.508 -0.175,0.618 -0.122,0.11 -0.344,0.279 -0.6,0.136 -0.259,-0.14 -0.292,-0.299 -0.259,-0.428 0.063,-0.237 0.443,-0.288 0.628,-0.414 0,0 0.607,-0.388 0.453,-0.874 -0.156,-0.489 -0.509,-0.542 -0.633,-0.557 -0.123,-0.015 -0.481,0.025 -0.55,0.303 -0.02,0.085 -0.117,0.058 -0.041,-0.114 0.019,-0.04 -0.057,-0.143 -0.083,-0.198 -0.025,-0.06 -0.05,0.003 -0.065,0.124 -0.016,0.12 -0.016,0.692 -0.016,0.824 0,0.129 0.041,0.067 0.072,0.014 m 1.679,-0.885 c 0.071,0.031 0.073,0.214 0.089,0.429 0.014,0.215 0.092,1.666 0.092,1.74 0,0.073 -0.008,0.089 -0.098,0.069 -0.092,-0.021 -0.113,0.014 -0.138,0.068 0,0 -0.012,0.059 0.04,0.062 0.067,0.006 0.344,0 0.467,-0.005 0.129,-0.005 0.268,0.031 0.659,-0.188 0.408,-0.231 0.432,-0.577 0.333,-0.971 -0.098,-0.391 -0.559,-0.539 -0.775,-0.602 -0.181,-0.051 -0.246,-0.076 -0.251,-0.041 -0.011,0.052 -0.017,0.143 0.015,0.141 0.205,-0.01 0.359,0.08 0.432,0.12 0.072,0.043 0.317,0.142 0.327,0.745 0.011,0.602 -0.514,0.612 -0.575,0.612 -0.062,0 -0.138,0.043 -0.148,-0.036 -0.013,-0.104 -0.175,-2.002 -0.186,-2.096 -0.01,-0.094 0.241,-0.1 0.329,-0.1 0.087,0 0.046,-0.051 0.042,-0.077 -0.006,-0.027 -0.283,0.015 -0.453,0.015 -0.17,0 -0.415,-0.058 -0.41,0.016 0.004,0.088 0.128,0.062 0.209,0.099 m 7.375,3.614 c -0.3,0.116 -0.593,0.189 -0.592,0.193 0.004,-0.003 -1.301,0.365 -1.84,0.704 0.569,-0.227 1.88,-0.571 1.883,-0.576 0,0 0.292,-0.075 0.607,-0.196 0.301,-0.108 0.861,-0.309 1.041,-0.81 -0.326,0.441 -0.792,0.572 -1.099,0.685 m -0.083,0.609 c 0.358,-0.1 1.164,-0.288 1.483,-0.97 -0.479,0.597 -1.174,0.721 -1.541,0.846 -0.37,0.124 -1.201,0.228 -1.689,0.665 0.659,-0.334 1.386,-0.442 1.747,-0.541 m 0.581,0.279 c 0.361,-0.104 1.169,-0.299 1.489,-1.013 -0.482,0.625 -1.177,0.754 -1.548,0.886 -0.368,0.13 -1.204,0.24 -1.692,0.696 0.661,-0.35 1.391,-0.463 1.751,-0.569 m 0.112,4.747 c 0.517,0.102 1.04,0.172 1.566,0.2 C -0.434,3.554 -0.953,3.461 -1.46,3.337 -1.962,3.204 -2.497,3.067 -2.884,2.75 l -0.094,0.108 c 0.457,0.336 0.988,0.433 1.502,0.548 m 0.115,0.526 C -0.827,4.034 -0.288,4.095 0.254,4.116 -0.286,4.072 -0.822,3.988 -1.347,3.862 -1.864,3.731 -2.406,3.586 -2.818,3.266 l -0.088,0.109 c 0.473,0.335 1.015,0.445 1.545,0.557 m 0.074,0.517 C -0.731,4.553 -0.165,4.604 0.397,4.578 -0.166,4.581 -0.726,4.507 -1.273,4.381 -1.812,4.247 -2.365,4.072 -2.802,3.744 l -0.084,0.114 c 0.488,0.334 1.048,0.48 1.599,0.591 M -0.053,1.838 C -0.608,1.721 -1.106,1.634 -1.625,1.418 l -0.152,0.07 c 0.548,0.175 1.161,0.279 1.724,0.35 M -0.077,2.189 C -0.838,2.049 -1.525,2.005 -2.214,1.654 l -0.164,0.083 c 0.74,0.32 1.532,0.359 2.301,0.452 M -2.896,2.322 -2.965,2.448 C -2.004,2.904 -0.961,3.022 0.062,3.131 -0.95,2.979 -2,2.801 -2.896,2.322 m 1.46,0.166 C -0.968,2.572 -0.497,2.625 -0.025,2.66 -0.493,2.602 -0.963,2.526 -1.421,2.42 -1.873,2.306 -2.353,2.186 -2.709,1.911 L -2.842,1.99 c 0.42,0.291 0.943,0.405 1.406,0.498 m 0.537,-1.295 -0.17,0.054 C -0.674,1.343 -0.194,1.418 0.208,1.449 -0.189,1.371 -0.524,1.334 -0.899,1.193 m 0.451,-0.256 c 0.021,0 0.319,0.024 0.338,0.027 0.675,0.054 1.061,0.107 1.42,0.107 0.234,0.923 0.932,2.878 1.384,3.927 0,0 -3.63,0.419 -5.684,-0.643 -0.407,-0.179 -0.387,-2.536 -0.401,-3.709 -0.006,-0.797 -1.815,-1.633 -2.654,-1.526 0.206,-0.696 1.527,-0.953 2.711,-1.29 1.23,-0.35 2.257,-0.843 2.061,-1.072 -0.027,-0.032 -0.05,-0.039 -0.088,-0.045 -2.042,-0.274 -6.291,0.681 -9.999,0.646 -3.732,-0.035 -7.122,-0.81 -9.823,-0.726 -0.375,0.442 1.133,0.809 2.05,1.112 0.917,0.306 2.136,0.599 2.62,1.311 0.105,0.157 -2.16,0.396 -2.716,1.548 -0.307,0.635 -0.578,1.79 -0.642,3.811 -0.006,0.116 -0.223,0.064 -0.338,0.098 -1.218,0.35 -3.945,0.671 -5.122,0.419 0.452,-1.006 1.068,-3.352 1.219,-3.898 1.013,-0.084 2.128,-0.218 1.834,-0.265 -1.464,-0.238 -2.174,-1.03 -2.327,-1.223 -0.874,-1.102 0.519,-2.084 0.903,-3.637 0.402,-1.613 0.442,-2.314 1.182,-2.704 0.651,-0.345 1.945,-0.357 3.504,-0.245 0.15,-0.368 0.278,-0.719 0.328,-0.846 0.184,-0.01 0.502,-0.024 0.674,-0.038 -0.011,0.36 -0.023,0.694 -0.03,0.953 0.523,0.048 0.812,0.104 1.364,0.163 -0.002,-0.138 -0.005,-0.301 -0.005,-0.342 -0.527,-0.224 -0.866,-0.479 -0.864,-0.691 0.003,-0.174 0.064,-0.429 0.186,-0.83 1.048,-3.475 2.167,-1.89 5.985,-1.871 3.818,-0.019 4.939,-1.604 5.984,1.871 0.123,0.401 0.184,0.656 0.187,0.83 0.004,0.212 -0.335,0.467 -0.861,0.691 -0.003,0.051 -0.005,0.291 -0.008,0.435 0.474,-0.056 0.733,-0.118 1.368,-0.187 -0.01,-0.267 -0.022,-0.629 -0.033,-1.022 0.172,0.014 0.488,0.028 0.674,0.038 0.053,0.133 0.189,0.512 0.353,0.902 1.409,-0.106 2.443,-0.027 2.6,-0.016 1.684,0.126 1.7,1.691 1.986,2.586 0.436,1.353 1.185,2.393 1.274,2.723 0.574,2.138 -2.594,2.628 -2.594,2.628" />
      </g>
      <g
         transform="translate(981.0084,75.05)"
         id="g1315">
        <path
           id="path1317"
           style="fill:#08532a;fill-opacity:1;fill-rule:nonzero;stroke:none"
           d="m 0,0 c 0.127,-0.343 -0.166,-0.652 -0.557,-0.652 -2.861,-0.005 -3.272,-0.156 -3.246,-0.155 0.213,0.005 3.418,-0.001 3.418,-0.001 0.455,0 0.657,0.582 0.497,0.801 C 0.112,-0.007 0.041,0 0,0" />
      </g>
      <g
         transform="translate(987.1856,75.05)"
         id="g1319">
        <path
           id="path1321"
           style="fill:#08532a;fill-opacity:1;fill-rule:nonzero;stroke:none"
           d="m 0,0 c 0.128,-0.343 -0.166,-0.652 -0.557,-0.652 -2.862,-0.005 -3.272,-0.156 -3.246,-0.155 0.212,0.005 3.417,-0.001 3.417,-0.001 0.456,0 0.658,0.582 0.498,0.801 C 0.112,-0.007 0.041,0 0,0" />
      </g>
      <g
         transform="translate(992.9793,75.05)"
         id="g1323">
        <path
           id="path1325"
           style="fill:#08532a;fill-opacity:1;fill-rule:nonzero;stroke:none"
           d="m 0,0 c 0.126,-0.343 -0.166,-0.652 -0.556,-0.652 -2.862,-0.005 -3.273,-0.156 -3.247,-0.155 0.212,0.005 3.418,-0.001 3.418,-0.001 0.455,0 0.658,0.582 0.497,0.801 C 0.112,-0.007 0.042,0 0,0" />
      </g>
      <g
         transform="translate(984.4359,43.5139)"
         id="g1327">
        <path
           id="path1329"
           style="fill:#08532a;fill-opacity:1;fill-rule:nonzero;stroke:none"
           d="M 0,0 C 0.131,0.066 0.277,0.134 0.303,0.267 0.32,0.367 0.331,0.487 0.134,0.583 0.081,0.609 0.036,0.618 -0.008,0.617 -0.041,0.612 -0.075,0.602 -0.11,0.584 -0.305,0.482 -0.293,0.328 -0.262,0.229 -0.228,0.127 -0.115,0.047 0,0" />
      </g>
      <g
         transform="translate(986.8792,43.3581)"
         id="g1331">
        <path
           id="path1333"
           style="fill:#08532a;fill-opacity:1;fill-rule:nonzero;stroke:none"
           d="M 0,0 C 0.136,0.054 0.292,0.106 0.328,0.237 0.356,0.336 0.377,0.452 0.189,0.57 0.131,0.605 0.078,0.618 0.029,0.618 -0.004,0.617 -0.035,0.608 -0.07,0.594 -0.076,0.591 -0.082,0.588 -0.086,0.588 -0.143,0.558 -0.187,0.513 -0.224,0.473 L -0.225,0.471 C -0.269,0.398 -0.262,0.316 -0.247,0.255 -0.222,0.148 -0.112,0.06 0,0" />
      </g>
      <g
         transform="translate(985.648,44.0808)"
         id="g1335">
        <path
           id="path1337"
           style="fill:#08532a;fill-opacity:1;fill-rule:nonzero;stroke:none"
           d="m 0,0 c -0.125,-0.042 -0.176,-0.316 -0.176,-0.316 -0.027,-0.119 -0.051,-0.472 -0.056,-0.63 0.006,-0.116 0.012,-0.226 0.022,-0.279 0,0 0.035,-0.278 0.159,-0.331 0.186,-0.074 0.355,0.021 0.376,0.315 0.022,0.317 0.026,0.53 0.029,0.704 0.002,0.053 0.004,0.087 0.005,0.111 0,0.03 -0.001,0.058 -0.001,0.089 C 0.354,-0.042 0.191,0.066 0,0" />
      </g>
      <g
         transform="translate(986.9466,43.1018)"
         id="g1339">
        <path
           id="path1341"
           style="fill:#08532a;fill-opacity:1;fill-rule:nonzero;stroke:none"
           d="m 0,0 h -0.007 c -0.211,0.003 -0.332,-0.167 -0.332,-0.167 -0.081,-0.106 -0.151,-0.421 0.052,-0.571 0.077,-0.054 0.146,-0.081 0.211,-0.082 0.067,-0.005 0.144,0.008 0.23,0.06 0.03,0.018 0.057,0.037 0.074,0.051 0.161,0.153 0.104,0.436 0.033,0.536 0,0 -0.096,0.14 -0.261,0.173" />
      </g>
      <g
         transform="translate(984.5164,43.2639)"
         id="g1343">
        <path
           id="path1345"
           style="fill:#08532a;fill-opacity:1;fill-rule:nonzero;stroke:none"
           d="m 0,0 c -0.21,-0.021 -0.313,-0.202 -0.313,-0.202 -0.07,-0.115 -0.111,-0.436 0.104,-0.562 0.089,-0.053 0.167,-0.067 0.235,-0.063 0.069,0.009 0.143,0.038 0.222,0.103 0.197,0.157 0.116,0.467 0.034,0.572 0,0 -0.111,0.133 -0.282,0.152" />
      </g>
      <g
         transform="translate(985.1209,50.7712)"
         id="g1347">
        <path
           id="path1349"
           style="fill:#08532a;fill-opacity:1;fill-rule:nonzero;stroke:none"
           d="m 0,0 c -0.785,0 -6.969,0.254 -7.845,2.441 -0.86,2.143 -1.054,16.733 -1.069,17.846 0.594,-0.726 2.056,-2.33 3.512,-3.966 1.755,-1.968 3.591,-3.972 5.317,-4.379 1.464,-0.301 2.337,0.769 2.133,1.453 -3.254,0 -2.72,4.28 -3.69,5.492 3.662,-1.116 5.411,-4.28 4.225,-5.454 0.145,-0.418 -0.215,-1.089 -0.265,-1.223 1.055,0.501 1.598,0.857 1.977,1.37 -0.593,3.136 1.898,3.951 2.427,5.907 C 8.649,15.654 6.421,12.822 4.755,13.074 4.254,12.64 3.456,12.131 3.156,11.942 3.579,11.908 3.935,11.832 4.306,11.666 7.146,12.376 7.598,7.753 6.95,5.819 6.58,6.541 5.987,7.001 5.362,7.628 3.856,9.146 3.824,9.333 3.895,11.268 2.778,11.791 0.974,11.174 -0.111,10.473 -1.446,9.612 -3.07,9.35 -3.628,9.846 c 0.163,0.282 0.106,1.042 -0.031,1.422 -0.697,1.924 -3.321,2.374 -3.609,4.381 -0.224,-0.228 -1.088,-2.813 0.554,-5.635 0.904,-1.279 1.978,-1.286 2.47,-1.088 0.36,-0.053 0.595,-0.084 0.933,-0.084 C -3.619,8.696 -4.162,8.498 -4.561,8.039 -5.996,8.361 -6.959,6.532 -6.858,5.005 -6.75,3.418 -5.853,1.763 -5.216,1.67 c -0.176,1.265 1.111,2.83 1.536,3.888 0.236,0.587 0.134,1.371 -0.112,1.831 0.276,0.251 0.738,0.805 1.597,1.16 C -2.71,7.999 -2.695,7.071 -2.668,6.723 -3.792,5.433 -1.999,1.711 2.534,1.523 1.61,2.307 1.353,4.127 0.452,5.788 -0.133,6.867 -0.83,7.034 -1.722,7.126 c -0.143,0.42 0.318,1.778 1.589,1.8 C 1.066,8.947 1.919,8.131 3.035,7.034 4.17,5.919 7.307,2.583 7.686,2.175 6.5,0.215 0.752,0 0,0 m -0.011,21.441 c -1.669,0 -6.89,-1.227 -9.224,-0.754 0.009,-0.602 0.201,-16.273 1.109,-18.537 0.908,-2.264 7.312,-2.527 8.126,-2.527 0.815,0 7.301,0.242 8.104,2.549 0.81,2.328 1.134,17.89 1.134,18.515 -2.381,-0.408 -7.579,0.754 -9.249,0.754" />
      </g>
      <g
         transform="translate(981.5464,78.6907)"
         id="g1351">
        <path
           id="path1353"
           style="fill:#08532a;fill-opacity:1;fill-rule:nonzero;stroke:none"
           d="m 0,0 c -0.434,-0.179 -0.156,-0.341 -0.323,-0.385 -0.136,-0.035 -0.297,-0.13 -0.07,-0.327 0.155,-0.136 0.114,-0.296 0.069,-0.429 -0.003,-0.006 -0.004,-0.013 -0.007,-0.017 -0.003,-0.036 -0.012,-0.042 0,0 0.006,0.044 0,0.136 -0.072,0.232 -0.078,0.099 0.164,0.117 -0.084,0.279 -0.081,0.051 -0.126,0.137 -0.066,0.213 0.046,0.063 -0.291,-0.076 -0.188,-0.322 0,0 0.103,-0.258 0.035,-0.341 -0.064,-0.079 0.065,0.083 -0.025,0.155 -0.078,0.061 -0.137,-0.05 -0.092,-0.141 0.049,-0.089 0.165,-0.271 0.03,-0.401 -0.163,-0.155 -0.161,-0.287 -0.142,-0.352 0.001,-10e-4 0.001,-0.002 0.001,-0.002 0.039,-0.056 0.014,-0.048 -0.001,0.002 -0.166,0.244 0.13,0.65 -0.086,0.978 -0.149,0.225 -0.067,0.601 0.059,0.862 0.101,0.206 0.246,0.343 0.412,0.381 0.069,0.015 -0.264,-0.075 -0.075,-0.207 0.113,-0.08 0.097,0.2 0.245,0.299 0.217,0.147 0.224,0.341 0.213,0.426 v 0.001 c -0.02,0.063 -0.006,0.051 0,-0.001 0.068,-0.204 0.059,-0.516 -0.215,-0.729 -0.274,-0.217 -0.283,-0.321 -0.305,-0.457 -0.023,-0.136 -0.013,0.171 0.424,0.193 0.17,0.009 0.198,0.069 0.262,0.25 C 0.061,0.338 0.154,0.233 0.148,0.523 0.145,0.634 0.263,0.111 0,0 m -0.259,-1.679 c -0.046,-0.14 -0.152,-0.264 -0.269,-0.367 0.052,0.067 0.099,0.137 0.148,0.21 0.126,0.193 0.19,0.417 0.22,0.636 -0.012,-0.138 -0.037,-0.291 -0.099,-0.479 m -0.186,2.956 c 0.033,0.033 0.092,0.069 0.16,0.108 C -0.306,1.351 -0.323,1.317 -0.328,1.284 -0.362,1.09 -0.372,1.021 -0.445,0.996 -0.462,0.99 -0.618,0.903 -0.687,0.731 c 0.04,0.179 0.108,0.416 0.242,0.546 M -1.298,0.942 C -1.407,0.861 -1.323,0.705 -1.392,0.619 -1.534,0.443 -1.633,0.671 -1.657,0.454 -1.663,0.396 -1.663,0.271 -1.621,0.146 c 0.03,-0.091 -0.069,0.079 -0.093,0.345 -0.039,0.417 0.563,0.322 0.558,0.77 -0.006,0.448 -0.242,0.625 -0.076,0.936 0.221,0.411 0.299,0.401 0.283,0.596 C -0.963,2.989 -0.847,2.659 -0.813,2.229 -0.78,1.802 -0.892,1.774 -0.958,1.518 -1.026,1.263 -1.041,1.134 -1.298,0.942 m -0.476,1.295 c 0.039,0.587 0.339,0.865 0.612,0.948 0.269,0.08 0.334,0.026 0.545,-0.017 0.109,-0.022 0.194,0.061 0.226,0.102 0.021,0.033 0.018,0.023 0,0 H -0.392 C -0.434,3.199 -0.485,3.076 -0.621,3.085 -0.757,3.095 -0.78,3.111 -0.842,3.034 -0.923,2.933 -0.916,2.935 -1.237,2.873 -1.766,2.771 -1.786,2.034 -1.774,2.237 m 1.424,1.155 c 0.004,10e-4 0.004,0.002 0.01,0.004 -0.126,-0.157 -0.254,-0.112 -0.444,-0.095 0.152,0.025 0.306,0.051 0.434,0.091 m -0.866,-2.44 c 0,0.027 0.003,0.05 0.072,0.104 0.039,0.031 0.072,0.065 0.106,0.101 C -1.095,1.081 -1.158,1.013 -1.216,0.952 M -2.139,2.105 C -2.147,2.072 -2.194,1.981 -2.261,1.869 -2.403,1.629 -2.615,1.608 -2.791,1.625 -2.93,1.636 -3.055,1.654 -3.087,1.579 -3.111,1.525 -3.059,1.507 -3.019,1.514 c 0.048,0.01 0.104,0.099 0.082,0.047 -0.075,-0.196 -0.254,-0.472 -0.669,-0.667 -0.721,-0.34 -0.456,-1.29 -0.747,-1.703 0,0 0.06,0.2 -0.019,0.309 -0.336,0.473 0.194,0.622 0.01,0.923 -0.112,0.179 -0.066,0.316 0.008,0.501 0.214,0.531 0.827,0.722 1.082,0.754 0.184,0.021 0.232,0.039 0.427,0.07 0.185,0.031 0.251,0.198 0.375,0.189 0.3,-0.025 0.342,0.245 0.331,0.168 M -2.685,0.044 c -0.051,-0.267 -0.15,-0.33 -0.225,-0.45 -0.075,-0.122 -0.185,-0.224 -0.046,-0.728 0.143,-0.505 -0.017,-0.662 -0.042,-0.611 -0.042,0.099 0.013,0.106 -0.066,0.153 -0.05,0.027 0.014,-0.18 -0.131,-0.327 -0.108,-0.114 -0.04,-0.025 -0.019,0.142 0.023,0.169 -0.067,0.18 -0.159,0.297 -0.089,0.118 0.138,0.129 0.016,0.278 -0.122,0.149 0.02,0.277 0.041,0.367 0.003,0.008 0.004,0.015 0.005,0.02 0.004,0.013 0.004,0.017 0,0 -0.007,-0.039 -0.027,-0.153 0.004,-0.199 0.04,-0.061 0.02,-0.047 0.048,-0.1 0.02,-0.041 0.008,-0.127 0.04,-0.136 0.075,-0.016 0.035,0.153 0.035,0.153 -0.047,0.367 -0.154,0.647 0.01,0.949 0.128,0.237 0.436,0.566 0.808,0.783 C -2.655,0.452 -2.635,0.31 -2.685,0.044 M -3.69,-0.309 c -0.044,-0.124 0.006,-0.306 -0.095,-0.424 -0.184,-0.218 -0.156,-0.638 -0.156,-0.638 -0.045,0.472 -0.116,0.401 -0.109,0.812 0.007,0.267 0.11,0.459 0.287,0.648 0.151,0.158 0.2,0.247 0.206,0.35 0.005,0.16 0.28,0.387 0.263,0.37 -0.185,-0.174 0.067,-0.246 -0.085,-0.348 -0.115,-0.078 0.088,-0.247 0.133,0.023 0.033,0.191 -0.081,0.201 0.061,0.343 0.142,0.141 0.281,0.26 0.272,0.429 C -2.915,1.32 -2.843,0.89 -3.007,0.745 -3.169,0.598 -3.239,0.631 -3.221,0.418 -3.201,0.179 -3.49,0.259 -3.69,-0.309 m -1.282,-0.266 c 0.01,-0.619 0.202,-1.07 0.445,-1.367 -0.75,0.88 -0.409,2.167 -0.409,2.167 0.226,0.624 0.618,1.002 1.016,1.237 C -4.408,1.138 -4.993,0.544 -4.972,-0.575 M 1.391,3.282 C 1.271,3.27 1.165,3.215 1.028,3.129 0.99,3.101 0.912,2.981 0.906,3.122 0.905,3.204 0.821,3.292 0.821,3.265 0.816,3.07 0.68,3.061 0.619,2.917 0.557,2.768 0.785,2.528 0.649,2.334 0.623,2.294 0.611,2.239 0.598,2.181 c 0.019,0.065 0.059,0.128 0.174,0.18 0.001,0.002 0.003,0.003 0.003,0.003 0.001,0 0.002,0 0,0 C 0.766,2.358 0.671,2.29 0.696,2.067 0.73,1.768 0.404,1.936 0.293,1.574 0.194,1.243 0.298,1.239 0.239,1.039 0.176,0.817 0.125,0.949 0.108,0.689 0.092,0.428 0.115,0.36 -0.047,0.224 c 0,0 0.111,0.098 0.091,0.268 C 0.021,0.745 -0.036,0.855 -0.1,1.016 -0.173,1.202 -0.129,1.426 0.134,1.62 0.398,1.813 0.52,1.752 0.575,2.004 0.586,2.052 0.586,2.101 0.593,2.147 0.568,2.03 0.525,1.901 0.33,1.825 0.315,1.819 0.299,1.811 0.284,1.803 0.557,2.156 0.557,2.736 0.491,2.424 0.431,2.142 0.306,2.004 0.175,1.88 -0.083,1.635 -0.396,1.609 -0.544,1.337 -0.579,1.273 -0.7,0.963 -0.726,0.659 -0.804,0.569 -0.992,0.545 -0.949,0.567 c 0.135,0.078 0.16,0.242 0.069,0.304 -0.108,0.074 0.168,0.299 0.095,0.285 -0.317,-0.069 -0.534,-0.489 -0.463,-0.343 0.017,0.038 0.024,0.063 0.028,0.083 0.241,0.211 0.679,0.68 0.649,1.024 -0.092,1.013 0.339,0.863 0.594,1.053 C 0.138,3.061 -0.702,2.919 -0.678,2.324 -0.665,1.941 -0.716,1.771 -0.784,1.625 -0.727,1.799 -0.704,1.96 -0.707,2.041 -0.727,2.5 -0.748,2.705 -0.38,2.863 0.055,3.052 0.68,3.606 0.41,4.294 0.302,4.571 0.314,4.407 0.382,4.216 0.405,4.15 0.401,4.098 0.378,4.049 0.396,3.877 0.36,3.617 0.131,3.314 -0.133,2.965 -0.61,2.746 -0.527,2.812 -0.276,3.006 -0.316,3.483 0.015,3.663 0.233,3.78 0.318,3.898 0.345,4 0.28,3.921 0.163,3.855 0.039,3.77 0.032,3.801 0.015,3.808 0.005,3.763 0.003,3.756 0,3.748 -0.001,3.739 -0.095,3.675 -0.185,3.595 -0.263,3.493 -0.353,3.452 -0.474,3.409 -0.646,3.361 -0.744,3.334 -0.826,3.315 -0.902,3.301 -0.958,3.299 -1.019,3.287 -1.085,3.268 -1.338,3.229 -1.464,3.22 -1.561,3.034 -1.567,3.021 -1.572,3.003 -1.577,2.984 -1.885,2.694 -1.913,2.342 -2.258,2.133 -2.298,2.109 -2.344,2.095 -2.388,2.076 -2.003,2.378 -1.902,2.789 -2.138,2.443 -2.61,1.756 -3.174,2.251 -4.4,1.207 -5.541,0.235 -5.251,-0.912 -4.926,-1.614 c 0.229,-0.499 0.531,-0.627 0.748,-0.721 0,0 0.211,-0.098 -0.091,0.14 -0.022,0.016 -0.037,0.036 -0.057,0.052 0.019,-0.015 0.035,-0.029 0.055,-0.043 -0.093,0.085 -0.159,0.178 -0.151,0.264 0.016,0.153 -0.073,0.074 -0.147,0.216 -0.054,0.102 -0.011,0.185 -0.009,0.212 0.011,0.08 0.019,-0.177 0.101,-0.187 0.034,-10e-4 0.121,-0.02 0.131,-0.293 0.004,-0.1 0.035,-0.168 0.079,-0.215 0.037,-0.027 0.075,-0.05 0.111,-0.073 0.102,-0.034 0.207,-0.009 0.214,0.024 0.025,0.158 -0.267,0.264 -0.209,0.475 0.068,0.25 -0.004,-0.053 0.096,-0.104 0.077,-0.039 0.026,-0.216 0.128,-0.297 0.073,-0.059 0.077,0.045 0.152,-0.091 0.143,-0.259 0.064,0.074 0.149,-0.106 0.04,-0.09 0.101,0.074 0.067,0.194 -0.027,0.089 0.206,-0.049 0.177,-0.205 -0.015,-0.093 0.156,-0.174 0.194,-0.085 0.044,0.104 -0.036,0.112 -0.066,0.163 -0.04,0.068 -0.084,0.154 -0.025,0.258 0.04,0.074 -0.054,-0.151 0.103,-0.217 0.167,-0.072 0.045,-0.255 0.147,-0.211 0.068,0.032 0.071,0.005 0.099,0.036 0.135,0.157 -0.071,0.464 0.012,0.371 0.09,-0.105 0.06,-0.162 0.132,-0.198 0.225,-0.113 0.142,0.23 0.268,0.177 0.106,-0.045 0.164,0.143 0.047,0.199 -0.065,0.031 -0.011,0.077 0.075,-0.047 0.079,-0.113 0.024,-0.381 0.122,-0.262 0.164,0.203 0.047,0.514 -0.028,0.692 -0.057,0.139 -0.154,0.612 0.112,0.901 0.28,0.307 0.94,0.123 0.741,0.659 0.097,-0.143 0.291,-0.421 -0.009,-0.873 -0.103,-0.154 -0.383,-0.231 -0.548,-0.471 -0.155,-0.222 -0.132,-0.921 -0.038,-0.857 0.184,0.129 0.2,-0.092 0.288,0.063 0.091,0.167 0.168,0.151 0.123,0.364 -0.037,0.181 -0.031,0.139 -0.043,0.258 -0.012,0.137 0.305,0.323 0.224,0.545 -0.059,0.163 0.139,-0.089 0.005,-0.547 -0.04,-0.132 -0.377,-0.815 -0.067,-0.886 0.159,-0.036 0.082,0.261 0.163,0.318 0.126,0.087 0.205,0.281 0.16,0.509 -0.051,0.252 0.153,0.447 0.145,0.429 -0.014,-0.043 -0.105,-0.208 -0.063,-0.325 0.045,-0.129 0.005,-0.216 -0.07,-0.367 -0.039,-0.078 -0.061,-0.188 -0.137,-0.3 -0.041,-0.06 0.021,-0.092 0.088,-0.055 0.076,0.042 0.105,0.004 0.094,-0.085 -0.017,-0.11 0.058,-0.224 0.126,0.031 0.01,0.045 0.051,0.041 0.113,0.064 0.049,0.02 -0.08,-0.055 -0.03,-0.122 0.034,-0.047 0.074,-0.079 0.107,0.099 0.022,0.125 0.087,0.046 0.14,0.194 0.031,0.092 -0.006,-0.205 -0.138,-0.329 -0.075,-0.073 -0.189,-0.168 -0.22,-0.185 0.119,0.014 0.53,0.241 0.764,0.633 0.525,0.878 0.085,1.321 0.31,1.524 0.659,0.594 0.44,1.255 0.44,0.911 C 0.478,0.385 0.33,0.203 0.189,0.066 0.38,0.278 0.545,0.57 0.407,1.063 0.258,1.601 1.449,1.739 1.028,2.771 0.928,3.019 1.457,3.287 1.391,3.282" />
      </g>
      <g
         transform="translate(987.6922,78.6907)"
         id="g1355">
        <path
           id="path1357"
           style="fill:#08532a;fill-opacity:1;fill-rule:nonzero;stroke:none"
           d="m 0,0 c -0.434,-0.179 -0.155,-0.341 -0.322,-0.385 -0.135,-0.035 -0.298,-0.13 -0.071,-0.327 0.157,-0.136 0.114,-0.296 0.069,-0.429 -0.001,-0.006 -0.003,-0.013 -0.006,-0.017 -0.002,-0.036 -0.011,-0.042 0,0 0.005,0.044 0,0.136 -0.072,0.232 -0.077,0.099 0.164,0.117 -0.083,0.279 -0.08,0.051 -0.127,0.137 -0.069,0.213 0.047,0.063 -0.289,-0.076 -0.186,-0.322 0,0 0.102,-0.258 0.035,-0.341 -0.065,-0.079 0.064,0.083 -0.024,0.155 -0.08,0.061 -0.138,-0.05 -0.093,-0.141 0.047,-0.089 0.165,-0.271 0.031,-0.401 -0.165,-0.155 -0.162,-0.287 -0.144,-0.352 l 0.003,-0.002 c 0.037,-0.056 0.013,-0.048 -0.003,0.002 -0.165,0.244 0.13,0.65 -0.086,0.978 -0.149,0.225 -0.065,0.601 0.06,0.862 0.101,0.206 0.247,0.343 0.411,0.381 0.071,0.015 -0.263,-0.075 -0.074,-0.207 0.114,-0.08 0.097,0.2 0.245,0.299 0.218,0.147 0.225,0.341 0.213,0.426 l -0.001,0.001 c -0.02,0.063 -0.005,0.051 0.001,-0.001 0.068,-0.204 0.06,-0.516 -0.215,-0.729 -0.275,-0.217 -0.282,-0.321 -0.306,-0.457 -0.022,-0.136 -0.012,0.171 0.426,0.193 0.17,0.009 0.196,0.069 0.261,0.25 C 0.063,0.338 0.155,0.233 0.147,0.523 0.147,0.634 0.263,0.111 0,0 m -0.257,-1.679 c -0.048,-0.14 -0.153,-0.264 -0.27,-0.367 0.052,0.067 0.1,0.137 0.148,0.21 0.126,0.193 0.19,0.417 0.219,0.636 -0.011,-0.138 -0.038,-0.291 -0.097,-0.479 m -0.187,2.956 c 0.033,0.033 0.09,0.069 0.158,0.108 C -0.306,1.351 -0.322,1.317 -0.327,1.284 -0.363,1.09 -0.369,1.021 -0.444,0.996 -0.46,0.99 -0.617,0.903 -0.685,0.731 -0.648,0.91 -0.577,1.147 -0.444,1.277 M -1.298,0.942 C -1.407,0.861 -1.323,0.705 -1.392,0.619 -1.535,0.443 -1.634,0.671 -1.656,0.454 -1.662,0.396 -1.662,0.271 -1.62,0.146 c 0.03,-0.091 -0.069,0.079 -0.094,0.345 -0.037,0.417 0.563,0.322 0.558,0.77 -0.006,0.448 -0.242,0.625 -0.074,0.936 0.221,0.411 0.298,0.401 0.283,0.596 C -0.964,2.989 -0.845,2.659 -0.812,2.229 -0.779,1.802 -0.892,1.774 -0.958,1.518 -1.024,1.263 -1.041,1.134 -1.298,0.942 m -0.475,1.295 c 0.039,0.587 0.34,0.865 0.613,0.948 0.266,0.08 0.332,0.026 0.543,-0.017 0.109,-0.022 0.194,0.061 0.228,0.102 0.02,0.033 0.018,0.023 0,0 C -0.434,3.199 -0.484,3.076 -0.621,3.085 -0.756,3.095 -0.779,3.111 -0.842,3.034 -0.922,2.933 -0.916,2.935 -1.235,2.873 -1.767,2.771 -1.785,2.034 -1.773,2.237 m 1.423,1.155 c 0.005,10e-4 0.006,0.002 0.009,0.004 -0.125,-0.157 -0.253,-0.112 -0.441,-0.095 0.152,0.025 0.303,0.051 0.432,0.091 m -0.866,-2.44 c 0,0.027 0.006,0.05 0.073,0.104 0.038,0.031 0.073,0.065 0.104,0.101 C -1.096,1.081 -1.157,1.013 -1.216,0.952 M -2.14,2.105 C -2.147,2.072 -2.193,1.981 -2.26,1.869 -2.401,1.629 -2.614,1.608 -2.792,1.625 -2.929,1.636 -3.054,1.654 -3.087,1.579 -3.11,1.525 -3.058,1.507 -3.02,1.514 c 0.05,0.01 0.104,0.099 0.084,0.047 -0.074,-0.196 -0.256,-0.472 -0.669,-0.667 -0.721,-0.34 -0.457,-1.29 -0.746,-1.703 0,0 0.058,0.2 -0.02,0.309 -0.336,0.473 0.195,0.622 0.009,0.923 -0.11,0.179 -0.065,0.316 0.009,0.501 0.214,0.531 0.826,0.722 1.083,0.754 0.182,0.021 0.23,0.039 0.425,0.07 0.185,0.031 0.253,0.198 0.377,0.189 0.298,-0.025 0.342,0.245 0.328,0.168 M -2.686,0.044 c -0.049,-0.267 -0.149,-0.33 -0.222,-0.45 -0.076,-0.122 -0.187,-0.224 -0.046,-0.728 0.14,-0.505 -0.021,-0.662 -0.043,-0.611 -0.043,0.099 0.013,0.106 -0.067,0.153 -0.05,0.027 0.014,-0.18 -0.129,-0.327 -0.111,-0.114 -0.041,-0.025 -0.019,0.142 0.02,0.169 -0.069,0.18 -0.159,0.297 -0.091,0.118 0.137,0.129 0.015,0.278 -0.123,0.149 0.019,0.277 0.042,0.367 0.003,0.008 0.003,0.015 0.003,0.02 0.004,0.013 0.004,0.017 0,0 -0.006,-0.039 -0.026,-0.153 0.004,-0.199 0.042,-0.061 0.022,-0.047 0.05,-0.1 0.019,-0.041 0.008,-0.127 0.04,-0.136 0.073,-0.016 0.034,0.153 0.034,0.153 -0.048,0.367 -0.154,0.647 0.007,0.949 0.131,0.237 0.439,0.566 0.81,0.783 -0.287,-0.183 -0.27,-0.325 -0.32,-0.591 m -1.005,-0.353 c -0.042,-0.124 0.006,-0.306 -0.092,-0.424 -0.186,-0.218 -0.158,-0.638 -0.158,-0.638 -0.044,0.472 -0.115,0.401 -0.108,0.812 0.006,0.267 0.109,0.459 0.288,0.648 0.149,0.158 0.2,0.247 0.204,0.35 0.005,0.16 0.282,0.387 0.263,0.37 -0.185,-0.174 0.068,-0.246 -0.083,-0.348 -0.117,-0.078 0.087,-0.247 0.133,0.023 0.033,0.191 -0.082,0.201 0.059,0.343 0.143,0.141 0.282,0.26 0.273,0.429 C -2.916,1.32 -2.843,0.89 -3.006,0.745 -3.169,0.598 -3.238,0.631 -3.22,0.418 -3.198,0.179 -3.489,0.259 -3.691,-0.309 m -1.282,-0.266 c 0.012,-0.619 0.204,-1.07 0.446,-1.367 -0.749,0.88 -0.408,2.167 -0.408,2.167 0.227,0.624 0.617,1.002 1.017,1.237 C -4.407,1.138 -4.993,0.544 -4.973,-0.575 M 1.392,3.282 C 1.271,3.27 1.166,3.215 1.028,3.129 0.99,3.101 0.913,2.981 0.906,3.122 0.904,3.204 0.823,3.292 0.823,3.265 0.817,3.07 0.681,3.061 0.619,2.917 0.558,2.768 0.784,2.528 0.65,2.334 0.622,2.294 0.613,2.239 0.6,2.181 0.618,2.246 0.657,2.309 0.772,2.361 0.774,2.363 0.776,2.364 0.776,2.364 H 0.777 C 0.768,2.358 0.671,2.29 0.697,2.067 0.731,1.768 0.405,1.936 0.295,1.574 0.195,1.243 0.301,1.239 0.24,1.039 0.177,0.817 0.127,0.949 0.109,0.689 0.092,0.428 0.115,0.36 -0.048,0.224 c 0,0 0.112,0.098 0.094,0.268 C 0.021,0.745 -0.035,0.855 -0.1,1.016 -0.172,1.202 -0.128,1.426 0.135,1.62 0.398,1.813 0.52,1.752 0.576,2.004 0.587,2.052 0.587,2.101 0.594,2.147 0.569,2.03 0.526,1.901 0.333,1.825 0.317,1.819 0.301,1.811 0.284,1.803 0.558,2.156 0.558,2.736 0.491,2.424 0.432,2.142 0.306,2.004 0.177,1.88 -0.082,1.635 -0.396,1.609 -0.543,1.337 -0.577,1.273 -0.698,0.963 -0.725,0.659 -0.804,0.569 -0.991,0.545 -0.949,0.567 c 0.136,0.078 0.162,0.242 0.07,0.304 -0.108,0.074 0.166,0.299 0.096,0.285 -0.318,-0.069 -0.536,-0.489 -0.464,-0.343 0.018,0.038 0.024,0.063 0.027,0.083 0.242,0.211 0.68,0.68 0.649,1.024 -0.09,1.013 0.34,0.863 0.595,1.053 C 0.14,3.061 -0.702,2.919 -0.678,2.324 -0.661,1.941 -0.714,1.771 -0.782,1.625 -0.725,1.799 -0.704,1.96 -0.707,2.041 -0.725,2.5 -0.747,2.705 -0.379,2.863 0.055,3.052 0.681,3.606 0.411,4.294 0.303,4.571 0.316,4.407 0.384,4.216 0.407,4.15 0.403,4.098 0.379,4.049 0.396,3.877 0.361,3.617 0.132,3.314 -0.132,2.965 -0.61,2.746 -0.525,2.812 -0.276,3.006 -0.315,3.483 0.016,3.663 0.234,3.78 0.32,3.898 0.346,4 0.28,3.921 0.166,3.855 0.04,3.77 0.034,3.801 0.016,3.808 0.005,3.763 0.002,3.756 0,3.748 -0.001,3.739 -0.093,3.675 -0.184,3.595 -0.261,3.493 -0.352,3.452 -0.472,3.409 -0.646,3.361 -0.743,3.334 -0.826,3.315 -0.903,3.301 -0.957,3.299 -1.017,3.287 -1.083,3.268 -1.337,3.229 -1.463,3.22 -1.561,3.034 -1.566,3.021 -1.572,3.003 -1.578,2.984 -1.885,2.694 -1.913,2.342 -2.257,2.133 -2.296,2.109 -2.343,2.095 -2.386,2.076 -2.001,2.378 -1.899,2.789 -2.138,2.443 -2.609,1.756 -3.176,2.251 -4.4,1.207 -5.54,0.235 -5.25,-0.912 -4.926,-1.614 c 0.229,-0.499 0.531,-0.627 0.748,-0.721 0,0 0.213,-0.098 -0.088,0.14 -0.022,0.016 -0.04,0.036 -0.058,0.052 0.017,-0.015 0.034,-0.029 0.053,-0.043 -0.094,0.085 -0.158,0.178 -0.151,0.264 0.017,0.153 -0.072,0.074 -0.147,0.216 -0.054,0.102 -0.01,0.185 -0.007,0.212 0.012,0.08 0.017,-0.177 0.099,-0.187 0.035,-10e-4 0.123,-0.02 0.132,-0.293 0.004,-0.1 0.035,-0.168 0.08,-0.215 0.037,-0.027 0.074,-0.05 0.111,-0.073 0.099,-0.034 0.206,-0.009 0.212,0.024 0.027,0.158 -0.266,0.264 -0.209,0.475 0.068,0.25 -0.003,-0.053 0.096,-0.104 0.077,-0.039 0.028,-0.216 0.129,-0.297 0.072,-0.059 0.077,0.045 0.152,-0.091 0.145,-0.259 0.064,0.074 0.149,-0.106 0.042,-0.09 0.101,0.074 0.067,0.194 -0.027,0.089 0.205,-0.049 0.177,-0.205 -0.017,-0.093 0.155,-0.174 0.194,-0.085 0.044,0.104 -0.035,0.112 -0.066,0.163 -0.041,0.068 -0.084,0.154 -0.026,0.258 0.041,0.074 -0.052,-0.151 0.103,-0.217 0.167,-0.072 0.047,-0.255 0.149,-0.211 0.066,0.032 0.069,0.005 0.098,0.036 0.134,0.157 -0.072,0.464 0.01,0.371 0.092,-0.105 0.061,-0.162 0.134,-0.198 0.224,-0.113 0.143,0.23 0.268,0.177 0.106,-0.045 0.164,0.143 0.047,0.199 -0.066,0.031 -0.01,0.077 0.074,-0.047 0.08,-0.113 0.023,-0.381 0.122,-0.262 0.165,0.203 0.047,0.514 -0.027,0.692 -0.056,0.139 -0.154,0.612 0.111,0.901 0.283,0.307 0.941,0.123 0.74,0.659 0.098,-0.143 0.293,-0.421 -0.008,-0.873 -0.104,-0.154 -0.381,-0.231 -0.546,-0.471 -0.155,-0.222 -0.133,-0.921 -0.039,-0.857 0.185,0.129 0.201,-0.092 0.287,0.063 0.091,0.167 0.167,0.151 0.124,0.364 -0.038,0.181 -0.03,0.139 -0.043,0.258 -0.011,0.137 0.306,0.323 0.224,0.545 -0.059,0.163 0.14,-0.089 0.005,-0.547 -0.039,-0.132 -0.377,-0.815 -0.066,-0.886 0.157,-0.036 0.081,0.261 0.163,0.318 0.125,0.087 0.205,0.281 0.158,0.509 -0.051,0.252 0.153,0.447 0.147,0.429 -0.016,-0.043 -0.106,-0.208 -0.065,-0.325 0.047,-0.129 0.006,-0.216 -0.07,-0.367 -0.038,-0.078 -0.06,-0.188 -0.138,-0.3 -0.04,-0.06 0.022,-0.092 0.09,-0.055 0.076,0.042 0.106,0.004 0.093,-0.085 -0.016,-0.11 0.06,-0.224 0.127,0.031 0.011,0.045 0.051,0.041 0.112,0.064 0.051,0.02 -0.08,-0.055 -0.03,-0.122 0.035,-0.047 0.074,-0.079 0.108,0.099 0.023,0.125 0.088,0.046 0.139,0.194 0.031,0.092 -0.006,-0.205 -0.139,-0.329 -0.073,-0.073 -0.188,-0.168 -0.22,-0.185 0.121,0.014 0.531,0.241 0.766,0.633 0.526,0.878 0.084,1.321 0.309,1.524 0.66,0.594 0.441,1.255 0.441,0.911 C 0.479,0.385 0.332,0.203 0.191,0.066 0.38,0.278 0.546,0.57 0.408,1.063 0.258,1.601 1.45,1.739 1.028,2.771 0.929,3.019 1.458,3.287 1.392,3.282" />
      </g>
      <g
         transform="translate(993.5838,78.6907)"
         id="g1359">
        <path
           id="path1361"
           style="fill:#08532a;fill-opacity:1;fill-rule:nonzero;stroke:none"
           d="m 0,0 c -0.431,-0.179 -0.156,-0.341 -0.324,-0.385 -0.134,-0.035 -0.296,-0.13 -0.07,-0.327 0.158,-0.136 0.115,-0.296 0.069,-0.429 -0.002,-0.006 -0.003,-0.013 -0.005,-0.017 -0.003,-0.036 -0.011,-0.042 0,0 0.003,0.044 0,0.136 -0.073,0.232 -0.078,0.099 0.164,0.117 -0.083,0.279 -0.08,0.051 -0.127,0.137 -0.069,0.213 0.048,0.063 -0.288,-0.076 -0.184,-0.322 0,0 0.101,-0.258 0.033,-0.341 -0.064,-0.079 0.064,0.083 -0.024,0.155 -0.079,0.061 -0.138,-0.05 -0.093,-0.141 0.049,-0.089 0.164,-0.271 0.029,-0.401 -0.163,-0.155 -0.16,-0.287 -0.141,-0.352 0.001,-10e-4 0.001,-0.002 0.002,-0.002 0.037,-0.056 0.014,-0.048 -0.002,0.002 -0.165,0.244 0.131,0.65 -0.086,0.978 -0.149,0.225 -0.066,0.601 0.059,0.862 0.101,0.206 0.247,0.343 0.412,0.381 0.069,0.015 -0.265,-0.075 -0.076,-0.207 0.114,-0.08 0.097,0.2 0.247,0.299 0.216,0.147 0.224,0.341 0.212,0.426 v 0.001 c -0.021,0.063 -0.006,0.051 0,-0.001 0.069,-0.204 0.061,-0.516 -0.215,-0.729 -0.274,-0.217 -0.283,-0.321 -0.306,-0.457 -0.022,-0.136 -0.011,0.171 0.427,0.193 0.168,0.009 0.197,0.069 0.26,0.25 C 0.061,0.338 0.154,0.233 0.145,0.523 0.145,0.634 0.263,0.111 0,0 m -0.26,-1.679 c -0.045,-0.14 -0.151,-0.264 -0.269,-0.367 0.054,0.067 0.102,0.137 0.149,0.21 0.125,0.193 0.188,0.417 0.221,0.636 -0.014,-0.138 -0.037,-0.291 -0.101,-0.479 m -0.185,2.956 c 0.033,0.033 0.09,0.069 0.158,0.108 C -0.306,1.351 -0.324,1.317 -0.328,1.284 -0.363,1.09 -0.371,1.021 -0.445,0.996 -0.461,0.99 -0.618,0.903 -0.687,0.731 -0.648,0.91 -0.579,1.147 -0.445,1.277 M -1.297,0.942 C -1.407,0.861 -1.323,0.705 -1.393,0.619 -1.534,0.443 -1.634,0.671 -1.657,0.454 -1.662,0.396 -1.662,0.271 -1.621,0.146 -1.59,0.055 -1.689,0.225 -1.715,0.491 c -0.039,0.417 0.563,0.322 0.559,0.77 -0.005,0.448 -0.243,0.625 -0.075,0.936 0.22,0.411 0.298,0.401 0.281,0.596 C -0.964,2.989 -0.847,2.659 -0.813,2.229 -0.78,1.802 -0.893,1.774 -0.959,1.518 -1.025,1.263 -1.041,1.134 -1.297,0.942 m -0.478,1.295 c 0.041,0.587 0.34,0.865 0.614,0.948 0.267,0.08 0.333,0.026 0.544,-0.017 0.109,-0.022 0.192,0.061 0.226,0.102 0.02,0.033 0.019,0.023 0,0 C -0.435,3.199 -0.485,3.076 -0.622,3.085 -0.757,3.095 -0.78,3.111 -0.842,3.034 -0.922,2.933 -0.916,2.935 -1.239,2.873 -1.766,2.771 -1.786,2.034 -1.775,2.237 m 1.425,1.155 c 0.004,10e-4 0.005,0.002 0.009,0.004 -0.125,-0.157 -0.254,-0.112 -0.443,-0.095 0.152,0.025 0.305,0.051 0.434,0.091 m -0.868,-2.44 c 0,0.027 0.007,0.05 0.074,0.104 0.039,0.031 0.072,0.065 0.105,0.101 C -1.095,1.081 -1.158,1.013 -1.218,0.952 M -2.14,2.105 C -2.147,2.072 -2.195,1.981 -2.261,1.869 -2.403,1.629 -2.615,1.608 -2.792,1.625 -2.931,1.636 -3.055,1.654 -3.088,1.579 -3.111,1.525 -3.059,1.507 -3.02,1.514 c 0.047,0.01 0.105,0.099 0.083,0.047 -0.075,-0.196 -0.255,-0.472 -0.669,-0.667 -0.721,-0.34 -0.456,-1.29 -0.745,-1.703 0,0 0.058,0.2 -0.022,0.309 -0.334,0.473 0.195,0.622 0.011,0.923 -0.112,0.179 -0.067,0.316 0.008,0.501 0.214,0.531 0.826,0.722 1.084,0.754 0.182,0.021 0.23,0.039 0.425,0.07 0.185,0.031 0.252,0.198 0.376,0.189 0.299,-0.025 0.341,0.245 0.329,0.168 M -2.685,0.044 c -0.051,-0.267 -0.15,-0.33 -0.224,-0.45 -0.077,-0.122 -0.186,-0.224 -0.045,-0.728 0.14,-0.505 -0.022,-0.662 -0.043,-0.611 -0.043,0.099 0.011,0.106 -0.067,0.153 -0.051,0.027 0.013,-0.18 -0.129,-0.327 -0.11,-0.114 -0.042,-0.025 -0.021,0.142 0.022,0.169 -0.068,0.18 -0.158,0.297 -0.091,0.118 0.137,0.129 0.015,0.278 -0.122,0.149 0.02,0.277 0.042,0.367 10e-4,0.008 0.004,0.015 0.005,0.02 0.002,0.013 0.004,0.017 0,0 -0.007,-0.039 -0.027,-0.153 0.004,-0.199 0.04,-0.061 0.021,-0.047 0.047,-0.1 0.02,-0.041 0.01,-0.127 0.042,-0.136 0.073,-0.016 0.034,0.153 0.034,0.153 -0.048,0.367 -0.154,0.647 0.008,0.949 0.13,0.237 0.437,0.566 0.809,0.783 C -2.655,0.452 -2.635,0.31 -2.685,0.044 M -3.69,-0.309 c -0.043,-0.124 0.005,-0.306 -0.095,-0.424 -0.185,-0.218 -0.156,-0.638 -0.156,-0.638 -0.044,0.472 -0.117,0.401 -0.108,0.812 0.005,0.267 0.108,0.459 0.287,0.648 0.15,0.158 0.2,0.247 0.204,0.35 0.006,0.16 0.28,0.387 0.263,0.37 -0.184,-0.174 0.068,-0.246 -0.084,-0.348 -0.116,-0.078 0.089,-0.247 0.134,0.023 0.033,0.191 -0.082,0.201 0.059,0.343 0.143,0.141 0.281,0.26 0.274,0.429 C -2.915,1.32 -2.844,0.89 -3.006,0.745 -3.169,0.598 -3.239,0.631 -3.22,0.418 -3.2,0.179 -3.489,0.259 -3.69,-0.309 m -1.283,-0.266 c 0.012,-0.619 0.203,-1.07 0.445,-1.367 -0.748,0.88 -0.407,2.167 -0.407,2.167 0.227,0.624 0.617,1.002 1.015,1.237 C -4.408,1.138 -4.993,0.544 -4.973,-0.575 M 1.391,3.282 C 1.272,3.27 1.165,3.215 1.028,3.129 0.989,3.101 0.913,2.981 0.906,3.122 0.904,3.204 0.822,3.292 0.822,3.265 0.816,3.07 0.68,3.061 0.619,2.917 0.557,2.768 0.784,2.528 0.65,2.334 0.623,2.294 0.613,2.239 0.6,2.181 0.617,2.246 0.657,2.309 0.771,2.361 0.775,2.363 0.775,2.364 0.775,2.364 H 0.776 C 0.766,2.358 0.669,2.29 0.696,2.067 0.73,1.768 0.404,1.936 0.295,1.574 0.195,1.243 0.299,1.239 0.239,1.039 0.176,0.817 0.125,0.949 0.108,0.689 0.092,0.428 0.115,0.36 -0.049,0.224 c 0,0 0.113,0.098 0.095,0.268 C 0.022,0.745 -0.035,0.855 -0.1,1.016 -0.173,1.202 -0.128,1.426 0.134,1.62 0.397,1.813 0.519,1.752 0.575,2.004 0.587,2.052 0.587,2.101 0.593,2.147 0.569,2.03 0.525,1.901 0.331,1.825 0.316,1.819 0.301,1.811 0.283,1.803 0.557,2.156 0.557,2.736 0.491,2.424 0.431,2.142 0.305,2.004 0.176,1.88 -0.082,1.635 -0.398,1.609 -0.543,1.337 -0.579,1.273 -0.698,0.963 -0.726,0.659 -0.804,0.569 -0.991,0.545 -0.95,0.567 c 0.137,0.078 0.162,0.242 0.07,0.304 -0.108,0.074 0.167,0.299 0.096,0.285 -0.318,-0.069 -0.536,-0.489 -0.464,-0.343 0.018,0.038 0.024,0.063 0.028,0.083 0.242,0.211 0.679,0.68 0.648,1.024 -0.091,1.013 0.341,0.863 0.595,1.053 C 0.139,3.061 -0.703,2.919 -0.68,2.324 -0.663,1.941 -0.715,1.771 -0.784,1.625 -0.726,1.799 -0.705,1.96 -0.708,2.041 -0.726,2.5 -0.747,2.705 -0.38,2.863 0.054,3.052 0.68,3.606 0.411,4.294 0.301,4.571 0.314,4.407 0.382,4.216 0.406,4.15 0.402,4.098 0.379,4.049 0.396,3.877 0.359,3.617 0.131,3.314 -0.132,2.965 -0.611,2.746 -0.528,2.812 -0.274,3.006 -0.315,3.483 0.015,3.663 0.233,3.78 0.319,3.898 0.345,4 0.279,3.921 0.164,3.855 0.039,3.77 0.033,3.801 0.015,3.808 0.004,3.763 0.002,3.756 0,3.748 -0.002,3.739 -0.094,3.675 -0.185,3.595 -0.261,3.493 -0.354,3.452 -0.472,3.409 -0.646,3.361 -0.744,3.334 -0.827,3.315 -0.903,3.301 -0.959,3.299 -1.019,3.287 -1.084,3.268 -1.338,3.229 -1.464,3.22 -1.561,3.034 -1.567,3.021 -1.571,3.003 -1.579,2.984 -1.885,2.694 -1.913,2.342 -2.258,2.133 -2.297,2.109 -2.344,2.095 -2.389,2.076 -2.003,2.378 -1.901,2.789 -2.139,2.443 -2.61,1.756 -3.175,2.251 -4.4,1.207 -5.54,0.235 -5.251,-0.912 -4.927,-1.614 c 0.229,-0.499 0.531,-0.627 0.749,-0.721 0,0 0.212,-0.098 -0.091,0.14 -0.02,0.016 -0.036,0.036 -0.057,0.052 0.019,-0.015 0.036,-0.029 0.055,-0.043 -0.094,0.085 -0.16,0.178 -0.151,0.264 0.016,0.153 -0.073,0.074 -0.147,0.216 -0.054,0.102 -0.01,0.185 -0.008,0.212 0.01,0.08 0.017,-0.177 0.098,-0.187 0.037,-10e-4 0.124,-0.02 0.134,-0.293 0.004,-0.1 0.035,-0.168 0.078,-0.215 0.039,-0.027 0.076,-0.05 0.111,-0.073 0.103,-0.034 0.206,-0.009 0.213,0.024 0.026,0.158 -0.266,0.264 -0.207,0.475 0.068,0.25 -0.004,-0.053 0.095,-0.104 0.076,-0.039 0.027,-0.216 0.128,-0.297 0.074,-0.059 0.078,0.045 0.153,-0.091 0.142,-0.259 0.064,0.074 0.148,-0.106 0.04,-0.09 0.101,0.074 0.067,0.194 -0.027,0.089 0.206,-0.049 0.178,-0.205 -0.017,-0.093 0.154,-0.174 0.193,-0.085 0.044,0.104 -0.034,0.112 -0.065,0.163 -0.041,0.068 -0.084,0.154 -0.026,0.258 0.04,0.074 -0.053,-0.151 0.102,-0.217 0.168,-0.072 0.046,-0.255 0.149,-0.211 0.066,0.032 0.07,0.005 0.097,0.036 0.135,0.157 -0.07,0.464 0.011,0.371 0.092,-0.105 0.061,-0.162 0.134,-0.198 0.226,-0.113 0.143,0.23 0.268,0.177 0.106,-0.045 0.164,0.143 0.046,0.199 -0.065,0.031 -0.009,0.077 0.077,-0.047 0.078,-0.113 0.022,-0.381 0.121,-0.262 0.164,0.203 0.046,0.514 -0.026,0.692 -0.057,0.139 -0.156,0.612 0.11,0.901 0.282,0.307 0.94,0.123 0.74,0.659 0.099,-0.143 0.293,-0.421 -0.008,-0.873 -0.103,-0.154 -0.383,-0.231 -0.548,-0.471 -0.154,-0.222 -0.132,-0.921 -0.037,-0.857 0.184,0.129 0.201,-0.092 0.286,0.063 0.092,0.167 0.168,0.151 0.123,0.364 -0.038,0.181 -0.028,0.139 -0.04,0.258 -0.013,0.137 0.304,0.323 0.222,0.545 -0.06,0.163 0.14,-0.089 0.005,-0.547 -0.038,-0.132 -0.377,-0.815 -0.067,-0.886 0.158,-0.036 0.083,0.261 0.164,0.318 0.125,0.087 0.205,0.281 0.158,0.509 -0.051,0.252 0.153,0.447 0.148,0.429 -0.017,-0.043 -0.107,-0.208 -0.066,-0.325 0.047,-0.129 0.005,-0.216 -0.069,-0.367 -0.039,-0.078 -0.06,-0.188 -0.138,-0.3 -0.041,-0.06 0.022,-0.092 0.09,-0.055 0.075,0.042 0.106,0.004 0.092,-0.085 -0.016,-0.11 0.06,-0.224 0.127,0.031 0.011,0.045 0.051,0.041 0.112,0.064 0.051,0.02 -0.08,-0.055 -0.029,-0.122 0.035,-0.047 0.074,-0.079 0.106,0.099 0.024,0.125 0.089,0.046 0.141,0.194 0.031,0.092 -0.006,-0.205 -0.138,-0.329 -0.074,-0.073 -0.188,-0.168 -0.221,-0.185 0.121,0.014 0.531,0.241 0.765,0.633 0.525,0.878 0.085,1.321 0.309,1.524 C 0.698,0.287 0.479,0.948 0.479,0.604 0.479,0.385 0.33,0.203 0.19,0.066 0.381,0.278 0.546,0.57 0.407,1.063 0.257,1.601 1.45,1.739 1.028,2.771 0.928,3.019 1.459,3.287 1.391,3.282" />
      </g>
    </g>
  </g>
</svg>
