<?xml version="1.0" encoding="UTF-8" standalone="no"?>
<svg
   xmlns:osb="http://www.openswatchbook.org/uri/2009/osb"
   xmlns:dc="http://purl.org/dc/elements/1.1/"
   xmlns:cc="http://creativecommons.org/ns#"
   xmlns:rdf="http://www.w3.org/1999/02/22-rdf-syntax-ns#"
   xmlns:svg="http://www.w3.org/2000/svg"
   xmlns="http://www.w3.org/2000/svg"
   xmlns:xlink="http://www.w3.org/1999/xlink"
   xmlns:sodipodi="http://sodipodi.sourceforge.net/DTD/sodipodi-0.dtd"
   xmlns:inkscape="http://www.inkscape.org/namespaces/inkscape"
   id="SVGRoot"
   version="1.1"
   viewBox="0 0 31.402132 27.529306"
   height="27.529306"
   width="31.402132"
   inkscape:export-filename="/home/gabriela/bitmap.svg.png"
   inkscape:export-xdpi="96"
   inkscape:export-ydpi="96"
   inkscape:version="1.0 (1.0+r73+1)"
   sodipodi:docname="buscador.svg">
  <defs
     id="defs3562">
    <linearGradient
       inkscape:collect="always"
       id="linearGradient6768">
      <stop
         style="stop-color:#000000;stop-opacity:1;"
         offset="0"
         id="stop6764" />
      <stop
         style="stop-color:#000000;stop-opacity:0;"
         offset="1"
         id="stop6766" />
    </linearGradient>
    <linearGradient
       id="linearGradient6744"
       osb:paint="solid">
      <stop
         style="stop-color:#000000;stop-opacity:1;"
         offset="0"
         id="stop6742" />
    </linearGradient>
    <clipPath
       id="clipPath608"
       clipPathUnits="userSpaceOnUse">
      <path
         id="path606"
         d="m 741.293,867.44 h 72.424 v -61.37 h -72.424 z" />
    </clipPath>
    <clipPath
       id="clipPath232"
       clipPathUnits="userSpaceOnUse">
      <path
         id="path230"
         d="m 870.133,866.553 h 77.886 v -68.28 h -77.886 z" />
    </clipPath>
    <radialGradient
       inkscape:collect="always"
       xlink:href="#linearGradient6768"
       id="radialGradient6770"
       cx="909.07599"
       cy="832.41302"
       fx="909.07599"
       fy="832.41302"
       r="38.943001"
       gradientTransform="matrix(1,0,0,0.8766659,0,102.66491)"
       gradientUnits="userSpaceOnUse" />
    <radialGradient
       inkscape:collect="always"
       xlink:href="#linearGradient6768"
       id="radialGradient8373"
       gradientUnits="userSpaceOnUse"
       gradientTransform="matrix(1,0,0,0.8766659,0,102.66491)"
       cx="909.07599"
       cy="832.41302"
       fx="909.07599"
       fy="832.41302"
       r="38.943001" />
    <radialGradient
       inkscape:collect="always"
       xlink:href="#linearGradient6768"
       id="radialGradient8375"
       gradientUnits="userSpaceOnUse"
       gradientTransform="matrix(1,0,0,0.8766659,0,102.66491)"
       cx="909.07599"
       cy="832.41302"
       fx="909.07599"
       fy="832.41302"
       r="38.943001" />
    <radialGradient
       inkscape:collect="always"
       xlink:href="#linearGradient6768"
       id="radialGradient8377"
       gradientUnits="userSpaceOnUse"
       gradientTransform="matrix(1,0,0,0.8766659,0,102.66491)"
       cx="909.07599"
       cy="832.41302"
       fx="909.07599"
       fy="832.41302"
       r="38.943001" />
    <radialGradient
       inkscape:collect="always"
       xlink:href="#linearGradient6768"
       id="radialGradient8379"
       gradientUnits="userSpaceOnUse"
       gradientTransform="matrix(1,0,0,0.8766659,0,102.66491)"
       cx="909.07599"
       cy="832.41302"
       fx="909.07599"
       fy="832.41302"
       r="38.943001" />
    <radialGradient
       inkscape:collect="always"
       xlink:href="#linearGradient6768"
       id="radialGradient8381"
       gradientUnits="userSpaceOnUse"
       gradientTransform="matrix(1,0,0,0.8766659,0,102.66491)"
       cx="909.07599"
       cy="832.41302"
       fx="909.07599"
       fy="832.41302"
       r="38.943001" />
    <radialGradient
       inkscape:collect="always"
       xlink:href="#linearGradient6768"
       id="radialGradient8383"
       gradientUnits="userSpaceOnUse"
       gradientTransform="matrix(1,0,0,0.8766659,0,102.66491)"
       cx="909.07599"
       cy="832.41302"
       fx="909.07599"
       fy="832.41302"
       r="38.943001" />
    <radialGradient
       inkscape:collect="always"
       xlink:href="#linearGradient6768"
       id="radialGradient8385"
       gradientUnits="userSpaceOnUse"
       gradientTransform="matrix(1,0,0,0.8766659,0,102.66491)"
       cx="909.07599"
       cy="832.41302"
       fx="909.07599"
       fy="832.41302"
       r="38.943001" />
    <radialGradient
       inkscape:collect="always"
       xlink:href="#linearGradient6768"
       id="radialGradient8387"
       gradientUnits="userSpaceOnUse"
       gradientTransform="matrix(1,0,0,0.8766659,0,102.66491)"
       cx="909.07599"
       cy="832.41302"
       fx="909.07599"
       fy="832.41302"
       r="38.943001" />
    <radialGradient
       inkscape:collect="always"
       xlink:href="#linearGradient6768"
       id="radialGradient8389"
       gradientUnits="userSpaceOnUse"
       gradientTransform="matrix(1,0,0,0.8766659,0,102.66491)"
       cx="909.07599"
       cy="832.41302"
       fx="909.07599"
       fy="832.41302"
       r="38.943001" />
    <radialGradient
       inkscape:collect="always"
       xlink:href="#linearGradient6768"
       id="radialGradient8907"
       gradientUnits="userSpaceOnUse"
       gradientTransform="matrix(1,0,0,0.8766659,0,102.66491)"
       cx="909.07599"
       cy="832.41302"
       fx="909.07599"
       fy="832.41302"
       r="38.943001" />
  </defs>
  <sodipodi:namedview
     fit-margin-bottom="0"
     fit-margin-right="0"
     fit-margin-left="0"
     fit-margin-top="0"
     id="base"
     pagecolor="#ffffff"
     bordercolor="#666666"
     borderopacity="1.0"
     inkscape:pageopacity="0.0"
     inkscape:pageshadow="2"
     inkscape:zoom="14.779756"
     inkscape:cx="12.676634"
     inkscape:cy="12.172201"
     inkscape:document-units="px"
     inkscape:current-layer="layer1"
     inkscape:document-rotation="0"
     showgrid="true"
     inkscape:window-width="1600"
     inkscape:window-height="872"
     inkscape:window-x="0"
     inkscape:window-y="180"
     inkscape:window-maximized="1">
    <inkscape:grid
       originy="-2.8809957"
       originx="-0.27900073"
       id="grid3571"
       type="xygrid" />
  </sodipodi:namedview>
  <metadata
     id="metadata3565">
    <rdf:RDF>
      <cc:Work
         rdf:about="">
        <dc:format>image/svg+xml</dc:format>
        <dc:type
           rdf:resource="http://purl.org/dc/dcmitype/StillImage" />
        <dc:title></dc:title>
      </cc:Work>
    </rdf:RDF>
  </metadata>
  <g
     transform="translate(-0.27900073,-2.8809958)"
     inkscape:label="Layer 1"
     inkscape:groupmode="layer"
     id="layer1"
     style="display:inline">
    <g
       style="display:inline;opacity:1;mix-blend-mode:normal;fill:#ffffff;fill-opacity:1;stroke:url(#radialGradient6770);stroke-width:0.99975;stroke-miterlimit:4;stroke-dasharray:none;stroke-opacity:1"
       id="g226"
       transform="matrix(0.40318071,0,0,-0.40318258,-350.54184,352.26007)">
      <g
         style="fill:#ffffff;fill-opacity:1;stroke:url(#radialGradient8373);stroke-width:0.99975;stroke-miterlimit:4;stroke-dasharray:none;stroke-opacity:1"
         id="g228" />
      <g
         style="fill:#ffffff;fill-opacity:1;stroke:url(#radialGradient8389);stroke-width:0.99975;stroke-miterlimit:4;stroke-dasharray:none;stroke-opacity:1"
         id="g248">
        <g
           style="fill:#ffffff;fill-opacity:1;stroke:url(#radialGradient8387);stroke-width:0.99975;stroke-miterlimit:4;stroke-dasharray:none;stroke-opacity:1"
           id="g246"
           opacity="0.399994"
           clip-path="url(#clipPath232)">
          <g
             style="fill:#ffffff;fill-opacity:1;stroke:url(#radialGradient8377);stroke-width:0.99975;stroke-miterlimit:4;stroke-dasharray:none;stroke-opacity:1"
             id="g236"
             transform="translate(883.415,853.6263)">
            <path
               id="path234"
               style="fill:#ffffff;fill-opacity:1;fill-rule:nonzero;stroke:url(#radialGradient8375);stroke-width:0.99975;stroke-miterlimit:4;stroke-dasharray:none;stroke-opacity:1"
               d="m 0,0 c 0.577,-0.048 1.09,0.378 1.141,0.957 l 0.155,1.775 c 0.089,1.024 0.932,1.797 1.96,1.797 h 0.317 c 1.733,0 3.154,1.302 3.305,3.028 l 0.189,2.158 c 0.055,0.631 0.574,1.107 1.208,1.107 h 21.001 c 0.345,0 0.662,-0.14 0.895,-0.394 0.232,-0.254 0.344,-0.582 0.313,-0.925 L 30.365,8.136 C 30.284,7.212 30.597,6.289 31.223,5.605 31.85,4.921 32.742,4.529 33.67,4.529 h 20.536 c 0.559,0 1.074,-0.227 1.451,-0.639 0.377,-0.412 0.559,-0.945 0.51,-1.501 l -2.78,-31.769 c -0.05,-0.579 0.378,-1.09 0.957,-1.141 0.031,-0.002 0.062,-0.003 0.093,-0.003 0.54,0 0.999,0.412 1.048,0.96 l 2.779,31.769 c 0.1,1.135 -0.285,2.267 -1.055,3.107 -0.769,0.84 -1.864,1.322 -3.003,1.322 H 33.67 c -0.344,0 -0.662,0.139 -0.895,0.393 -0.232,0.254 -0.343,0.582 -0.313,0.925 l 0.12,1.367 c 0.081,0.924 -0.232,1.847 -0.859,2.531 -0.627,0.684 -1.519,1.077 -2.447,1.077 H 8.275 C 6.541,12.927 5.12,11.624 4.97,9.898 L 4.78,7.741 C 4.725,7.11 4.206,6.634 3.573,6.634 H 3.256 c -2.128,0 -3.872,-1.599 -4.058,-3.719 L -0.957,1.14 C -1.007,0.561 -0.579,0.051 0,0" />
          </g>
          <g
             style="fill:#ffffff;fill-opacity:1;stroke:url(#radialGradient8381);stroke-width:0.99975;stroke-miterlimit:4;stroke-dasharray:none;stroke-opacity:1"
             id="g240"
             transform="translate(925.9919,820.3008)">
            <path
               id="path238"
               style="fill:#ffffff;fill-opacity:1;fill-rule:nonzero;stroke:url(#radialGradient8379);stroke-width:0.99975;stroke-miterlimit:4;stroke-dasharray:none;stroke-opacity:1"
               d="m 0,0 c -3.989,-3.989 -10.48,-3.989 -14.469,0 v 0 c -3.988,3.989 -3.988,10.479 0,14.468 3.99,3.989 10.479,3.989 14.469,0 C 3.988,10.479 3.988,3.989 0,0 m 1.488,15.957 c -4.81,4.809 -12.635,4.809 -17.445,0 -4.809,-4.81 -4.809,-12.636 0,-17.445 v -0.001 c 2.405,-2.404 5.564,-3.606 8.723,-3.606 3.159,0 6.317,1.202 8.722,3.607 4.809,4.809 4.809,12.635 0,17.445" />
          </g>
          <g
             style="fill:#ffffff;fill-opacity:1;stroke:url(#radialGradient8385);stroke-width:0.99975;stroke-miterlimit:4;stroke-dasharray:none;stroke-opacity:1"
             id="g244"
             transform="translate(908.674,817.4517)">
            <path
               id="path242"
               style="fill:#ffffff;fill-opacity:1;fill-rule:nonzero;stroke:url(#radialGradient8907);stroke-width:0.99975;stroke-miterlimit:4;stroke-dasharray:none;stroke-opacity:1"
               d="m 0,0 v 0 c -5.56,5.56 -5.56,14.607 0,20.167 5.561,5.56 14.607,5.559 20.167,0 2.693,-2.694 4.177,-6.275 4.177,-10.084 C 24.344,6.274 22.86,2.693 20.167,0 14.607,-5.56 5.561,-5.561 0,0 m 18.31,28.964 h -35.716 c -0.411,0 -0.784,0.208 -1.006,0.535 0.222,-0.327 0.595,-0.535 1.006,-0.535 H 18.31 c 1.509,0 2.858,-0.843 3.56,-2.124 -0.702,1.281 -2.051,2.124 -3.56,2.124 m -34.144,6.831 -0.17,-0.004 v 0.004 z m 38.813,-12.592 -0.735,2.742 c -0.022,0.08 -0.057,0.152 -0.083,0.23 0.026,-0.078 0.061,-0.15 0.083,-0.23 z m 16.057,-35.313 -5.129,5.129 v 0 c 0,0 0,0 0,0 l -4.701,4.701 c -0.395,0.395 -1.093,0.395 -1.488,0 l -0.253,-0.253 -3.676,3.676 c 1.727,2.636 2.66,5.715 2.66,8.94 0,0.869 -0.086,1.722 -0.218,2.564 L 27.008,21 c 0.064,0.121 0.109,0.254 0.122,0.399 l 1.343,15.356 C 28.499,37.049 28.4,37.34 28.2,37.558 28.001,37.776 27.72,37.9 27.424,37.9 h -44.392 c -0.546,0 -1.001,-0.417 -1.049,-0.961 l -0.185,-2.112 -0.578,-4.207 0.203,-0.757 -0.738,2.752 c -0.476,1.778 -2.094,3.019 -3.934,3.019 h -11.973 c -1.04,0 -2,-0.473 -2.633,-1.298 -0.632,-0.825 -0.841,-1.875 -0.571,-2.878 L -30.4,1.502 c 0.388,-1.447 1.706,-2.458 3.205,-2.458 h 22.484 c 0.581,0 1.052,0.471 1.052,1.052 0,0.581 -0.471,1.053 -1.052,1.053 h -22.484 c -0.548,0 -1.03,0.369 -1.172,0.899 l -8.026,29.955 c -0.099,0.367 -0.023,0.75 0.209,1.051 0.231,0.302 0.582,0.475 0.962,0.475 h 11.973 c 0.889,0 1.671,-0.6 1.901,-1.459 l 0.738,-2.752 c 0.387,-1.448 1.705,-2.459 3.204,-2.459 H 18.31 c 0.889,0 1.67,-0.6 1.901,-1.459 v 0 l 0.735,-2.741 c 0.018,-0.071 0.061,-0.126 0.093,-0.189 0.024,-0.108 0.046,-0.214 0.069,-0.321 -6.414,5.863 -16.391,5.711 -22.596,-0.494 -6.381,-6.381 -6.381,-16.763 0,-23.144 v 0 c 3.19,-3.19 7.38,-4.785 11.572,-4.785 3.117,0 6.234,0.886 8.939,2.652 L 22.7,-7.298 22.447,-7.551 c -0.412,-0.411 -0.412,-1.077 0,-1.489 l 9.83,-9.83 c 0.198,-0.198 0.465,-0.308 0.744,-0.308 0.28,0 0.547,0.11 0.744,0.308 l 5.271,5.272 c 0.412,0.41 0.412,1.077 0,1.488" />
          </g>
        </g>
      </g>
    </g>
  </g>
</svg>
